<?xml version="1.0" encoding="utf-8"?>
<!-- Generator: Adobe Illustrator 19.2.1, SVG Export Plug-In . SVG Version: 6.00 Build 0)  -->
<!DOCTYPE svg PUBLIC "-//W3C//DTD SVG 1.1//EN" "http://www.w3.org/Graphics/SVG/1.1/DTD/svg11.dtd">
<svg version="1.1" id="圖層_1" xmlns="http://www.w3.org/2000/svg" xmlns:xlink="http://www.w3.org/1999/xlink" x="0px" y="0px"
	 viewBox="0 0 550 550" style="enable-background:new 0 0 550 550;" xml:space="preserve">
<style type="text/css">
	.st0{fill:#F7F7F7;}
	.st1{fill:#FBF1E2;}
	.st2{fill:#FFCD33;}
	.st3{fill:#00455B;}
	.st4{fill:#F5844E;}
</style>
<g>
	<circle class="st0" cx="274.7" cy="275" r="272.1"/>
	<circle class="st1" cx="275.3" cy="275" r="272.1"/>
	<g>
		<path class="st2" d="M231.3,197.8c33.2,0,33.2-6.9,66.5-6.9s33.2,6.9,66.5,6.9v77.9c-33.2,0-33.2-6.9-66.5-6.9
			c-33.2,0-33.2,6.9-66.5,6.9V197.8z"/>
		<path class="st3" d="M226.5,375.1L226.5,375.1c-2.6,0-4.8-2.2-4.8-4.8V195.7c0-2.6,2.2-4.8,4.8-4.8l0,0c2.6,0,4.8,2.2,4.8,4.8
			v174.6C231.3,372.9,229.2,375.1,226.5,375.1z"/>
		<circle class="st4" cx="226.5" cy="190.9" r="9.9"/>
	</g>
</g>
</svg>
