<?xml version="1.0" encoding="utf-8"?>
<!-- Generator: Adobe Illustrator 19.2.1, SVG Export Plug-In . SVG Version: 6.00 Build 0)  -->
<!DOCTYPE svg PUBLIC "-//W3C//DTD SVG 1.1//EN" "http://www.w3.org/Graphics/SVG/1.1/DTD/svg11.dtd">
<svg version="1.1" id="圖層_1" xmlns="http://www.w3.org/2000/svg" xmlns:xlink="http://www.w3.org/1999/xlink" x="0px" y="0px"
	 viewBox="0 0 550 550" style="enable-background:new 0 0 550 550;" xml:space="preserve">
<style type="text/css">
	.st0{fill:#F5844E;}
	.st1{fill:#DE5056;}
	.st2{fill:#FFFFFF;}
	.st3{fill:#FFCD33;}
</style>
<g>
	<circle class="st0" cx="275" cy="275" r="272.1"/>
	<g>
		<g>
			<path class="st1" d="M223,281l-29.4,62.3c-0.9,1.9,1,3.9,3.7,3.9l77.7-0.3L223,281z"/>
			<path class="st1" d="M326.5,280.6l29.9,62.1c0.9,1.9-1,3.9-3.7,3.9l-77.7,0.3L326.5,280.6z"/>
		</g>
		<path class="st2" d="M277.8,130.3c-2.3-1.2-5-1.2-7.3,0c-15.3,8.1-72.8,44.3-54.4,124.5c21.2,92.2,21.2,92.2,21.2,92.2l37.7-0.1
			l37.7-0.1c0,0,0,0,20.4-92.3C350.9,174.1,293.1,138.3,277.8,130.3z"/>
		
			<ellipse transform="matrix(1 -3.890358e-03 3.890358e-03 1 -0.8306 1.0695)" class="st1" cx="274.5" cy="214" rx="27.6" ry="27.6"/>
		<ellipse transform="matrix(1 -3.887003e-03 3.887003e-03 1 -0.8299 1.0686)" class="st3" cx="274.5" cy="214" rx="17" ry="17"/>
		<g>
			<path class="st1" d="M277.5,346.9l-19.9,0.1c0,0-17.1,12.1-4.2,33.5c9.1,15,9.7,14.1,9.7,14.1l10.8-8.1l10.1,12.3
				c0,0,33.4-32.6,8.2-51.9L277.5,346.9z"/>
			<path class="st3" d="M276.1,346.9l-8.9,0c0,0-9.4,13.7-1.8,24.3c4.9,6.8,4.3,6.9,4.3,6.9l4.8-4l4.5,6c0,0,17.1-18.5,3.6-33.3
				L276.1,346.9z"/>
		</g>
	</g>
</g>
</svg>
