<?xml version="1.0" encoding="utf-8"?>
<!-- Generator: Adobe Illustrator 19.2.1, SVG Export Plug-In . SVG Version: 6.00 Build 0)  -->
<!DOCTYPE svg PUBLIC "-//W3C//DTD SVG 1.1//EN" "http://www.w3.org/Graphics/SVG/1.1/DTD/svg11.dtd">
<svg version="1.1" id="圖層_1" xmlns="http://www.w3.org/2000/svg" xmlns:xlink="http://www.w3.org/1999/xlink" x="0px" y="0px"
	 viewBox="0 0 550 550" style="enable-background:new 0 0 550 550;" xml:space="preserve">
<style type="text/css">
	.st0{fill:#3AA7C4;}
	.st1{fill:#FFCD33;}
	.st2{fill:#00455B;}
	.st3{fill:#F5844E;}
</style>
<g>
	<circle class="st0" cx="275" cy="275" r="272.1"/>
	<g>
		<g>
			<path class="st1" d="M180.9,154.1c18.1,0,18.1-3.7,36.2-3.7c18.1,0,18.1,3.7,36.2,3.7v42.4c-18.1,0-18.1-3.7-36.2-3.7
				s-18.1,3.7-36.2,3.7V154.1z"/>
			<path class="st2" d="M178.2,250.7L178.2,250.7c-1.4,0-2.6-1.2-2.6-2.6V153c0-1.4,1.2-2.6,2.6-2.6h0c1.4,0,2.6,1.2,2.6,2.6v95.1
				C180.9,249.5,179.7,250.7,178.2,250.7z"/>
			<circle class="st3" cx="178.2" cy="150.4" r="5.4"/>
		</g>
		<g>
			<path class="st1" d="M313.8,154.1c18.1,0,18.1-3.7,36.2-3.7c18.1,0,18.1,3.7,36.2,3.7v42.4c-18.1,0-18.1-3.7-36.2-3.7
				s-18.1,3.7-36.2,3.7V154.1z"/>
			<path class="st2" d="M311.2,250.7L311.2,250.7c-1.4,0-2.6-1.2-2.6-2.6V153c0-1.4,1.2-2.6,2.6-2.6l0,0c1.4,0,2.6,1.2,2.6,2.6v95.1
				C313.8,249.5,312.6,250.7,311.2,250.7z"/>
			<circle class="st3" cx="311.2" cy="150.4" r="5.4"/>
		</g>
		<g>
			<path class="st1" d="M247.3,279.1c18.1,0,18.1-3.7,36.2-3.7s18.1,3.7,36.2,3.7v42.4c-18.1,0-18.1-3.7-36.2-3.7
				s-18.1,3.7-36.2,3.7V279.1z"/>
			<path class="st2" d="M244.7,375.7L244.7,375.7c-1.4,0-2.6-1.2-2.6-2.6V278c0-1.4,1.2-2.6,2.6-2.6l0,0c1.4,0,2.6,1.2,2.6,2.6v95.1
				C247.3,374.5,246.2,375.7,244.7,375.7z"/>
			<circle class="st3" cx="244.7" cy="275.4" r="5.4"/>
		</g>
		<g>
			<path class="st1" d="M380.3,279.1c18.1,0,18.1-3.7,36.2-3.7c18.1,0,18.1,3.7,36.2,3.7v42.4c-18.1,0-18.1-3.7-36.2-3.7
				c-18.1,0-18.1,3.7-36.2,3.7V279.1z"/>
			<path class="st2" d="M377.7,375.7L377.7,375.7c-1.4,0-2.6-1.2-2.6-2.6V278c0-1.4,1.2-2.6,2.6-2.6l0,0c1.4,0,2.6,1.2,2.6,2.6v95.1
				C380.3,374.5,379.1,375.7,377.7,375.7z"/>
			<circle class="st3" cx="377.7" cy="275.4" r="5.4"/>
		</g>
		<g>
			<path class="st1" d="M114.4,279.1c18.1,0,18.1-3.7,36.2-3.7s18.1,3.7,36.2,3.7v42.4c-18.1,0-18.1-3.7-36.2-3.7
				s-18.1,3.7-36.2,3.7V279.1z"/>
			<path class="st2" d="M111.7,375.7L111.7,375.7c-1.4,0-2.6-1.2-2.6-2.6V278c0-1.4,1.2-2.6,2.6-2.6l0,0c1.4,0,2.6,1.2,2.6,2.6v95.1
				C114.4,374.5,113.2,375.7,111.7,375.7z"/>
			<circle class="st3" cx="111.7" cy="275.4" r="5.4"/>
		</g>
	</g>
</g>
</svg>
