<?xml version="1.0" encoding="utf-8"?>
<!-- Generator: Adobe Illustrator 19.2.1, SVG Export Plug-In . SVG Version: 6.00 Build 0)  -->
<!DOCTYPE svg PUBLIC "-//W3C//DTD SVG 1.1//EN" "http://www.w3.org/Graphics/SVG/1.1/DTD/svg11.dtd">
<svg version="1.1" id="圖層_1" xmlns="http://www.w3.org/2000/svg" xmlns:xlink="http://www.w3.org/1999/xlink" x="0px" y="0px"
	 viewBox="0 0 550 550" style="enable-background:new 0 0 550 550;" xml:space="preserve">
<style type="text/css">
	.st0{fill:#274473;}
	.st1{fill:#DE5056;}
	.st2{fill:#FFCD33;}
	.st3{fill:#F7F7F7;}
</style>
<g>
	<circle class="st0" cx="275" cy="275" r="272.1"/>
	<path class="st1" d="M277,413.9L277,413.9c-2.3,0-4.2-1.9-4.2-4.2V258.2c0-2.3,1.9-4.2,4.2-4.2l0,0c2.3,0,4.2,1.9,4.2,4.2v151.5
		C281.2,412,279.3,413.9,277,413.9z"/>
	<g>
		<g>
			
				<image style="overflow:visible;opacity:0.35;" width="128" height="123" xlink:href="34B96DFE6CC6B93D.png"  transform="matrix(1 0 0 1 213.0442 176.0442)">
			</image>
			<g>
				<path class="st2" d="M283.1,189.6l8.4,25.9c0.9,2.7,3.3,4.5,6.1,4.5h27.2c6.2,0,8.8,8,3.8,11.7l-22,16c-2.3,1.6-3.2,4.6-2.3,7.2
					l8.4,25.9c1.9,5.9-4.9,10.9-9.9,7.2l-22-16c-2.3-1.6-5.3-1.6-7.6,0l-22,16c-5.1,3.7-11.8-1.3-9.9-7.2l8.4-25.9
					c0.9-2.7-0.1-5.6-2.3-7.2l-22-16c-5.1-3.7-2.5-11.7,3.8-11.7h27.2c2.8,0,5.3-1.8,6.1-4.5l8.4-25.9
					C272.8,183.7,281.2,183.7,283.1,189.6z"/>
			</g>
		</g>
		<g>
			
				<image style="overflow:visible;opacity:0.35;" width="26" height="41" xlink:href="34B96DFE6CC6B93F.png"  transform="matrix(1 0 0 1 264.0442 138.0442)">
			</image>
			<g>
				<path class="st3" d="M279.8,168.8c-0.7,0.7-1.7,1.2-2.8,1.2c-2.2,0-4-1.8-4-4v-14.5c0-2.2,1.8-4,4-4c2.2,0,4,1.8,4,4V166
					C281,167.1,280.5,168,279.8,168.8z"/>
			</g>
		</g>
		<g>
			
				<image style="overflow:visible;opacity:0.35;" width="41" height="32" xlink:href="34B96DFE6CC6B93A.png"  transform="matrix(1 0 0 1 176.0442 201.0442)">
			</image>
			<g>
				<path class="st3" d="M206.4,222.1c-1,1-2.6,1.5-4,1l-13.8-4.5c-2.1-0.7-3.2-2.9-2.6-5c0.7-2.1,2.9-3.2,5-2.6l13.8,4.5
					c2.1,0.7,3.2,2.9,2.6,5C207.2,221.1,206.8,221.7,206.4,222.1z"/>
			</g>
		</g>
		<g>
			
				<image style="overflow:visible;opacity:0.35;" width="35" height="39" xlink:href="34B96DFE6CC6B93B.png"  transform="matrix(1 0 0 1 210.0442 292.0442)">
			</image>
			<g>
				<path class="st3" d="M225.9,320.2c-1.4,1.4-3.5,1.6-5.2,0.4c-1.8-1.3-2.2-3.8-0.9-5.6l8.5-11.7c1.3-1.8,3.8-2.2,5.6-0.9
					c1.8,1.3,2.2,3.8,0.9,5.6l-8.5,11.7C226.2,319.9,226,320,225.9,320.2z"/>
			</g>
		</g>
		<g>
			
				<image style="overflow:visible;opacity:0.35;" width="35" height="39" xlink:href="34B96DFE6CC6B945.png"  transform="matrix(1 0 0 1 309.0442 292.0442)">
			</image>
			<g>
				<path class="st3" d="M333.7,320.2c-0.1,0.1-0.3,0.3-0.5,0.4c-1.8,1.3-4.3,0.9-5.6-0.9l-8.5-11.7c-1.3-1.8-0.9-4.3,0.9-5.6
					c1.8-1.3,4.3-0.9,5.6,0.9l8.5,11.7C335.3,316.6,335.1,318.8,333.7,320.2z"/>
			</g>
		</g>
		<g>
			
				<image style="overflow:visible;opacity:0.35;" width="41" height="32" xlink:href="34B96DFE6CC6B947.png"  transform="matrix(1 0 0 1 337.0442 201.0442)">
			</image>
			<g>
				<path class="st3" d="M367,217.6c-0.4,0.4-1,0.8-1.6,1l-13.8,4.5c-2.1,0.7-4.3-0.5-5-2.6c-0.7-2.1,0.5-4.3,2.6-5L363,211
					c2.1-0.7,4.3,0.5,5,2.6C368.5,215.1,368,216.6,367,217.6z"/>
			</g>
		</g>
	</g>
</g>
</svg>
