<?xml version="1.0" encoding="utf-8"?>
<!-- Generator: Adobe Illustrator 18.0.0, SVG Export Plug-In . SVG Version: 6.00 Build 0)  -->
<!DOCTYPE svg PUBLIC "-//W3C//DTD SVG 1.1//EN" "http://www.w3.org/Graphics/SVG/1.1/DTD/svg11.dtd">
<svg version="1.1" id="圖層_1" xmlns="http://www.w3.org/2000/svg" xmlns:xlink="http://www.w3.org/1999/xlink" x="0px" y="0px"
	 viewBox="0 0 550 550" enable-background="new 0 0 550 550" xml:space="preserve">
<circle fill="#F7F7F7" cx="275" cy="275" r="273.4"/>
<g>
	<g>
		
			<linearGradient id="SVGID_2_" gradientUnits="userSpaceOnUse" x1="1715.0955" y1="4070.5415" x2="1596.6969" y2="4154.4883" gradientTransform="matrix(0.7377 -0.6751 0.6751 0.7377 -3831.8901 -1607.8499)">
			<stop  offset="0" style="stop-color:#F6F6F5"/>
			<stop  offset="0.4701" style="stop-color:#CCCDCE"/>
			<stop  offset="1" style="stop-color:#F7F7F7"/>
		</linearGradient>
		<path fill="url(#SVGID_2_)" d="M177.1,258.3c2.9,2,4.2,4.4,5.9,8.4c0.7,3.7,0.5,4.8-1.2,7c-1.9,2.5-4.5,4-7.4,4.1
			c-2.1,0.1-2.6-2.7-2.4-4.6c0.2-2.1,1-4.2,1.1-6.4c0.2-2.8-1.5-4-2.4-3s-1.4,5.6-1.4,5.6c-0.1,0.8-0.5,1.9-1.1,2
			c-1.2,0.3-2.1-0.8-2.1-2.3c0-3.8,0.4-8.9,3.3-11.5C170.9,256.3,173.7,255.9,177.1,258.3z"/>
		
			<linearGradient id="SVGID_3_" gradientUnits="userSpaceOnUse" x1="1681.3334" y1="4022.9233" x2="1562.9348" y2="4106.8696" gradientTransform="matrix(0.7377 -0.6751 0.6751 0.7377 -3831.8901 -1607.8499)">
			<stop  offset="0" style="stop-color:#F6F6F5"/>
			<stop  offset="0.4701" style="stop-color:#CCCDCE"/>
			<stop  offset="1" style="stop-color:#F7F7F7"/>
		</linearGradient>
		<path fill="url(#SVGID_3_)" d="M99.5,333.6c1.8-0.6,2.8,0.9,3.5,2.2c1,1.6-0.9,1.8-1.8,2.6c-1,0.6-2.3,1.3-3.3,2.5
			c1,3.4,4,0.7,5.8-0.4c0.8-0.5,2.2-1.6,3.5-0.2c1.4,1.5,1.1,2.7-0.6,4.4c-1.6,1.5-2.6,1.9-5.6,2.6c-3.2,0.8-6.4,0.4-8.9-2.3
			c-2.3-2.4-2.5-5.4-0.4-7.8C93.8,334.9,96.7,334.4,99.5,333.6z"/>
		
			<linearGradient id="SVGID_4_" gradientUnits="userSpaceOnUse" x1="1699.2947" y1="4048.2559" x2="1580.8961" y2="4132.2026" gradientTransform="matrix(0.7377 -0.6751 0.6751 0.7377 -3831.8901 -1607.8499)">
			<stop  offset="0" style="stop-color:#F6F6F5"/>
			<stop  offset="0.4701" style="stop-color:#CCCDCE"/>
			<stop  offset="1" style="stop-color:#F7F7F7"/>
		</linearGradient>
		<path fill="url(#SVGID_4_)" d="M135.2,313.6c1.8,1.1,3.9,1.4,5.8,0.2c1.5-0.9,2.1,0.2,2.7,1c0.4,0.5,1.9,2.2,1.1,2.4
			c-1,0.2-2.2-0.1-3-0.4c-0.8-0.2-1.9-1.2-2.3,0.2c-0.3,1.1,0.4,1.6,1,2.3c2.3,2.1,6.3,2.3,7.9,0.4c2.3-2.7,2.1-8.6-0.5-10.8
			c-1.4,1.4,0.9,4.7-1,6.9c-3.6-3.5-3-4.2-3.9-8c-0.4-1.5-0.2-4.4-2.6-3.7c-1.8,0.5-0.7,2.7-0.1,4.2c0,0.1,0,0.2,0.1,0.4
			c0.2,1-0.3,2.4-1.1,2.6c-1.2,0.4-1.8,0.1-2.6-0.3c-1.4-0.9-2-0.1-2.5,0.6C133.5,312.4,134.5,313.2,135.2,313.6z M151,278.1
			c2.2,1.2,4.7,4.3,4.7,6.3c-0.1,3-1.4,5.7-4.1,8.7c-1.5,1.6-3,3.3-4.5,4.9c-1,1.1-1.5,2.2-1.4,3.2c0,0.8,0.4,1.6,1.1,2.2
			c1.9,1.7,3.9,4,5.8,6.2c0.8,0.9,1.5,1.8,2.3,2.6l0.3,0.4c2.6,2.9,5,5.6,4.1,9.8c-0.2,1.1-2.1,2.9-3,3.9c-0.2,0.2-0.4,0.4-0.6,0.6
			c-0.2,0.2-0.4,0.4-0.6,0.6c-3.3,3-7.2,3-12-0.1c-3.6-2.3-6.5-5.4-9.6-8.6l-0.8-0.9c-2.1-2.2-3.6-0.8-4.7,0.1
			c-0.6,0.5-1.2,1-1.7,1.5c-1.5,1.4-3,2.7-4.7,3.7c-2,1.2-4,1.1-5.5-0.2c-1.9-1.6-3.5-2.9-3.5-5.9c-0.1-6.5,3.1-11,6.8-16.1l1.1-1.5
			c2.7-3.7,5.8-6.7,9.2-9.9l1-0.9c0.8-0.7,1.5-1.4,2.3-2.2c3.3-3,6.9-6.1,11.4-8.1l0.4-0.2C147.2,277.4,148.5,276.7,151,278.1z
			 M142.4,296.9c1.3-1,0.8-2.5,0.2-3.8c-1.3-1-2.6-0.7-3.7,0.3c-1.3,1.2-1.6,2.7-0.2,4.1C140.2,298.9,141.5,297.6,142.4,296.9z
			 M128.2,310.6c0.5-1.4,0.4-2.4-0.7-3.7c-1.2-0.9-2.1-0.4-2.9,0.2c-0.8,0.6-1.5,2-1.5,2.7c-0.1,1.2,0.2,2.5,1.5,2.8
			C125.7,312.7,127.8,312,128.2,310.6z"/>
		
			<linearGradient id="SVGID_5_" gradientUnits="userSpaceOnUse" x1="1699.8434" y1="4049.03" x2="1581.4448" y2="4132.9766" gradientTransform="matrix(0.7377 -0.6751 0.6751 0.7377 -3831.8901 -1607.8499)">
			<stop  offset="0" style="stop-color:#F6F6F5"/>
			<stop  offset="0.4701" style="stop-color:#CCCDCE"/>
			<stop  offset="1" style="stop-color:#F7F7F7"/>
		</linearGradient>
		<path fill="url(#SVGID_5_)" d="M112.5,278.7c20.2-21.8,43.6-15.9,56.8-0.2c6.5,7.8,11.9,16.1,10.6,27.1
			c-1.4,11.5-6.4,21.1-16.5,30.1c-27.8,24.8-45.3,13.9-56.1,0.3C95.3,321.1,95.6,296.9,112.5,278.7z M158.5,284.5
			c0.1-3.5-3.5-7.4-6.1-8.9c-3.7-2-6.2-0.9-8.9,0.3l-0.4,0.2c-4.9,2.2-8.8,5.4-12.2,8.6c-0.8,0.7-1.6,1.5-2.3,2.2l-1,0.9
			c-3.3,3.1-6.7,6.3-9.5,10.3l-1,1.5c-3.8,5.3-7.4,10.3-7.4,17.8c0,4.3,2.5,6.4,4.5,8c2.5,2.1,5.8,2.3,8.8,0.4
			c2-1.2,3.6-2.7,5.1-4.1c0.6-0.5,1.1-1,1.7-1.5c0.2-0.2,0.4-0.4,0.6-0.5c0,0,0.1,0.1,0.2,0.2l0.8,0.9c3,3.2,6.2,6.6,10.1,9.1
			c7.4,4.7,12.5,2.5,15.5-0.2c0.3-0.2,0.5-0.5,0.8-0.8c0.1-0.2,0.3-0.3,0.5-0.5c1.4-1.3,3.4-3.3,3.8-5.3c1.2-5.6-2-9.1-4.8-12.3
			l-0.3-0.4c-0.7-0.8-1.5-1.7-2.2-2.6c-2-2.3-4-4.7-6-6.5c-0.1-0.1-0.1-0.2-0.1-0.2c0-0.2,0.1-0.6,0.7-1.2c1.5-1.6,3-3.3,4.5-4.9
			C155.8,292.6,158.3,289.3,158.5,284.5z"/>
		<g>
			
				<linearGradient id="SVGID_6_" gradientUnits="userSpaceOnUse" x1="1470.9038" y1="4049.7874" x2="1689.2844" y2="4109.3638" gradientTransform="matrix(0.7377 -0.6751 0.6751 0.7377 -3831.8901 -1607.8499)">
				<stop  offset="0" style="stop-color:#949396"/>
				<stop  offset="0.6606" style="stop-color:#C2C1C2"/>
				<stop  offset="1" style="stop-color:#949396"/>
			</linearGradient>
			<path fill="url(#SVGID_6_)" d="M143.5,275.9l-0.4,0.2c-4.9,2.2-8.8,5.4-12.2,8.6c-0.8,0.7-1.6,1.5-2.3,2.2l-1,0.9
				c-3.3,3.1-6.7,6.3-9.5,10.3l-1,1.5c-3.8,5.3-7.4,10.3-7.4,17.8c0,4.3,2.5,6.4,4.5,8c2.5,2.1,5.8,2.3,8.8,0.4
				c2-1.2,3.6-2.7,5.1-4.1c0.6-0.5,1.1-1,1.7-1.5c0.2-0.2,0.4-0.4,0.6-0.5c0,0,0.1,0.1,0.2,0.2l0.8,0.9c3,3.2,6.2,6.6,10.1,9.1
				c7.4,4.7,12.5,2.5,15.5-0.2c0.3-0.2,0.5-0.5,0.8-0.8c0.1-0.2,0.3-0.3,0.5-0.5c1.4-1.3,3.4-3.3,3.8-5.3c1.2-5.6-2-9.1-4.8-12.3
				l-0.3-0.4c-0.7-0.8-1.5-1.7-2.2-2.6c-2-2.3-4-4.7-6-6.5c-0.1-0.1-0.1-0.2-0.1-0.2c0-0.2,0.1-0.6,0.7-1.2c1.5-1.6,3-3.3,4.5-4.9
				c2.2-2.4,4.6-5.7,4.8-10.5c0.1-3.5-3.5-7.4-6.1-8.9C148.7,273.6,146.1,274.7,143.5,275.9z M155.7,284.4c-0.1,3-1.4,5.7-4.1,8.7
				c-1.5,1.6-3,3.3-4.5,4.9c-1,1.1-1.5,2.2-1.4,3.2c0,0.8,0.4,1.6,1.1,2.2c1.9,1.7,3.9,4,5.8,6.2c0.8,0.9,1.5,1.8,2.3,2.6l0.3,0.4
				c2.6,2.9,5,5.6,4.1,9.8c-0.2,1.1-2.1,2.9-3,3.9c-0.2,0.2-0.4,0.4-0.6,0.6c-0.2,0.2-0.4,0.4-0.6,0.6c-3.3,3-7.2,3-12-0.1
				c-3.6-2.3-6.5-5.4-9.6-8.6l-0.8-0.9c-2.1-2.2-3.6-0.8-4.7,0.1c-0.6,0.5-1.2,1-1.7,1.5c-1.5,1.4-3,2.7-4.7,3.7
				c-2,1.2-4,1.1-5.5-0.2c-1.9-1.6-3.5-2.9-3.5-5.9c-0.1-6.5,3.1-11,6.8-16.1l1.1-1.5c2.7-3.7,5.8-6.7,9.2-9.9l1-0.9
				c0.8-0.7,1.5-1.4,2.3-2.2c3.3-3,6.9-6.1,11.4-8.1l0.4-0.2c2.5-1.1,3.9-1.7,6.3-0.4C153.2,279.3,155.7,282.4,155.7,284.4z"/>
			
				<linearGradient id="SVGID_7_" gradientUnits="userSpaceOnUse" x1="1630.5106" y1="4081.6533" x2="1650.8331" y2="4087.1975" gradientTransform="matrix(0.7377 -0.6751 0.6751 0.7377 -3831.8901 -1607.8499)">
				<stop  offset="0" style="stop-color:#949396"/>
				<stop  offset="0.6606" style="stop-color:#C2C1C2"/>
				<stop  offset="1" style="stop-color:#949396"/>
			</linearGradient>
			<path fill="url(#SVGID_7_)" d="M139,293.4c-1.3,1.2-1.6,2.7-0.2,4.1c1.4,1.4,2.7,0.1,3.6-0.6c1.3-1,0.8-2.5,0.2-3.8
				C141.3,292.1,140,292.4,139,293.4z"/>
			
				<linearGradient id="SVGID_8_" gradientUnits="userSpaceOnUse" x1="1595.9707" y1="4089.4795" x2="1648.145" y2="4103.7134" gradientTransform="matrix(0.7377 -0.6751 0.6751 0.7377 -3831.8901 -1607.8499)">
				<stop  offset="0" style="stop-color:#949396"/>
				<stop  offset="0.6606" style="stop-color:#C2C1C2"/>
				<stop  offset="1" style="stop-color:#949396"/>
			</linearGradient>
			<path fill="url(#SVGID_8_)" d="M146.9,315.8c-3.6-3.5-3-4.2-3.9-8c-0.4-1.5-0.2-4.4-2.6-3.7c-1.8,0.5-0.7,2.7-0.1,4.2
				c0,0.1,0,0.2,0.1,0.4c0.2,1-0.3,2.4-1.1,2.6c-1.2,0.4-1.8,0.1-2.6-0.3c-1.4-0.9-2-0.1-2.5,0.6c-0.7,0.9,0.2,1.7,0.9,2.1
				c1.8,1.1,3.9,1.4,5.8,0.2c1.5-0.9,2.1,0.2,2.7,1c0.4,0.5,1.9,2.2,1.1,2.4c-1,0.2-2.2-0.1-3-0.4c-0.8-0.2-1.9-1.2-2.3,0.2
				c-0.3,1.1,0.4,1.6,1,2.3c2.3,2.1,6.3,2.3,7.9,0.4c2.3-2.7,2.1-8.6-0.5-10.8C146.5,310.3,148.9,313.6,146.9,315.8z"/>
			
				<linearGradient id="SVGID_9_" gradientUnits="userSpaceOnUse" x1="1608.849" y1="4081.8638" x2="1630.4904" y2="4087.7678" gradientTransform="matrix(0.7377 -0.6751 0.6751 0.7377 -3831.8901 -1607.8499)">
				<stop  offset="0" style="stop-color:#949396"/>
				<stop  offset="0.6606" style="stop-color:#C2C1C2"/>
				<stop  offset="1" style="stop-color:#949396"/>
			</linearGradient>
			<path fill="url(#SVGID_9_)" d="M124.6,307c-0.8,0.6-1.5,2-1.5,2.7c-0.1,1.2,0.2,2.5,1.5,2.8c1.2,0.3,3.2-0.5,3.7-1.9
				c0.5-1.4,0.4-2.4-0.7-3.7C126.3,306,125.4,306.4,124.6,307z"/>
			
				<linearGradient id="SVGID_10_" gradientUnits="userSpaceOnUse" x1="1294.2803" y1="4017.5239" x2="1743.9993" y2="4140.2119" gradientTransform="matrix(0.7377 -0.6751 0.6751 0.7377 -3831.8901 -1607.8499)">
				<stop  offset="0" style="stop-color:#949396"/>
				<stop  offset="0.6606" style="stop-color:#C2C1C2"/>
				<stop  offset="1" style="stop-color:#949396"/>
			</linearGradient>
			<path fill="url(#SVGID_10_)" d="M174.9,253.9c-5.2-2.1-8.6,1.6-9.9,4.9c-1.2,2.9-1.6,5.8-2,9.2c-3.6-2.6-7.4-4.2-11.6-5.3
				c-9.7-2.6-17.7-2.5-26.1,2.3c-10.6,6.1-21.8,18.7-26.4,30.8c-5,13.2-4.6,22.7,0.9,34.9c-1.2,0.4-1.2,0.4-2.3,0.7
				c-1.8,0.5-3.3,1-5,2c-4.2,2.3-6.8,7.4-5.2,10.7c3.4,6.9,11.1,8.2,18.1,5.1c3-1.3,6.1-3.3,6.1-3.3s2.7,2,4.7,3
				c8,4,16,5.8,24.7,3.3c4.9-1.4,9.6-3.4,13.9-6l17.7,19.3c5.1,5.6,13.8,6,19.4,0.9c5.6-5.1,6-13.8,0.9-19.4l-18-19.6
				c2.3-3.3,4.3-6.9,5.9-10.8c3.2-7.6,3.2-15,1-22.6c-1.3-4.6-3.1-8.2-5.1-12.5c8.5-3.3,10.4-6.7,9.8-12.9
				C185.8,261.3,182,256.8,174.9,253.9z M103.7,340.5c0.8-0.5,2.2-1.6,3.5-0.2c1.4,1.5,1.1,2.7-0.6,4.4c-1.6,1.5-2.6,1.9-5.6,2.6
				c-3.2,0.8-6.4,0.4-8.9-2.3c-2.3-2.4-2.5-5.4-0.4-7.8c2.1-2.4,5-2.8,7.7-3.7c1.8-0.6,2.8,0.9,3.5,2.2c1,1.6-0.9,1.8-1.8,2.6
				c-1,0.6-2.3,1.3-3.3,2.5C98.9,344.3,101.9,341.6,103.7,340.5z M187.4,348.4c3.3,3.6,3,9.1-0.5,12.4c-3.6,3.3-9.1,3-12.4-0.5
				L159,343.4c0.9-0.6,1.8-1.3,2.6-2l15.3,16.7c2,2.2,5.5,2.4,7.7,0.3c2.2-2,2.4-5.5,0.3-7.7l-15.4-16.8c0.7-0.8,1.5-1.7,2.2-2.5
				L187.4,348.4z M169.3,278.5c6.5,7.8,11.9,16.1,10.6,27.1c-1,8.6-4.1,16.1-9.8,23.2l-0.3,0.3c0,0,0,0,0,0c-1.9,2.2-4,4.4-6.4,6.6
				c-2.2,2-4.4,3.7-6.5,5.3c0,0-0.1-0.1-0.1-0.1l-0.9,0.9c-23.5,16.8-38.9,6.6-48.7-5.7c-11.9-15-11.6-39.2,5.3-57.4
				C132.7,256.9,156.1,262.8,169.3,278.5z M182.9,266.7c0.7,3.7,0.5,4.8-1.2,7c-1.9,2.5-4.5,4-7.4,4.1c-2.1,0.1-2.6-2.7-2.4-4.6
				c0.2-2.1,1-4.2,1.1-6.4c0.2-2.8-1.5-4-2.4-3c-0.9,1-1.4,5.6-1.4,5.6c-0.1,0.8-0.5,1.9-1.1,2c-1.2,0.3-2.1-0.8-2.1-2.3
				c0-3.8,0.4-8.9,3.3-11.5c1.4-1.3,4.2-1.7,7.6,0.6C180,260.3,181.2,262.7,182.9,266.7z"/>
		</g>
	</g>
	<g>
		
			<linearGradient id="SVGID_11_" gradientUnits="userSpaceOnUse" x1="912.4712" y1="1346.7572" x2="990.5948" y2="1444.7756" gradientTransform="matrix(0.979 -0.2039 0.2039 0.979 -994.1294 -1014.91)">
			<stop  offset="0" style="stop-color:#F6F6F5"/>
			<stop  offset="0.4701" style="stop-color:#CCCDCE"/>
			<stop  offset="1" style="stop-color:#F7F7F7"/>
		</linearGradient>
		<path fill="url(#SVGID_11_)" d="M249.4,163.6c1.2,4.3,2.4,8.6,2.8,13c0.5,5-2.2,8-7.5,9.7c-4.8,0.6-11-1.3-13-2.9c0,0,0,0,0,0
			c0,0-0.1-0.1-0.1-0.1c0,0,0,0-0.1-0.1c-1.9-1.6-3.5-4.2-3.9-7.1c-1.5-9,1.2-12.5,2.8-13.8c0.1-0.1,0.2-0.2,0.4-0.2
			c5.2-3.2,10.7-4.1,16.4-1.4C248.4,161.3,249.2,163,249.4,163.6z M246.2,171.6c-0.2-4.4-2-7.3-5.8-8.4c-3.2-0.9-7.3,1.3-8.9,4.3
			c-1.3,2.8-1.2,8.4,1.5,10.9c2.2,2,6.7,3,9.6,1.7C245.3,178.9,246.8,175,246.2,171.6z"/>
		
			<linearGradient id="SVGID_12_" gradientUnits="userSpaceOnUse" x1="929.9585" y1="1332.8193" x2="1008.0821" y2="1430.8378" gradientTransform="matrix(0.979 -0.2039 0.2039 0.979 -994.1294 -1014.91)">
			<stop  offset="0" style="stop-color:#F6F6F5"/>
			<stop  offset="0.4701" style="stop-color:#CCCDCE"/>
			<stop  offset="1" style="stop-color:#F7F7F7"/>
		</linearGradient>
		<path fill="url(#SVGID_12_)" d="M247.6,156.1c0.3,1.3,0.2,0.6,0.7,2.5c-5.2-3-10.2-2.3-14.7-0.5c-2.5,1-3.2,1.4-3.1-1.1
			c0.3-6.2,0.7-12.4,0.5-18.5c-0.1-2.9,0.3-5.4,0-8.9c-0.3-4.2-0.2-8.5-0.3-12.8c0-0.8,0.2-1.7,0.9-2c1.1-0.5,2.1,0.5,2.7,1.2
			c3.7,4,5.1,8.9,6.9,14C244.2,138.4,245.4,147.3,247.6,156.1z"/>
		
			<linearGradient id="SVGID_13_" gradientUnits="userSpaceOnUse" x1="882.4906" y1="1370.6526" x2="960.6142" y2="1468.6711" gradientTransform="matrix(0.979 -0.2039 0.2039 0.979 -994.1294 -1014.91)">
			<stop  offset="0" style="stop-color:#F6F6F5"/>
			<stop  offset="0.4701" style="stop-color:#CCCDCE"/>
			<stop  offset="1" style="stop-color:#F7F7F7"/>
		</linearGradient>
		<path fill="url(#SVGID_13_)" d="M225.7,193.7c-1.1,0.1-1.4,0.9-1.3,1.9c0.3,0.9,1,1.1,1.8,0.9c0.8-0.3,1.7-0.9,1.3-1.9
			C227.3,194.2,226.3,193.7,225.7,193.7z M219.5,202.9c-1-1.9-1.8-5.3-1.7-7.2c0,0,0.9-0.4,2.1-1c4.4-2.2,6.9-5.7,8.3-10.4
			c0.1-0.3,0.2-0.6,0.3-0.9c0.6,0.6,1.2,1.1,1.8,1.6c0,0,0.1,0,0.1,0.1c0,0,0,0-0.1-0.1c0.1,0.1,0.2,0.2,0.3,0.3c0,0,0,0,0.1,0
			c0.2,0.2,0.4,0.4,0.6,0.6c6.1,3.6,12.5,4.6,19,1.2c3.1-1.7,3.5,0,3.7,2.3c0.7,3.7,1.1,6.2,1.7,9.7c1.7,8.3-22.1,14.4-32,16.6
			l-1.6,0.3c-1.7,0.4-2.7,0.5-2.7,0.5s-31.5,5.7-34.3,6c-2,0.2-3.1-5.2-3.6-8.3c0-0.2,0-0.5,0-0.8c-1.1-5.8-1.5-12.8-2.9-18.7
			c-0.4-1.7-0.7-3.5-1.1-5.3c2.3,3.1,6,5.5,10.8,4.8c3.3,0.3,7.7-1.8,8.9-4c1.6-3.1,1.8-6.7,1.1-10.6c1.8,2.9,3.3,6.2,4.7,9.3
			c0.3,0.6,0.5,1.1,0.8,1.6c1.9,3.4,4.2,4.5,7.9,5.7c2.2,0.2,2.8-0.3,2.7,1.1c-0.3,3.6,0.4,7.4-1.1,10.9c-1.2,3-4.3,4.2-7.5,3.5
			c-3.9-0.9-7.2-8.3-8.8-6.3c-1.1,1.8,3.8,9.1,8.7,9.5c6.6,0.6,10.7-3.3,11.3-10c2.3,2.8,2.1,2.4,3.8,2.9c4.4,1.5,8.8,0.4,10.7-3.6
			c2.6-5.5,3.4-15,1.7-12c0,0-2.2,6.9-5,11C225.9,207,221.4,206.7,219.5,202.9z M221.3,197.2c-0.7,0.1-1.2,0.5-1,1.3
			c0.2,0.8,0.2,1.5,1.3,1.3c0.8-0.1,1.3-0.6,1.2-1.2C222.7,197.9,222.4,197.1,221.3,197.2z M226.4,201.4c-0.1-0.7-0.7-1.1-1.3-1.1
			c-0.9,0-0.7,0.8-0.7,1.4c0,0.7,0.4,1.3,1.1,1.1C226.1,202.7,226.5,202.1,226.4,201.4z M210,200.9c-0.1-0.7-0.4-1.5-1.5-1.4
			c-0.7,0.1-1.2,0.6-1,1.3c0.2,0.8,0.2,1.5,1.3,1.3C209.6,202,210.1,201.5,210,200.9z M206.1,204.8c0-0.5-0.9-1.4-1.6-1.1
			c-1,0.5-1.4,0.6-1.1,1.9c0.1,0.6,0.9,1.3,1.6,1C206.3,206.2,206,206.2,206.1,204.8z M202.5,200.5c0.8-0.3,1.7-0.9,1.3-1.9
			c-0.2-0.5-1.2-1-1.8-0.9c-1.1,0-1.4,0.9-1.3,1.9C201,200.5,201.7,200.7,202.5,200.5z"/>
		
			<linearGradient id="SVGID_14_" gradientUnits="userSpaceOnUse" x1="892.7697" y1="1362.4598" x2="970.8933" y2="1460.4784" gradientTransform="matrix(0.979 -0.2039 0.2039 0.979 -994.1294 -1014.91)">
			<stop  offset="0" style="stop-color:#F6F6F5"/>
			<stop  offset="0.4701" style="stop-color:#CCCDCE"/>
			<stop  offset="1" style="stop-color:#F7F7F7"/>
		</linearGradient>
		<path fill="url(#SVGID_14_)" d="M221.9,177.7c2.7,0.1,4.9,3.1,4.5,5.7c-4.9-0.4-9.1,3.3-7.9,6.9c0.8,2.6-0.5,2.8-1.5,3.3
			c-2.4,0.4-3.9,1.4-4.5-1c-0.8-3.8-2.7-5.2-7-2.4c0-0.1-0.1-0.2-0.1-0.3c-0.6-1.5-0.7-3.4,0.8-4.6c1.4-1.2,2.9,0.1,4.1,0.7
			c2,1,3.3,0.6,3.9-1.6c0.1-0.5,0.2-1,0.4-1.4C215.7,180.1,218.7,177.6,221.9,177.7z"/>
		
			<linearGradient id="SVGID_15_" gradientUnits="userSpaceOnUse" x1="910.7495" y1="1348.1294" x2="988.8731" y2="1446.1479" gradientTransform="matrix(0.979 -0.2039 0.2039 0.979 -994.1294 -1014.91)">
			<stop  offset="0" style="stop-color:#F6F6F5"/>
			<stop  offset="0.4701" style="stop-color:#CCCDCE"/>
			<stop  offset="1" style="stop-color:#F7F7F7"/>
		</linearGradient>
		<path fill="url(#SVGID_15_)" d="M220.9,145.8c1.9-0.8,2.6,0,3.1,3c0,0,0.2,5.7,0.2,5.7c0.3,2-0.1,3.3,0,7.5c0.1,2.8,0.2,4.8,0,7.7
			c-0.2,2.1-0.4,3.2-0.5,5.6c-3.3,0-3.7-1.3-3.7-3.9c-0.2-7.1,0.7-14.3-0.7-21.3C218.7,147.7,219.4,146.4,220.9,145.8z"/>
		
			<linearGradient id="SVGID_16_" gradientUnits="userSpaceOnUse" x1="902.7323" y1="1354.5193" x2="980.856" y2="1452.5378" gradientTransform="matrix(0.979 -0.2039 0.2039 0.979 -994.1294 -1014.91)">
			<stop  offset="0" style="stop-color:#F6F6F5"/>
			<stop  offset="0.4701" style="stop-color:#CCCDCE"/>
			<stop  offset="1" style="stop-color:#F7F7F7"/>
		</linearGradient>
		<path fill="url(#SVGID_16_)" d="M217.3,161.6c0.2,5.3,0.2,3.3-2.2,4.8c-1.7,1.1-1.3,3.6,0.1,4c2.7,0.9,2.2,2.1,2.6,4.7
			c-0.9,0.8-1.3,0.7-3.1,2.2c-1.9,1.4-2.2,1.6-3.8,3.2c-0.5-0.5-1.3-1.9-1.7-3.7c-0.4-1.5-1.8-3.6,0-4.6c1.6-0.9,2.1-2.8,1.5-4
			c-1.1-2.1-3.8-0.6-5.1-0.6c0,0-1-1.4-1.6-3.7c2.9-2.7,0.9-6.5-0.2-9.6c-1.3-3.6-1.8-3.4,1.9-4.5c2.7-0.5,3.5-0.7,4.7-0.8
			c1.8-0.1,2.3,0.5,2.3,0.9c0.2,1.6,0.2,3.2,0.6,4.8c0.4,1.8,0.1,3.7,0.8,5.4C214.5,161.7,215.4,161.9,217.3,161.6z"/>
		
			<linearGradient id="SVGID_17_" gradientUnits="userSpaceOnUse" x1="895.3912" y1="1360.3705" x2="973.5148" y2="1458.3889" gradientTransform="matrix(0.979 -0.2039 0.2039 0.979 -994.1294 -1014.91)">
			<stop  offset="0" style="stop-color:#F6F6F5"/>
			<stop  offset="0.4701" style="stop-color:#CCCDCE"/>
			<stop  offset="1" style="stop-color:#F7F7F7"/>
		</linearGradient>
		<path fill="url(#SVGID_17_)" d="M207,179.4c0.4,0.6,0.8,1.5-0.1,2.3c-1,0.4-1.8,0.8-2.4-1c-0.6-1.8-1.7-3.4-2.8-6.3
			c-1.9-4.7-2.4-5.8-3.9-9.2c-1.4-3.1-3.4-5.9-4.4-9.2c-0.3-0.9-1.2-1.9,0.3-2.5c1.1-0.5,1.7,0.4,2.1,1.1c1.2,2.2,2.3,4.5,3.5,6.8
			l4,8.7C204.8,173.3,205.6,176.4,207,179.4z"/>
		
			<linearGradient id="SVGID_18_" gradientUnits="userSpaceOnUse" x1="880.0731" y1="1372.5795" x2="958.1967" y2="1470.5979" gradientTransform="matrix(0.979 -0.2039 0.2039 0.979 -994.1294 -1014.91)">
			<stop  offset="0" style="stop-color:#F6F6F5"/>
			<stop  offset="0.4701" style="stop-color:#CCCDCE"/>
			<stop  offset="1" style="stop-color:#F7F7F7"/>
		</linearGradient>
		<path fill="url(#SVGID_18_)" d="M194.3,177.6c0.6,1.9,1,2.2,1.6,5.7c-0.3,3.4-0.7,7.5-5.4,8.3c-4.3,0.8-7.8,0-10.3-2.3
			c-3.3-4.1-4.1-6.9-3.1-11.7c1.1-5.4,7.7-8.3,12.7-5.5C192.1,173.5,193.6,175.3,194.3,177.6z M192.5,182c-0.5-5.3-4.4-8.9-8.9-7.3
			c-3.4,1.3-3.7,5.2-3.5,6.8c0.9,6.2,4.9,7,8.2,6.5C192.4,187.3,192.7,184.5,192.5,182z"/>
		
			<linearGradient id="SVGID_19_" gradientUnits="userSpaceOnUse" x1="890.0738" y1="1364.6086" x2="968.1974" y2="1462.6271" gradientTransform="matrix(0.979 -0.2039 0.2039 0.979 -994.1294 -1014.91)">
			<stop  offset="0" style="stop-color:#F6F6F5"/>
			<stop  offset="0.4701" style="stop-color:#CCCDCE"/>
			<stop  offset="1" style="stop-color:#F7F7F7"/>
		</linearGradient>
		<path fill="url(#SVGID_19_)" d="M194.1,171.6c-2-1.6-4.9-2.2-8-2.7c-3.3,0.2-6.2,1.2-8.5,3.4c-1.2,1.1-2,2.2-2.5,3.4
			c-0.7-4.6-1.4-9.2-2.1-14.1c-1.1-7.7-1.2-15.4-1.1-23.2c0-0.1,0-0.3,0-0.5c0.1-0.7,0.5-1.6,1.2-1.8c0.9-0.4,2-0.7,3.1,1
			c5.6,8.9,10.7,18.1,15,27.8C192.2,167.1,193.1,169.4,194.1,171.6z"/>
		
			<linearGradient id="SVGID_20_" gradientUnits="userSpaceOnUse" x1="900.0521" y1="1356.6555" x2="978.1757" y2="1454.6741" gradientTransform="matrix(0.979 -0.2039 0.2039 0.979 -994.1294 -1014.91)">
			<stop  offset="0" style="stop-color:#F6F6F5"/>
			<stop  offset="0.4701" style="stop-color:#CCCDCE"/>
			<stop  offset="1" style="stop-color:#F7F7F7"/>
		</linearGradient>
		<path fill="url(#SVGID_20_)" d="M230.3,185C230.3,185,230.3,185.1,230.3,185C230.3,185.1,230.3,185,230.3,185
			C230.3,185,230.3,185,230.3,185z"/>
		<g>
			
				<linearGradient id="SVGID_21_" gradientUnits="userSpaceOnUse" x1="924.0383" y1="1361.4092" x2="969.1656" y2="1418.6675" gradientTransform="matrix(0.979 -0.2039 0.2039 0.979 -994.1294 -1014.91)">
				<stop  offset="0" style="stop-color:#949396"/>
				<stop  offset="0.6606" style="stop-color:#C2C1C2"/>
				<stop  offset="1" style="stop-color:#949396"/>
			</linearGradient>
			<path fill="url(#SVGID_21_)" d="M240.4,163.2c-3.2-0.9-7.3,1.3-8.9,4.3c-1.3,2.8-1.2,8.4,1.5,10.9c2.2,2,6.7,3,9.6,1.7
				c2.6-1.2,4.1-5.1,3.5-8.5C246,167.1,244.1,164.3,240.4,163.2z"/>
			
				<linearGradient id="SVGID_22_" gradientUnits="userSpaceOnUse" x1="903.6119" y1="1377.5079" x2="948.7393" y2="1434.7662" gradientTransform="matrix(0.979 -0.2039 0.2039 0.979 -994.1294 -1014.91)">
				<stop  offset="0" style="stop-color:#949396"/>
				<stop  offset="0.6606" style="stop-color:#C2C1C2"/>
				<stop  offset="1" style="stop-color:#949396"/>
			</linearGradient>
			<path fill="url(#SVGID_22_)" d="M225.7,193.7c-1.1,0.1-1.4,0.9-1.3,1.9c0.3,0.9,1,1.1,1.8,0.9c0.8-0.3,1.7-0.9,1.3-1.9
				C227.3,194.2,226.3,193.7,225.7,193.7z"/>
			
				<linearGradient id="SVGID_23_" gradientUnits="userSpaceOnUse" x1="899.4434" y1="1380.7932" x2="944.5707" y2="1438.0516" gradientTransform="matrix(0.979 -0.2039 0.2039 0.979 -994.1294 -1014.91)">
				<stop  offset="0" style="stop-color:#949396"/>
				<stop  offset="0.6606" style="stop-color:#C2C1C2"/>
				<stop  offset="1" style="stop-color:#949396"/>
			</linearGradient>
			<path fill="url(#SVGID_23_)" d="M225.1,200.3c-0.9,0-0.7,0.8-0.7,1.4c0,0.7,0.4,1.3,1.1,1.1c0.6-0.1,1-0.7,0.9-1.5
				C226.3,200.7,225.7,200.3,225.1,200.3z"/>
			
				<linearGradient id="SVGID_24_" gradientUnits="userSpaceOnUse" x1="899.4063" y1="1380.8225" x2="944.5336" y2="1438.0808" gradientTransform="matrix(0.979 -0.2039 0.2039 0.979 -994.1294 -1014.91)">
				<stop  offset="0" style="stop-color:#949396"/>
				<stop  offset="0.6606" style="stop-color:#C2C1C2"/>
				<stop  offset="1" style="stop-color:#949396"/>
			</linearGradient>
			<path fill="url(#SVGID_24_)" d="M221.3,197.2c-0.7,0.1-1.2,0.5-1,1.3c0.2,0.8,0.2,1.5,1.3,1.3c0.8-0.1,1.3-0.6,1.2-1.2
				C222.7,197.9,222.4,197.1,221.3,197.2z"/>
			
				<linearGradient id="SVGID_25_" gradientUnits="userSpaceOnUse" x1="891.544" y1="1387.019" x2="936.6713" y2="1444.2773" gradientTransform="matrix(0.979 -0.2039 0.2039 0.979 -994.1294 -1014.91)">
				<stop  offset="0" style="stop-color:#949396"/>
				<stop  offset="0.6606" style="stop-color:#C2C1C2"/>
				<stop  offset="1" style="stop-color:#949396"/>
			</linearGradient>
			<path fill="url(#SVGID_25_)" d="M208.8,202.1c0.8-0.1,1.3-0.6,1.2-1.2c-0.1-0.7-0.4-1.5-1.5-1.4c-0.7,0.1-1.2,0.6-1,1.3
				C207.8,201.6,207.7,202.2,208.8,202.1z"/>
			
				<linearGradient id="SVGID_26_" gradientUnits="userSpaceOnUse" x1="910.1971" y1="1372.3179" x2="955.3244" y2="1429.5763" gradientTransform="matrix(0.979 -0.2039 0.2039 0.979 -994.1294 -1014.91)">
				<stop  offset="0" style="stop-color:#949396"/>
				<stop  offset="0.6606" style="stop-color:#C2C1C2"/>
				<stop  offset="1" style="stop-color:#949396"/>
			</linearGradient>
			<path fill="url(#SVGID_26_)" d="M249,142.5c-2.3-9-2.5-9.9-4.3-14.6c-1.8-4.8-3.8-9-7.1-13.1c-2.6-3.4-7.3-4-10.2-2
				c-2.1,1.5-4.3,4.2-4.5,6.7c-0.6,7.9,2.3,15.4-2.5,24c0,0,0,0,0,0.1c0,0,0,0.1,0,0.1c-9.6,2.4-19.2,4.8-28.8,7.1
				c-2.6-5.3-4.3-11.2-7.7-16.2c-2.9-4.1-7.7-3.7-10.1-2.7c-2.7,1.1-4.2,2.9-4.4,5.8c-0.2,2-0.4,3.7-0.4,5.5
				c0.2,8.4,0.8,15.8,1.6,23.7c0.6,5.4,1.5,10.7,2.5,16.1c0.2,1.1,0.4,2.1,0.6,3.2c0.7,3.5,0.9,7.8,1.7,11.1
				c0.1,0.3,0.1,0.5,0.2,0.8c0.1,1.6,2.2,29.5,6.8,29c0.1,0,0.1,0,0.1,0l13.2-2.8c0,0,5.2-1.1,12.5-2.7l5.4,26.1
				c1.5,7.4,8.8,12.2,16.3,10.7c7.4-1.5,12.2-8.8,10.7-16.3l-5.5-26.4c10.3-2.2,18.9-4.1,20.5-4.5c4.3-0.9,4.1-4.7,4.1-4.7l-0.7-8
				c-0.2-1.3-0.4-2.4-0.6-3.5c-0.2-1.1-0.3-2.3-0.5-3.9c-1.3-7.9-2.1-16.6-4.1-24.8C252.1,158.4,251.4,151.5,249,142.5z
				 M230.5,156.9c0.3-6.2,0.7-12.4,0.5-18.5c-0.1-2.9,0.3-5.4,0-8.9c-0.3-4.2-0.2-8.5-0.3-12.8c0-0.8,0.2-1.7,0.9-2
				c1.1-0.5,2.1,0.5,2.7,1.2c3.7,4,5.1,8.9,6.9,14c3,8.5,4.1,17.4,6.3,26.2c0.3,1.3,0.2,0.6,0.7,2.5c-5.2-3-10.2-2.3-14.7-0.5
				C231.1,159.1,230.4,159.5,230.5,156.9z M219.9,171.5c-0.2-7.1,0.7-14.3-0.7-21.3c-0.5-2.5,0.2-3.7,1.7-4.3c1.9-0.8,2.6,0,3.1,3
				c0,0,0.2,5.7,0.2,5.7c0.3,2-0.1,3.3,0,7.5c0.1,2.8,0.2,4.8,0,7.7c-0.2,2.1-0.4,3.2-0.5,5.6C220.4,175.4,220,174.1,219.9,171.5z
				 M218.5,190.3c0.8,2.6-0.5,2.8-1.5,3.3c-2.4,0.4-3.9,1.4-4.5-1c-0.8-3.8-2.7-5.2-7-2.4c0-0.1-0.1-0.2-0.1-0.3
				c-0.6-1.5-0.7-3.4,0.8-4.6c1.4-1.2,2.9,0.1,4.1,0.7c2,1,3.3,0.6,3.9-1.6c0.1-0.5,0.2-1,0.4-1.4c1-2.8,4-5.3,7.3-5.2
				c2.7,0.1,4.9,3.1,4.5,5.7C221.5,183,217.4,186.7,218.5,190.3z M203.6,154.3c-1.3-3.6-1.8-3.4,1.9-4.5c2.7-0.5,3.5-0.7,4.7-0.8
				c1.8-0.1,2.3,0.5,2.3,0.9c0.2,1.6,0.2,3.2,0.6,4.8c0.4,1.8,0.1,3.7,0.8,5.4c0.6,1.6,1.5,1.8,3.4,1.5c0.2,5.3,0.2,3.3-2.2,4.8
				c-1.7,1.1-1.3,3.6,0.1,4c2.7,0.9,2.2,2.1,2.6,4.7c-0.9,0.8-1.3,0.7-3.1,2.2c-1.9,1.4-2.2,1.6-3.8,3.2c-0.5-0.5-1.3-1.9-1.7-3.7
				c-0.4-1.5-1.8-3.6,0-4.6c1.6-0.9,2.1-2.8,1.5-4c-1.1-2.1-3.8-0.6-5.1-0.6c0,0-1-1.4-1.6-3.7C206.7,161.1,204.7,157.3,203.6,154.3
				z M193.6,153.5c1.1-0.5,1.7,0.4,2.1,1.1c1.2,2.2,2.3,4.5,3.5,6.8l4,8.7c1.6,3.1,2.4,6.2,3.8,9.2c0.4,0.6,0.8,1.5-0.1,2.3
				c-1,0.4-1.8,0.8-2.4-1c-0.6-1.8-1.7-3.4-2.8-6.3c-1.9-4.7-2.4-5.8-3.9-9.2c-1.4-3.1-3.4-5.9-4.4-9.2
				C193,155.1,192.1,154.1,193.6,153.5z M172.9,161.6c-1.1-7.7-1.2-15.4-1.1-23.2c0-0.1,0-0.3,0-0.5c0.1-0.7,0.5-1.6,1.2-1.8
				c0.9-0.4,2-0.7,3.1,1c5.6,8.9,10.7,18.1,15,27.8c1,2.2,1.9,4.4,2.8,6.7c-2-1.6-4.9-2.2-8-2.7c-3.3,0.2-6.2,1.2-8.5,3.4
				c-1.2,1.1-2,2.2-2.5,3.4C174.4,171.1,173.7,166.5,172.9,161.6z M195.9,183.3c-0.3,3.4-0.7,7.5-5.4,8.3c-4.3,0.8-7.8,0-10.3-2.3
				c-3.3-4.1-4.1-6.9-3.1-11.7c1.1-5.4,7.7-8.3,12.7-5.5c2.3,1.3,3.8,3.1,4.5,5.4C194.9,179.5,195.3,179.8,195.9,183.3z
				 M235.2,240.5c1,4.7-2.1,9.4-6.8,10.4c-4.7,1-9.4-2.1-10.4-6.8l-4.9-23.7c1-0.2,2.1-0.5,3.2-0.7l4.9,23.8c0.6,3,3.5,4.9,6.5,4.3
				s4.9-3.5,4.3-6.5l-5-23.9c1.1-0.2,2.1-0.5,3.2-0.7L235.2,240.5z M253.9,189.4c0.7,3.7,1.1,6.2,1.7,9.7c1.7,8.3-22.1,14.4-32,16.6
				l-1.6,0.3c-1.7,0.4-2.7,0.5-2.7,0.5s-31.5,5.7-34.3,6c-2,0.2-3.1-5.2-3.6-8.3c0-0.2,0-0.5,0-0.8c-1.1-5.8-1.5-12.8-2.9-18.7
				c-0.4-1.7-0.7-3.5-1.1-5.3c2.3,3.1,6,5.5,10.8,4.8c3.3,0.3,7.7-1.8,8.9-4c1.6-3.1,1.8-6.7,1.1-10.6c1.8,2.9,3.3,6.2,4.7,9.3
				c0.3,0.6,0.5,1.1,0.8,1.6c1.9,3.4,4.2,4.5,7.9,5.7c2.2,0.2,2.8-0.3,2.7,1.1c-0.3,3.6,0.4,7.4-1.1,10.9c-1.2,3-4.3,4.2-7.5,3.5
				c-3.9-0.9-7.2-8.3-8.8-6.3c-1.1,1.8,3.8,9.1,8.7,9.5c6.6,0.6,10.7-3.3,11.3-10c2.3,2.8,2.1,2.4,3.8,2.9c4.4,1.5,8.8,0.4,10.7-3.6
				c2.6-5.5,3.4-15,1.7-12c0,0-2.2,6.9-5,11c-2.3,3.5-6.8,3.2-8.7-0.6c-1-1.9-1.8-5.3-1.7-7.2c0,0,0.9-0.4,2.1-1
				c4.4-2.2,6.9-5.7,8.3-10.4c0.1-0.3,0.2-0.6,0.3-0.9c0.6,0.6,1.2,1.1,1.8,1.6c0,0,0,0,0,0c0,0,0,0,0,0c0.1,0.1,0.2,0.2,0.3,0.3
				c0,0,0,0,0.1,0c0.2,0.2,0.4,0.4,0.6,0.6c6.1,3.6,12.5,4.6,19,1.2C253.3,185.5,253.7,187.1,253.9,189.4z M252.2,176.6
				c0.5,5-2.2,8-7.5,9.7c-4.8,0.6-11-1.3-13-2.9c0,0,0,0,0,0c0,0-0.1-0.1-0.1-0.1c0,0,0,0-0.1-0.1c-1.9-1.6-3.5-4.2-3.9-7.1
				c-1.5-9,1.2-12.5,2.8-13.8c0.1-0.1,0.2-0.2,0.4-0.2c5.2-3.2,10.7-4.1,16.4-1.4c1.3,0.6,2.1,2.3,2.3,2.9
				C250.6,167.8,251.7,172.2,252.2,176.6z"/>
			
				<linearGradient id="SVGID_27_" gradientUnits="userSpaceOnUse" x1="886.8732" y1="1390.7003" x2="932.0005" y2="1447.9586" gradientTransform="matrix(0.979 -0.2039 0.2039 0.979 -994.1294 -1014.91)">
				<stop  offset="0" style="stop-color:#949396"/>
				<stop  offset="0.6606" style="stop-color:#C2C1C2"/>
				<stop  offset="1" style="stop-color:#949396"/>
			</linearGradient>
			<path fill="url(#SVGID_27_)" d="M204.5,203.8c-1,0.5-1.4,0.6-1.1,1.9c0.1,0.6,0.9,1.3,1.6,1c1.3-0.5,1-0.5,1.1-1.9
				C206.1,204.3,205.1,203.4,204.5,203.8z"/>
			
				<linearGradient id="SVGID_28_" gradientUnits="userSpaceOnUse" x1="889.2403" y1="1388.8347" x2="934.3676" y2="1446.093" gradientTransform="matrix(0.979 -0.2039 0.2039 0.979 -994.1294 -1014.91)">
				<stop  offset="0" style="stop-color:#949396"/>
				<stop  offset="0.6606" style="stop-color:#C2C1C2"/>
				<stop  offset="1" style="stop-color:#949396"/>
			</linearGradient>
			<path fill="url(#SVGID_28_)" d="M202.4,200.5c0.8-0.3,1.7-0.9,1.3-1.9c-0.2-0.5-1.2-1-1.8-0.9c-1.1,0-1.4,0.9-1.3,1.9
				C201,200.5,201.7,200.7,202.4,200.5z"/>
			
				<linearGradient id="SVGID_29_" gradientUnits="userSpaceOnUse" x1="891.8872" y1="1386.7485" x2="937.0145" y2="1444.007" gradientTransform="matrix(0.979 -0.2039 0.2039 0.979 -994.1294 -1014.91)">
				<stop  offset="0" style="stop-color:#949396"/>
				<stop  offset="0.6606" style="stop-color:#C2C1C2"/>
				<stop  offset="1" style="stop-color:#949396"/>
			</linearGradient>
			<path fill="url(#SVGID_29_)" d="M183.6,174.7c-3.4,1.3-3.7,5.2-3.5,6.8c0.9,6.2,4.9,7,8.2,6.5c4.1-0.7,4.3-3.6,4.1-6
				C192,176.7,188.1,173.1,183.6,174.7z"/>
		</g>
	</g>
	<g>
		
			<linearGradient id="SVGID_30_" gradientUnits="userSpaceOnUse" x1="-2016.635" y1="-1009.0084" x2="-2031.5157" y2="-930.076" gradientTransform="matrix(0.8639 0.5037 -0.5037 0.8639 1607.9628 2015.15)">
			<stop  offset="0" style="stop-color:#F6F6F5"/>
			<stop  offset="0.4701" style="stop-color:#CCCDCE"/>
			<stop  offset="1" style="stop-color:#F7F7F7"/>
		</linearGradient>
		<path fill="url(#SVGID_30_)" d="M379.1,121.8c1.4,2.3,1.6,7.9-0.7,11.7c-0.5,0.9-1.1,1.9-1.5,2.2c-0.4,0.2-0.7,0.2-1.1,0
			c-0.1-0.1-0.2-0.1-0.3-0.2c0.2-0.9,1.2-2.6,1.7-3.5c2.6-4.6,0.9-9.5-2.3-13.5c-0.5-0.6-1.8-1.4-0.9-2.1
			C376.6,117.7,377.7,119.4,379.1,121.8z"/>
		
			<linearGradient id="SVGID_31_" gradientUnits="userSpaceOnUse" x1="-2016.8217" y1="-1009.0436" x2="-2031.7024" y2="-930.1113" gradientTransform="matrix(0.8639 0.5037 -0.5037 0.8639 1607.9628 2015.15)">
			<stop  offset="0" style="stop-color:#F6F6F5"/>
			<stop  offset="0.4701" style="stop-color:#CCCDCE"/>
			<stop  offset="1" style="stop-color:#F7F7F7"/>
		</linearGradient>
		<path fill="url(#SVGID_31_)" d="M380.3,133.7c4.2-8.5,1.1-16.3-7.1-19.8c-0.7-0.3-1.1-0.6-1.4-1.3c-0.2-0.5,0.4-1.1,2.3-0.5
			c4.5,1.5,7.1,4.4,8.4,6.3c1.4,2,0.5,0.6,1.5,2.6c0,0,0.4,1.4,0.7,2.4c0,0,0,0,0,0c0.3,2.4-1,9.4-2,11.5c-1,2.1-1.7,3.4-3.3,2.5
			C378.4,136.8,379.4,135.3,380.3,133.7z"/>
		
			<linearGradient id="SVGID_32_" gradientUnits="userSpaceOnUse" x1="-2005.4187" y1="-1006.8939" x2="-2020.2994" y2="-927.9615" gradientTransform="matrix(0.8639 0.5037 -0.5037 0.8639 1607.9628 2015.15)">
			<stop  offset="0" style="stop-color:#F6F6F5"/>
			<stop  offset="0.4701" style="stop-color:#CCCDCE"/>
			<stop  offset="1" style="stop-color:#F7F7F7"/>
		</linearGradient>
		<path fill="url(#SVGID_32_)" d="M386.2,138c-0.4,0.8-0.9,1.7-1.9,1.5c-0.2,0-0.4,0-0.6-0.1c-0.9-0.4,0-1.6,0.5-2.7
			c0.7-1.4,1-2,1.8-4.5c1.8-7.9,0.6-9.3,1.4-9.3C389.2,125.9,388.6,133.3,386.2,138z"/>
		
			<linearGradient id="SVGID_33_" gradientUnits="userSpaceOnUse" x1="-1995.4873" y1="-1005.0216" x2="-2010.368" y2="-926.0892" gradientTransform="matrix(0.8639 0.5037 -0.5037 0.8639 1607.9628 2015.15)">
			<stop  offset="0" style="stop-color:#F6F6F5"/>
			<stop  offset="0.4701" style="stop-color:#CCCDCE"/>
			<stop  offset="1" style="stop-color:#F7F7F7"/>
		</linearGradient>
		<path fill="url(#SVGID_33_)" d="M364.8,179.4c-0.2,1.3-1,2.9-3.2,3c-2.3-0.4-2.8-0.7-4.6-1.7c-0.5-0.6-1.5-0.9-2.7-2.5
			c-1.2-2.1-1-3.6,0.9-4.8c1.9-1.2,2.6,0.8,3.4,2c0.9,1.4,2.3,2,3.7,2.5C363.2,178.3,364.9,178.2,364.8,179.4z"/>
		
			<linearGradient id="SVGID_34_" gradientUnits="userSpaceOnUse" x1="-1996.2155" y1="-1005.1588" x2="-2011.0961" y2="-926.2264" gradientTransform="matrix(0.8639 0.5037 -0.5037 0.8639 1607.9628 2015.15)">
			<stop  offset="0" style="stop-color:#F6F6F5"/>
			<stop  offset="0.4701" style="stop-color:#CCCDCE"/>
			<stop  offset="1" style="stop-color:#F7F7F7"/>
		</linearGradient>
		<path fill="url(#SVGID_34_)" d="M361.3,174.9c-3.1-2-3.5-4-1.4-5.8c0.6-0.5,1.2-1.1,1.9-0.5c0.6,0.4,0.3,1.1,0.1,1.7
			c-0.3,1-1.2,2.2-0.2,3c1.1,0.8,1.6-1.1,2.2-1.8c0.6-0.7,1.3-0.9,2-0.7c1.1,0.3,1.1,1.3,1,2.2c-0.2,1.1-0.2,2.4-1.7,2.7
			C363.9,175.9,362.5,175.8,361.3,174.9z"/>
		
			<linearGradient id="SVGID_35_" gradientUnits="userSpaceOnUse" x1="-2017.5608" y1="-1009.183" x2="-2032.4415" y2="-930.2506" gradientTransform="matrix(0.8639 0.5037 -0.5037 0.8639 1607.9628 2015.15)">
			<stop  offset="0" style="stop-color:#F6F6F5"/>
			<stop  offset="0.4701" style="stop-color:#CCCDCE"/>
			<stop  offset="1" style="stop-color:#F7F7F7"/>
		</linearGradient>
		<path fill="url(#SVGID_35_)" d="M360.3,152.2c-1.2,7.6-5.2,13.1-12.9,15.4c-4.2,1.2-8.4-2.1-8.6-7.1c-0.2-3.9,0.5-7.7,3-11.6
			c1.8-2.8,3.9-4.5,6.8-6.2c3.1-1.7,6.2-0.7,9,1C360.8,145.6,360.8,149.1,360.3,152.2z M354.2,157.2c0.2-0.3,1.2-1.9,1.9-3.2
			c0.9-1.7,1.5-3.8-0.1-5.7c-1.7-1.9-3.7-1.6-5.9-1.2c-3.9,0.8-7.5,6.9-7.8,9.7c-0.2,1.7-0.4,4.1,1.5,5.2c2.1,1.2,4.3,1.3,6.1-0.1
			C351.9,160.2,351,161.6,354.2,157.2z"/>
		
			<linearGradient id="SVGID_36_" gradientUnits="userSpaceOnUse" x1="-1980.4425" y1="-1002.1852" x2="-1995.3232" y2="-923.2529" gradientTransform="matrix(0.8639 0.5037 -0.5037 0.8639 1607.9628 2015.15)">
			<stop  offset="0" style="stop-color:#F6F6F5"/>
			<stop  offset="0.4701" style="stop-color:#CCCDCE"/>
			<stop  offset="1" style="stop-color:#F7F7F7"/>
		</linearGradient>
		<path fill="url(#SVGID_36_)" d="M380,169.8c-4.2,5.5-3.6,10.8,2.6,14c1.4,0.7,1.7,0.5,0.6,1.5c-2.5,2.2-5.7,1.5-8.4-0.1
			c-1.3-0.8-3-3.3-2.6-6.3c0.8-7.2,6.3-13.3,12.4-15.3c3.3-1.1,6.8,0.1,6.8,4.8C388.1,165.8,382.3,166.7,380,169.8z"/>
		
			<linearGradient id="SVGID_37_" gradientUnits="userSpaceOnUse" x1="-1999.2205" y1="-1005.7254" x2="-2014.1012" y2="-926.793" gradientTransform="matrix(0.8639 0.5037 -0.5037 0.8639 1607.9628 2015.15)">
			<stop  offset="0" style="stop-color:#F6F6F5"/>
			<stop  offset="0.4701" style="stop-color:#CCCDCE"/>
			<stop  offset="1" style="stop-color:#F7F7F7"/>
		</linearGradient>
		<path fill="url(#SVGID_37_)" d="M368.3,174.6c1.6-3.9-0.6-7.8-4.2-5.6c0.5-3.9-3.2-3.3-5.1-1.4c-1.9,1.9-2.8,3.5-2.8,3.5
			c-4.5,0.5-8,6.1,0,11.6c6.3,3.7,12.5,0.4,9.8-5C367.4,177.1,367.7,176,368.3,174.6z M380.5,162.4c-5.7,3.1-9,8.3-10.7,14.8
			c-0.6,2.1-0.5,4.9,0.5,7.6c2.7,3.9,4.8,4.9,9.8,4.7c-1.4,2.8-3.4,4.4-5.6,5.8c-0.3,0.1-0.8,0.4-1.4,0.8c0,0,0,0,0,0
			c-0.4,0.2-0.8,0.4-1.1,0.7c-0.9,0.4-1.8,0.8-2.8,0.9c-3.1,0.5-7.1,0-13.7-0.9c-9.1-1.3-17.8-8.7-18.7-9.5c-1.1-1-2-2.1-2.7-3.3
			c-3.3-4.9-3.9-10.5-2.8-16.7c0.7-4.2,2.8-8.9,4.8-11.2c-1.1,4.3,0.9,10.6,4.7,13.1c2.6,1.7,8.8,1.4,12-0.6
			c4.6-2.8,6.4-5.8,9.3-12.4c3.2-7.2-1-13.4-7.3-15.8c-0.7-0.3-1.6-0.3-2.6-0.7c9-6.4,26.9-2.4,34.5,6.1c4.1,6,4.2,8.1,4.7,11
			c0.1,1.5,0.1,2.2,0.1,2.9c0,0.7-0.1,1.3-0.2,2.5C387.7,160.7,383.9,160.4,380.5,162.4z"/>
		<g>
			
				<linearGradient id="SVGID_38_" gradientUnits="userSpaceOnUse" x1="-2035.4891" y1="-989.9825" x2="-1989.2018" y2="-947.1098" gradientTransform="matrix(0.8639 0.5037 -0.5037 0.8639 1607.9628 2015.15)">
				<stop  offset="0" style="stop-color:#949396"/>
				<stop  offset="0.6606" style="stop-color:#C2C1C2"/>
				<stop  offset="1" style="stop-color:#949396"/>
			</linearGradient>
			<path fill="url(#SVGID_38_)" d="M366,177.7c1.4-0.5,1.7-1.7,2.3-3.1c1.6-3.9-0.6-7.8-4.2-5.6c0.5-3.9-3.2-3.3-5.1-1.4
				c-1.9,1.9-2.8,3.5-2.8,3.5c-4.5,0.5-8,6.1,0,11.6C362.5,186.3,368.7,183.1,366,177.7z M360,169.1c0.6-0.5,1.2-1.1,1.9-0.5
				c0.6,0.4,0.3,1.1,0.1,1.7c-0.3,1-1.2,2.2-0.2,3c1.1,0.8,1.6-1.1,2.2-1.8c0.6-0.7,1.3-0.9,2-0.7c1.1,0.3,1.1,1.3,1,2.2
				c-0.2,1.1-0.2,2.4-1.7,2.7c-1.4,0.3-2.7,0.2-3.9-0.7C358.3,172.9,357.8,170.9,360,169.1z M361.6,182.4c-2.3-0.4-2.8-0.7-4.6-1.7
				c-0.5-0.6-1.5-0.9-2.7-2.5c-1.2-2.1-1-3.6,0.9-4.8c1.9-1.2,2.6,0.8,3.4,2c0.9,1.4,2.3,2,3.7,2.5c0.8,0.3,2.6,0.2,2.4,1.5
				C364.6,180.7,363.8,182.4,361.6,182.4z"/>
			
				<linearGradient id="SVGID_39_" gradientUnits="userSpaceOnUse" x1="-2038.611" y1="-986.6121" x2="-1992.3236" y2="-943.7393" gradientTransform="matrix(0.8639 0.5037 -0.5037 0.8639 1607.9628 2015.15)">
				<stop  offset="0" style="stop-color:#949396"/>
				<stop  offset="0.6606" style="stop-color:#C2C1C2"/>
				<stop  offset="1" style="stop-color:#949396"/>
			</linearGradient>
			<path fill="url(#SVGID_39_)" d="M343.7,162c2.1,1.2,4.3,1.3,6.1-0.1c2-1.6,1.1-0.3,4.3-4.6c0.2-0.3,1.2-1.9,1.9-3.2
				c0.9-1.7,1.5-3.8-0.1-5.7c-1.7-1.9-3.7-1.6-5.9-1.2c-3.9,0.8-7.5,6.9-7.8,9.7C342.1,158.5,341.8,160.9,343.7,162z"/>
			
				<linearGradient id="SVGID_40_" gradientUnits="userSpaceOnUse" x1="-2039.1644" y1="-986.0145" x2="-1992.8771" y2="-943.1417" gradientTransform="matrix(0.8639 0.5037 -0.5037 0.8639 1607.9628 2015.15)">
				<stop  offset="0" style="stop-color:#949396"/>
				<stop  offset="0.6606" style="stop-color:#C2C1C2"/>
				<stop  offset="1" style="stop-color:#949396"/>
			</linearGradient>
			<path fill="url(#SVGID_40_)" d="M390.2,180.2c5.3-10.4,4.8-20.9,4.3-23.6c0-4-3.7-10.3-6.6-13.7c-0.9-1.2-0.8-1.4-0.1-2.8
				c4.7-9,3.6-17.9-3.6-25.1c-2.8-2.8-6.5-5.1-10.8-5.1c-3.4,0-4.6,1.9-3.1,4.9c0.8,1.7,2,3.3,3,4.9c4,6.5,3.9,8.6-0.6,14.8
				c-1.2-0.1-2.5-0.2-3.8-0.4c-9-1.3-18.6,1.5-25,6.9c-7.9,6.7-14.2,14.6-15.6,26.2c-0.7,5.3-0.8,10,1.5,14.6
				c0.7,1.3,1.5,2.5,2.4,3.6c0.5,0.6,1,1.2,1.5,1.8c0,0.1-0.1,0.1-0.1,0.2l-13.8,23.7c-3.8,6.6-1.6,15,5,18.8c6.6,3.8,15,1.6,18.8-5
				l13.8-23.7c0.2-0.3,0.3-0.5,0.4-0.8c5.7,0.8,10.7-0.4,12.9-1.1c0.8-0.2,1.2-0.4,1.2-0.4c3-0.5,5.4-2.1,7.6-4.1
				C384.2,190.8,387.3,185.8,390.2,180.2z M387.3,122.9c1.9,3,1.2,10.4-1.1,15.1c-0.4,0.8-0.9,1.7-1.9,1.5c-0.2,0-0.4,0-0.6-0.1
				c-0.9-0.4,0-1.6,0.5-2.7c0.7-1.4,1-2,1.8-4.5C387.8,124.2,386.5,122.9,387.3,122.9z M373.2,113.9c-0.7-0.3-1.1-0.6-1.4-1.3
				c-0.2-0.5,0.4-1.1,2.3-0.5c4.5,1.5,7.1,4.4,8.4,6.3c1.4,2,0.5,0.6,1.5,2.6c0,0,0.4,1.4,0.7,2.4c0,0,0,0,0,0c0.3,2.4-1,9.4-2,11.5
				c-1,2.1-1.7,3.4-3.3,2.5c-0.8-0.5,0.2-2,1-3.6C384.5,125.2,381.4,117.4,373.2,113.9z M375,118.4c-0.5-0.6-1.8-1.4-0.9-2.1
				c2.5,1.3,3.5,3,4.9,5.4c1.4,2.3,1.6,7.9-0.7,11.7c-0.5,0.9-1.1,1.9-1.5,2.2c-0.4,0.2-0.7,0.2-1.1,0c-0.1-0.1-0.2-0.1-0.3-0.2
				c0.2-0.9,1.2-2.6,1.7-3.5C379.9,127.3,378.2,122.4,375,118.4z M341.8,148.8c1.8-2.8,3.9-4.5,6.8-6.2c3.1-1.7,6.2-0.7,9,1
				c3.2,2,3.2,5.4,2.7,8.5c-1.2,7.6-5.2,13.1-12.9,15.4c-4.2,1.2-8.4-2.1-8.6-7.1C338.6,156.5,339.2,152.6,341.8,148.8z
				 M328.6,223.6c-4.2-2.4-5.6-7.8-3.2-12l12-20.6c0.8,0.7,1.7,1.3,2.6,2l-11.8,20.2c-1.5,2.6-0.6,6,2,7.5s6,0.6,7.5-2l12-20.6
				c1,0.4,2.1,0.8,3.1,1.1l-12.3,21.1C338.2,224.6,332.8,226,328.6,223.6z M374.6,195.3c-0.3,0.1-0.8,0.4-1.4,0.8c0,0,0,0,0,0
				c-0.4,0.2-0.8,0.4-1.1,0.7c-0.9,0.4-1.8,0.8-2.8,0.9c-3.1,0.5-7.1,0-13.7-0.9c-9.1-1.3-17.8-8.7-18.7-9.5c-1.1-1-2-2.1-2.7-3.3
				c-3.3-4.9-3.9-10.5-2.8-16.7c0.7-4.2,2.8-8.9,4.8-11.2c-1.1,4.3,0.9,10.6,4.7,13.1c2.6,1.7,8.8,1.4,12-0.6
				c4.6-2.8,6.4-5.8,9.3-12.4c3.2-7.2-1-13.4-7.3-15.8c-0.7-0.3-1.6-0.3-2.6-0.7c9-6.4,26.9-2.4,34.5,6.1c4.1,6,4.2,8.1,4.7,11
				c0.1,1.5,0.1,2.2,0.1,2.9c0,0.7-0.1,1.3-0.2,2.5c-3.8-1.5-7.6-1.8-11,0.2c-5.7,3.1-9,8.3-10.7,14.8c-0.6,2.1-0.5,4.9,0.5,7.6
				c2.7,3.9,4.8,4.9,9.8,4.7C378.8,192.3,376.8,193.9,374.6,195.3z M383.1,185.3c-2.5,2.2-5.7,1.5-8.4-0.1c-1.3-0.8-3-3.3-2.6-6.3
				c0.8-7.2,6.3-13.3,12.4-15.3c3.3-1.1,6.8,0.1,6.8,4.8c-3.2-2.6-9-1.8-11.3,1.4c-4.2,5.5-3.6,10.8,2.6,14
				C383.9,184.5,384.3,184.3,383.1,185.3z"/>
		</g>
	</g>
	<g>
		
			<linearGradient id="SVGID_41_" gradientUnits="userSpaceOnUse" x1="-485.06" y1="-350.7086" x2="-397.4109" y2="-283.1758" gradientTransform="matrix(0.9831 0.1833 -0.1833 0.9831 649.9091 740.8648)">
			<stop  offset="0" style="stop-color:#F6F6F5"/>
			<stop  offset="0.4701" style="stop-color:#CCCDCE"/>
			<stop  offset="1" style="stop-color:#F7F7F7"/>
		</linearGradient>
		<path fill="url(#SVGID_41_)" d="M328.2,398.3c0,0,0.1,0.6,0,1.3c-0.2,0.8-0.7,1.7-2.3,1.4L234,384.3c-2.1-0.4-2.3-1.7-2.1-2.7
			c0.1-0.6,0.4-1.1,0.4-1.1c0.7-1.1,1.4-2.3,2.1-3.7c2.4-4.9,4.5-9.8,7-14.5c4.6-9,8.9-18.1,12.4-27.6l0,0
			c1.6-3.2,6.3-13.1,7.6-15.9c2-4.4,5.2-9.2,5.2-9.2c3.2,0.2,10.7,1.6,13.8,2.2c10.8,2.1,20.9,3.7,32.4,5.7c3.3,0.6,5,1.2,8.7,1.9
			c-0.1,1.6,0.5,3.5,0.5,5.1c0,2.1,0,6.4,0.2,8.1c1.2,11.9,2.8,20.8,2.9,32.8c0.1,9.3,1.8,18.5,2.5,27.9
			C327.6,394.9,327.9,396.6,328.2,398.3z M304.1,366.6c3.2,0.6,4-1.6,4.3-3.8c1-6.3,1.7-8.1,2.7-16.3c0.1-2.5,1.2-8-1.6-8.5
			c-1.3-0.2-2.5-0.5-3.8-0.7c-0.2,0-0.4-0.1-0.7-0.1c-8-1.3-15.9-2.2-23.9-3.2c-0.2,0-0.4,0-0.5-0.1c-0.8-0.1-1.7-0.2-2.5-0.3
			c-3.4-0.5-5.7,0.6-6.7,4.1c-1.8,6.2-4.3,12.3-6,18.5c-0.7,3.2,0.5,3.6,2.3,4.1C279.6,363.3,292,364.4,304.1,366.6z M304.5,331.9
			c1.8,0.3,3.3-0.5,3.6-2.3c0.2-1.5-0.8-2.5-2.4-2.9c-1.6-0.1-3.2,0.7-3.6,2C301.8,330,302.7,331.6,304.5,331.9z M278.5,327.1
			c1.7,0.3,3.5,0.1,4.2-2c0.2-1.9-1.3-2.7-2.4-2.7c-1.3-0.1-3.2-0.4-3.7,1.7C276.2,325.7,277,326.8,278.5,327.1z"/>
		
			<linearGradient id="SVGID_42_" gradientUnits="userSpaceOnUse" x1="-466.6756" y1="-374.5692" x2="-379.0266" y2="-307.0364" gradientTransform="matrix(0.9831 0.1833 -0.1833 0.9831 649.9091 740.8648)">
			<stop  offset="0" style="stop-color:#F6F6F5"/>
			<stop  offset="0.4701" style="stop-color:#CCCDCE"/>
			<stop  offset="1" style="stop-color:#F7F7F7"/>
		</linearGradient>
		<path fill="url(#SVGID_42_)" d="M276.9,295.5c-0.8,4.7-7.3,9.9-11.4,9.2c-5.4-0.9-10.7-8.3-9.5-13.4c0.8-3.3,7.9-6.8,12.4-6.1
			C272.8,286,277.6,291.7,276.9,295.5z"/>
		
			<linearGradient id="SVGID_43_" gradientUnits="userSpaceOnUse" x1="-442.269" y1="-406.2458" x2="-354.62" y2="-338.713" gradientTransform="matrix(0.9831 0.1833 -0.1833 0.9831 649.9091 740.8648)">
			<stop  offset="0" style="stop-color:#F6F6F5"/>
			<stop  offset="0.4701" style="stop-color:#CCCDCE"/>
			<stop  offset="1" style="stop-color:#F7F7F7"/>
		</linearGradient>
		<path fill="url(#SVGID_43_)" d="M330.7,294.1c6.8,1.8,8.7,6.6,7.1,13c-2.3,5.9-8,7.4-11.6,6.6c-5.7-1.2-10.6-7.6-7.6-14.1
			C320.3,296,324.1,292.8,330.7,294.1z"/>
		
			<linearGradient id="SVGID_44_" gradientUnits="userSpaceOnUse" x1="-478.823" y1="-358.8034" x2="-391.174" y2="-291.2705" gradientTransform="matrix(0.9831 0.1833 -0.1833 0.9831 649.9091 740.8648)">
			<stop  offset="0" style="stop-color:#F6F6F5"/>
			<stop  offset="0.4701" style="stop-color:#CCCDCE"/>
			<stop  offset="1" style="stop-color:#F7F7F7"/>
		</linearGradient>
		<path fill="url(#SVGID_44_)" d="M306.2,358c-0.7,4.4-2.1,5.4-5.8,4.8c-9.3-1.5-18.5-3-27.8-4.4c-3.2-0.5-3.8-1.4-2.9-4.7
			c1.4-5.2,3.4-12,5.4-16.9c0.3-0.7,2.6-0.6,5.1-0.3c0.2,0,0.4,0,0.5,0.1c1.9,0.2,3.8,0.6,4.8,0.8c0.9,1.1,3.3,4.2,3.6,6.7
			c0.2,1.8-1.2,7.2-1.2,7.2c-1.4,0.2-3.2-1.1-3.8-2.2c-1.7-3-1-5.2-2.8-5.7c-1.6,6.7,0.9,10.3,6.6,11.2c8.2,1.3,11.6-0.2,13.8-8.7
			c-2.7-0.2-3,2.4-4,3.8c-1.7,2.4-3.7,3.7-6.4,2.7c0,0,0.5-6.9,1.3-7.9c1.1-1.6,2.9-3.4,4.6-5.1c0,0,4.3,0.1,7.5,0.6
			c0.2,0,0.4,0.1,0.6,0.1c0.6,0.1,1.2,0.3,1.7,0.4c1.4,0.6,1,3.4,0.8,5.1C307,350.2,306.9,353.9,306.2,358z"/>
		<g>
			
				<linearGradient id="SVGID_45_" gradientUnits="userSpaceOnUse" x1="-478.409" y1="-298.9842" x2="-440.332" y2="-265.2178" gradientTransform="matrix(0.9831 0.1833 -0.1833 0.9831 649.9091 740.8648)">
				<stop  offset="0" style="stop-color:#949396"/>
				<stop  offset="0.6606" style="stop-color:#C2C1C2"/>
				<stop  offset="1" style="stop-color:#949396"/>
			</linearGradient>
			<path fill="url(#SVGID_45_)" d="M294.3,396.3l-5.4-1c0,0.2,0,0.4-0.1,0.6l-5.2,27.9c-1,5.3-6.1,8.8-11.4,7.8
				c-5.3-1-8.8-6.1-7.8-11.4l5.2-27.9c0-0.2,0.1-0.4,0.1-0.6l-5.4-1c-0.1,0.4-0.2,0.8-0.3,1.2l-5.6,30c-1.5,8.3,3.9,16.3,12.2,17.8
				c8.3,1.5,16.3-3.9,17.8-12.2l5.6-30C294.2,397.1,294.3,396.7,294.3,396.3z"/>
			
				<linearGradient id="SVGID_46_" gradientUnits="userSpaceOnUse" x1="-458.6907" y1="-321.2197" x2="-420.6137" y2="-287.4533" gradientTransform="matrix(0.9831 0.1833 -0.1833 0.9831 649.9091 740.8648)">
				<stop  offset="0" style="stop-color:#949396"/>
				<stop  offset="0.6606" style="stop-color:#C2C1C2"/>
				<stop  offset="1" style="stop-color:#949396"/>
			</linearGradient>
			<path fill="url(#SVGID_46_)" d="M303.9,372.1c2.1,1.2,1.3,3.1,1,4.9c-2.5,6.9-8.5,14.8-19.6,13.3c-7.5-1-13.8-2.8-18.3-9
				c-2.7-3.7-5.4-7.7-3.9-12.9c0.9-3.3,2.7-4.1,5.7-2.4c3.7,2,5.6,5.9,8.8,8.3c5.6,4.2,11.6,4.7,17.5,0.9c1.3-0.8,2.6-1.6,3.8-2.6
				C300.4,371.3,302.1,371.1,303.9,372.1z"/>
			
				<linearGradient id="SVGID_47_" gradientUnits="userSpaceOnUse" x1="-477.141" y1="-300.4141" x2="-439.064" y2="-266.6476" gradientTransform="matrix(0.9831 0.1833 -0.1833 0.9831 649.9091 740.8648)">
				<stop  offset="0" style="stop-color:#949396"/>
				<stop  offset="0.6606" style="stop-color:#C2C1C2"/>
				<stop  offset="1" style="stop-color:#949396"/>
			</linearGradient>
			<path fill="url(#SVGID_47_)" d="M273,428c3.3,0.6,6.5-1.6,7.1-4.9l5-26.7l-12-2.2l-5,26.7C267.5,424.2,269.7,427.4,273,428z"/>
			
				<linearGradient id="SVGID_48_" gradientUnits="userSpaceOnUse" x1="-445.2847" y1="-336.3372" x2="-407.2076" y2="-302.5707" gradientTransform="matrix(0.9831 0.1833 -0.1833 0.9831 649.9091 740.8648)">
				<stop  offset="0" style="stop-color:#949396"/>
				<stop  offset="0.6606" style="stop-color:#C2C1C2"/>
				<stop  offset="1" style="stop-color:#949396"/>
			</linearGradient>
			<path fill="url(#SVGID_48_)" d="M325.9,401c1.6,0.3,2.2-0.5,2.3-1.4c0.1-0.7,0-1.3,0-1.3c-0.3-1.7-0.6-3.4-0.7-5.3
				c-0.7-9.3-2.4-18.5-2.5-27.9c-0.1-11.9-1.7-20.9-2.9-32.8c-0.2-1.7-0.1-6-0.2-8.1c0-1.6-0.6-3.5-0.5-5.1
				c-3.7-0.7-5.3-1.3-8.7-1.9c-11.5-2-21.6-3.6-32.4-5.7c-3.1-0.6-10.6-2-13.8-2.2c0,0-3.2,4.8-5.2,9.2c-1.3,2.9-6,12.8-7.6,15.9
				l0,0c-3.6,9.5-7.8,18.6-12.4,27.6c-2.4,4.8-4.6,9.6-7,14.5c-0.7,1.4-1.4,2.6-2.1,3.7c0,0-0.3,0.5-0.4,1.1c-0.2,1,0,2.3,2.1,2.7
				L325.9,401z M265.5,304.7c4.1,0.7,10.6-4.6,11.4-9.2c0.7-3.8-4.1-9.5-8.6-10.3c-4.4-0.7-11.6,2.8-12.4,6.1
				C254.8,296.4,260.1,303.9,265.5,304.7z M279.8,297.9c-1.3,3.8-5,5.4-7.8,8.1c15,3.2,30.3,3.9,45.1,7.2c-0.7-1.4-1.3-2.3-1.7-3.3
				c-1.5-3.3-2.9-6.4-1.6-10.2c2.1-6.3,7.6-10.6,15.4-9.6c8.9,1.1,14.3,6.7,13.5,14.3c-0.8,7.8-8.4,13.8-16.2,12.5
				c-1.5-0.3-1.5,0.4-1.3,1.4c1.1,6.4,0.9,12.1,2.1,17.5c0.4,3.2,0.7,5.3,0.8,8.1c0.6,11.5,1.6,23,2.6,34.5
				c0.7,7.7,1.5,15.5,2.1,23.3c0.1,1.2-0.7,2.7-1.8,3c-0.2,0.1-0.4,0-0.5,0l0,0l-102.6-18.1l0,0c-0.2,0-0.4-0.1-0.6-0.2
				c-2-1-0.2-2.2,0.3-3.3c4.9-10.4,10.1-20.7,14.4-31.4c3.2-7.8,7.3-15.2,10.5-23.1c3-6.5,5.9-13,9.1-19.3c0.8-1.6,0.5-1.8-0.7-2.6
				c-2-1.3-3.8-3-5.5-4.6c-5-4.8-5.4-14.8,0.1-18.8c2.3-1.7,6.1-2.6,9.3-3.1C274.1,278.7,282.8,288.9,279.8,297.9z M337.8,307
				c1.6-6.4-0.3-11.2-7.1-13c-6.6-1.2-10.4,1.9-12,5.5c-3,6.5,1.9,12.9,7.6,14.1C329.8,314.4,335.6,313,337.8,307z"/>
			
				<linearGradient id="SVGID_49_" gradientUnits="userSpaceOnUse" x1="-429.1771" y1="-354.5011" x2="-391.1001" y2="-320.7346" gradientTransform="matrix(0.9831 0.1833 -0.1833 0.9831 649.9091 740.8648)">
				<stop  offset="0" style="stop-color:#949396"/>
				<stop  offset="0.6606" style="stop-color:#C2C1C2"/>
				<stop  offset="1" style="stop-color:#949396"/>
			</linearGradient>
			<path fill="url(#SVGID_49_)" d="M308,329.5c-0.3,1.9-1.8,2.6-3.6,2.3c-1.8-0.3-2.7-1.9-2.4-3.2c0.3-1.3,1.9-2.2,3.6-2
				C307.2,327,308.3,328,308,329.5z"/>
			
				<linearGradient id="SVGID_50_" gradientUnits="userSpaceOnUse" x1="-441.3738" y1="-340.7473" x2="-403.2968" y2="-306.9808" gradientTransform="matrix(0.9831 0.1833 -0.1833 0.9831 649.9091 740.8648)">
				<stop  offset="0" style="stop-color:#949396"/>
				<stop  offset="0.6606" style="stop-color:#C2C1C2"/>
				<stop  offset="1" style="stop-color:#949396"/>
			</linearGradient>
			<path fill="url(#SVGID_50_)" d="M291.3,352.4c2.7,1,4.7-0.4,6.4-2.7c1-1.4,1.2-4,4-3.8c-2.2,8.5-5.6,10-13.8,8.7
				c-5.7-0.9-8.2-4.5-6.6-11.2c1.8,0.5,1.1,2.7,2.8,5.7c0.7,1.2,2.5,2.4,3.8,2.2c0,0,1.4-5.4,1.2-7.2c-0.3-2.6-2.7-5.7-3.6-6.7
				c-1-0.2-2.9-0.6-4.8-0.8l0.3-2.6c8.1,1.1,16,1.9,23.9,3.2l-0.4,2.7c-3.2-0.5-7.5-0.6-7.5-0.6c-1.6,1.7-3.5,3.5-4.6,5.1
				C291.9,345.5,291.3,352.4,291.3,352.4z"/>
			
				<linearGradient id="SVGID_51_" gradientUnits="userSpaceOnUse" x1="-440.7036" y1="-341.5031" x2="-402.6265" y2="-307.7367" gradientTransform="matrix(0.9831 0.1833 -0.1833 0.9831 649.9091 740.8648)">
				<stop  offset="0" style="stop-color:#949396"/>
				<stop  offset="0.6606" style="stop-color:#C2C1C2"/>
				<stop  offset="1" style="stop-color:#949396"/>
			</linearGradient>
			<path fill="url(#SVGID_51_)" d="M282.7,325.1c-0.7,2.1-2.4,2.3-4.2,2c-1.5-0.3-2.3-1.4-2-3c0.5-2.1,2.4-1.8,3.7-1.7
				C281.4,322.5,282.9,323.2,282.7,325.1z"/>
			
				<linearGradient id="SVGID_52_" gradientUnits="userSpaceOnUse" x1="-446.0984" y1="-335.4196" x2="-408.0213" y2="-301.6532" gradientTransform="matrix(0.9831 0.1833 -0.1833 0.9831 649.9091 740.8648)">
				<stop  offset="0" style="stop-color:#949396"/>
				<stop  offset="0.6606" style="stop-color:#C2C1C2"/>
				<stop  offset="1" style="stop-color:#949396"/>
			</linearGradient>
			<path fill="url(#SVGID_52_)" d="M280.2,336.5c-2.4-0.3-4.8-0.3-5.1,0.3c-2,5-4,11.7-5.4,16.9c-0.9,3.3-0.3,4.2,2.9,4.7
				c9.3,1.3,18.5,2.9,27.8,4.4c3.7,0.6,5.1-0.4,5.8-4.8c0.7-4.1,0.8-7.8,1.5-12.4c0.2-1.7,0.6-4.5-0.8-5.1c-0.4-0.2-1-0.3-1.7-0.4
				c-0.2,0-0.4-0.1-0.6-0.1l0.4-2.7c0.2,0,0.4,0.1,0.7,0.1c1.3,0.2,2.5,0.4,3.8,0.7c2.8,0.5,1.7,6,1.6,8.5c-1,8.2-1.7,10-2.7,16.3
				c-0.3,2.2-1.1,4.3-4.3,3.8c-12.1-2.2-24.5-3.3-36.5-6.4c-1.8-0.4-3-0.9-2.3-4.1c1.7-6.2,4.1-12.3,6-18.5c1-3.5,3.3-4.6,6.7-4.1
				c0.8,0.1,1.7,0.2,2.5,0.3c0.2,0,0.4,0,0.5,0.1l-0.3,2.6C280.6,336.6,280.4,336.6,280.2,336.5z"/>
		</g>
	</g>
	<g>
		
			<linearGradient id="SVGID_53_" gradientUnits="userSpaceOnUse" x1="202.6802" y1="384.5628" x2="137.1728" y2="485.978" gradientTransform="matrix(1 -3.264530e-04 3.264530e-04 1 240.7803 -144.3551)">
			<stop  offset="0" style="stop-color:#F6F6F5"/>
			<stop  offset="0.4701" style="stop-color:#CCCDCE"/>
			<stop  offset="1" style="stop-color:#F7F7F7"/>
		</linearGradient>
		<path fill="url(#SVGID_53_)" d="M411.4,297.4c0.3,6.6,1,16.4,0.8,23.6c0,0.2-0.2,0.4-0.5,0.4l-26.3,0c-0.2,0-0.4-0.2-0.5-0.5
			c-0.1-5.9,0-8.4-0.2-14.8c0-0.9,0.2-5,0.1-7.1c0-0.2,0.1-0.4,0.4-0.5c2.1-0.5,3.7-1.9,5.4-3.3c0.3-0.2,0.7,0,0.7,0.3
			c0.5,3.8,1.3,7.3,2.3,10.7c0.4,1.4,0.8,2.9,2.3,3c1.4,0.1,2.1-1.5,2.4-2.6c1.2-4.4,1.8-9,2.9-13.7c0.1-0.3,0.5-0.5,0.8-0.2
			c1.8,1.6,3,2.7,5.6,3.9c1,0.4,2.7,0.5,3.4,0.5C411.2,297,411.4,297.2,411.4,297.4z"/>
		
			<linearGradient id="SVGID_54_" gradientUnits="userSpaceOnUse" x1="195.0205" y1="379.6152" x2="129.5131" y2="481.0304" gradientTransform="matrix(1 -3.264530e-04 3.264530e-04 1 240.7803 -144.3551)">
			<stop  offset="0" style="stop-color:#F6F6F5"/>
			<stop  offset="0.4701" style="stop-color:#CCCDCE"/>
			<stop  offset="1" style="stop-color:#F7F7F7"/>
		</linearGradient>
		<path fill="url(#SVGID_54_)" d="M398.5,291.4c0.7,0.2,0.3,0.8-0.2,4.3c-0.4,3.1-0.8,5.7-1.7,8.9c-0.1,0.4-0.8,0.4-0.9,0
			c-1.2-4.5-1.8-10.8-2-12.1c0-0.1,0-0.3,0.2-0.4C394.8,291.3,396.9,291,398.5,291.4z"/>
		
			<linearGradient id="SVGID_55_" gradientUnits="userSpaceOnUse" x1="181.1137" y1="370.6324" x2="115.6063" y2="472.0475" gradientTransform="matrix(1 -3.264530e-04 3.264530e-04 1 240.7803 -144.3551)">
			<stop  offset="0" style="stop-color:#F6F6F5"/>
			<stop  offset="0.4701" style="stop-color:#CCCDCE"/>
			<stop  offset="1" style="stop-color:#F7F7F7"/>
		</linearGradient>
		<path fill="url(#SVGID_55_)" d="M388.2,283.9c1.2-1.9,1.1-4.5-0.2-5.7c-1.3-1.2-2.4-1-3.3-0.2c-0.3,0.3-0.8,0-0.8-0.4
			c0-2.1-0.2-3.5,0.2-5.3c0.3-1.4,0.3-3.5,2.2-3.5c2.1-0.1,3,1.7,3.5,3.5c1.3,4.8,0.9,9.7,0.2,14.6c-0.5,3-1,5.8-3.5,7.7
			c-0.5,0.4-1.4,1-2,0.7c-0.6-0.3-0.8-1.1-0.8-1.9c0-3,0-6,0-8.9c0-0.4,0.4-0.6,0.7-0.4c1.1,0.7,2.1,1.3,3.7,0
			C388.1,284,388.2,283.9,388.2,283.9z"/>
		
			<linearGradient id="SVGID_56_" gradientUnits="userSpaceOnUse" x1="196.6771" y1="380.6853" x2="131.1697" y2="482.1005" gradientTransform="matrix(1 -3.264530e-04 3.264530e-04 1 240.7803 -144.3551)">
			<stop  offset="0" style="stop-color:#F6F6F5"/>
			<stop  offset="0.4701" style="stop-color:#CCCDCE"/>
			<stop  offset="1" style="stop-color:#F7F7F7"/>
		</linearGradient>
		<path fill="url(#SVGID_56_)" d="M409.7,272.5c0.9,5.8,1.3,10.1,1.6,17.2c0,0,0,0,0,0c-0.2,3.5,0.1,4.1-1,4.7
			c-2.1,0.5-4.1-1.2-5.4-3.4c-3.5-5.5-4.9-11.1-2-17.3c0.7-1.5,1.7-2.6,3-3.3C407.4,269.8,409.3,269.5,409.7,272.5z M408.6,283.2
			c0-1.9-0.1-4.3-2.2-5.2c-1.4-0.6-2.3,1.5-2.3,3.1c0,1.7,0.3,4.3,2.3,5C408.5,286.6,408.6,284.5,408.6,283.2z"/>
		
			<linearGradient id="SVGID_57_" gradientUnits="userSpaceOnUse" x1="182.9852" y1="371.8412" x2="117.4778" y2="473.2564" gradientTransform="matrix(1 -3.264530e-04 3.264530e-04 1 240.7803 -144.3551)">
			<stop  offset="0" style="stop-color:#F6F6F5"/>
			<stop  offset="0.4701" style="stop-color:#CCCDCE"/>
			<stop  offset="1" style="stop-color:#F7F7F7"/>
		</linearGradient>
		<path fill="url(#SVGID_57_)" d="M407.5,264.9c0,0,1.6,3-1.1,3.4c-5.4,0.8-6.6,4.7-7.3,9.2c0,0.1,0.1,8.7,0.2,10.6
			c0,0.2-0.2,0.4-0.4,0.5l-6.4,0.8c-0.3,0-0.6-0.2-0.5-0.5c1.2-5.4,2.1-11.3,0.4-16.8c-0.7-2.3-3.1-5.5-5.8-5.8
			c-1.4,0-1.1-1-0.9-1.5c1-2.9,3-6.1,8.6-7c0,0,0,0,0.1,0C401,257.4,405.5,259.3,407.5,264.9z"/>
		<g>
			
				<linearGradient id="SVGID_58_" gradientUnits="userSpaceOnUse" x1="103.8826" y1="413.7615" x2="190.2553" y2="527.3077" gradientTransform="matrix(1 -3.264530e-04 3.264530e-04 1 240.7803 -144.3551)">
				<stop  offset="0" style="stop-color:#949396"/>
				<stop  offset="0.6606" style="stop-color:#C2C1C2"/>
				<stop  offset="1" style="stop-color:#949396"/>
			</linearGradient>
			<path fill="url(#SVGID_58_)" d="M411.7,322.6l-5,0c0,0.2,0,0.4,0,0.6l0,25.6c0,4.8-3.9,8.8-8.8,8.8c-4.8,0-8.8-3.9-8.8-8.8
				l0-25.6c0-0.2,0-0.4,0-0.6l-5,0c0,0.4-0.1,0.7-0.1,1.1l0,27.5c0,7.6,6.2,13.7,13.8,13.7c7.6,0,13.7-6.2,13.7-13.8l0-27.5
				C411.7,323.4,411.7,323,411.7,322.6z"/>
			
				<linearGradient id="SVGID_59_" gradientUnits="userSpaceOnUse" x1="136.7919" y1="388.7279" x2="223.1646" y2="502.2741" gradientTransform="matrix(1 -3.264530e-04 3.264530e-04 1 240.7803 -144.3551)">
				<stop  offset="0" style="stop-color:#949396"/>
				<stop  offset="0.6606" style="stop-color:#C2C1C2"/>
				<stop  offset="1" style="stop-color:#949396"/>
			</linearGradient>
			<path fill="url(#SVGID_59_)" d="M408.6,283.2c0,1.3-0.2,3.5-2.2,3c-2-0.7-2.3-3.2-2.3-5c0-1.6,0.9-3.7,2.3-3.1
				C408.5,278.8,408.6,281.2,408.6,283.2z"/>
			
				<linearGradient id="SVGID_60_" gradientUnits="userSpaceOnUse" x1="127.2237" y1="396.0063" x2="213.5964" y2="509.5524" gradientTransform="matrix(1 -3.264530e-04 3.264530e-04 1 240.7803 -144.3551)">
				<stop  offset="0" style="stop-color:#949396"/>
				<stop  offset="0.6606" style="stop-color:#C2C1C2"/>
				<stop  offset="1" style="stop-color:#949396"/>
			</linearGradient>
			<path fill="url(#SVGID_60_)" d="M395,235.5c0,4.9,0.3,9.9,0.5,14.8c0.1,2.2,0.8,3.9,3.4,4.7c8.5,2.5,12,8.8,13.2,17.3
				c1.7,11.3,2.2,22.6,2.8,34.1c0.1,5.9,0.4,11.9,0.2,17.8c0,1.2-0.2,0.9-1.5,0.9c-0.1,0-0.1,0-0.2,0l-30.2-0.7
				c-1,0.1-2.4-0.4-2.4-2.3c0.1-17,0-34.1,0.1-51.1c0-6.6,2.6-11.7,8.8-15c4.6-2.4,3-7.2,3.1-11.3c0.1-4.2,0.1-8.5,0-12.7
				c1.4,0,0.7,0,2.1-0.1C395,233.1,395,234.3,395,235.5z M398.3,295.6c0.5-3.5,0.9-4.1,0.2-4.3c-1.6-0.4-3.7,0-4.6,0.6
				c-0.1,0.1-0.2,0.2-0.2,0.4c0.1,1.3,0.8,7.6,2,12.1c0.1,0.4,0.7,0.4,0.9,0C397.5,301.4,397.9,298.7,398.3,295.6z M399.3,288.1
				c0-2-0.2-10.5-0.2-10.6c0.6-4.5,1.9-8.4,7.3-9.2c2.7-0.4,1.1-3.4,1.1-3.4c-1.9-5.6-6.5-7.4-13.2-7.1c0,0,0,0-0.1,0
				c-5.6,0.8-7.6,4-8.6,7c-0.2,0.6-0.5,1.5,0.9,1.5c2.8,0.3,5.1,3.5,5.8,5.8c1.7,5.5,0.8,11.3-0.4,16.8c-0.1,0.3,0.2,0.6,0.5,0.5
				l6.4-0.8C399.1,288.5,399.3,288.3,399.3,288.1z M401.2,292.9c-1.1,4.7-1.8,9.3-2.9,13.7c-0.3,1.1-1,2.7-2.4,2.6
				c-1.4-0.1-1.9-1.6-2.3-3c-1-3.4-1.8-6.9-2.3-10.7c0-0.4-0.5-0.5-0.7-0.3c-1.6,1.4-3.3,2.8-5.4,3.3c-0.2,0-0.4,0.2-0.4,0.5
				c0.1,2.2-0.1,6.2-0.1,7.1c0.2,6.5,0.1,8.9,0.2,14.8c0,0.3,0.2,0.5,0.5,0.5l26.3,0c0.2,0,0.4-0.2,0.5-0.4
				c0.2-7.2-0.4-16.9-0.8-23.6c0-0.2-0.2-0.4-0.5-0.4c-0.8,0-2.4,0-3.4-0.5c-2.6-1.2-3.8-2.2-5.6-3.9
				C401.7,292.5,401.3,292.6,401.2,292.9z M409.7,272.5c-0.5-3-2.3-2.7-3.8-2c-1.3,0.6-2.4,1.8-3,3.3c-2.9,6.2-1.5,11.8,2,17.3
				c1.4,2.1,3.3,3.8,5.4,3.4c1.1-0.7,0.8-1.2,1-4.7c0,0,0,0,0,0C411,282.6,410.6,278.3,409.7,272.5z M386.6,294.5
				c2.4-1.9,3-4.7,3.5-7.7c0.7-4.9,1.1-9.7-0.2-14.6c-0.5-1.8-1.4-3.6-3.5-3.5c-1.9,0.1-1.9,2.1-2.2,3.5c-0.4,1.8-0.2,3.2-0.2,5.3
				c0,0.4,0.5,0.6,0.8,0.4c0.9-0.8,2-1,3.3,0.2c1.3,1.2,1.4,3.8,0.2,5.7c0,0-0.1,0.1-0.1,0.1c-1.6,1.4-2.6,0.7-3.7,0
				c-0.3-0.2-0.7,0-0.7,0.4c0,3,0,5.9,0,8.9c0,0.7,0.3,1.6,0.8,1.9C385.2,295.5,386.1,294.9,386.6,294.5z"/>
			
				<linearGradient id="SVGID_61_" gradientUnits="userSpaceOnUse" x1="104.7728" y1="413.0843" x2="191.1455" y2="526.6305" gradientTransform="matrix(1 -3.264530e-04 3.264530e-04 1 240.7803 -144.3551)">
				<stop  offset="0" style="stop-color:#949396"/>
				<stop  offset="0.6606" style="stop-color:#C2C1C2"/>
				<stop  offset="1" style="stop-color:#949396"/>
			</linearGradient>
			<path fill="url(#SVGID_61_)" d="M398,354.2c3,0,5.5-2.5,5.5-5.5l0-24.5l-11,0l0,24.5C392.5,351.8,395,354.2,398,354.2z"/>
		</g>
	</g>
</g>
</svg>
