<?xml version="1.0" encoding="utf-8"?>
<!-- Generator: Adobe Illustrator 17.1.0, SVG Export Plug-In . SVG Version: 6.00 Build 0)  -->
<!DOCTYPE svg PUBLIC "-//W3C//DTD SVG 1.1//EN" "http://www.w3.org/Graphics/SVG/1.1/DTD/svg11.dtd">
<svg version="1.1" id="圖層_1" xmlns="http://www.w3.org/2000/svg" xmlns:xlink="http://www.w3.org/1999/xlink" x="0px" y="0px"
	 viewBox="0 0 974.309 75.929" enable-background="new 0 0 974.309 75.929" xml:space="preserve">
<g>
	<g>
		<g>
			<path d="M246.387,66.914h-60.295c-4.31,0-7.817-3.507-7.817-7.817V16.833c0-4.31,3.507-7.817,7.817-7.817h60.295
				c4.31,0,7.817,3.507,7.817,7.817v42.264C254.204,63.407,250.698,66.914,246.387,66.914z M186.092,11.992
				c-2.669,0-4.84,2.171-4.84,4.84v42.264c0,2.669,2.172,4.84,4.84,4.84h60.295c2.669,0,4.84-2.171,4.84-4.84V16.833
				c0-2.669-2.172-4.84-4.84-4.84H186.092z"/>
			<path d="M252.716,30.457h-72.952c-0.822,0-1.488-0.666-1.488-1.488s0.666-1.488,1.488-1.488h72.952
				c0.822,0,1.488,0.666,1.488,1.488S253.538,30.457,252.716,30.457z"/>
			<path d="M207.121,39.576h-18.238c-0.822,0-1.488-0.666-1.488-1.488c0-0.822,0.666-1.488,1.488-1.488h18.238
				c0.822,0,1.488,0.666,1.488,1.488C208.609,38.909,207.943,39.576,207.121,39.576z"/>
			<path d="M243.596,48.695h-18.237c-0.822,0-1.488-0.666-1.488-1.488c0-0.822,0.666-1.488,1.488-1.488h18.237
				c0.822,0,1.488,0.666,1.488,1.488C245.085,48.028,244.418,48.695,243.596,48.695z"/>
			<path d="M243.596,57.814h-18.237c-0.822,0-1.488-0.666-1.488-1.488c0-0.822,0.666-1.488,1.488-1.488h18.237
				c0.822,0,1.488,0.666,1.488,1.488C245.085,57.147,244.418,57.814,243.596,57.814z"/>
		</g>
		<g>
			<path d="M52.678,75.929H14.146C6.346,75.929,0,69.583,0,61.783V14.146C0,6.346,6.346,0,14.146,0h38.532
				c7.8,0,14.146,6.346,14.146,14.146v47.637C66.823,69.583,60.477,75.929,52.678,75.929z M14.146,2.977
				c-6.159,0-11.169,5.01-11.169,11.169v47.637c0,6.159,5.01,11.169,11.169,11.169h38.532c6.159,0,11.169-5.01,11.169-11.169V14.146
				c0-6.159-5.01-11.169-11.169-11.169H14.146z"/>
			<path d="M47.772,28.972H19.051c-5.474,0-9.927-4.453-9.927-9.926s4.453-9.926,9.927-9.926h28.721
				c5.474,0,9.927,4.453,9.927,9.926S53.246,28.972,47.772,28.972z M19.051,12.096c-3.832,0-6.95,3.117-6.95,6.95
				s3.118,6.95,6.95,6.95h28.721c3.832,0,6.95-3.117,6.95-6.95s-3.118-6.95-6.95-6.95H19.051z"/>
			<g>
				<path d="M30.125,61.837h-7.537c-0.822,0-1.488-0.666-1.488-1.488c0-0.822,0.666-1.488,1.488-1.488h7.537
					c0.822,0,1.488,0.666,1.488,1.488C31.613,61.17,30.947,61.837,30.125,61.837z"/>
				<path d="M38.906,64.502c-0.381,0-0.762-0.145-1.052-0.436c-0.581-0.581-0.581-1.524,0-2.105l5.329-5.33
					c0.581-0.581,1.523-0.581,2.105,0c0.581,0.581,0.581,1.524,0,2.105l-5.329,5.33C39.668,64.356,39.287,64.502,38.906,64.502z"/>
				<g>
					<path d="M30.125,45.498h-7.537c-0.822,0-1.488-0.666-1.488-1.488c0-0.822,0.666-1.488,1.488-1.488h7.537
						c0.822,0,1.488,0.666,1.488,1.488C31.613,44.831,30.947,45.498,30.125,45.498z"/>
					<path d="M26.357,49.266c-0.822,0-1.488-0.666-1.488-1.488V40.24c0-0.822,0.666-1.488,1.488-1.488s1.488,0.666,1.488,1.488
						v7.538C27.845,48.6,27.179,49.266,26.357,49.266z"/>
				</g>
				<path d="M44.236,48.163c-0.381,0-0.762-0.145-1.052-0.436l-5.329-5.33c-0.581-0.581-0.581-1.524,0-2.105
					c0.581-0.581,1.523-0.581,2.105,0l5.329,5.33c0.581,0.581,0.581,1.524,0,2.105C44.997,48.017,44.617,48.163,44.236,48.163z"/>
				<path d="M38.906,48.163c-0.381,0-0.762-0.145-1.052-0.436c-0.581-0.581-0.581-1.523,0-2.105l5.329-5.33
					c0.581-0.581,1.523-0.581,2.105,0c0.581,0.581,0.581,1.523,0,2.105l-5.329,5.33C39.668,48.017,39.287,48.163,38.906,48.163z"/>
			</g>
		</g>
		<g>
			<path d="M430.984,75.929H376.27c-0.822,0-1.488-0.666-1.488-1.488V1.489c0-0.822,0.666-1.488,1.488-1.488h54.714
				c0.822,0,1.488,0.666,1.488,1.488v72.952C432.473,75.263,431.806,75.929,430.984,75.929z M377.759,72.952h51.737V2.977h-51.737
				V72.952z"/>
			<path d="M376.27,75.929h-9.119c-0.822,0-1.488-0.666-1.488-1.488V1.489c0-0.822,0.666-1.488,1.488-1.488h9.119
				c0.822,0,1.488,0.666,1.488,1.488v72.952C377.759,75.263,377.092,75.929,376.27,75.929z M368.639,72.952h6.143V2.977h-6.143
				V72.952z"/>
			<path d="M412.746,21.149h-18.238c-0.822,0-1.488-0.666-1.488-1.488s0.666-1.488,1.488-1.488h18.238
				c0.822,0,1.488,0.666,1.488,1.488S413.568,21.149,412.746,21.149z"/>
			<path d="M412.746,30.334h-18.238c-0.822,0-1.488-0.666-1.488-1.488s0.666-1.488,1.488-1.488h18.238
				c0.822,0,1.488,0.666,1.488,1.488S413.568,30.334,412.746,30.334z"/>
		</g>
	</g>
	<g>
		<g>
			<path d="M607.168,75.929h-72.952c-0.602,0-1.145-0.363-1.375-0.919c-0.23-0.556-0.103-1.196,0.323-1.622l72.952-72.952
				c0.426-0.426,1.063-0.554,1.622-0.323c0.556,0.23,0.919,0.773,0.919,1.375v72.952C608.657,75.263,607.99,75.929,607.168,75.929z
				 M537.81,72.952h67.87V5.082L537.81,72.952z"/>
			<path d="M588.931,57.691h-12.609c-0.602,0-1.145-0.363-1.375-0.919c-0.23-0.556-0.103-1.196,0.323-1.622l12.609-12.609
				c0.426-0.427,1.064-0.553,1.622-0.323c0.556,0.23,0.919,0.773,0.919,1.375v12.609C590.419,57.025,589.753,57.691,588.931,57.691z
				 M579.915,54.714h7.528v-7.527L579.915,54.714z"/>
			<path d="M607.168,57.691h-4.559c-0.822,0-1.488-0.666-1.488-1.488c0-0.822,0.666-1.488,1.488-1.488h4.559
				c0.822,0,1.488,0.666,1.488,1.488C608.657,57.025,607.99,57.691,607.168,57.691z"/>
			<path d="M607.168,39.453h-4.559c-0.822,0-1.488-0.666-1.488-1.488c0-0.822,0.666-1.488,1.488-1.488h4.559
				c0.822,0,1.488,0.666,1.488,1.488C608.657,38.787,607.99,39.453,607.168,39.453z"/>
			<path d="M607.168,21.215h-4.559c-0.822,0-1.488-0.666-1.488-1.488s0.666-1.488,1.488-1.488h4.559
				c0.822,0,1.488,0.666,1.488,1.488S607.99,21.215,607.168,21.215z"/>
			<path d="M552.455,75.929c-0.822,0-1.488-0.666-1.488-1.488v-4.559c0-0.822,0.666-1.488,1.488-1.488
				c0.822,0,1.488,0.666,1.488,1.488v4.559C553.943,75.263,553.277,75.929,552.455,75.929z"/>
			<path d="M570.693,75.929c-0.822,0-1.488-0.666-1.488-1.488v-4.559c0-0.822,0.666-1.488,1.488-1.488s1.488,0.666,1.488,1.488
				v4.559C572.181,75.263,571.515,75.929,570.693,75.929z"/>
			<path d="M588.931,75.929c-0.822,0-1.488-0.666-1.488-1.488v-4.559c0-0.822,0.666-1.488,1.488-1.488s1.488,0.666,1.488,1.488
				v4.559C590.419,75.263,589.753,75.929,588.931,75.929z"/>
		</g>
		<g>
			<path d="M922.44,59.809c-0.381,0-0.762-0.145-1.052-0.436l-6.448-6.448c-0.581-0.581-0.581-1.524,0-2.105l38.688-38.689
				c0.558-0.558,1.547-0.558,2.105,0l6.448,6.448c0.581,0.581,0.581,1.524,0,2.105l-38.688,38.688
				C923.202,59.663,922.821,59.809,922.44,59.809z M918.097,51.873l4.343,4.343l36.584-36.583l-4.343-4.343L918.097,51.873z"/>
			<path d="M954.681,27.568c-0.381,0-0.762-0.145-1.052-0.436l-6.448-6.448c-0.581-0.581-0.581-1.524,0-2.105
				c0.581-0.581,1.523-0.581,2.105,0l6.448,6.448c0.581,0.581,0.581,1.524,0,2.105C955.443,27.423,955.062,27.568,954.681,27.568z"
				/>
			<path d="M899.871,75.929c-0.705,0-1.331-0.503-1.462-1.221c-0.148-0.809,0.387-1.584,1.196-1.732
				c4.264-0.781,15.909-3.386,18.56-6.036c2.975-2.975,2.975-7.816,0-10.791c-0.581-0.581-0.581-1.524,0-2.105
				c0.581-0.581,1.523-0.581,2.105,0c4.136,4.136,4.136,10.865,0,15.001c-3.78,3.781-18.466,6.556-20.129,6.86
				C900.05,75.921,899.96,75.929,899.871,75.929z"/>
			<path d="M899.874,75.929c-0.089,0-0.179-0.008-0.269-0.025c-0.809-0.148-1.345-0.923-1.197-1.732
				c0.305-1.662,3.079-16.349,6.86-20.129c4.136-4.136,10.867-4.136,15.001,0c0.581,0.581,0.581,1.524,0,2.105
				c-0.581,0.581-1.523,0.581-2.105,0c-2.976-2.975-7.817-2.974-10.792,0c-2.355,2.355-4.952,12.634-6.036,18.56
				C901.205,75.427,900.579,75.929,899.874,75.929z"/>
			<path d="M957.905,17.896c-0.388,0-0.768-0.152-1.052-0.436c-0.411-0.411-0.545-1.023-0.344-1.568
				c0.724-1.96,4.441-11.847,6.557-13.962C964.31,0.686,965.964,0,967.724,0c1.759,0,3.414,0.685,4.659,1.93
				c2.568,2.569,2.568,6.749,0,9.318c-2.116,2.116-12.002,5.833-13.963,6.556C958.252,17.866,958.078,17.896,957.905,17.896z
				 M967.724,2.977c-0.965,0-1.871,0.376-2.554,1.058c-0.964,0.964-3.019,5.603-4.679,9.787c4.183-1.66,8.823-3.716,9.787-4.679
				c1.408-1.408,1.408-3.699,0-5.108C969.596,3.353,968.689,2.977,967.724,2.977z"/>
			<path d="M916.171,71.37h-7.18c-0.822,0-1.488-0.666-1.488-1.488V66.81h-3.071c-0.822,0-1.488-0.666-1.488-1.488v-7.18
				c0-0.822,0.666-1.488,1.488-1.488s1.488,0.666,1.488,1.488v5.691h3.071c0.822,0,1.488,0.666,1.488,1.488v3.071h5.692
				c0.822,0,1.488,0.666,1.488,1.488S916.993,71.37,916.171,71.37z"/>
		</g>
		<g>
			<g>
				<path d="M780.978,14.643c-2.39,0-4.039-1.608-4.203-4.097c-0.047-0.732,0.109-1.521,0.451-2.283
					c1.406-3.143,4.366-5.338,7.198-5.338c2.39,0,4.04,1.608,4.204,4.097c0.047,0.73-0.109,1.518-0.45,2.281
					C786.771,12.447,783.81,14.643,780.978,14.643z M784.424,5.902c-1.397,0-3.442,1.254-4.48,3.578
					c-0.141,0.314-0.213,0.632-0.197,0.874c0.076,1.157,0.665,1.313,1.232,1.313c1.397,0,3.442-1.254,4.481-3.578
					c0.141-0.314,0.213-0.633,0.197-0.874C785.581,6.058,784.99,5.902,784.424,5.902z"/>
				<path d="M786.345,6.628c-0.381,0-0.762-0.145-1.052-0.436c-0.581-0.581-0.581-1.524,0-2.105l3.651-3.651
					c0.581-0.581,1.523-0.581,2.105,0c0.581,0.581,0.581,1.524,0,2.105l-3.651,3.651C787.107,6.483,786.726,6.628,786.345,6.628z"/>
			</g>
			<g>
				<path d="M761.85,23.76c-1.023,0-2.041-0.419-2.944-1.211c-0.549-0.481-0.996-1.149-1.295-1.932
					c-1.062-2.78-0.804-5.949,0.658-8.073c0.923-1.34,2.195-2.079,3.581-2.079c1.023,0,2.041,0.419,2.943,1.211
					c0.549,0.481,0.996,1.149,1.296,1.93c1.062,2.782,0.804,5.951-0.658,8.074C764.507,23.022,763.236,23.76,761.85,23.76z
					 M761.85,13.443c-0.528,0-0.966,0.552-1.129,0.79c-0.757,1.099-1.151,3.171-0.329,5.323c0.123,0.322,0.297,0.597,0.477,0.755
					c0.246,0.215,0.616,0.472,0.982,0.472c0.528,0,0.966-0.552,1.129-0.79c0.757-1.098,1.152-3.17,0.33-5.323
					c-0.123-0.321-0.297-0.597-0.478-0.756C762.585,13.7,762.215,13.443,761.85,13.443z"/>
				<path d="M761.85,13.448c-0.822,0-1.488-0.666-1.488-1.488V6.796c0-0.822,0.666-1.488,1.488-1.488s1.488,0.666,1.488,1.488v5.163
					C763.338,12.781,762.672,13.448,761.85,13.448z"/>
			</g>
			<g>
				<path d="M747.259,38.35c-1.023,0-2.041-0.419-2.943-1.211c-0.549-0.481-0.998-1.149-1.297-1.932
					c-1.062-2.78-0.803-5.949,0.658-8.072c0.923-1.34,2.195-2.079,3.581-2.079c1.023,0,2.041,0.419,2.943,1.211
					c0.55,0.483,0.999,1.15,1.297,1.932c1.062,2.78,0.803,5.949-0.658,8.072C749.918,37.612,748.646,38.35,747.259,38.35z
					 M747.259,28.033c-0.528,0-0.966,0.552-1.129,0.79c-0.757,1.098-1.151,3.17-0.329,5.322c0.123,0.322,0.297,0.597,0.477,0.755
					c0.246,0.216,0.616,0.473,0.982,0.473c0.529,0,0.966-0.552,1.129-0.79c0.757-1.098,1.151-3.17,0.329-5.323
					c-0.123-0.322-0.297-0.597-0.478-0.756C747.995,28.29,747.625,28.033,747.259,28.033z"/>
				<path d="M747.259,28.038c-0.822,0-1.488-0.666-1.488-1.488v-5.163c0-0.822,0.666-1.488,1.488-1.488s1.488,0.666,1.488,1.488
					v5.163C748.748,27.372,748.081,28.038,747.259,28.038z"/>
			</g>
			<g>
				<path d="M732.669,52.941c-1.023,0-2.041-0.419-2.943-1.211c-0.549-0.481-0.998-1.149-1.297-1.932
					c-1.062-2.78-0.803-5.949,0.658-8.072c0.923-1.341,2.195-2.079,3.581-2.079c1.023,0,2.041,0.419,2.943,1.211
					c0.549,0.481,0.998,1.149,1.296,1.931c1.063,2.78,0.804,5.949-0.658,8.073C735.327,52.203,734.055,52.941,732.669,52.941z
					 M732.669,42.624c-0.529,0-0.966,0.552-1.129,0.79c-0.757,1.098-1.151,3.17-0.329,5.323c0.123,0.322,0.297,0.597,0.477,0.755
					c0.246,0.216,0.616,0.473,0.982,0.473c0.528,0,0.966-0.552,1.129-0.79c0.757-1.099,1.151-3.171,0.329-5.323
					c-0.123-0.322-0.297-0.597-0.477-0.755C733.404,42.881,733.034,42.624,732.669,42.624z"/>
				<path d="M732.669,42.629c-0.822,0-1.488-0.666-1.488-1.488v-5.163c0-0.822,0.666-1.488,1.488-1.488s1.488,0.666,1.488,1.488
					v5.163C734.157,41.962,733.491,42.629,732.669,42.629z"/>
			</g>
			<g>
				<path d="M774.373,34.528C774.372,34.528,774.372,34.528,774.373,34.528c-1.192,0-2.371-0.22-3.506-0.653
					c-0.781-0.298-1.448-0.745-1.93-1.294c-1.224-1.395-1.539-3.048-0.864-4.536c0.895-1.975,3.427-3.302,6.3-3.302
					c1.19,0,2.369,0.22,3.504,0.653c0.783,0.299,1.451,0.747,1.932,1.296c1.222,1.394,1.536,3.047,0.862,4.535
					C779.776,33.202,777.245,34.528,774.373,34.528z M774.372,27.72c-1.874,0-3.246,0.8-3.588,1.553
					c-0.066,0.147-0.269,0.593,0.39,1.343c0.158,0.18,0.434,0.355,0.755,0.477c0.795,0.304,1.617,0.457,2.443,0.457h0.001
					c1.872,0,3.245-0.8,3.586-1.552c0.067-0.147,0.269-0.594-0.39-1.344c-0.158-0.181-0.433-0.355-0.755-0.478
					C776.02,27.873,775.198,27.72,774.372,27.72z"/>
				<path d="M784.689,31.124h-5.163c-0.822,0-1.488-0.666-1.488-1.488s0.666-1.488,1.488-1.488h5.163
					c0.822,0,1.488,0.666,1.488,1.488S785.511,31.124,784.689,31.124z"/>
			</g>
			<g>
				<path d="M759.782,49.119L759.782,49.119c-1.191,0-2.371-0.22-3.505-0.653c-0.781-0.298-1.448-0.745-1.93-1.294
					c-1.224-1.395-1.539-3.048-0.864-4.536c0.895-1.975,3.427-3.302,6.3-3.302c1.19,0,2.369,0.22,3.504,0.653
					c0.783,0.299,1.451,0.747,1.932,1.296c1.222,1.393,1.536,3.046,0.862,4.535C765.185,47.792,762.654,49.119,759.782,49.119z
					 M759.782,42.31c-1.874,0-3.246,0.8-3.588,1.553c-0.066,0.147-0.269,0.593,0.39,1.343c0.158,0.18,0.434,0.355,0.755,0.477
					c0.795,0.304,1.617,0.457,2.443,0.457c0,0,0,0,0.001,0c1.872,0,3.245-0.8,3.586-1.553c0.067-0.147,0.269-0.593-0.39-1.344
					c-0.158-0.181-0.433-0.355-0.755-0.478C761.43,42.464,760.608,42.31,759.782,42.31z"/>
				<path d="M770.098,45.714h-5.163c-0.822,0-1.488-0.666-1.488-1.488c0-0.822,0.666-1.488,1.488-1.488h5.163
					c0.822,0,1.488,0.666,1.488,1.488C771.587,45.048,770.92,45.714,770.098,45.714z"/>
			</g>
			<g>
				<path d="M745.192,63.709C745.192,63.709,745.192,63.709,745.192,63.709c-1.192,0-2.371-0.22-3.506-0.653
					c-0.781-0.298-1.449-0.746-1.931-1.295c-1.223-1.394-1.538-3.047-0.863-4.535c0.895-1.975,3.426-3.302,6.3-3.302
					c1.19,0,2.369,0.22,3.504,0.653c0.781,0.298,1.449,0.746,1.931,1.295c1.223,1.394,1.538,3.047,0.863,4.535
					C750.596,62.382,748.064,63.709,745.192,63.709z M745.192,56.901c-1.874,0-3.247,0.8-3.588,1.553
					c-0.066,0.146-0.269,0.593,0.39,1.343c0.158,0.181,0.434,0.355,0.755,0.477c0.795,0.304,1.617,0.457,2.443,0.457
					c0,0,0,0,0.001,0c1.872,0,3.245-0.8,3.587-1.553c0.066-0.147,0.269-0.593-0.39-1.343c-0.158-0.181-0.434-0.355-0.755-0.477
					C746.839,57.054,746.017,56.901,745.192,56.901z"/>
				<path d="M755.508,60.305h-5.163c-0.822,0-1.488-0.666-1.488-1.488c0-0.822,0.666-1.488,1.488-1.488h5.163
					c0.822,0,1.488,0.666,1.488,1.488C756.996,59.638,756.33,60.305,755.508,60.305z"/>
			</g>
			<path d="M717.044,75.929c-0.381,0-0.762-0.145-1.052-0.436c-0.581-0.581-0.581-1.524,0-2.105l62.012-62.012
				c0.581-0.581,1.523-0.581,2.105,0c0.581,0.581,0.581,1.524,0,2.105l-62.012,62.012C717.806,75.784,717.425,75.929,717.044,75.929
				z"/>
		</g>
	</g>
</g>
</svg>
