<?xml version="1.0" encoding="utf-8"?>
<!-- Generator: Adobe Illustrator 17.1.0, SVG Export Plug-In . SVG Version: 6.00 Build 0)  -->
<!DOCTYPE svg PUBLIC "-//W3C//DTD SVG 1.1//EN" "http://www.w3.org/Graphics/SVG/1.1/DTD/svg11.dtd">
<svg version="1.1" id="圖層_1" xmlns="http://www.w3.org/2000/svg" xmlns:xlink="http://www.w3.org/1999/xlink" x="0px" y="0px"
	 viewBox="0 0 441.845 235.253" enable-background="new 0 0 441.845 235.253" xml:space="preserve">
<g>
	<g>
		<g>
			<path d="M221.053,78.213c-20.934,0-37.965-17.031-37.965-37.965S200.12,2.284,221.053,2.284s37.965,17.031,37.965,37.965
				S241.987,78.213,221.053,78.213z M221.053,5.261c-19.293,0-34.988,15.695-34.988,34.988s15.695,34.988,34.988,34.988
				s34.988-15.695,34.988-34.988S240.346,5.261,221.053,5.261z"/>
			<path d="M221.056,14.25c-7.442,0-14.145-2.146-17.492-5.601c-0.572-0.59-0.557-1.533,0.033-2.105
				c0.591-0.572,1.532-0.557,2.105,0.033c2.763,2.853,8.79,4.696,15.354,4.696c6.598,0,12.638-1.856,15.386-4.729
				c0.57-0.594,1.51-0.614,2.105-0.047c0.594,0.568,0.615,1.511,0.047,2.105C235.261,12.086,228.54,14.25,221.056,14.25z"/>
			<path d="M204.634,74.133c-0.37,0-0.741-0.137-1.029-0.413c-0.594-0.568-0.615-1.511-0.047-2.105
				c3.333-3.484,10.053-5.648,17.537-5.648c7.441,0,14.144,2.146,17.492,5.601c0.572,0.59,0.557,1.533-0.033,2.105
				c-0.589,0.572-1.531,0.558-2.105-0.033c-2.765-2.853-8.791-4.696-15.354-4.696c-6.598,0-12.637,1.856-15.386,4.729
				C205.416,73.98,205.025,74.133,204.634,74.133z"/>
			<path d="M220.793,68.945c-0.822,0-1.488-0.666-1.488-1.488V12.762c0-0.822,0.666-1.488,1.488-1.488
				c0.822,0,1.488,0.666,1.488,1.488v54.695C222.282,68.278,221.615,68.945,220.793,68.945z"/>
			<path d="M210.723,70.685c-0.496,0-0.981-0.248-1.264-0.7c-5.562-8.904-8.502-19.186-8.502-29.736
				c0-10.559,2.946-20.85,8.518-29.761c0.435-0.697,1.353-0.908,2.051-0.473c0.697,0.436,0.908,1.354,0.472,2.051
				c-5.276,8.437-8.064,18.182-8.064,28.183c0,9.992,2.783,19.729,8.05,28.159c0.435,0.697,0.223,1.615-0.474,2.051
				C211.265,70.611,210.992,70.685,210.723,70.685z"/>
			<path d="M230.811,70.332c-0.267,0-0.537-0.072-0.781-0.223c-0.699-0.432-0.916-1.349-0.483-2.048
				c5.178-8.378,7.915-18.041,7.915-27.942c0-9.922-2.748-19.602-7.946-27.993c-0.433-0.699-0.217-1.616,0.481-2.049
				c0.699-0.432,1.616-0.217,2.049,0.481c5.491,8.862,8.393,19.083,8.393,29.56c0,10.454-2.891,20.658-8.36,29.507
				C231.797,70.081,231.309,70.332,230.811,70.332z"/>
		</g>
		<g>
			<path d="M71.843,58.243c-6.215,0-18.71-8.32-31.092-20.703C29.909,26.699,15.777,8.572,21.28,3.069
				c0.818-0.818,1.955-1.232,3.379-1.232c6.215,0,18.71,8.32,31.092,20.703c10.842,10.841,24.974,28.968,19.471,34.471
				C74.405,57.828,73.267,58.243,71.843,58.243z M24.659,4.813c-0.417,0-0.977,0.063-1.275,0.36
				c-2.2,2.2,4.292,15.082,19.471,30.262c13.019,13.019,24.437,19.831,28.988,19.831c0.417,0,0.977-0.062,1.275-0.36
				c0.686-0.686,0.773-3.635-3.255-10.331c-3.617-6.012-9.376-13.091-16.215-19.931C40.628,11.625,29.21,4.813,24.659,4.813z"/>
			<path d="M61.036,44.707c-3.244,0-13.27-9.861-15.247-11.838c-3.486-3.486-6.603-6.939-8.774-9.723
				c-3.041-3.899-3.704-5.698-2.529-6.872c0.345-0.345,0.824-0.535,1.347-0.535c3.244,0,13.27,9.862,15.247,11.839
				c13.949,13.948,12.027,15.87,11.303,16.594C62.038,44.517,61.559,44.707,61.036,44.707z M38.819,20.608
				c1.825,2.419,4.914,5.995,9.075,10.156c4.161,4.161,7.736,7.249,10.155,9.073c-1.825-2.419-4.913-5.994-9.074-10.155
				C44.813,25.521,41.237,22.432,38.819,20.608z"/>
			<path d="M48.297,68.209c-9.776,0-19.565-3.732-27.025-11.191c-7.204-7.203-11.184-16.767-11.209-26.93
				c-0.025-10.166,3.911-19.714,11.083-26.885c0.581-0.581,1.523-0.581,2.105,0c0.581,0.581,0.581,1.524,0,2.105
				c-6.608,6.607-10.234,15.406-10.211,24.773c0.023,9.371,3.694,18.19,10.337,24.833c13.713,13.711,35.965,13.768,49.607,0.126
				c0.581-0.581,1.523-0.581,2.105,0c0.581,0.581,0.581,1.524,0,2.105C67.711,64.522,58.011,68.209,48.297,68.209z"/>
			<path d="M12.791,78.661c-1.648,0-3.198-0.642-4.363-1.808c-1.323-1.322-1.918-3.1-1.788-4.833
				c-1.778,0.131-3.558-0.512-4.835-1.79c-2.406-2.406-2.406-6.321,0-8.727c1.166-1.166,2.716-1.807,4.363-1.807
				c1.14,0,2.233,0.307,3.185,0.882l8.986-8.986c0.301-0.301,0.709-0.457,1.141-0.434c0.424,0.025,0.818,0.231,1.081,0.566
				c0.919,1.169,1.841,2.213,2.817,3.189c0.974,0.973,2.017,1.895,3.189,2.816c0.334,0.263,0.541,0.657,0.565,1.081
				c0.025,0.425-0.132,0.84-0.433,1.141l-8.913,8.913c1.751,2.412,1.54,5.815-0.632,7.988
				C15.989,78.019,14.439,78.661,12.791,78.661z M10.967,69.179c0,0.381-0.145,0.762-0.436,1.052
				c-1.245,1.246-1.245,3.272,0.001,4.518c0.603,0.604,1.406,0.936,2.259,0.936s1.656-0.332,2.259-0.936
				c1.245-1.246,1.245-3.272,0-4.518c-0.085-0.085-0.175-0.163-0.267-0.236c-0.33-0.265-0.532-0.657-0.555-1.08
				c-0.023-0.423,0.134-0.835,0.434-1.134l8.771-8.771c-0.761-0.649-1.475-1.308-2.159-1.992c-0.674-0.675-1.341-1.398-1.991-2.16
				l-8.749,8.749c-0.581,0.581-1.523,0.581-2.105,0c-0.603-0.604-1.406-0.936-2.259-0.936c-0.853,0-1.656,0.332-2.259,0.936
				c-1.245,1.245-1.245,3.272,0,4.518c0.603,0.603,1.406,0.936,2.259,0.936s1.656-0.332,2.259-0.936
				c0.581-0.581,1.523-0.581,2.105,0C10.822,68.417,10.967,68.797,10.967,69.179z"/>
		</g>
		<g>
			<path d="M403.882,66.79c-18.414,0-33.395-14.981-33.395-33.395C370.486,14.981,385.468,0,403.882,0s33.395,14.981,33.395,33.395
				C437.276,51.809,422.296,66.79,403.882,66.79z M403.882,2.977c-16.773,0-30.419,13.646-30.419,30.418
				c0,16.773,13.646,30.419,30.419,30.419c16.772,0,30.418-13.646,30.418-30.419C434.299,16.622,420.654,2.977,403.882,2.977z"/>
			<path d="M403.882,66.79c-18.414,0-33.395-14.981-33.395-33.395C370.486,14.981,385.468,0,403.882,0s33.395,14.981,33.395,33.395
				C437.276,51.809,422.296,66.79,403.882,66.79z M403.882,2.977c-16.773,0-30.419,13.646-30.419,30.418
				c0,16.773,13.646,30.419,30.419,30.419c16.772,0,30.418-13.646,30.418-30.419C434.299,16.622,420.654,2.977,403.882,2.977z"/>
			<path d="M403.882,57.691c-13.396,0-24.296-10.899-24.296-24.296c0-13.396,10.899-24.295,24.296-24.295
				c13.396,0,24.295,10.899,24.295,24.295C428.176,46.792,417.278,57.691,403.882,57.691z M403.882,12.077
				c-11.755,0-21.319,9.563-21.319,21.318c0,11.755,9.563,21.319,21.319,21.319c11.755,0,21.318-9.563,21.318-21.319
				C425.2,21.64,415.636,12.077,403.882,12.077z"/>
			<path d="M412.485,41.886c-0.33,0-0.663-0.109-0.938-0.334c-0.638-0.519-0.734-1.456-0.216-2.094
				c0.674-0.829,1.204-1.764,1.574-2.779c0.94-2.586,0.726-5.457-0.59-7.876c-1.118-2.056-2.948-3.629-5.149-4.431
				c-0.773-0.281-1.171-1.135-0.89-1.908c0.281-0.773,1.135-1.169,1.907-0.89c2.885,1.05,5.281,3.112,6.747,5.806
				c1.724,3.169,2.005,6.929,0.773,10.317c-0.484,1.328-1.177,2.552-2.062,3.64C413.346,41.699,412.917,41.886,412.485,41.886z"/>
			<path d="M403.882,75.929c-7.387,0-14.344-0.483-19.59-1.359c-6.488-1.084-9.256-2.489-9.256-4.699
				c0-2.21,2.768-3.615,9.256-4.699c5.246-0.876,12.203-1.359,19.59-1.359c7.387,0,14.343,0.483,19.589,1.359
				c6.488,1.084,9.256,2.489,9.256,4.699c0,2.21-2.768,3.615-9.256,4.699C418.225,75.446,411.268,75.929,403.882,75.929z
				 M378.332,69.871c2.045,1.201,10.656,3.081,25.55,3.081s23.504-1.88,25.549-3.081c-2.045-1.201-10.656-3.081-25.549-3.081
				S380.377,68.671,378.332,69.871z"/>
			<path d="M403.882,75.929c-7.387,0-14.344-0.483-19.59-1.359c-6.488-1.084-9.256-2.489-9.256-4.699
				c0-2.21,2.768-3.615,9.256-4.699c5.246-0.876,12.203-1.359,19.59-1.359c7.387,0,14.343,0.483,19.589,1.359
				c6.488,1.084,9.256,2.489,9.256,4.699c0,2.21-2.768,3.615-9.256,4.699C418.225,75.446,411.268,75.929,403.882,75.929z
				 M378.332,69.871c2.045,1.201,10.656,3.081,25.55,3.081s23.504-1.88,25.549-3.081c-2.045-1.201-10.656-3.081-25.549-3.081
				S380.377,68.671,378.332,69.871z"/>
			<circle cx="405.807" cy="45.745" r="1.985"/>
			<path d="M403.881,80.498c-7.387,0-14.343-0.483-19.589-1.359c-6.488-1.084-9.256-2.489-9.256-4.699v-4.569
				c0-0.822,0.666-1.488,1.488-1.488h0.001c0.738,0,1.35,0.536,1.468,1.24c1.176,1.168,9.922,3.329,25.889,3.329
				s24.713-2.161,25.889-3.329c0.118-0.704,0.73-1.241,1.468-1.241c0.822,0,1.488,0.666,1.488,1.488v4.569
				c0,2.21-2.768,3.615-9.256,4.699C418.225,80.015,411.268,80.498,403.881,80.498z M378.013,74.212
				c1.255,1.173,9.992,3.309,25.868,3.309c15.877,0,24.614-2.136,25.869-3.309v-1.214c-1.483,0.605-3.552,1.117-6.279,1.572
				c-5.246,0.876-12.203,1.359-19.59,1.359c-7.386,0-14.343-0.483-19.588-1.358c-2.727-0.456-4.797-0.968-6.28-1.573V74.212z"/>
		</g>
	</g>
	<g>
		<g>
			<path d="M434.028,229.701h-60.294c-4.31,0-7.817-3.507-7.817-7.817v-5.255c0-4.31,3.507-7.817,7.817-7.817h60.294
				c4.31,0,7.817,3.507,7.817,7.817v5.255C441.845,226.194,438.339,229.701,434.028,229.701z M373.734,211.789
				c-2.669,0-4.84,2.171-4.84,4.84v5.255c0,2.669,2.172,4.84,4.84,4.84h60.294c2.669,0,4.84-2.171,4.84-4.84v-5.255
				c0-2.669-2.172-4.84-4.84-4.84H373.734z"/>
			<path d="M412.843,211.527h-18.059c-0.822,0-1.488-0.666-1.488-1.488v-11.794c0-4.276-1.486-8.305-4.182-11.348
				c-3.667-4.136-5.395-9.466-4.866-15.008c0.865-9.05,9.273-17.178,18.359-17.751c11.486-0.718,21.002,8.387,21.001,19.686
				c0,4.812-1.754,9.447-4.938,13.05c-2.798,3.166-4.339,7.258-4.339,11.524v11.64C414.331,210.86,413.665,211.527,412.843,211.527z
				 M396.272,208.55h15.082v-10.152c0-4.992,1.806-9.785,5.084-13.495c2.704-3.059,4.192-6.994,4.192-11.079
				c0-9.596-8.104-17.325-17.837-16.715c-7.58,0.477-14.862,7.516-15.582,15.063c-0.45,4.71,1.017,9.239,4.129,12.75
				c3.18,3.587,4.932,8.319,4.932,13.323V208.55z"/>
		</g>
		<g>
			<path d="M202.815,162.838c-3.94,0-7.146-3.206-7.146-7.146c0-3.94,3.206-7.146,7.146-7.146c3.941,0,7.146,3.206,7.146,7.146
				C209.962,159.632,206.756,162.838,202.815,162.838z M202.815,151.523c-2.299,0-4.169,1.87-4.169,4.169
				c0,2.299,1.87,4.169,4.169,4.169c2.299,0,4.169-1.87,4.169-4.169C206.985,153.393,205.114,151.523,202.815,151.523z"/>
			<path d="M248.148,235.253c-0.46,0-0.926-0.044-1.384-0.131c-2.832-0.536-5.095-2.799-5.63-5.63
				c-0.404-2.129,0.146-4.294,1.509-5.94c1.658-2.001,4.304-2.951,6.89-2.459c2.831,0.537,5.094,2.799,5.63,5.63
				c0.404,2.13-0.146,4.295-1.509,5.941C252.29,234.309,250.283,235.253,248.148,235.253z M248.147,223.938
				c-1.246,0-2.416,0.551-3.212,1.512c-0.807,0.975-1.118,2.213-0.877,3.487c0.305,1.614,1.646,2.954,3.26,3.26
				c1.536,0.289,3.072-0.261,4.043-1.433c0.807-0.974,1.118-2.213,0.877-3.487c-0.306-1.613-1.647-2.954-3.26-3.26
				C248.701,223.965,248.421,223.938,248.147,223.938z"/>
			<path d="M239.281,162.838c-0.459,0-0.925-0.044-1.385-0.132c-2.83-0.536-5.093-2.799-5.63-5.63
				c-0.403-2.13,0.147-4.295,1.509-5.94c1.656-2,4.294-2.951,6.89-2.459c2.83,0.536,5.093,2.799,5.629,5.63
				c0.403,2.13-0.147,4.295-1.509,5.941C243.423,161.894,241.416,162.838,239.281,162.838z M239.281,151.523
				c-1.246,0-2.416,0.551-3.212,1.512c-0.807,0.975-1.119,2.213-0.878,3.487c0.306,1.613,1.646,2.954,3.26,3.26
				c1.538,0.29,3.072-0.261,4.044-1.433c0.807-0.975,1.118-2.213,0.877-3.487c-0.306-1.613-1.646-2.954-3.26-3.26
				C239.834,151.55,239.555,151.523,239.281,151.523z"/>
			<path d="M221.053,202.244c-20.934,0-37.965-11.385-37.965-25.378c0-7.718,5.121-14.913,14.05-19.741
				c0.723-0.392,1.626-0.122,2.018,0.601c0.39,0.723,0.121,1.626-0.602,2.017c-7.937,4.291-12.489,10.532-12.489,17.122
				c0,12.352,15.695,22.401,34.988,22.401s34.988-10.049,34.988-22.401c0-6.463-4.409-12.625-12.095-16.907
				c-0.719-0.4-0.977-1.306-0.576-2.024c0.4-0.718,1.307-0.976,2.024-0.576c8.659,4.822,13.624,11.932,13.624,19.507
				C259.018,190.859,241.987,202.244,221.053,202.244z"/>
			<path d="M242.49,229.596h-44.5c-3.333,0-6.044-2.712-6.044-6.045c0-3.339,2.712-6.051,6.044-6.051h18.507
				c1.692,0,3.068-1.376,3.068-3.068v-13.676c0-0.822,0.666-1.488,1.488-1.488c0.822,0,1.488,0.666,1.488,1.488v13.676
				c0,3.333-2.712,6.045-6.045,6.045H197.99c-1.691,0-3.068,1.376-3.068,3.068c0,1.698,1.376,3.074,3.068,3.074h44.5
				c0.822,0,1.488,0.666,1.488,1.488C243.978,228.929,243.312,229.596,242.49,229.596z"/>
		</g>
		<g>
			<path d="M33.021,232.865c-15.159,0-27.52-12.333-27.555-27.492l-0.001-8.644c0-15.195,12.361-27.557,27.557-27.557
				s27.557,12.362,27.557,27.557v8.641C60.542,220.532,48.18,232.865,33.021,232.865z M33.021,172.148
				c-13.553,0-24.58,11.027-24.58,24.58v8.641c0.033,13.518,11.059,24.519,24.58,24.519c13.522,0,24.548-11.001,24.578-24.522
				l0.001-8.638C57.601,183.175,46.575,172.148,33.021,172.148z"/>
			<path d="M33.021,172.148c-0.822,0-1.488-0.666-1.488-1.488c0-10.877,8.849-19.726,19.726-19.726h18.238
				c0.822,0,1.488,0.666,1.488,1.488c0,0.822-0.666,1.488-1.488,1.488H51.26c-9.236,0-16.75,7.514-16.75,16.749
				C34.51,171.482,33.843,172.148,33.021,172.148z"/>
			<path d="M28.857,196.39H7.021c-0.822,0-1.488-0.666-1.488-1.488c0-0.822,0.666-1.488,1.488-1.488h21.836
				c0.822,0,1.488,0.666,1.488,1.488C30.346,195.723,29.679,196.39,28.857,196.39z"/>
			<path d="M59.005,196.39H37.168c-0.822,0-1.488-0.666-1.488-1.488c0-0.822,0.666-1.488,1.488-1.488h21.837
				c0.822,0,1.488,0.666,1.488,1.488C60.494,195.723,59.827,196.39,59.005,196.39z"/>
			<path d="M33.021,189.446c-0.822,0-1.488-0.666-1.488-1.488V170.66c0-0.822,0.666-1.488,1.488-1.488
				c0.822,0,1.488,0.666,1.488,1.488v17.298C34.51,188.779,33.843,189.446,33.021,189.446z"/>
			<path d="M37.187,203.333h-8.329c-0.822,0-1.488-0.666-1.488-1.488v-13.887c0-0.822,0.666-1.488,1.488-1.488h8.329
				c0.822,0,1.488,0.666,1.488,1.488v13.887C38.675,202.667,38.008,203.333,37.187,203.333z M30.346,200.356h5.353v-10.91h-5.353
				V200.356z"/>
		</g>
	</g>
</g>
</svg>
