<?xml version="1.0" encoding="utf-8"?>
<!-- Generator: Adobe Illustrator 17.1.0, SVG Export Plug-In . SVG Version: 6.00 Build 0)  -->
<!DOCTYPE svg PUBLIC "-//W3C//DTD SVG 1.1//EN" "http://www.w3.org/Graphics/SVG/1.1/DTD/svg11.dtd">
<svg version="1.1" id="圖層_1" xmlns="http://www.w3.org/2000/svg" xmlns:xlink="http://www.w3.org/1999/xlink" x="0px" y="0px"
	 viewBox="0 0 441.581 227.58" enable-background="new 0 0 441.581 227.58" xml:space="preserve">
<g>
	<g>
		<g>
			<path d="M250.94,66.913h-60.295c-4.31,0-7.817-3.507-7.817-7.817V16.832c0-4.31,3.507-7.817,7.817-7.817h60.295
				c4.31,0,7.817,3.507,7.817,7.817v42.264C258.757,63.407,255.25,66.913,250.94,66.913z M190.645,11.992
				c-2.669,0-4.84,2.171-4.84,4.84v42.264c0,2.669,2.172,4.84,4.84,4.84h60.295c2.669,0,4.84-2.171,4.84-4.84V16.832
				c0-2.669-2.172-4.84-4.84-4.84H190.645z"/>
			<path d="M257.268,30.456h-72.952c-0.822,0-1.488-0.666-1.488-1.488s0.666-1.488,1.488-1.488h72.952
				c0.822,0,1.488,0.666,1.488,1.488S258.09,30.456,257.268,30.456z"/>
			<path d="M211.673,39.575h-18.238c-0.822,0-1.488-0.666-1.488-1.488c0-0.822,0.666-1.488,1.488-1.488h18.238
				c0.822,0,1.488,0.666,1.488,1.488C213.162,38.909,212.495,39.575,211.673,39.575z"/>
			<path d="M248.149,48.694h-18.237c-0.822,0-1.488-0.666-1.488-1.488c0-0.822,0.666-1.488,1.488-1.488h18.237
				c0.822,0,1.488,0.666,1.488,1.488C249.637,48.028,248.971,48.694,248.149,48.694z"/>
			<path d="M248.149,57.813h-18.237c-0.822,0-1.488-0.666-1.488-1.488c0-0.822,0.666-1.488,1.488-1.488h18.237
				c0.822,0,1.488,0.666,1.488,1.488C249.637,57.147,248.971,57.813,248.149,57.813z"/>
		</g>
		<g>
			<path d="M57.23,75.929H18.698c-7.8,0-14.146-6.346-14.146-14.146V14.146C4.552,6.346,10.899,0,18.698,0H57.23
				c7.8,0,14.146,6.346,14.146,14.146v47.637C71.376,69.583,65.03,75.929,57.23,75.929z M18.698,2.977
				c-6.159,0-11.169,5.01-11.169,11.169v47.637c0,6.159,5.01,11.169,11.169,11.169H57.23c6.159,0,11.169-5.01,11.169-11.169V14.146
				c0-6.159-5.01-11.169-11.169-11.169H18.698z"/>
			<path d="M52.325,28.972H23.604c-5.474,0-9.927-4.453-9.927-9.926s4.453-9.926,9.927-9.926h28.721
				c5.474,0,9.927,4.453,9.927,9.926S57.799,28.972,52.325,28.972z M23.604,12.096c-3.832,0-6.95,3.117-6.95,6.95
				s3.118,6.95,6.95,6.95h28.721c3.832,0,6.95-3.117,6.95-6.95s-3.118-6.95-6.95-6.95H23.604z"/>
			<g>
				<path d="M34.677,61.836H27.14c-0.822,0-1.488-0.666-1.488-1.488c0-0.822,0.666-1.488,1.488-1.488h7.537
					c0.822,0,1.488,0.666,1.488,1.488C36.166,61.17,35.499,61.836,34.677,61.836z"/>
				<path d="M43.459,64.501c-0.381,0-0.762-0.145-1.052-0.436c-0.581-0.581-0.581-1.524,0-2.105l5.329-5.33
					c0.581-0.581,1.523-0.581,2.105,0c0.581,0.581,0.581,1.524,0,2.105l-5.329,5.33C44.22,64.356,43.84,64.501,43.459,64.501z"/>
				<g>
					<path d="M34.677,45.497H27.14c-0.822,0-1.488-0.666-1.488-1.488c0-0.822,0.666-1.488,1.488-1.488h7.537
						c0.822,0,1.488,0.666,1.488,1.488C36.166,44.831,35.499,45.497,34.677,45.497z"/>
					<path d="M30.909,49.266c-0.822,0-1.488-0.666-1.488-1.488V40.24c0-0.822,0.666-1.488,1.488-1.488s1.488,0.666,1.488,1.488
						v7.538C32.398,48.6,31.731,49.266,30.909,49.266z"/>
				</g>
				<path d="M48.788,48.162c-0.381,0-0.762-0.145-1.052-0.436l-5.329-5.33c-0.581-0.581-0.581-1.524,0-2.105
					c0.581-0.581,1.523-0.581,2.105,0l5.329,5.33c0.581,0.581,0.581,1.524,0,2.105C49.55,48.017,49.169,48.162,48.788,48.162z"/>
				<path d="M43.459,48.162c-0.381,0-0.762-0.145-1.052-0.436c-0.581-0.581-0.581-1.523,0-2.105l5.329-5.33
					c0.581-0.581,1.523-0.581,2.105,0c0.581,0.581,0.581,1.523,0,2.105l-5.329,5.33C44.22,48.017,43.84,48.162,43.459,48.162z"/>
			</g>
		</g>
		<g>
			<path d="M435.537,75.929h-54.714c-0.822,0-1.488-0.666-1.488-1.488V1.488c0-0.822,0.666-1.488,1.488-1.488h54.714
				c0.822,0,1.488,0.666,1.488,1.488V74.44C437.025,75.262,436.359,75.929,435.537,75.929z M382.311,72.952h51.737V2.977h-51.737
				V72.952z"/>
			<path d="M380.823,75.929h-9.119c-0.822,0-1.488-0.666-1.488-1.488V1.488c0-0.822,0.666-1.488,1.488-1.488h9.119
				c0.822,0,1.488,0.666,1.488,1.488V74.44C382.311,75.262,381.645,75.929,380.823,75.929z M373.192,72.952h6.143V2.977h-6.143
				V72.952z"/>
			<path d="M417.299,21.149h-18.238c-0.822,0-1.488-0.666-1.488-1.488s0.666-1.488,1.488-1.488h18.238
				c0.822,0,1.488,0.666,1.488,1.488S418.121,21.149,417.299,21.149z"/>
			<path d="M417.299,30.334h-18.238c-0.822,0-1.488-0.666-1.488-1.488s0.666-1.488,1.488-1.488h18.238
				c0.822,0,1.488,0.666,1.488,1.488S418.121,30.334,417.299,30.334z"/>
		</g>
	</g>
	<g>
		<g>
			<path d="M74.44,227.579H1.488c-0.602,0-1.145-0.363-1.375-0.919c-0.23-0.556-0.103-1.196,0.323-1.622l72.952-72.952
				c0.426-0.426,1.063-0.554,1.622-0.323c0.556,0.23,0.919,0.773,0.919,1.375v72.952C75.928,226.913,75.262,227.579,74.44,227.579z
				 M5.082,224.602h67.87v-67.87L5.082,224.602z"/>
			<path d="M56.203,209.341H43.593c-0.602,0-1.145-0.363-1.375-0.919c-0.23-0.556-0.103-1.196,0.323-1.622l12.609-12.609
				c0.426-0.427,1.064-0.553,1.622-0.323c0.556,0.23,0.919,0.773,0.919,1.375v12.609C57.691,208.675,57.025,209.341,56.203,209.341z
				 M47.186,206.364h7.528v-7.527L47.186,206.364z"/>
			<path d="M74.44,209.341h-4.559c-0.822,0-1.488-0.666-1.488-1.488c0-0.822,0.666-1.488,1.488-1.488h4.559
				c0.822,0,1.488,0.666,1.488,1.488C75.928,208.675,75.262,209.341,74.44,209.341z"/>
			<path d="M74.44,191.104h-4.559c-0.822,0-1.488-0.666-1.488-1.488c0-0.822,0.666-1.488,1.488-1.488h4.559
				c0.822,0,1.488,0.666,1.488,1.488C75.928,190.437,75.262,191.104,74.44,191.104z"/>
			<path d="M74.44,172.865h-4.559c-0.822,0-1.488-0.666-1.488-1.488s0.666-1.488,1.488-1.488h4.559c0.822,0,1.488,0.666,1.488,1.488
				S75.262,172.865,74.44,172.865z"/>
			<path d="M19.726,227.579c-0.822,0-1.488-0.666-1.488-1.488v-4.559c0-0.822,0.666-1.488,1.488-1.488s1.488,0.666,1.488,1.488
				v4.559C21.215,226.913,20.548,227.579,19.726,227.579z"/>
			<path d="M37.965,227.579c-0.822,0-1.488-0.666-1.488-1.488v-4.559c0-0.822,0.666-1.488,1.488-1.488
				c0.822,0,1.488,0.666,1.488,1.488v4.559C39.453,226.913,38.786,227.579,37.965,227.579z"/>
			<path d="M56.203,227.579c-0.822,0-1.488-0.666-1.488-1.488v-4.559c0-0.822,0.666-1.488,1.488-1.488
				c0.822,0,1.488,0.666,1.488,1.488v4.559C57.691,226.913,57.025,227.579,56.203,227.579z"/>
		</g>
		<g>
			<path d="M389.712,211.459c-0.381,0-0.762-0.145-1.052-0.436l-6.448-6.448c-0.581-0.581-0.581-1.524,0-2.105l38.688-38.689
				c0.558-0.558,1.547-0.558,2.105,0l6.448,6.448c0.581,0.581,0.581,1.524,0,2.105l-38.688,38.688
				C390.474,211.314,390.093,211.459,389.712,211.459z M385.369,203.523l4.343,4.343l36.584-36.583l-4.343-4.343L385.369,203.523z"
				/>
			<path d="M421.953,179.218c-0.381,0-0.762-0.145-1.052-0.436l-6.448-6.448c-0.581-0.581-0.581-1.524,0-2.105
				c0.581-0.581,1.523-0.581,2.105,0l6.448,6.448c0.581,0.581,0.581,1.524,0,2.105C422.715,179.073,422.334,179.218,421.953,179.218
				z"/>
			<path d="M367.143,227.58c-0.705,0-1.331-0.503-1.462-1.221c-0.148-0.809,0.387-1.584,1.196-1.732
				c4.264-0.781,15.91-3.386,18.56-6.036c2.975-2.975,2.975-7.816,0-10.791c-0.581-0.581-0.581-1.524,0-2.105
				c0.581-0.581,1.523-0.581,2.105,0c4.136,4.136,4.136,10.865,0,15.001c-3.78,3.781-18.466,6.556-20.129,6.86
				C367.322,227.572,367.231,227.58,367.143,227.58z"/>
			<path d="M367.146,227.58c-0.089,0-0.179-0.008-0.269-0.025c-0.809-0.148-1.345-0.923-1.197-1.732
				c0.305-1.662,3.079-16.349,6.86-20.129c4.136-4.136,10.867-4.136,15.001,0c0.581,0.581,0.581,1.524,0,2.105
				c-0.581,0.581-1.523,0.581-2.105,0c-2.976-2.975-7.817-2.974-10.792,0c-2.355,2.355-4.952,12.634-6.036,18.56
				C368.477,227.077,367.851,227.58,367.146,227.58z"/>
			<path d="M425.177,169.546c-0.388,0-0.768-0.152-1.052-0.436c-0.411-0.411-0.545-1.023-0.344-1.568
				c0.724-1.96,4.441-11.847,6.557-13.962c1.244-1.244,2.898-1.93,4.659-1.93c1.759,0,3.414,0.685,4.659,1.93
				c2.568,2.569,2.568,6.749,0,9.318c-2.116,2.116-12.002,5.833-13.963,6.556C425.524,169.516,425.35,169.546,425.177,169.546z
				 M434.996,154.627c-0.965,0-1.871,0.376-2.554,1.058c-0.964,0.964-3.019,5.603-4.679,9.787c4.183-1.66,8.823-3.716,9.787-4.679
				c1.408-1.408,1.408-3.699,0-5.108C436.867,155.003,435.96,154.627,434.996,154.627z"/>
			<path d="M383.443,223.02h-7.18c-0.822,0-1.488-0.666-1.488-1.488v-3.071h-3.071c-0.822,0-1.488-0.666-1.488-1.488v-7.18
				c0-0.822,0.666-1.488,1.488-1.488s1.488,0.666,1.488,1.488v5.691h3.071c0.822,0,1.488,0.666,1.488,1.488v3.071h5.692
				c0.822,0,1.488,0.666,1.488,1.488C384.932,222.354,384.265,223.02,383.443,223.02z"/>
		</g>
		<g>
			<g>
				<path d="M248.25,166.293c-2.39,0-4.039-1.608-4.203-4.097c-0.047-0.732,0.109-1.521,0.451-2.283
					c1.406-3.143,4.366-5.338,7.198-5.338c2.39,0,4.04,1.608,4.204,4.097c0.047,0.73-0.109,1.518-0.45,2.281
					C254.043,164.097,251.082,166.293,248.25,166.293z M251.695,157.552c-1.397,0-3.442,1.254-4.48,3.578
					c-0.141,0.314-0.213,0.632-0.197,0.874c0.076,1.157,0.665,1.313,1.232,1.313c1.397,0,3.442-1.254,4.481-3.578
					c0.141-0.314,0.213-0.633,0.197-0.874C252.852,157.708,252.262,157.552,251.695,157.552z"/>
				<path d="M253.617,158.278c-0.381,0-0.762-0.145-1.052-0.436c-0.581-0.581-0.581-1.524,0-2.105l3.651-3.651
					c0.581-0.581,1.523-0.581,2.105,0s0.581,1.524,0,2.105l-3.651,3.651C254.379,158.133,253.998,158.278,253.617,158.278z"/>
			</g>
			<g>
				<path d="M229.121,175.41c-1.023,0-2.041-0.419-2.944-1.211c-0.549-0.481-0.996-1.149-1.295-1.932
					c-1.063-2.78-0.804-5.949,0.658-8.073c0.923-1.34,2.195-2.079,3.581-2.079c1.023,0,2.041,0.419,2.943,1.211
					c0.549,0.481,0.996,1.149,1.296,1.93c1.062,2.782,0.804,5.951-0.658,8.074C231.779,174.672,230.507,175.41,229.121,175.41z
					 M229.121,165.093c-0.528,0-0.966,0.552-1.129,0.79c-0.757,1.099-1.151,3.171-0.329,5.323c0.123,0.322,0.297,0.597,0.477,0.755
					c0.246,0.215,0.616,0.472,0.982,0.472c0.528,0,0.966-0.552,1.129-0.79c0.757-1.098,1.152-3.17,0.33-5.323
					c-0.123-0.321-0.297-0.597-0.478-0.756C229.857,165.35,229.487,165.093,229.121,165.093z"/>
				<path d="M229.121,165.098c-0.822,0-1.488-0.666-1.488-1.488v-5.163c0-0.822,0.666-1.488,1.488-1.488
					c0.822,0,1.488,0.666,1.488,1.488v5.163C230.61,164.431,229.943,165.098,229.121,165.098z"/>
			</g>
			<g>
				<path d="M214.531,190.001c-1.023,0-2.041-0.419-2.943-1.211c-0.549-0.481-0.998-1.149-1.297-1.932
					c-1.062-2.78-0.803-5.949,0.658-8.072c0.923-1.34,2.195-2.079,3.581-2.079c1.023,0,2.041,0.419,2.943,1.211
					c0.55,0.483,0.999,1.15,1.297,1.932c1.062,2.78,0.803,5.949-0.658,8.072C217.19,189.263,215.918,190.001,214.531,190.001z
					 M214.531,179.684c-0.528,0-0.966,0.552-1.129,0.79c-0.757,1.098-1.151,3.17-0.329,5.322c0.123,0.322,0.297,0.597,0.477,0.755
					c0.246,0.216,0.616,0.473,0.982,0.473c0.529,0,0.966-0.552,1.129-0.79c0.757-1.098,1.151-3.17,0.329-5.323
					c-0.123-0.322-0.297-0.597-0.478-0.756C215.266,179.94,214.897,179.684,214.531,179.684z"/>
				<path d="M214.531,179.688c-0.822,0-1.488-0.666-1.488-1.488v-5.163c0-0.822,0.666-1.488,1.488-1.488
					c0.822,0,1.488,0.666,1.488,1.488v5.163C216.019,179.022,215.353,179.688,214.531,179.688z"/>
			</g>
			<g>
				<path d="M199.941,204.591c-1.023,0-2.041-0.419-2.943-1.211c-0.549-0.481-0.998-1.149-1.297-1.932
					c-1.062-2.78-0.803-5.949,0.658-8.072c0.923-1.34,2.195-2.079,3.581-2.079c1.023,0,2.041,0.419,2.943,1.211
					c0.549,0.481,0.998,1.149,1.296,1.931c1.063,2.78,0.804,5.949-0.658,8.073C202.599,203.853,201.327,204.591,199.941,204.591z
					 M199.941,194.274c-0.529,0-0.966,0.552-1.129,0.79c-0.757,1.098-1.151,3.17-0.329,5.323c0.123,0.322,0.297,0.597,0.477,0.755
					c0.246,0.216,0.616,0.473,0.982,0.473c0.528,0,0.966-0.552,1.129-0.79c0.757-1.099,1.151-3.171,0.329-5.323
					c-0.123-0.322-0.297-0.597-0.477-0.755C200.676,194.531,200.306,194.274,199.941,194.274z"/>
				<path d="M199.941,194.279c-0.822,0-1.488-0.666-1.488-1.488v-5.163c0-0.822,0.666-1.488,1.488-1.488
					c0.822,0,1.488,0.666,1.488,1.488v5.163C201.429,193.612,200.763,194.279,199.941,194.279z"/>
			</g>
			<g>
				<path d="M241.645,186.178C241.644,186.178,241.644,186.178,241.645,186.178c-1.192,0-2.371-0.22-3.506-0.653
					c-0.781-0.298-1.448-0.745-1.93-1.294c-1.224-1.395-1.539-3.048-0.864-4.536c0.895-1.975,3.427-3.302,6.3-3.302
					c1.19,0,2.369,0.22,3.504,0.653c0.783,0.299,1.451,0.747,1.932,1.296c1.222,1.394,1.536,3.047,0.862,4.535
					C247.048,184.852,244.517,186.178,241.645,186.178z M241.644,179.37c-1.874,0-3.246,0.8-3.588,1.553
					c-0.066,0.147-0.269,0.593,0.39,1.343c0.158,0.18,0.434,0.355,0.755,0.477c0.795,0.304,1.617,0.457,2.443,0.457h0.001
					c1.872,0,3.245-0.8,3.586-1.552c0.067-0.147,0.269-0.594-0.39-1.344c-0.158-0.181-0.433-0.355-0.755-0.478
					C243.292,179.524,242.47,179.37,241.644,179.37z"/>
				<path d="M251.961,182.774h-5.163c-0.822,0-1.488-0.666-1.488-1.488c0-0.822,0.666-1.488,1.488-1.488h5.163
					c0.822,0,1.488,0.666,1.488,1.488C253.449,182.108,252.783,182.774,251.961,182.774z"/>
			</g>
			<g>
				<path d="M227.054,200.769L227.054,200.769c-1.191,0-2.371-0.22-3.505-0.653c-0.781-0.298-1.448-0.745-1.93-1.294
					c-1.224-1.395-1.539-3.048-0.864-4.536c0.895-1.975,3.427-3.302,6.3-3.302c1.19,0,2.369,0.22,3.504,0.653
					c0.783,0.299,1.451,0.747,1.932,1.296c1.222,1.393,1.536,3.046,0.862,4.535C232.457,199.442,229.926,200.769,227.054,200.769z
					 M227.054,193.96c-1.874,0-3.246,0.8-3.588,1.553c-0.066,0.147-0.269,0.593,0.39,1.343c0.158,0.18,0.434,0.355,0.755,0.477
					c0.795,0.304,1.617,0.458,2.443,0.458c0,0,0,0,0.001,0c1.872,0,3.245-0.8,3.586-1.553c0.067-0.147,0.269-0.593-0.39-1.344
					c-0.158-0.181-0.433-0.355-0.755-0.478C228.701,194.114,227.879,193.96,227.054,193.96z"/>
				<path d="M237.37,197.365h-5.163c-0.822,0-1.488-0.666-1.488-1.488s0.666-1.488,1.488-1.488h5.163
					c0.822,0,1.488,0.666,1.488,1.488S238.192,197.365,237.37,197.365z"/>
			</g>
			<g>
				<path d="M212.464,215.359C212.463,215.359,212.463,215.359,212.464,215.359c-1.192,0-2.371-0.22-3.506-0.653
					c-0.781-0.298-1.449-0.746-1.931-1.295c-1.223-1.394-1.538-3.047-0.863-4.535c0.895-1.975,3.426-3.302,6.3-3.302
					c1.19,0,2.369,0.22,3.504,0.653c0.781,0.298,1.449,0.746,1.931,1.295c1.223,1.394,1.538,3.047,0.863,4.535
					C217.868,214.032,215.336,215.359,212.464,215.359z M212.463,208.551c-1.874,0-3.247,0.8-3.588,1.553
					c-0.066,0.146-0.269,0.593,0.39,1.343c0.158,0.181,0.434,0.355,0.755,0.477c0.795,0.304,1.617,0.457,2.443,0.457
					c0,0,0,0,0.001,0c1.872,0,3.245-0.8,3.587-1.553c0.066-0.147,0.269-0.593-0.39-1.343c-0.158-0.181-0.434-0.355-0.755-0.477
					C214.111,208.705,213.289,208.551,212.463,208.551z"/>
				<path d="M222.78,211.955h-5.163c-0.822,0-1.488-0.666-1.488-1.488c0-0.822,0.666-1.488,1.488-1.488h5.163
					c0.822,0,1.488,0.666,1.488,1.488C224.268,211.289,223.602,211.955,222.78,211.955z"/>
			</g>
			<path d="M184.316,227.579c-0.381,0-0.762-0.145-1.052-0.436c-0.581-0.581-0.581-1.524,0-2.105l62.012-62.012
				c0.581-0.581,1.523-0.581,2.105,0c0.581,0.581,0.581,1.524,0,2.105l-62.012,62.012
				C185.078,227.434,184.697,227.579,184.316,227.579z"/>
		</g>
	</g>
</g>
</svg>
