<?xml version="1.0" encoding="utf-8"?>
<!-- Generator: Adobe Illustrator 17.1.0, SVG Export Plug-In . SVG Version: 6.00 Build 0)  -->
<!DOCTYPE svg PUBLIC "-//W3C//DTD SVG 1.1//EN" "http://www.w3.org/Graphics/SVG/1.1/DTD/svg11.dtd">
<svg version="1.1" id="圖層_1" xmlns="http://www.w3.org/2000/svg" xmlns:xlink="http://www.w3.org/1999/xlink" x="0px" y="0px"
	 viewBox="0 0 816.153 219.68" enable-background="new 0 0 816.153 219.68" xml:space="preserve">
<g>
	<g>
		<g>
			<g>
				<path fill="#040000" d="M137.382,47.303c-1.986,0-3.787,0.79-5.117,2.068h-46.68c-1.461,0-2.645-1.184-2.645-2.645V26.04
					c1.241-1.292,2.022-3.03,2.066-4.948c0.032-1.402-0.509-2.74-1.331-3.876c-4.788-6.617-11.397-3.26-11.397,1.639v4.136v23.735
					c0,1.461-1.184,2.645-2.645,2.645h-53.82c-2.784,0-5.271,2.035-5.536,4.807c-0.304,3.18,2.189,5.856,5.306,5.856h46.674
					c2.142,0,3.395,2.413,2.164,4.165l-47.486,67.589c-1.667,2.373-1.344,5.742,0.956,7.51c0.974,0.749,2.117,1.108,3.247,1.108
					c1.678,0,3.33-0.79,4.367-2.267l49.94-71.081c1.053-1.499,3.275-1.499,4.328,0l47.42,67.497c0.05,0.079,0.084,0.166,0.139,0.243
					l2.375,3.335l0.005,0.007l0,0l0.019,0.027c0.231,0.324,0.502,0.61,0.793,0.871c0.098,0.088,0.205,0.158,0.309,0.238
					c0.208,0.161,0.423,0.309,0.652,0.437c0.13,0.072,0.26,0.136,0.395,0.197c0.226,0.103,0.458,0.186,0.699,0.257
					c0.138,0.04,0.273,0.083,0.413,0.112c0.067,0.014,0.13,0.042,0.198,0.054c0.293,0.049,0.587,0.073,0.88,0.073l0.005,0.001
					c0.274,0,0.546-0.022,0.816-0.064c0.018-0.003,0.035-0.009,0.054-0.012c0.248-0.041,0.495-0.097,0.738-0.174
					c0.068-0.021,0.131-0.055,0.198-0.079c0.188-0.068,0.376-0.136,0.558-0.227c0.124-0.061,0.24-0.141,0.359-0.213
					c0.113-0.068,0.23-0.124,0.34-0.201c0.004-0.003,0.007-0.007,0.011-0.01c0.006-0.004,0.012-0.006,0.017-0.01
					c0.14-0.1,0.248-0.225,0.379-0.332c0.142-0.123,0.295-0.235,0.421-0.369c2.61-2.497,3.09-6.589,0.936-9.616
					c-1.102-1.547-2.755-2.587-4.587-2.953l-43.52-61.945c-1.231-1.752,0.022-4.165,2.164-4.165h42.354h4.136
					c0.008-0.001,0.018,0,0.027,0c2.944,0,5.331-2.387,5.331-5.331c0-0.344-0.033-0.681-0.095-1.006
					C144.221,50.089,141.121,47.303,137.382,47.303z"/>
			</g>
			<g>
				<path fill="#040000" d="M212.502,82.61l-2.636,1.207c-2.502,1.146-5.351-0.683-5.351-3.435V56.537
					c0-1.618,1.311-2.929,2.929-2.929h3.05h4.136l0.028,0c1.566,0.137,3.171-0.181,4.042-1.491c1.153-1.733,1.473-3.388,1.193-4.847
					c-0.492-3.606-3.592-6.394-7.331-6.394c-1.986,0-3.788,0.791-5.118,2.068l0,0c-1.618,0-2.929-1.311-2.929-2.929V26.04
					c1.241-1.292,2.022-3.03,2.066-4.948c0.032-1.402-0.509-2.74-1.331-3.876c-4.788-6.617-11.397-3.26-11.397,1.639v4.136v17.026
					c0,1.618-1.311,2.929-2.929,2.929h-6.957c-2.784,0-5.271,2.035-5.536,4.807c-0.304,3.18,2.189,5.856,5.306,5.856h7.186
					c1.618,0,2.929,1.311,2.929,2.929v32.186c0,1.478-0.862,2.82-2.205,3.435l-3.812,1.745c-0.777-0.275-1.599-0.438-2.447-0.438
					c-1.093,0-2.152,0.236-3.14,0.701c-1.79,0.839-3.145,2.325-3.818,4.185c-0.626,1.734-0.56,3.592,0.129,5.286
					c0.041,0.108,0.062,0.219,0.111,0.326c0.004,0.008,0.009,0.015,0.013,0.024c0.004,0.008,0.005,0.016,0.009,0.024
					c0.063,0.134,0.142,0.254,0.214,0.38c0.054,0.095,0.101,0.195,0.16,0.285c0.081,0.123,0.175,0.233,0.265,0.348
					c0.069,0.088,0.131,0.182,0.205,0.265c0.096,0.108,0.203,0.202,0.307,0.301c0.079,0.076,0.153,0.158,0.236,0.228
					c0.111,0.094,0.232,0.173,0.35,0.256c0.086,0.061,0.167,0.13,0.256,0.186c0.124,0.078,0.256,0.14,0.386,0.207
					c0.091,0.047,0.179,0.103,0.272,0.144c0.136,0.061,0.279,0.105,0.419,0.154c0.094,0.033,0.185,0.074,0.281,0.102
					c0.158,0.046,0.321,0.073,0.483,0.104c0.083,0.016,0.163,0.041,0.247,0.053c0.247,0.035,0.497,0.053,0.749,0.053
					c0.375,0,0.753-0.041,1.128-0.123c0.13-0.028,0.256-0.09,0.386-0.129c0.235-0.07,0.473-0.129,0.702-0.234l2.765-1.266
					c2.502-1.146,5.351,0.683,5.351,3.435l0,26.083c0,2.784,2.035,5.271,4.807,5.536c3.18,0.304,5.856-2.189,5.856-5.306v-34.654
					c0-1.478,0.862-2.82,2.205-3.435l10.349-4.738c3.008-1.377,4.122-5.2,2.063-8.03C217.635,82.157,214.815,81.55,212.502,82.61z"
					/>
				<path fill="#040000" d="M257.548,49.8c0.743,0,1.497-0.156,2.216-0.486l46.706-21.384c0.122-0.047,0.249-0.07,0.368-0.126
					l3.744-1.757c0.164-0.077,0.303-0.182,0.456-0.273c0.15-0.09,0.311-0.167,0.449-0.269c0.144-0.107,0.264-0.235,0.396-0.354
					c0.128-0.116,0.267-0.221,0.381-0.348c0.117-0.129,0.208-0.275,0.311-0.414c0.102-0.138,0.216-0.267,0.304-0.413
					c0.087-0.145,0.147-0.302,0.22-0.455c0.075-0.156,0.162-0.305,0.222-0.468c0.057-0.156,0.086-0.32,0.128-0.48
					c0.045-0.17,0.103-0.335,0.131-0.509c0.027-0.165,0.023-0.333,0.034-0.501c0.012-0.176,0.037-0.349,0.031-0.526
					c-0.006-0.174-0.044-0.347-0.067-0.521c-0.023-0.172-0.031-0.345-0.071-0.516c-0.043-0.181-0.12-0.356-0.183-0.535
					c-0.054-0.155-0.089-0.312-0.159-0.465c-0.003-0.007-0.008-0.013-0.012-0.02c-0.004-0.008-0.005-0.016-0.009-0.024
					c-1.212-2.586-3.843-4.258-6.7-4.258c-1.093,0-2.149,0.236-3.143,0.702c-1.765,0.828-3.043,2.272-3.715,3.954L255.325,39.62
					c-2.677,1.225-3.854,4.39-2.628,7.066C253.593,48.645,255.526,49.8,257.548,49.8z"/>
				<path fill="#040000" d="M282.931,63.868c-2.944,0-5.331,2.387-5.331,5.331v65.873c0,2.944,2.387,5.331,5.331,5.331
					c2.944,0,5.331-2.387,5.331-5.331V69.2C288.263,66.255,285.875,63.868,282.931,63.868z"/>
				<path fill="#040000" d="M258.082,63.189c-2.949-0.184-5.471,2.048-5.656,4.986c-0.025,0.403-2.726,40.631-17.852,62.705
					c-1.664,2.429-1.045,5.747,1.384,7.412c0.922,0.631,1.971,0.934,3.009,0.934c1.699,0,3.369-0.811,4.403-2.318
					c16.799-24.516,19.587-66.298,19.698-68.065C263.252,65.904,261.02,63.374,258.082,63.189z"/>
				<path fill="#040000" d="M327.751,124.978c-12.016-22.638-14.292-56.433-14.315-56.803c-0.185-2.938-2.712-5.162-5.656-4.986
					c-2.938,0.185-5.17,2.715-4.986,5.653c0.111,1.767,2.898,43.549,19.698,68.065c0.136,0.198,0.284,0.383,0.441,0.557
					c0.012,0.013,0.026,0.025,0.038,0.038c0.207,0.225,0.432,0.424,0.668,0.606c0.043,0.033,0.084,0.067,0.128,0.099
					c0.251,0.182,0.514,0.34,0.788,0.474c0.045,0.022,0.092,0.04,0.138,0.061c0.274,0.124,0.556,0.228,0.846,0.304
					c0.018,0.005,0.033,0.014,0.051,0.018c0.008,0.002,0.015,0.002,0.023,0.004c0.15,0.037,0.302,0.061,0.454,0.085
					c0.06,0.009,0.12,0.025,0.18,0.032c0.215,0.026,0.431,0.04,0.648,0.04c0.052,0,0.103-0.01,0.155-0.011
					c0.194-0.006,0.388-0.016,0.58-0.043c0.107-0.015,0.211-0.043,0.317-0.065c0.14-0.028,0.28-0.054,0.417-0.094
					c0.108-0.031,0.214-0.074,0.321-0.112c0.134-0.048,0.268-0.096,0.398-0.155c0.1-0.045,0.198-0.099,0.296-0.151
					c0.082-0.044,0.168-0.079,0.248-0.127c0.038-0.023,0.068-0.055,0.106-0.078c0.056-0.035,0.115-0.061,0.171-0.099
					c0.096-0.066,0.17-0.149,0.261-0.22c1.399-1.017,2.413-2.45,2.84-4.148c0.482-1.917,0.189-3.907-0.825-5.601
					C331.188,126.663,329.58,125.474,327.751,124.978z"/>
			</g>
			<g>
				<path fill="#040000" d="M431.514,67.571c0-2.024,1.641-3.665,3.665-3.665h5.256h4.136c0.01,0,0.018-0.001,0.028,0
					c1.566,0.137,3.171-0.181,4.042-1.491c1.153-1.733,1.473-3.388,1.193-4.847c-0.492-3.605-3.592-6.393-7.331-6.393
					c-1.986,0-3.787,0.79-5.118,2.068h-2.207c-2.024,0-3.665-1.641-3.665-3.665v0c1.241-1.292,2.022-3.03,2.066-4.948
					c0.032-1.403-0.509-2.74-1.331-3.876c-4.788-6.617-11.397-3.26-11.397,1.639v4.136v3.05c0,2.024-1.641,3.665-3.665,3.665h-9.164
					c-2.784,0-5.271,2.035-5.536,4.807c-0.304,3.18,2.189,5.856,5.306,5.856h9.393c2.024,0,3.665,1.641,3.665,3.665v1.132
					c0,2.024-1.641,3.665-3.665,3.665h-9.164c-2.784,0-5.271,2.035-5.536,4.807c-0.304,3.18,2.189,5.856,5.306,5.856h32.642h4.136
					c0.096-0.013,0.003,0.163,2.82-1.331c1.562-0.829,2.61-2.468,2.533-4.235c-0.011-0.263-0.042-0.52-0.09-0.772
					c-0.492-3.606-3.592-6.394-7.331-6.394c-1.986,0-3.788,0.791-5.118,2.068h-2.207c-2.024,0-3.665-1.641-3.665-3.665V67.571z"/>
				<path fill="#040000" d="M440.986,94.123c-1.525-1.524-3.818-1.979-5.81-1.155c-0.78,0.323-1.449,0.822-1.98,1.434h-18.046
					c-2.944,0-5.331,2.387-5.331,5.331V121.8c0,2.944,2.387,5.331,5.331,5.331h22.066c2.944,0,5.331-2.387,5.331-5.331v-18.046
					c0.612-0.531,1.111-1.2,1.434-1.98c0.825-1.992,0.37-4.286-1.155-5.81L440.986,94.123z M428.106,116.469h-3.847
					c-2.087,0-3.778-1.692-3.778-3.778v-3.848c0-2.087,1.692-3.778,3.778-3.778h3.847c2.087,0,3.778,1.692,3.778,3.778v3.848
					C431.884,114.777,430.193,116.469,428.106,116.469z"/>
				<path fill="#040000" d="M484.562,14.894c-1.178-1.178-2.807-1.876-4.464-1.713c-1.45,0.143-2.654,0.833-3.505,1.814H371.752
					c-2.944,0-5.331,2.387-5.331,5.331v114.517c0,2.784,2.035,5.271,4.807,5.536c3.18,0.304,5.855-2.189,5.855-5.306V29.322
					c0-2.024,1.641-3.665,3.665-3.665h90.869c2.024,0,3.665,1.641,3.665,3.665v105.521c0,2.784,2.035,5.271,4.807,5.536
					c3.18,0.304,5.856-2.189,5.856-5.306V24.347c0.981-0.851,1.671-2.055,1.814-3.505c0.164-1.657-0.535-3.287-1.713-4.464
					L484.562,14.894z"/>
			</g>
			<g>
				<path fill="#040000" d="M530.716,71.261h14.989h4.136c0.008-0.001,0.018,0,0.018,0c2.953,0,5.341-2.387,5.341-5.331
					c0-0.344-0.033-0.681-0.095-1.006c-0.492-3.606-3.592-6.393-7.331-6.393c-1.986,0-3.787,0.79-5.117,2.068h-11.939
					c-2.944,0-5.331,2.387-5.331,5.331C525.384,68.874,527.772,71.261,530.716,71.261z"/>
				<path fill="#040000" d="M530.716,25.657h14.989h4.136c0.008-0.001,0.018-0.001,0.018-0.001c2.953,0.001,5.341-2.387,5.341-5.331
					c0-0.344-0.033-0.68-0.095-1.006c-0.492-3.606-3.592-6.394-7.331-6.394c-1.986,0-3.787,0.791-5.118,2.068h-11.939
					c-2.944,0-5.331,2.387-5.331,5.331S527.772,25.657,530.716,25.657z"/>
				<path fill="#040000" d="M530.716,94.799h14.989h4.136c0.008-0.001,0.018-0.001,0.018-0.001c2.953,0.001,5.341-2.387,5.341-5.331
					c0-0.344-0.033-0.681-0.095-1.006c-0.492-3.606-3.592-6.393-7.331-6.393c-1.986,0-3.787,0.79-5.117,2.068h-11.939
					c-2.944,0-5.331,2.387-5.331,5.331S527.772,94.799,530.716,94.799z"/>
				<path fill="#040000" d="M552.186,36.464c-1.986,0-3.788,0.791-5.118,2.068h-20.765c-2.944,0-5.331,2.387-5.331,5.331
					c0,2.944,2.387,5.331,5.331,5.331h23.815h4.136c0.009-0.001,0.018-0.001,0.027,0c2.944,0,5.331-2.387,5.331-5.331
					c0-0.344-0.033-0.68-0.095-1.006C559.025,39.251,555.925,36.464,552.186,36.464z"/>
				<path fill="#040000" d="M653.986,65.481c-1.986,0-3.787,0.791-5.118,2.068h-19.011c-2.087,0-3.778-1.692-3.778-3.778V27.512
					c1.241-1.292,2.022-3.028,2.066-4.945c0.032-1.403-0.508-2.74-1.331-3.877c-4.788-6.62-11.399-3.263-11.399,1.637v4.136v39.309
					c0,2.087-1.692,3.778-3.778,3.778h-23.026c-2.784,0-5.271,2.035-5.536,4.807c-0.304,3.18,2.189,5.856,5.306,5.856h23.255
					c2.087,0,3.778,1.692,3.778,3.778v52.853c0,2.784,2.036,5.271,4.807,5.536c3.18,0.304,5.856-2.189,5.856-5.306V81.99
					c0-2.087,1.692-3.778,3.778-3.778h22.061h4.136c0.008-0.001,0.018-0.001,0.027,0c2.944,0,5.331-2.387,5.331-5.331
					c0-0.344-0.033-0.68-0.095-1.006C660.826,68.268,657.725,65.481,653.986,65.481z"/>
				<path fill="#040000" d="M555.817,105.924c-1.525-1.524-3.818-1.98-5.81-1.155c-0.78,0.323-1.449,0.822-1.981,1.434h-19.518
					c-2.944,0-5.331,2.387-5.331,5.331v23.538c0,2.944,2.387,5.331,5.331,5.331h23.538c2.944,0,5.331-2.387,5.331-5.331v-19.517
					c0.612-0.531,1.111-1.2,1.434-1.98c0.825-1.992,0.37-4.286-1.155-5.81L555.817,105.924z M542.938,129.741h-5.319
					c-2.087,0-3.778-1.692-3.778-3.778v-5.319c0-2.087,1.692-3.778,3.778-3.778h5.319c2.087,0,3.778,1.692,3.778,3.778v5.319
					C546.716,128.049,545.024,129.741,542.938,129.741z"/>
			</g>
			<g>
				<path fill="#040000" d="M699.934,72.368c-3.117,0-5.61,2.676-5.306,5.856c0.265,2.772,2.751,4.807,5.536,4.807l104.497,0h4.135
					c0.01,0.001,0.021,0.001,0.021,0.001c2.951-0.001,5.337-2.388,5.337-5.332c0-0.344-0.033-0.68-0.094-1.006
					c-0.492-3.605-3.592-6.394-7.331-6.394c-1.986,0-3.788,0.791-5.118,2.068h-39.928c-1.097,0-1.987-0.889-1.987-1.987V70.38
					c0-1.097,0.889-1.987,1.987-1.987h29.063h4.135c0.01,0.001,0.02,0,0.02,0c2.952,0,5.338-2.387,5.338-5.331
					c0-0.344-0.033-0.681-0.094-1.006c-0.493-3.606-3.592-6.393-7.332-6.393c-1.985,0-3.786,0.79-5.117,2.068h-26.014
					c-1.097,0-1.987-0.889-1.987-1.987v0c0-1.097,0.889-1.987,1.987-1.987h16.535c2.944,0,5.331-2.387,5.331-5.331v-5.527
					c0-2.087,1.692-3.778,3.778-3.778h16.7h4.135h0.026c2.946,0,5.331-2.387,5.331-5.331c0-0.344-0.033-0.68-0.094-1.006
					c-0.493-3.605-3.592-6.393-7.331-6.393c-1.986,0-3.788,0.79-5.118,2.068h-15.442c-1.097,0-1.987-0.889-1.987-1.987v-3.297
					c0.98-0.851,1.67-2.054,1.813-3.503c0.164-1.657-0.534-3.287-1.712-4.464l-1.487-1.487c-1.177-1.177-2.807-1.875-4.463-1.711
					c-1.449,0.144-2.653,0.833-3.504,1.813l-10.222,0c-1.204,0-2.219-0.959-2.211-2.163c0-0.014,0-0.028,0-0.043
					c0.002-1.18-0.397-2.34-1.056-3.319c-4.805-7.146-11.675-3.754-11.675,1.24v0.507c0,2.087-1.692,3.778-3.778,3.778l-14.513,0
					c-2.784,0-5.271,2.035-5.536,4.807c-0.304,3.18,2.189,5.856,5.306,5.856h16.534c1.097,0,1.987,0.889,1.987,1.987v0
					c0,1.097-0.889,1.987-1.987,1.987l-46.25,0c-2.784,0-5.271,2.035-5.536,4.807c-0.304,3.18,2.189,5.856,5.306,5.856h46.479
					c1.097,0,1.987,0.89,1.987,1.987v0c0,1.097-0.89,1.987-1.987,1.987l-16.304,0c-2.784,0-5.271,2.035-5.536,4.807
					c-0.304,3.18,2.189,5.856,5.306,5.856h16.534c1.097,0,1.987,0.889,1.987,1.987v0c0,1.097-0.889,1.987-1.987,1.987l-32.969,0
					c-2.784,0-5.271,2.035-5.536,4.807c-0.304,3.18,2.189,5.856,5.306,5.856h33.199c1.097,0,1.987,0.889,1.987,1.987v0.001
					c0,1.097-0.889,1.987-1.987,1.987H699.934z M761.682,24.485h9.217c1.097,0,1.987,0.889,1.987,1.987v0
					c0,1.097-0.889,1.987-1.987,1.987h-9.217c-1.097,0-1.987-0.889-1.987-1.987v0C759.696,25.375,760.585,24.485,761.682,24.485z
					 M761.683,39.121h9.217c1.097,0,1.987,0.89,1.987,1.987v0c0,1.097-0.89,1.987-1.987,1.987h-9.217
					c-1.097,0-1.987-0.89-1.987-1.987v0C759.696,40.011,760.585,39.121,761.683,39.121z"/>
				<path fill="#040000" d="M806.728,127.673c-1.986,0-3.788,0.791-5.118,2.068H699.934c-2.944,0-5.331,2.387-5.331,5.331
					s2.387,5.331,5.331,5.331H804.66h4.135c0.01,0.001,0.021,0.001,0.026,0c2.945,0,5.331-2.387,5.331-5.331
					c0-0.344-0.033-0.68-0.094-1.006C813.567,130.461,810.467,127.673,806.728,127.673z"/>
				<path fill="#040000" d="M776.286,85.309c-0.781,0.323-1.45,0.822-1.981,1.434h-19.941h-23.96c-2.944,0-5.331,2.387-5.331,5.331
					v14.311v14.311c0,2.944,2.387,5.331,5.331,5.331h23.96h23.961c2.944,0,5.331-2.387,5.331-5.331v-14.311v-10.29
					c0.612-0.531,1.111-1.2,1.434-1.981c0.825-1.992,0.37-4.286-1.156-5.81l-1.841-1.84
					C780.571,84.94,778.278,84.483,776.286,85.309z M771.181,101.054h-9.672c-1.002,0-1.814-0.812-1.814-1.814v-0.021
					c0-1.002,0.812-1.814,1.814-1.814h9.672c1.002,0,1.813,0.812,1.813,1.814v0.021
					C772.994,100.242,772.182,101.054,771.181,101.054z M737.549,97.406h9.67c1.002,0,1.814,0.812,1.814,1.814v0.021
					c0,1.002-0.812,1.814-1.814,1.814h-9.67c-1.002,0-1.813-0.812-1.813-1.814v-0.021C735.736,98.218,736.548,97.406,737.549,97.406
					z M737.549,111.717h9.67c1.002,0,1.814,0.812,1.814,1.814v0.021c0,1.002-0.812,1.814-1.814,1.814h-9.67
					c-1.002,0-1.813-0.812-1.813-1.814v-0.021C735.736,112.529,736.548,111.717,737.549,111.717z M771.181,115.366h-9.672
					c-1.002,0-1.814-0.812-1.814-1.814v-0.021c0-1.002,0.812-1.814,1.814-1.814h9.672c1.002,0,1.813,0.812,1.813,1.814v0.021
					C772.994,114.554,772.182,115.366,771.181,115.366z"/>
			</g>
		</g>
		<g>
			<g>
				<path fill="#FFFFFF" stroke="#040000" stroke-miterlimit="10" d="M129.131,43.596c-1.986,0-3.787,0.79-5.117,2.068h-46.68
					c-1.461,0-2.645-1.184-2.645-2.645V22.334c1.241-1.292,2.022-3.03,2.066-4.948c0.032-1.402-0.509-2.74-1.331-3.876
					c-4.788-6.617-11.397-3.26-11.397,1.639v4.136v23.735c0,1.461-1.184,2.645-2.645,2.645l-53.82,0
					c-2.784,0-5.271,2.035-5.536,4.807c-0.304,3.18,2.189,5.856,5.306,5.856h46.674c2.142,0,3.395,2.413,2.164,4.165L8.684,128.081
					c-1.667,2.373-1.344,5.742,0.956,7.51c0.974,0.749,2.117,1.108,3.247,1.108c1.678,0,3.33-0.79,4.367-2.267l49.94-71.081
					c1.053-1.499,3.275-1.499,4.328,0l47.42,67.497c0.05,0.079,0.084,0.166,0.139,0.243l2.375,3.335l0.005,0.007l0,0l0.019,0.027
					c0.231,0.324,0.502,0.61,0.793,0.871c0.098,0.088,0.205,0.158,0.309,0.238c0.208,0.161,0.423,0.309,0.652,0.437
					c0.13,0.072,0.26,0.136,0.395,0.197c0.226,0.103,0.458,0.186,0.699,0.257c0.138,0.04,0.273,0.083,0.413,0.112
					c0.067,0.014,0.13,0.042,0.198,0.054c0.293,0.049,0.587,0.073,0.88,0.073l0.005,0.001c0.274,0,0.546-0.022,0.816-0.064
					c0.018-0.003,0.035-0.009,0.054-0.012c0.248-0.041,0.495-0.097,0.738-0.174c0.068-0.021,0.131-0.055,0.198-0.079
					c0.188-0.068,0.376-0.136,0.558-0.227c0.124-0.062,0.24-0.141,0.359-0.213c0.113-0.068,0.23-0.124,0.34-0.201
					c0.004-0.003,0.007-0.007,0.011-0.01c0.006-0.004,0.012-0.006,0.017-0.01c0.14-0.1,0.248-0.225,0.379-0.332
					c0.142-0.123,0.295-0.235,0.421-0.369c2.61-2.497,3.09-6.589,0.936-9.616c-1.102-1.547-2.755-2.587-4.587-2.953l-43.52-61.945
					c-1.231-1.752,0.022-4.165,2.164-4.165h42.354h4.136c0,0,0.018,0,0.027,0c2.944,0,5.331-2.387,5.331-5.331
					c0-0.344-0.033-0.681-0.095-1.006C135.97,46.383,132.869,43.596,129.131,43.596z"/>
			</g>
			<g>
				<path fill="#FFFFFF" stroke="#040000" stroke-miterlimit="10" d="M204.25,78.904l-2.636,1.207
					c-2.502,1.146-5.351-0.683-5.351-3.435V52.831c0-1.618,1.311-2.929,2.929-2.929h3.05h4.136c0.01,0,0.018-0.001,0.028,0
					c1.566,0.137,3.171-0.181,4.042-1.491c1.153-1.733,1.473-3.388,1.193-4.847c-0.492-3.606-3.592-6.394-7.331-6.394
					c-1.986,0-3.788,0.791-5.118,2.068l0,0c-1.618,0-2.929-1.311-2.929-2.929V22.334c1.241-1.292,2.022-3.03,2.066-4.948
					c0.032-1.402-0.509-2.74-1.331-3.876c-4.788-6.617-11.397-3.26-11.397,1.639v4.136V36.31c0,1.618-1.311,2.929-2.929,2.929
					h-6.957c-2.784,0-5.271,2.035-5.536,4.807c-0.304,3.18,2.189,5.856,5.306,5.856h7.186c1.618,0,2.929,1.311,2.929,2.929v32.186
					c0,1.478-0.862,2.82-2.205,3.435l-3.812,1.745c-0.777-0.275-1.599-0.438-2.447-0.438c-1.093,0-2.152,0.236-3.14,0.701
					c-1.79,0.839-3.145,2.325-3.818,4.185c-0.626,1.734-0.56,3.592,0.129,5.286c0.041,0.108,0.062,0.219,0.111,0.326
					c0.004,0.008,0.009,0.015,0.013,0.024c0.004,0.008,0.005,0.016,0.009,0.024c0.063,0.134,0.142,0.254,0.214,0.38
					c0.054,0.095,0.101,0.195,0.16,0.285c0.081,0.123,0.175,0.233,0.265,0.348c0.069,0.088,0.131,0.182,0.205,0.265
					c0.096,0.108,0.203,0.202,0.307,0.301c0.079,0.076,0.153,0.158,0.236,0.228c0.111,0.094,0.232,0.173,0.35,0.256
					c0.086,0.061,0.167,0.13,0.256,0.186c0.124,0.078,0.256,0.14,0.386,0.207c0.091,0.047,0.179,0.103,0.272,0.144
					c0.136,0.061,0.279,0.105,0.419,0.154c0.094,0.033,0.185,0.074,0.281,0.102c0.158,0.046,0.321,0.073,0.483,0.104
					c0.083,0.016,0.163,0.041,0.247,0.053c0.247,0.035,0.497,0.053,0.749,0.053c0.375,0,0.753-0.041,1.128-0.123
					c0.13-0.028,0.256-0.09,0.386-0.129c0.235-0.07,0.473-0.129,0.702-0.234l2.765-1.266c2.502-1.146,5.351,0.683,5.351,3.435
					v26.083c0,2.784,2.035,5.271,4.807,5.536c3.18,0.304,5.856-2.189,5.856-5.306V96.713c0-1.478,0.862-2.82,2.205-3.435
					l10.349-4.738c3.008-1.377,4.122-5.2,2.063-8.03C209.383,78.451,206.564,77.844,204.25,78.904z"/>
				<path fill="#FFFFFF" stroke="#040000" stroke-miterlimit="10" d="M249.296,46.094c0.743,0,1.497-0.156,2.216-0.486
					l46.706-21.384c0.122-0.047,0.249-0.07,0.368-0.126l3.744-1.757c0.164-0.077,0.303-0.182,0.456-0.273
					c0.15-0.09,0.311-0.167,0.449-0.269c0.145-0.107,0.264-0.235,0.396-0.354c0.128-0.116,0.267-0.221,0.381-0.348
					c0.117-0.129,0.208-0.275,0.311-0.414c0.102-0.138,0.216-0.267,0.304-0.413c0.087-0.145,0.147-0.302,0.22-0.455
					c0.075-0.156,0.162-0.305,0.222-0.468c0.057-0.156,0.086-0.32,0.128-0.48c0.045-0.17,0.103-0.335,0.131-0.509
					c0.027-0.165,0.023-0.333,0.034-0.501c0.012-0.176,0.037-0.349,0.031-0.526c-0.006-0.174-0.044-0.347-0.067-0.521
					c-0.023-0.172-0.031-0.345-0.071-0.516c-0.043-0.181-0.12-0.356-0.183-0.535c-0.054-0.155-0.089-0.312-0.159-0.465
					c-0.003-0.007-0.008-0.013-0.012-0.02c-0.004-0.008-0.005-0.016-0.009-0.024c-1.212-2.586-3.843-4.258-6.7-4.258
					c-1.093,0-2.149,0.236-3.143,0.702c-1.765,0.828-3.043,2.272-3.715,3.954l-44.261,20.265c-2.677,1.225-3.854,4.39-2.628,7.066
					C245.342,44.939,247.275,46.094,249.296,46.094z"/>
				<path fill="#FFFFFF" stroke="#040000" stroke-miterlimit="10" d="M274.68,60.162c-2.944,0-5.331,2.387-5.331,5.331v65.873
					c0,2.944,2.387,5.331,5.331,5.331s5.331-2.387,5.331-5.331V65.493C280.011,62.549,277.624,60.162,274.68,60.162z"/>
				<path fill="#FFFFFF" stroke="#040000" stroke-miterlimit="10" d="M249.831,59.483c-2.949-0.184-5.471,2.048-5.656,4.986
					c-0.025,0.403-2.726,40.631-17.852,62.705c-1.664,2.429-1.045,5.747,1.384,7.412c0.922,0.631,1.971,0.934,3.009,0.934
					c1.699,0,3.369-0.811,4.403-2.318c16.799-24.516,19.587-66.298,19.698-68.065C255.001,62.198,252.768,59.667,249.831,59.483z"/>
				<path fill="#FFFFFF" stroke="#040000" stroke-miterlimit="10" d="M319.5,121.272c-12.016-22.638-14.292-56.433-14.315-56.803
					c-0.185-2.938-2.712-5.162-5.656-4.986c-2.938,0.185-5.17,2.715-4.986,5.653c0.111,1.767,2.898,43.549,19.698,68.065
					c0.136,0.198,0.284,0.383,0.441,0.557c0.012,0.013,0.026,0.025,0.038,0.038c0.207,0.225,0.432,0.424,0.668,0.606
					c0.043,0.033,0.084,0.067,0.128,0.099c0.251,0.182,0.514,0.34,0.788,0.474c0.045,0.022,0.092,0.04,0.138,0.061
					c0.274,0.124,0.556,0.228,0.846,0.304c0.018,0.005,0.033,0.014,0.051,0.018c0.008,0.002,0.015,0.002,0.023,0.004
					c0.15,0.037,0.302,0.061,0.454,0.085c0.06,0.009,0.12,0.025,0.18,0.032c0.215,0.026,0.431,0.04,0.648,0.04
					c0.052,0,0.103-0.01,0.155-0.011c0.194-0.006,0.388-0.016,0.58-0.043c0.106-0.015,0.211-0.043,0.317-0.065
					c0.14-0.028,0.28-0.054,0.417-0.094c0.108-0.031,0.214-0.074,0.321-0.112c0.134-0.048,0.268-0.096,0.398-0.155
					c0.1-0.045,0.198-0.099,0.296-0.151c0.082-0.044,0.168-0.078,0.248-0.127c0.038-0.023,0.068-0.055,0.106-0.078
					c0.056-0.035,0.115-0.061,0.171-0.099c0.096-0.066,0.17-0.149,0.261-0.22c1.398-1.017,2.413-2.45,2.84-4.148
					c0.482-1.917,0.189-3.907-0.825-5.601C322.937,122.957,321.328,121.768,319.5,121.272z"/>
			</g>
			<g>
				<path fill="#FFFFFF" stroke="#040000" stroke-miterlimit="10" d="M423.262,63.865c0-2.024,1.641-3.665,3.665-3.665h5.256h4.136
					c0.01,0,0.018-0.001,0.018-0.001c1.576,0.138,3.181-0.181,4.052-1.49c1.153-1.733,1.473-3.388,1.193-4.847
					c-0.492-3.605-3.592-6.393-7.331-6.393c-1.986,0-3.787,0.79-5.118,2.068h-2.207c-2.024,0-3.665-1.641-3.665-3.665v0
					c1.241-1.292,2.022-3.03,2.066-4.948c0.032-1.403-0.509-2.74-1.331-3.876c-4.788-6.617-11.397-3.26-11.397,1.639v4.136v3.05
					c0,2.024-1.641,3.665-3.665,3.665h-9.164c-2.784,0-5.271,2.035-5.536,4.807c-0.303,3.18,2.189,5.856,5.306,5.856h9.393
					c2.024,0,3.665,1.641,3.665,3.665v1.132c0,2.024-1.641,3.665-3.665,3.665h-9.164c-2.784,0-5.271,2.035-5.536,4.807
					c-0.303,3.18,2.189,5.856,5.306,5.856h32.642h4.136c0.096-0.013,0.003,0.163,2.82-1.331c1.562-0.829,2.61-2.468,2.533-4.235
					c-0.011-0.263-0.042-0.52-0.09-0.772c-0.492-3.606-3.592-6.394-7.331-6.394c-1.986,0-3.788,0.791-5.118,2.068h-2.207
					c-2.024,0-3.665-1.641-3.665-3.665V63.865z"/>
				<path fill="#FFFFFF" stroke="#040000" stroke-miterlimit="10" d="M432.734,90.417c-1.525-1.524-3.818-1.979-5.81-1.155
					c-0.78,0.323-1.449,0.822-1.98,1.434h-18.046c-2.944,0-5.331,2.387-5.331,5.331v22.067c0,2.944,2.387,5.331,5.331,5.331h22.066
					c2.944,0,5.331-2.387,5.331-5.331v-18.046c0.612-0.531,1.111-1.2,1.434-1.98c0.825-1.992,0.37-4.286-1.155-5.81L432.734,90.417z
					 M419.854,112.763h-3.847c-2.087,0-3.778-1.692-3.778-3.778v-3.848c0-2.087,1.692-3.778,3.778-3.778h3.847
					c2.087,0,3.778,1.692,3.778,3.778v3.848C423.633,111.071,421.941,112.763,419.854,112.763z"/>
				<path fill="#FFFFFF" stroke="#040000" stroke-miterlimit="10" d="M476.31,11.188c-1.178-1.178-2.807-1.876-4.464-1.713
					c-1.45,0.143-2.654,0.833-3.505,1.814H363.5c-2.944,0-5.331,2.387-5.331,5.331v114.517c0,2.784,2.035,5.271,4.807,5.536
					c3.18,0.304,5.855-2.189,5.855-5.306V25.616c0-2.024,1.641-3.665,3.665-3.665h90.869c2.024,0,3.665,1.641,3.665,3.665v105.521
					c0,2.784,2.035,5.271,4.807,5.536c3.18,0.304,5.855-2.189,5.855-5.306V20.641c0.981-0.851,1.671-2.055,1.814-3.505
					c0.164-1.657-0.535-3.287-1.713-4.464L476.31,11.188z"/>
			</g>
			<g>
				<path fill="#FFFFFF" stroke="#040000" stroke-miterlimit="10" d="M522.464,67.555h14.989h4.136c0.008-0.001,0.018,0,0.018,0
					c2.953,0,5.341-2.387,5.341-5.331c0-0.344-0.033-0.681-0.095-1.006c-0.492-3.606-3.592-6.393-7.331-6.393
					c-1.986,0-3.787,0.79-5.117,2.068h-11.939c-2.944,0-5.331,2.387-5.331,5.331S519.52,67.555,522.464,67.555z"/>
				<path fill="#FFFFFF" stroke="#040000" stroke-miterlimit="10" d="M522.464,21.951h14.989h4.136c0.008-0.001,0.018-0.001,0.027,0
					c2.944,0,5.331-2.387,5.331-5.331c0-0.344-0.033-0.68-0.095-1.006c-0.492-3.606-3.592-6.394-7.331-6.394
					c-1.986,0-3.787,0.791-5.118,2.068h-11.939c-2.944,0-5.331,2.387-5.331,5.331S519.52,21.951,522.464,21.951z"/>
				<path fill="#FFFFFF" stroke="#040000" stroke-miterlimit="10" d="M522.464,91.093h14.989h4.136c0.008-0.001,0.018-0.001,0.027,0
					c2.944,0,5.331-2.387,5.331-5.331c0-0.344-0.033-0.681-0.095-1.006c-0.492-3.606-3.592-6.393-7.331-6.393
					c-1.986,0-3.787,0.79-5.117,2.068h-11.939c-2.944,0-5.331,2.387-5.331,5.331S519.52,91.093,522.464,91.093z"/>
				<path fill="#FFFFFF" stroke="#040000" stroke-miterlimit="10" d="M543.934,32.758c-1.986,0-3.788,0.791-5.118,2.068h-20.765
					c-2.944,0-5.331,2.387-5.331,5.331c0,2.944,2.387,5.331,5.331,5.331h23.815h4.136c0.009-0.001,0.018-0.001,0.027,0
					c2.944,0,5.331-2.387,5.331-5.331c0-0.344-0.033-0.68-0.095-1.006C550.773,35.545,547.673,32.758,543.934,32.758z"/>
				<path fill="#FFFFFF" stroke="#040000" stroke-miterlimit="10" d="M645.735,61.774c-1.986,0-3.787,0.791-5.118,2.068h-19.011
					c-2.087,0-3.778-1.692-3.778-3.778V23.805c1.241-1.292,2.022-3.028,2.066-4.945c0.032-1.403-0.508-2.74-1.331-3.877
					c-4.788-6.62-11.399-3.263-11.399,1.637v4.136v39.309c0,2.087-1.692,3.778-3.778,3.778h-23.026
					c-2.784,0-5.271,2.035-5.536,4.807c-0.304,3.18,2.189,5.856,5.306,5.856h23.255c2.087,0,3.778,1.692,3.778,3.778v52.853
					c0,2.784,2.035,5.271,4.807,5.536c3.18,0.304,5.856-2.189,5.856-5.306V78.284c0-2.087,1.692-3.778,3.778-3.778h22.061h4.136
					c0.008-0.001,0.018-0.001,0.018-0.001c2.953,0.001,5.34-2.387,5.34-5.331c0-0.344-0.033-0.68-0.095-1.006
					C652.574,64.562,649.474,61.774,645.735,61.774z"/>
				<path fill="#FFFFFF" stroke="#040000" stroke-miterlimit="10" d="M547.566,102.218c-1.525-1.524-3.818-1.98-5.81-1.155
					c-0.78,0.323-1.449,0.822-1.98,1.434h-19.518c-2.944,0-5.331,2.387-5.331,5.331v23.538c0,2.944,2.387,5.331,5.331,5.331h23.538
					c2.944,0,5.331-2.387,5.331-5.331v-19.517c0.612-0.531,1.111-1.2,1.434-1.98c0.825-1.992,0.37-4.286-1.155-5.81L547.566,102.218
					z M534.686,126.035h-5.319c-2.087,0-3.778-1.692-3.778-3.778v-5.319c0-2.087,1.692-3.778,3.778-3.778h5.319
					c2.087,0,3.778,1.692,3.778,3.778v5.319C538.464,124.343,536.773,126.035,534.686,126.035z"/>
			</g>
			<g>
				<path fill="#FFFFFF" stroke="#040000" stroke-miterlimit="10" d="M691.682,68.662c-3.117,0-5.61,2.676-5.306,5.856
					c0.265,2.772,2.751,4.807,5.536,4.807l104.497,0h4.135c0.01,0.001,0.021,0.001,0.021,0.001c2.951-0.001,5.337-2.388,5.337-5.332
					c0-0.344-0.033-0.68-0.094-1.006c-0.492-3.605-3.592-6.394-7.331-6.394c-1.986,0-3.788,0.791-5.118,2.068h-39.928
					c-1.097,0-1.987-0.889-1.987-1.987v-0.001c0-1.097,0.889-1.987,1.987-1.987h29.063h4.135c0.01,0.001,0.019,0,0.019,0
					c2.952,0,5.338-2.387,5.338-5.331c0-0.344-0.033-0.681-0.094-1.006c-0.493-3.606-3.592-6.393-7.332-6.393
					c-1.985,0-3.787,0.79-5.117,2.068h-26.014c-1.097,0-1.987-0.889-1.987-1.987v0c0-1.097,0.889-1.987,1.987-1.987h16.535
					c2.944,0,5.331-2.387,5.331-5.331v-5.527c0-2.087,1.692-3.778,3.778-3.778h16.7h4.135c0.009,0.001,0.02,0,0.02,0
					c2.952,0,5.338-2.387,5.338-5.331c0-0.344-0.033-0.68-0.094-1.006c-0.493-3.605-3.592-6.393-7.331-6.393
					c-1.986,0-3.788,0.79-5.118,2.068h-15.442c-1.097,0-1.987-0.889-1.987-1.987v-3.297c0.98-0.851,1.67-2.054,1.813-3.503
					c0.164-1.657-0.534-3.287-1.712-4.464l-1.487-1.487c-1.177-1.177-2.807-1.875-4.463-1.711c-1.449,0.144-2.653,0.833-3.504,1.813
					l-10.222,0c-1.204,0-2.219-0.959-2.211-2.163c0-0.014,0-0.028,0-0.043c0.002-1.18-0.397-2.34-1.056-3.319
					c-4.805-7.146-11.675-3.754-11.675,1.24v0.507c0,2.087-1.692,3.778-3.778,3.778l-14.513,0c-2.784,0-5.271,2.035-5.536,4.807
					c-0.304,3.18,2.189,5.856,5.306,5.856h16.534c1.097,0,1.987,0.889,1.987,1.987v0c0,1.097-0.889,1.987-1.987,1.987l-46.25,0
					c-2.784,0-5.271,2.035-5.536,4.807c-0.304,3.18,2.189,5.856,5.306,5.856h46.479c1.097,0,1.987,0.89,1.987,1.987v0
					c0,1.097-0.89,1.987-1.987,1.987l-16.304,0c-2.784,0-5.271,2.035-5.536,4.807c-0.304,3.18,2.189,5.856,5.306,5.856h16.534
					c1.097,0,1.987,0.889,1.987,1.987v0c0,1.097-0.889,1.987-1.987,1.987l-32.969,0c-2.784,0-5.271,2.035-5.536,4.807
					c-0.304,3.18,2.189,5.856,5.306,5.856h33.199c1.097,0,1.987,0.889,1.987,1.987v0.001c0,1.097-0.889,1.987-1.987,1.987H691.682z
					 M753.431,20.779h9.217c1.097,0,1.987,0.889,1.987,1.987v0c0,1.097-0.889,1.987-1.987,1.987h-9.217
					c-1.097,0-1.987-0.889-1.987-1.987v0C751.444,21.669,752.334,20.779,753.431,20.779z M753.431,35.415h9.217
					c1.097,0,1.987,0.89,1.987,1.987v0c0,1.097-0.89,1.987-1.987,1.987h-9.217c-1.097,0-1.987-0.89-1.987-1.987v0
					C751.444,36.305,752.334,35.415,753.431,35.415z"/>
				<path fill="#FFFFFF" stroke="#040000" stroke-miterlimit="10" d="M798.477,123.967c-1.986,0-3.788,0.791-5.118,2.068H691.682
					c-2.944,0-5.331,2.387-5.331,5.331c0,2.944,2.387,5.331,5.331,5.331h104.727h4.135c0,0,0.021,0.001,0.026,0
					c2.946,0,5.331-2.387,5.331-5.331c0-0.344-0.033-0.68-0.094-1.006C805.315,126.755,802.215,123.967,798.477,123.967z"/>
				<path fill="#FFFFFF" stroke="#040000" stroke-miterlimit="10" d="M768.035,81.603c-0.781,0.323-1.45,0.822-1.981,1.434h-19.941
					h-23.96c-2.944,0-5.331,2.387-5.331,5.331v14.311v14.311c0,2.944,2.387,5.331,5.331,5.331h23.96h23.961
					c2.944,0,5.331-2.387,5.331-5.331V102.68v-10.29c0.612-0.531,1.111-1.2,1.434-1.981c0.825-1.992,0.37-4.286-1.156-5.81
					l-1.84-1.84C772.32,81.234,770.026,80.777,768.035,81.603z M762.929,97.348h-9.672c-1.002,0-1.814-0.812-1.814-1.814v-0.021
					c0-1.002,0.812-1.814,1.814-1.814h9.672c1.002,0,1.814,0.812,1.814,1.814v0.021C764.743,96.536,763.931,97.348,762.929,97.348z
					 M729.298,93.7h9.67c1.002,0,1.813,0.812,1.813,1.814v0.021c0,1.002-0.812,1.814-1.813,1.814h-9.67
					c-1.002,0-1.814-0.812-1.814-1.814v-0.021C727.484,94.512,728.296,93.7,729.298,93.7z M729.298,108.011h9.67
					c1.002,0,1.813,0.812,1.813,1.814v0.021c0,1.002-0.812,1.814-1.813,1.814h-9.67c-1.002,0-1.814-0.812-1.814-1.814v-0.021
					C727.484,108.823,728.296,108.011,729.298,108.011z M762.929,111.659h-9.672c-1.002,0-1.814-0.812-1.814-1.814v-0.021
					c0-1.002,0.812-1.814,1.814-1.814h9.672c1.002,0,1.814,0.812,1.814,1.814v0.021
					C764.743,110.848,763.931,111.659,762.929,111.659z"/>
			</g>
		</g>
	</g>
	<g>
		
			<line fill="none" stroke="#000000" stroke-width="4" stroke-linecap="round" stroke-linejoin="round" stroke-miterlimit="10" x1="814.153" y1="209.531" x2="714.923" y2="209.531"/>
		
			<line fill="none" stroke="#000000" stroke-width="4" stroke-linecap="round" stroke-linejoin="round" stroke-miterlimit="10" x1="673.048" y1="209.531" x2="642.206" y2="209.531"/>
		<circle cx="695.044" cy="209.531" r="3.694"/>
	</g>
	<g>
		
			<line fill="none" stroke="#000000" stroke-width="4" stroke-linecap="round" stroke-linejoin="round" stroke-miterlimit="10" x1="2" y1="209.531" x2="101.23" y2="209.531"/>
		
			<line fill="none" stroke="#000000" stroke-width="4" stroke-linecap="round" stroke-linejoin="round" stroke-miterlimit="10" x1="143.105" y1="209.531" x2="173.947" y2="209.531"/>
		<circle cx="121.109" cy="209.531" r="3.694"/>
	</g>
	<g>
		<g>
			<path d="M257.551,208.963c1.18,0.433,2.046,1.026,2.598,1.778s0.828,1.713,0.828,2.882c0,0.985-0.238,1.884-0.714,2.696
				c-0.476,0.812-1.158,1.477-2.046,1.997c-0.52,0.303-1.101,0.522-1.745,0.658c-0.644,0.135-1.556,0.203-2.735,0.203h-1.365h-7.111
				c-0.715,0-1.227-0.141-1.535-0.422c-0.308-0.281-0.462-0.742-0.462-1.38c0-0.574,0.147-1.009,0.441-1.307
				c0.295-0.298,0.726-0.447,1.293-0.447h0.279v-12.113h-0.279c-0.567,0-0.998-0.152-1.293-0.455
				c-0.294-0.303-0.441-0.747-0.441-1.331c0-0.628,0.156-1.085,0.47-1.372c0.314-0.287,0.823-0.43,1.527-0.43h7.469
				c2.284,0,4.018,0.444,5.204,1.331c1.185,0.887,1.779,2.186,1.779,3.897c0,0.844-0.181,1.589-0.544,2.233
				C258.804,208.024,258.266,208.551,257.551,208.963z M249.27,203.41v4.092h2.191c1.331,0,2.271-0.157,2.818-0.471
				c0.546-0.314,0.82-0.844,0.82-1.591c0-0.703-0.247-1.218-0.739-1.542c-0.492-0.325-1.29-0.487-2.395-0.487H249.27z
				 M249.27,210.765v4.953h2.435c1.721,0,2.934-0.189,3.638-0.569c0.703-0.379,1.055-1.012,1.055-1.899
				c0-0.898-0.336-1.537-1.007-1.916c-0.672-0.379-1.846-0.569-3.524-0.569H249.27z"/>
			<path d="M292.644,203.507v12.113h2.728c0.735,0,1.263,0.138,1.583,0.414c0.318,0.276,0.478,0.723,0.478,1.339
				c0,0.628-0.162,1.085-0.487,1.372c-0.324,0.287-0.849,0.43-1.574,0.43h-9.645c-0.736,0-1.264-0.141-1.583-0.422
				c-0.319-0.281-0.479-0.742-0.479-1.38c0-0.628,0.157-1.077,0.471-1.348c0.313-0.27,0.844-0.406,1.591-0.406h2.727v-12.113h-2.727
				c-0.736,0-1.264-0.14-1.583-0.422c-0.319-0.281-0.479-0.736-0.479-1.364c0-0.639,0.157-1.093,0.471-1.364
				c0.313-0.27,0.844-0.406,1.591-0.406h9.645c0.768,0,1.304,0.135,1.607,0.406c0.302,0.271,0.454,0.726,0.454,1.364
				c0,0.628-0.157,1.083-0.47,1.364c-0.314,0.282-0.845,0.422-1.591,0.422H292.644z"/>
			<path d="M334.199,200.455c0.205-0.39,0.425-0.666,0.658-0.828c0.233-0.162,0.523-0.244,0.869-0.244
				c0.53,0,0.906,0.141,1.128,0.422c0.223,0.281,0.333,0.763,0.333,1.445l0.032,4.221c0,0.747-0.122,1.25-0.366,1.51
				c-0.243,0.26-0.69,0.39-1.339,0.39c-0.454,0-0.809-0.111-1.064-0.334c-0.254-0.223-0.462-0.621-0.624-1.197
				c-0.293-1.043-0.742-1.787-1.349-2.233s-1.455-0.668-2.549-0.668c-1.667,0-2.942,0.564-3.824,1.691s-1.323,2.758-1.323,4.893
				c0,2.136,0.463,3.785,1.389,4.951s2.238,1.747,3.938,1.747c0.389,0,0.833-0.046,1.331-0.138c0.497-0.092,1.082-0.235,1.753-0.43
				v-2.566h-1.835c-0.736,0-1.259-0.135-1.567-0.406c-0.308-0.27-0.462-0.72-0.462-1.348c0-0.65,0.154-1.112,0.462-1.388
				c0.308-0.276,0.831-0.414,1.567-0.414h5.861c0.757,0,1.291,0.135,1.599,0.406c0.309,0.27,0.463,0.725,0.463,1.364
				c0,0.574-0.154,1.015-0.463,1.323c-0.308,0.309-0.754,0.463-1.339,0.463h-0.26v3.864v0.195c0,0.347-0.038,0.588-0.114,0.723
				c-0.076,0.135-0.227,0.273-0.454,0.414c-0.617,0.368-1.597,0.692-2.939,0.974c-1.342,0.281-2.701,0.422-4.076,0.422
				c-2.836,0-5.131-0.937-6.885-2.809c-1.753-1.873-2.631-4.319-2.631-7.339c0-2.912,0.887-5.331,2.663-7.258
				c1.776-1.927,4.027-2.89,6.755-2.89c0.757,0,1.513,0.087,2.265,0.26C332.557,199.816,333.355,200.087,334.199,200.455z"/>
		</g>
		<g>
			<path d="M404.606,200.455c0.217-0.39,0.438-0.666,0.666-0.828c0.227-0.162,0.514-0.244,0.86-0.244
				c0.531,0,0.906,0.141,1.129,0.422c0.222,0.281,0.332,0.763,0.332,1.445l0.032,4.221c0,0.747-0.121,1.25-0.365,1.51
				c-0.244,0.26-0.685,0.39-1.323,0.39c-0.455,0-0.804-0.109-1.047-0.326c-0.244-0.217-0.452-0.619-0.625-1.206
				c-0.282-1.032-0.73-1.774-1.348-2.225c-0.617-0.451-1.472-0.676-2.565-0.676c-1.668,0-2.945,0.564-3.832,1.691
				c-0.888,1.127-1.331,2.758-1.331,4.893c0,2.125,0.449,3.756,1.348,4.894s2.18,1.707,3.848,1.707c1.136,0,2.389-0.379,3.759-1.137
				c1.37-0.758,2.233-1.137,2.59-1.137c0.422,0,0.776,0.178,1.064,0.536c0.286,0.357,0.43,0.801,0.43,1.331
				c0,0.953-0.839,1.851-2.517,2.695c-1.678,0.844-3.567,1.267-5.667,1.267c-2.836,0-5.13-0.937-6.885-2.809
				c-1.753-1.873-2.631-4.319-2.631-7.339c0-2.912,0.888-5.331,2.664-7.258c1.775-1.927,4.026-2.89,6.754-2.89
				c0.769,0,1.527,0.087,2.274,0.26C402.965,199.816,403.761,200.087,404.606,200.455z"/>
			<path d="M449.295,215.62h0.276c0.584,0,1.028,0.149,1.331,0.447c0.303,0.298,0.454,0.734,0.454,1.307
				c0,0.639-0.159,1.099-0.478,1.38c-0.319,0.281-0.847,0.422-1.583,0.422h-4.888c-0.747,0-1.277-0.138-1.591-0.414
				c-0.314-0.276-0.471-0.739-0.471-1.388c0-0.628,0.157-1.077,0.471-1.348c0.314-0.27,0.844-0.406,1.591-0.406h0.568l-0.666-1.899
				h-7.015l-0.698,1.899h0.568c0.736,0,1.264,0.138,1.583,0.414c0.319,0.276,0.479,0.723,0.479,1.339c0,0.639-0.16,1.099-0.479,1.38
				c-0.319,0.281-0.847,0.422-1.583,0.422h-4.189c-0.747,0-1.278-0.141-1.591-0.422c-0.314-0.281-0.471-0.742-0.471-1.38
				c0-0.574,0.152-1.009,0.455-1.307c0.302-0.298,0.746-0.447,1.331-0.447h0.276l4.352-12.113h-1.299
				c-0.736,0-1.264-0.14-1.583-0.422c-0.319-0.281-0.479-0.736-0.479-1.364c0-0.639,0.16-1.099,0.479-1.38
				c0.319-0.281,0.847-0.422,1.583-0.422h6.089c0.963,0,1.64,0.519,2.029,1.559v0.049L449.295,215.62z M440.787,203.507
				l-2.355,6.852h4.708L440.787,203.507z"/>
			<path d="M488.513,203.475h-3.394v12.113h2.728c0.725,0,1.244,0.141,1.558,0.422c0.314,0.281,0.471,0.736,0.471,1.364
				c0,0.639-0.157,1.099-0.471,1.38c-0.314,0.281-0.833,0.422-1.558,0.422h-9.645c-0.715,0-1.229-0.141-1.543-0.422
				c-0.314-0.281-0.47-0.742-0.47-1.38c0-0.639,0.154-1.096,0.462-1.372c0.308-0.276,0.826-0.414,1.551-0.414h2.727v-12.113h-3.393
				l-0.098,3.296v0.406c0,0.52-0.144,0.926-0.43,1.218c-0.287,0.293-0.685,0.439-1.193,0.439c-0.606,0-1.053-0.154-1.339-0.463
				c-0.287-0.309-0.431-0.798-0.431-1.469v-0.13l0.179-4.855c0.032-0.963,0.165-1.543,0.398-1.738
				c0.233-0.195,0.706-0.292,1.421-0.292h13.964c0.714,0,1.187,0.097,1.421,0.292c0.233,0.195,0.371,0.774,0.414,1.738l0.162,4.855
				v0.13c0,0.682-0.136,1.175-0.406,1.477c-0.271,0.303-0.709,0.455-1.315,0.455c-0.584,0-1.004-0.149-1.259-0.447
				c-0.254-0.298-0.392-0.836-0.414-1.615L488.513,203.475z"/>
			<path d="M528.77,200.455c0.217-0.39,0.438-0.666,0.666-0.828c0.227-0.162,0.514-0.244,0.86-0.244
				c0.531,0,0.906,0.141,1.129,0.422c0.222,0.281,0.332,0.763,0.332,1.445l0.032,4.221c0,0.747-0.121,1.25-0.365,1.51
				s-0.685,0.39-1.323,0.39c-0.455,0-0.804-0.109-1.047-0.326c-0.244-0.217-0.452-0.619-0.625-1.206
				c-0.282-1.032-0.73-1.774-1.348-2.225c-0.617-0.451-1.472-0.676-2.565-0.676c-1.668,0-2.945,0.564-3.832,1.691
				c-0.888,1.127-1.331,2.758-1.331,4.893c0,2.125,0.449,3.756,1.348,4.894c0.898,1.138,2.18,1.707,3.848,1.707
				c1.136,0,2.389-0.379,3.759-1.137s2.233-1.137,2.59-1.137c0.422,0,0.776,0.178,1.063,0.536c0.286,0.357,0.43,0.801,0.43,1.331
				c0,0.953-0.839,1.851-2.517,2.695c-1.678,0.844-3.567,1.267-5.667,1.267c-2.836,0-5.13-0.937-6.885-2.809
				c-1.753-1.873-2.631-4.319-2.631-7.339c0-2.912,0.888-5.331,2.664-7.258c1.775-1.927,4.026-2.89,6.754-2.89
				c0.769,0,1.527,0.087,2.274,0.26C527.129,199.816,527.925,200.087,528.77,200.455z"/>
			<path d="M561.329,203.507v3.734h5.31v-3.734h-0.26c-0.584,0-1.03-0.152-1.339-0.455c-0.308-0.303-0.462-0.747-0.462-1.331
				c0-0.639,0.159-1.099,0.478-1.38c0.319-0.281,0.847-0.422,1.583-0.422h4.19c0.736,0,1.258,0.14,1.567,0.422
				c0.308,0.281,0.462,0.742,0.462,1.38c0,0.585-0.149,1.028-0.446,1.331c-0.298,0.303-0.733,0.455-1.307,0.455h-0.276v12.113h0.276
				c0.584,0,1.028,0.149,1.331,0.447c0.303,0.298,0.454,0.734,0.454,1.307c0,0.639-0.157,1.099-0.47,1.38
				c-0.314,0.281-0.844,0.422-1.591,0.422h-4.19c-0.746,0-1.277-0.138-1.591-0.414c-0.314-0.276-0.47-0.739-0.47-1.388
				c0-0.574,0.154-1.009,0.462-1.307c0.309-0.298,0.755-0.447,1.339-0.447h0.26v-4.79h-5.31v4.79h0.26
				c0.585,0,1.031,0.149,1.339,0.447c0.309,0.298,0.463,0.734,0.463,1.307c0,0.639-0.16,1.099-0.479,1.38
				c-0.319,0.281-0.847,0.422-1.583,0.422h-4.189c-0.747,0-1.278-0.138-1.591-0.414c-0.314-0.276-0.471-0.739-0.471-1.388
				c0-0.574,0.151-1.009,0.455-1.307c0.302-0.298,0.746-0.447,1.331-0.447h0.276v-12.113h-0.276c-0.574,0-1.01-0.152-1.307-0.455
				c-0.298-0.303-0.447-0.747-0.447-1.331c0-0.639,0.154-1.099,0.463-1.38c0.308-0.281,0.831-0.422,1.567-0.422h4.189
				c0.725,0,1.251,0.14,1.575,0.422c0.325,0.281,0.487,0.742,0.487,1.38c0,0.585-0.154,1.028-0.463,1.331
				c-0.308,0.303-0.754,0.455-1.339,0.455H561.329z"/>
		</g>
	</g>
</g>
</svg>
