<?xml version="1.0" encoding="UTF-8" standalone="no"?>
<svg width="714px" height="55px" viewBox="0 0 714 55" version="1.1" xmlns="http://www.w3.org/2000/svg" xmlns:xlink="http://www.w3.org/1999/xlink">
    <!-- Generator: Sketch 3.6.1 (26313) - http://www.bohemiancoding.com/sketch -->
    <title>Group 2</title>
    <desc>Created with Sketch.</desc>
    <defs></defs>
    <g id="Page-1" stroke="none" stroke-width="1" fill="none" fill-rule="evenodd">
        <g id="第四頁-募資中計畫" transform="translate(-277.000000, 0.000000)">
            <g id="Group-2" transform="translate(277.000000, 0.000000)">
                <rect id="Rectangle-21" fill-opacity="0.00999999978" fill="#FFFFFF" x="0" y="0" width="714" height="55"></rect>
                <g id="Group" transform="translate(11.000000, 27.000000)" stroke="#979797" stroke-linecap="square">
                    <path d="M60.5,0.5 L60.5,27.5" id="Line"></path>
                    <path d="M1.5,14.4615952 L1.5,27.5" id="Line-Copy-10"></path>
                    <path d="M71.5,14.4615952 L71.5,27.5" id="Line-Copy-15"></path>
                    <path d="M144.5,14.4615952 L144.5,27.5" id="Line-Copy-20"></path>
                    <path d="M13.5,14.4615952 L13.5,27.5" id="Line-Copy-11"></path>
                    <path d="M83.5,14.4615952 L83.5,27.5" id="Line-Copy-16"></path>
                    <path d="M156.5,14.4615952 L156.5,27.5" id="Line-Copy-21"></path>
                    <path d="M25.5,14.5 L25.5,27.5" id="Line-Copy-12"></path>
                    <path d="M95.5,14.5 L95.5,27.5" id="Line-Copy-17"></path>
                    <path d="M168.5,14.5 L168.5,27.5" id="Line-Copy-22"></path>
                    <path d="M37.5,14.4615952 L37.5,27.5" id="Line-Copy-13"></path>
                    <path d="M107.5,14.4615952 L107.5,27.5" id="Line-Copy-18"></path>
                    <path d="M180.5,14.4615952 L180.5,27.5" id="Line-Copy-23"></path>
                    <path d="M49.5,14.4615952 L49.5,27.5" id="Line-Copy-14"></path>
                    <path d="M119.5,14.4615952 L119.5,27.5" id="Line-Copy-19"></path>
                    <path d="M192.5,14.4615952 L192.5,27.5" id="Line-Copy-24"></path>
                    <path d="M215.5,14.4615952 L215.5,27.5" id="Line-Copy-29"></path>
                    <path d="M285.5,14.4615952 L285.5,27.5" id="Line-Copy-30"></path>
                    <path d="M355.5,14.4615952 L355.5,27.5" id="Line-Copy-35"></path>
                    <path d="M427.5,14.4615952 L427.5,27.5" id="Line-Copy-40"></path>
                    <path d="M498.5,14.4615952 L498.5,27.5" id="Line-Copy-45"></path>
                    <path d="M568.5,14.4615952 L568.5,27.5" id="Line-Copy-50"></path>
                    <path d="M641.5,14.4615952 L641.5,27.5" id="Line-Copy-55"></path>
                    <path d="M227.5,14.4615952 L227.5,27.5" id="Line-Copy-28"></path>
                    <path d="M297.5,14.4615952 L297.5,27.5" id="Line-Copy-31"></path>
                    <path d="M367.5,14.4615952 L367.5,27.5" id="Line-Copy-36"></path>
                    <path d="M439.5,14.4615952 L439.5,27.5" id="Line-Copy-41"></path>
                    <path d="M510.5,14.4615952 L510.5,27.5" id="Line-Copy-46"></path>
                    <path d="M580.5,14.4615952 L580.5,27.5" id="Line-Copy-51"></path>
                    <path d="M653.5,14.4615952 L653.5,27.5" id="Line-Copy-56"></path>
                    <path d="M239.5,14.5 L239.5,27.5" id="Line-Copy-27"></path>
                    <path d="M309.5,14.5 L309.5,27.5" id="Line-Copy-32"></path>
                    <path d="M379.5,14.5 L379.5,27.5" id="Line-Copy-37"></path>
                    <path d="M451.5,14.5 L451.5,27.5" id="Line-Copy-42"></path>
                    <path d="M522.5,14.5 L522.5,27.5" id="Line-Copy-47"></path>
                    <path d="M592.5,14.5 L592.5,27.5" id="Line-Copy-52"></path>
                    <path d="M665.5,14.5 L665.5,27.5" id="Line-Copy-57"></path>
                    <path d="M251.5,14.4615952 L251.5,27.5" id="Line-Copy-26"></path>
                    <path d="M321.5,14.4615952 L321.5,27.5" id="Line-Copy-33"></path>
                    <path d="M391.5,14.4615952 L391.5,27.5" id="Line-Copy-38"></path>
                    <path d="M463.5,14.4615952 L463.5,27.5" id="Line-Copy-43"></path>
                    <path d="M534.5,14.4615952 L534.5,27.5" id="Line-Copy-48"></path>
                    <path d="M604.5,14.4615952 L604.5,27.5" id="Line-Copy-53"></path>
                    <path d="M677.5,14.4615952 L677.5,27.5" id="Line-Copy-58"></path>
                    <path d="M263.5,14.4615952 L263.5,27.5" id="Line-Copy-25"></path>
                    <path d="M333.5,14.4615952 L333.5,27.5" id="Line-Copy-34"></path>
                    <path d="M403.5,14.4615952 L403.5,27.5" id="Line-Copy-39"></path>
                    <path d="M475.5,14.4615952 L475.5,27.5" id="Line-Copy-44"></path>
                    <path d="M546.5,14.4615952 L546.5,27.5" id="Line-Copy-49"></path>
                    <path d="M616.5,14.4615952 L616.5,27.5" id="Line-Copy-54"></path>
                    <path d="M689.5,14.4615952 L689.5,27.5" id="Line-Copy-59"></path>
                    <path d="M131.5,0.5 L131.5,27.5" id="Line-Copy"></path>
                    <path d="M202.5,0.5 L202.5,27.5" id="Line-Copy-2"></path>
                    <path d="M273.5,0.5 L273.5,27.5" id="Line-Copy-3"></path>
                    <path d="M344.5,0.5 L344.5,27.5" id="Line-Copy-4"></path>
                    <path d="M415.5,0.5 L415.5,27.5" id="Line-Copy-5"></path>
                    <path d="M486.5,0.5 L486.5,27.5" id="Line-Copy-6"></path>
                    <path d="M557.5,0.5 L557.5,27.5" id="Line-Copy-7"></path>
                    <path d="M628.5,0.5 L628.5,27.5" id="Line-Copy-8"></path>
                </g>
                <path d="M64.62,19 L63.612,19 L63.612,10.152 L61.75,11.79 L61.75,10.642 L63.612,9.032 L64.62,9.032 L64.62,19 Z M73.692,16.34 C73.692,17.1520041 73.4330026,17.8123308 72.915,18.321 C72.3969974,18.8296692 71.7460039,19.084 70.962,19.084 C70.1779961,19.084 69.5270026,18.8296692 69.009,18.321 C68.4909974,17.8123308 68.232,17.1520041 68.232,16.34 L68.232,11.692 C68.232,10.8799959 68.4909974,10.2196692 69.009,9.711 C69.5270026,9.20233079 70.1779961,8.948 70.962,8.948 C71.7460039,8.948 72.3969974,9.20233079 72.915,9.711 C73.4330026,10.2196692 73.692,10.8799959 73.692,11.692 L73.692,16.34 Z M72.684,16.284 L72.684,11.748 C72.684,11.1879972 72.5323348,10.7306684 72.229,10.376 C71.9256652,10.0213316 71.503336,9.844 70.962,9.844 C70.420664,9.844 69.9983348,10.0213316 69.695,10.376 C69.3916651,10.7306684 69.24,11.1879972 69.24,11.748 L69.24,16.284 C69.24,16.8440028 69.3916651,17.3013316 69.695,17.656 C69.9983348,18.0106684 70.420664,18.188 70.962,18.188 C71.503336,18.188 71.9256652,18.0106684 72.229,17.656 C72.5323348,17.3013316 72.684,16.8440028 72.684,16.284 L72.684,16.284 Z M83.075,17.592 C83.075,18.0393356 82.9356681,18.3986653 82.657,18.67 C82.3783319,18.9413347 82.0226688,19.077 81.59,19.077 C81.1573312,19.077 80.8016681,18.9413347 80.523,18.67 C80.2443319,18.3986653 80.105,18.0393356 80.105,17.592 L80.105,16.437 C80.105,15.9896644 80.2443319,15.6303347 80.523,15.359 C80.8016681,15.0876653 81.1573312,14.952 81.59,14.952 C82.0226688,14.952 82.3783319,15.0876653 82.657,15.359 C82.9356681,15.6303347 83.075,15.9896644 83.075,16.437 L83.075,17.592 Z M81.37,11.168 L77.696,19 L77.036,19 L80.71,11.168 L81.37,11.168 Z M78.301,13.731 C78.301,14.1710022 78.1616681,14.5266653 77.883,14.798 C77.6043319,15.0693347 77.2486688,15.205 76.816,15.205 C76.3833312,15.205 76.0276681,15.0693347 75.749,14.798 C75.4703319,14.5266653 75.331,14.1710022 75.331,13.731 L75.331,12.576 C75.331,12.1286644 75.4703319,11.7693347 75.749,11.498 C76.0276681,11.2266653 76.3833312,11.091 76.816,11.091 C77.2486688,11.091 77.6043319,11.2266653 77.883,11.498 C78.1616681,11.7693347 78.301,12.1286644 78.301,12.576 L78.301,13.731 Z M82.448,17.57 L82.448,16.459 C82.448,15.8209968 82.1620029,15.502 81.59,15.502 C81.0179971,15.502 80.732,15.8209968 80.732,16.459 L80.732,17.57 C80.732,18.2080032 81.0179971,18.527 81.59,18.527 C82.1620029,18.527 82.448,18.2080032 82.448,17.57 L82.448,17.57 Z M77.674,13.709 L77.674,12.598 C77.674,11.9599968 77.3880029,11.641 76.816,11.641 C76.2439971,11.641 75.958,11.9599968 75.958,12.598 L75.958,13.709 C75.958,14.3396698 76.2439971,14.655 76.816,14.655 C77.3880029,14.655 77.674,14.3396698 77.674,13.709 L77.674,13.709 Z" id="10%" fill="#787878"></path>
                <path d="M137.454,19 L131.952,19 L131.952,18.104 L135.886,13.106 C136.259335,12.6299976 136.446,12.1400025 136.446,11.636 C136.446,11.094664 136.292002,10.6606683 135.984,10.334 C135.675998,10.0073317 135.251336,9.844 134.71,9.844 C134.205997,9.844 133.800002,9.9839986 133.492,10.264 C133.146665,10.5813349 132.974,11.0433303 132.974,11.65 L131.966,11.65 C131.966,10.8566627 132.217997,10.2080025 132.722,9.704 C133.226003,9.19999748 133.888663,8.948 134.71,8.948 C135.531337,8.948 136.193997,9.19299755 136.698,9.683 C137.202003,10.1730025 137.454,10.8239959 137.454,11.636 C137.454,12.29867 137.188003,12.9706633 136.656,13.652 L133.17,18.104 L137.454,18.104 L137.454,19 Z M144.692,16.34 C144.692,17.1520041 144.433003,17.8123308 143.915,18.321 C143.396997,18.8296692 142.746004,19.084 141.962,19.084 C141.177996,19.084 140.527003,18.8296692 140.009,18.321 C139.490997,17.8123308 139.232,17.1520041 139.232,16.34 L139.232,11.692 C139.232,10.8799959 139.490997,10.2196692 140.009,9.711 C140.527003,9.20233079 141.177996,8.948 141.962,8.948 C142.746004,8.948 143.396997,9.20233079 143.915,9.711 C144.433003,10.2196692 144.692,10.8799959 144.692,11.692 L144.692,16.34 Z M143.684,16.284 L143.684,11.748 C143.684,11.1879972 143.532335,10.7306684 143.229,10.376 C142.925665,10.0213316 142.503336,9.844 141.962,9.844 C141.420664,9.844 140.998335,10.0213316 140.695,10.376 C140.391665,10.7306684 140.24,11.1879972 140.24,11.748 L140.24,16.284 C140.24,16.8440028 140.391665,17.3013316 140.695,17.656 C140.998335,18.0106684 141.420664,18.188 141.962,18.188 C142.503336,18.188 142.925665,18.0106684 143.229,17.656 C143.532335,17.3013316 143.684,16.8440028 143.684,16.284 L143.684,16.284 Z M154.075,17.592 C154.075,18.0393356 153.935668,18.3986653 153.657,18.67 C153.378332,18.9413347 153.022669,19.077 152.59,19.077 C152.157331,19.077 151.801668,18.9413347 151.523,18.67 C151.244332,18.3986653 151.105,18.0393356 151.105,17.592 L151.105,16.437 C151.105,15.9896644 151.244332,15.6303347 151.523,15.359 C151.801668,15.0876653 152.157331,14.952 152.59,14.952 C153.022669,14.952 153.378332,15.0876653 153.657,15.359 C153.935668,15.6303347 154.075,15.9896644 154.075,16.437 L154.075,17.592 Z M152.37,11.168 L148.696,19 L148.036,19 L151.71,11.168 L152.37,11.168 Z M149.301,13.731 C149.301,14.1710022 149.161668,14.5266653 148.883,14.798 C148.604332,15.0693347 148.248669,15.205 147.816,15.205 C147.383331,15.205 147.027668,15.0693347 146.749,14.798 C146.470332,14.5266653 146.331,14.1710022 146.331,13.731 L146.331,12.576 C146.331,12.1286644 146.470332,11.7693347 146.749,11.498 C147.027668,11.2266653 147.383331,11.091 147.816,11.091 C148.248669,11.091 148.604332,11.2266653 148.883,11.498 C149.161668,11.7693347 149.301,12.1286644 149.301,12.576 L149.301,13.731 Z M153.448,17.57 L153.448,16.459 C153.448,15.8209968 153.162003,15.502 152.59,15.502 C152.017997,15.502 151.732,15.8209968 151.732,16.459 L151.732,17.57 C151.732,18.2080032 152.017997,18.527 152.59,18.527 C153.162003,18.527 153.448,18.2080032 153.448,17.57 L153.448,17.57 Z M148.674,13.709 L148.674,12.598 C148.674,11.9599968 148.388003,11.641 147.816,11.641 C147.243997,11.641 146.958,11.9599968 146.958,12.598 L146.958,13.709 C146.958,14.3396698 147.243997,14.655 147.816,14.655 C148.388003,14.655 148.674,14.3396698 148.674,13.709 L148.674,13.709 Z" id="20%" fill="#787878"></path>
                <path d="M209.44,16.284 C209.44,17.1706711 209.155336,17.8706641 208.586,18.384 C208.053997,18.8600024 207.363338,19.098 206.514,19.098 C205.683329,19.098 205.011336,18.8833355 204.498,18.454 C203.928664,17.9966644 203.625334,17.3340043 203.588,16.466 L204.596,16.466 C204.633334,17.0540029 204.843331,17.4973318 205.226,17.796 C205.562002,18.066668 205.991331,18.202 206.514,18.202 C207.064669,18.202 207.521998,18.0293351 207.886,17.684 C208.250002,17.3386649 208.432,16.8673363 208.432,16.27 C208.432,14.9819936 207.778673,14.338 206.472,14.338 L206.262,14.338 L206.262,13.456 L206.472,13.456 C207.657339,13.456 208.25,12.854006 208.25,11.65 C208.25,11.0713304 208.086668,10.6233349 207.76,10.306 C207.433332,9.98866508 207.018003,9.83 206.514,9.83 C205.991331,9.83 205.573668,9.97933184 205.261,10.278 C204.948332,10.5766682 204.768667,10.9826641 204.722,11.496 L203.714,11.496 C203.77,10.7026627 204.063997,10.072669 204.596,9.606 C205.100003,9.15799776 205.739329,8.934 206.514,8.934 C207.326004,8.934 207.986331,9.18133086 208.495,9.676 C209.003669,10.1706691 209.258,10.8239959 209.258,11.636 C209.258,12.7000053 208.810004,13.4373313 207.914,13.848 C208.931338,14.2306686 209.44,15.0426605 209.44,16.284 L209.44,16.284 Z M216.692,16.34 C216.692,17.1520041 216.433003,17.8123308 215.915,18.321 C215.396997,18.8296692 214.746004,19.084 213.962,19.084 C213.177996,19.084 212.527003,18.8296692 212.009,18.321 C211.490997,17.8123308 211.232,17.1520041 211.232,16.34 L211.232,11.692 C211.232,10.8799959 211.490997,10.2196692 212.009,9.711 C212.527003,9.20233079 213.177996,8.948 213.962,8.948 C214.746004,8.948 215.396997,9.20233079 215.915,9.711 C216.433003,10.2196692 216.692,10.8799959 216.692,11.692 L216.692,16.34 Z M215.684,16.284 L215.684,11.748 C215.684,11.1879972 215.532335,10.7306684 215.229,10.376 C214.925665,10.0213316 214.503336,9.844 213.962,9.844 C213.420664,9.844 212.998335,10.0213316 212.695,10.376 C212.391665,10.7306684 212.24,11.1879972 212.24,11.748 L212.24,16.284 C212.24,16.8440028 212.391665,17.3013316 212.695,17.656 C212.998335,18.0106684 213.420664,18.188 213.962,18.188 C214.503336,18.188 214.925665,18.0106684 215.229,17.656 C215.532335,17.3013316 215.684,16.8440028 215.684,16.284 L215.684,16.284 Z M226.075,17.592 C226.075,18.0393356 225.935668,18.3986653 225.657,18.67 C225.378332,18.9413347 225.022669,19.077 224.59,19.077 C224.157331,19.077 223.801668,18.9413347 223.523,18.67 C223.244332,18.3986653 223.105,18.0393356 223.105,17.592 L223.105,16.437 C223.105,15.9896644 223.244332,15.6303347 223.523,15.359 C223.801668,15.0876653 224.157331,14.952 224.59,14.952 C225.022669,14.952 225.378332,15.0876653 225.657,15.359 C225.935668,15.6303347 226.075,15.9896644 226.075,16.437 L226.075,17.592 Z M224.37,11.168 L220.696,19 L220.036,19 L223.71,11.168 L224.37,11.168 Z M221.301,13.731 C221.301,14.1710022 221.161668,14.5266653 220.883,14.798 C220.604332,15.0693347 220.248669,15.205 219.816,15.205 C219.383331,15.205 219.027668,15.0693347 218.749,14.798 C218.470332,14.5266653 218.331,14.1710022 218.331,13.731 L218.331,12.576 C218.331,12.1286644 218.470332,11.7693347 218.749,11.498 C219.027668,11.2266653 219.383331,11.091 219.816,11.091 C220.248669,11.091 220.604332,11.2266653 220.883,11.498 C221.161668,11.7693347 221.301,12.1286644 221.301,12.576 L221.301,13.731 Z M225.448,17.57 L225.448,16.459 C225.448,15.8209968 225.162003,15.502 224.59,15.502 C224.017997,15.502 223.732,15.8209968 223.732,16.459 L223.732,17.57 C223.732,18.2080032 224.017997,18.527 224.59,18.527 C225.162003,18.527 225.448,18.2080032 225.448,17.57 L225.448,17.57 Z M220.674,13.709 L220.674,12.598 C220.674,11.9599968 220.388003,11.641 219.816,11.641 C219.243997,11.641 218.958,11.9599968 218.958,12.598 L218.958,13.709 C218.958,14.3396698 219.243997,14.655 219.816,14.655 C220.388003,14.655 220.674,14.3396698 220.674,13.709 L220.674,13.709 Z" id="30%" fill="#787878"></path>
                <path d="M280.748,17.418 L279.53,17.418 L279.53,19 L278.536,19 L278.536,17.418 L274.56,17.418 L274.56,16.508 L278.158,9.032 L279.236,9.032 L275.638,16.508 L278.536,16.508 L278.536,13.68 L279.53,13.68 L279.53,16.508 L280.748,16.508 L280.748,17.418 Z M287.692,16.34 C287.692,17.1520041 287.433003,17.8123308 286.915,18.321 C286.396997,18.8296692 285.746004,19.084 284.962,19.084 C284.177996,19.084 283.527003,18.8296692 283.009,18.321 C282.490997,17.8123308 282.232,17.1520041 282.232,16.34 L282.232,11.692 C282.232,10.8799959 282.490997,10.2196692 283.009,9.711 C283.527003,9.20233079 284.177996,8.948 284.962,8.948 C285.746004,8.948 286.396997,9.20233079 286.915,9.711 C287.433003,10.2196692 287.692,10.8799959 287.692,11.692 L287.692,16.34 Z M286.684,16.284 L286.684,11.748 C286.684,11.1879972 286.532335,10.7306684 286.229,10.376 C285.925665,10.0213316 285.503336,9.844 284.962,9.844 C284.420664,9.844 283.998335,10.0213316 283.695,10.376 C283.391665,10.7306684 283.24,11.1879972 283.24,11.748 L283.24,16.284 C283.24,16.8440028 283.391665,17.3013316 283.695,17.656 C283.998335,18.0106684 284.420664,18.188 284.962,18.188 C285.503336,18.188 285.925665,18.0106684 286.229,17.656 C286.532335,17.3013316 286.684,16.8440028 286.684,16.284 L286.684,16.284 Z M297.075,17.592 C297.075,18.0393356 296.935668,18.3986653 296.657,18.67 C296.378332,18.9413347 296.022669,19.077 295.59,19.077 C295.157331,19.077 294.801668,18.9413347 294.523,18.67 C294.244332,18.3986653 294.105,18.0393356 294.105,17.592 L294.105,16.437 C294.105,15.9896644 294.244332,15.6303347 294.523,15.359 C294.801668,15.0876653 295.157331,14.952 295.59,14.952 C296.022669,14.952 296.378332,15.0876653 296.657,15.359 C296.935668,15.6303347 297.075,15.9896644 297.075,16.437 L297.075,17.592 Z M295.37,11.168 L291.696,19 L291.036,19 L294.71,11.168 L295.37,11.168 Z M292.301,13.731 C292.301,14.1710022 292.161668,14.5266653 291.883,14.798 C291.604332,15.0693347 291.248669,15.205 290.816,15.205 C290.383331,15.205 290.027668,15.0693347 289.749,14.798 C289.470332,14.5266653 289.331,14.1710022 289.331,13.731 L289.331,12.576 C289.331,12.1286644 289.470332,11.7693347 289.749,11.498 C290.027668,11.2266653 290.383331,11.091 290.816,11.091 C291.248669,11.091 291.604332,11.2266653 291.883,11.498 C292.161668,11.7693347 292.301,12.1286644 292.301,12.576 L292.301,13.731 Z M296.448,17.57 L296.448,16.459 C296.448,15.8209968 296.162003,15.502 295.59,15.502 C295.017997,15.502 294.732,15.8209968 294.732,16.459 L294.732,17.57 C294.732,18.2080032 295.017997,18.527 295.59,18.527 C296.162003,18.527 296.448,18.2080032 296.448,17.57 L296.448,17.57 Z M291.674,13.709 L291.674,12.598 C291.674,11.9599968 291.388003,11.641 290.816,11.641 C290.243997,11.641 289.958,11.9599968 289.958,12.598 L289.958,13.709 C289.958,14.3396698 290.243997,14.655 290.816,14.655 C291.388003,14.655 291.674,14.3396698 291.674,13.709 L291.674,13.709 Z" id="40%" fill="#787878"></path>
                <path d="M351.468,15.71 C351.468,16.9420062 351.202003,17.8239973 350.67,18.356 C350.175331,18.8506691 349.512671,19.098 348.682,19.098 C347.813996,19.098 347.146669,18.8600024 346.68,18.384 C346.269331,17.9733313 346.036,17.3946704 345.98,16.648 L346.988,16.648 C347.118667,17.6840052 347.683328,18.202 348.682,18.202 C349.195336,18.202 349.605998,18.0480015 349.914,17.74 C350.278002,17.3759982 350.46,16.6993383 350.46,15.71 C350.46,14.0953253 349.900006,13.288 348.78,13.288 C347.893329,13.288 347.342668,13.6146634 347.128,14.268 L346.218,14.268 L346.218,9.032 L351.258,9.032 L351.258,9.928 L347.128,9.928 L347.128,13.092 C347.538669,12.6346644 348.135996,12.406 348.92,12.406 C349.648004,12.406 350.221998,12.6159979 350.642,13.036 C351.192669,13.5866694 351.468,14.4779938 351.468,15.71 L351.468,15.71 Z M358.692,16.34 C358.692,17.1520041 358.433003,17.8123308 357.915,18.321 C357.396997,18.8296692 356.746004,19.084 355.962,19.084 C355.177996,19.084 354.527003,18.8296692 354.009,18.321 C353.490997,17.8123308 353.232,17.1520041 353.232,16.34 L353.232,11.692 C353.232,10.8799959 353.490997,10.2196692 354.009,9.711 C354.527003,9.20233079 355.177996,8.948 355.962,8.948 C356.746004,8.948 357.396997,9.20233079 357.915,9.711 C358.433003,10.2196692 358.692,10.8799959 358.692,11.692 L358.692,16.34 Z M357.684,16.284 L357.684,11.748 C357.684,11.1879972 357.532335,10.7306684 357.229,10.376 C356.925665,10.0213316 356.503336,9.844 355.962,9.844 C355.420664,9.844 354.998335,10.0213316 354.695,10.376 C354.391665,10.7306684 354.24,11.1879972 354.24,11.748 L354.24,16.284 C354.24,16.8440028 354.391665,17.3013316 354.695,17.656 C354.998335,18.0106684 355.420664,18.188 355.962,18.188 C356.503336,18.188 356.925665,18.0106684 357.229,17.656 C357.532335,17.3013316 357.684,16.8440028 357.684,16.284 L357.684,16.284 Z M368.075,17.592 C368.075,18.0393356 367.935668,18.3986653 367.657,18.67 C367.378332,18.9413347 367.022669,19.077 366.59,19.077 C366.157331,19.077 365.801668,18.9413347 365.523,18.67 C365.244332,18.3986653 365.105,18.0393356 365.105,17.592 L365.105,16.437 C365.105,15.9896644 365.244332,15.6303347 365.523,15.359 C365.801668,15.0876653 366.157331,14.952 366.59,14.952 C367.022669,14.952 367.378332,15.0876653 367.657,15.359 C367.935668,15.6303347 368.075,15.9896644 368.075,16.437 L368.075,17.592 Z M366.37,11.168 L362.696,19 L362.036,19 L365.71,11.168 L366.37,11.168 Z M363.301,13.731 C363.301,14.1710022 363.161668,14.5266653 362.883,14.798 C362.604332,15.0693347 362.248669,15.205 361.816,15.205 C361.383331,15.205 361.027668,15.0693347 360.749,14.798 C360.470332,14.5266653 360.331,14.1710022 360.331,13.731 L360.331,12.576 C360.331,12.1286644 360.470332,11.7693347 360.749,11.498 C361.027668,11.2266653 361.383331,11.091 361.816,11.091 C362.248669,11.091 362.604332,11.2266653 362.883,11.498 C363.161668,11.7693347 363.301,12.1286644 363.301,12.576 L363.301,13.731 Z M367.448,17.57 L367.448,16.459 C367.448,15.8209968 367.162003,15.502 366.59,15.502 C366.017997,15.502 365.732,15.8209968 365.732,16.459 L365.732,17.57 C365.732,18.2080032 366.017997,18.527 366.59,18.527 C367.162003,18.527 367.448,18.2080032 367.448,17.57 L367.448,17.57 Z M362.674,13.709 L362.674,12.598 C362.674,11.9599968 362.388003,11.641 361.816,11.641 C361.243997,11.641 360.958,11.9599968 360.958,12.598 L360.958,13.709 C360.958,14.3396698 361.243997,14.655 361.816,14.655 C362.388003,14.655 362.674,14.3396698 362.674,13.709 L362.674,13.709 Z" id="50%" fill="#787878"></path>
                <path d="M422.44,16.13 C422.44,16.988671 422.188003,17.6956639 421.684,18.251 C421.179997,18.8063361 420.512671,19.084 419.682,19.084 C418.841996,19.084 418.170003,18.8226693 417.666,18.3 C417.161997,17.7773307 416.91,17.0820043 416.91,16.214 C416.91,15.5699968 417.119998,14.8233376 417.54,13.974 L419.99,9.032 L421.026,9.032 L418.8,13.512 C419.108002,13.3719993 419.457998,13.302 419.85,13.302 C420.624671,13.302 421.249998,13.565664 421.726,14.093 C422.202002,14.620336 422.44,15.2993292 422.44,16.13 L422.44,16.13 Z M421.432,16.172 C421.432,15.5933304 421.282668,15.1173352 420.984,14.744 C420.657332,14.351998 420.218669,14.156 419.668,14.156 C419.135997,14.156 418.711335,14.3379982 418.394,14.702 C418.076665,15.0660018 417.918,15.5559969 417.918,16.172 C417.918,16.7786697 418.076665,17.2663315 418.394,17.635 C418.711335,18.0036685 419.135997,18.188 419.668,18.188 C420.200003,18.188 420.626998,18.0036685 420.949,17.635 C421.271002,17.2663315 421.432,16.7786697 421.432,16.172 L421.432,16.172 Z M429.692,16.34 C429.692,17.1520041 429.433003,17.8123308 428.915,18.321 C428.396997,18.8296692 427.746004,19.084 426.962,19.084 C426.177996,19.084 425.527003,18.8296692 425.009,18.321 C424.490997,17.8123308 424.232,17.1520041 424.232,16.34 L424.232,11.692 C424.232,10.8799959 424.490997,10.2196692 425.009,9.711 C425.527003,9.20233079 426.177996,8.948 426.962,8.948 C427.746004,8.948 428.396997,9.20233079 428.915,9.711 C429.433003,10.2196692 429.692,10.8799959 429.692,11.692 L429.692,16.34 Z M428.684,16.284 L428.684,11.748 C428.684,11.1879972 428.532335,10.7306684 428.229,10.376 C427.925665,10.0213316 427.503336,9.844 426.962,9.844 C426.420664,9.844 425.998335,10.0213316 425.695,10.376 C425.391665,10.7306684 425.24,11.1879972 425.24,11.748 L425.24,16.284 C425.24,16.8440028 425.391665,17.3013316 425.695,17.656 C425.998335,18.0106684 426.420664,18.188 426.962,18.188 C427.503336,18.188 427.925665,18.0106684 428.229,17.656 C428.532335,17.3013316 428.684,16.8440028 428.684,16.284 L428.684,16.284 Z M439.075,17.592 C439.075,18.0393356 438.935668,18.3986653 438.657,18.67 C438.378332,18.9413347 438.022669,19.077 437.59,19.077 C437.157331,19.077 436.801668,18.9413347 436.523,18.67 C436.244332,18.3986653 436.105,18.0393356 436.105,17.592 L436.105,16.437 C436.105,15.9896644 436.244332,15.6303347 436.523,15.359 C436.801668,15.0876653 437.157331,14.952 437.59,14.952 C438.022669,14.952 438.378332,15.0876653 438.657,15.359 C438.935668,15.6303347 439.075,15.9896644 439.075,16.437 L439.075,17.592 Z M437.37,11.168 L433.696,19 L433.036,19 L436.71,11.168 L437.37,11.168 Z M434.301,13.731 C434.301,14.1710022 434.161668,14.5266653 433.883,14.798 C433.604332,15.0693347 433.248669,15.205 432.816,15.205 C432.383331,15.205 432.027668,15.0693347 431.749,14.798 C431.470332,14.5266653 431.331,14.1710022 431.331,13.731 L431.331,12.576 C431.331,12.1286644 431.470332,11.7693347 431.749,11.498 C432.027668,11.2266653 432.383331,11.091 432.816,11.091 C433.248669,11.091 433.604332,11.2266653 433.883,11.498 C434.161668,11.7693347 434.301,12.1286644 434.301,12.576 L434.301,13.731 Z M438.448,17.57 L438.448,16.459 C438.448,15.8209968 438.162003,15.502 437.59,15.502 C437.017997,15.502 436.732,15.8209968 436.732,16.459 L436.732,17.57 C436.732,18.2080032 437.017997,18.527 437.59,18.527 C438.162003,18.527 438.448,18.2080032 438.448,17.57 L438.448,17.57 Z M433.674,13.709 L433.674,12.598 C433.674,11.9599968 433.388003,11.641 432.816,11.641 C432.243997,11.641 431.958,11.9599968 431.958,12.598 L431.958,13.709 C431.958,14.3396698 432.243997,14.655 432.816,14.655 C433.388003,14.655 433.674,14.3396698 433.674,13.709 L433.674,13.709 Z" id="60%" fill="#787878"></path>
                <path d="M493.594,9.928 L490.136,19 L489.072,19 L492.53,9.928 L489.058,9.928 L489.058,11.496 L488.064,11.496 L488.064,9.032 L493.594,9.032 L493.594,9.928 Z M500.692,16.34 C500.692,17.1520041 500.433003,17.8123308 499.915,18.321 C499.396997,18.8296692 498.746004,19.084 497.962,19.084 C497.177996,19.084 496.527003,18.8296692 496.009,18.321 C495.490997,17.8123308 495.232,17.1520041 495.232,16.34 L495.232,11.692 C495.232,10.8799959 495.490997,10.2196692 496.009,9.711 C496.527003,9.20233079 497.177996,8.948 497.962,8.948 C498.746004,8.948 499.396997,9.20233079 499.915,9.711 C500.433003,10.2196692 500.692,10.8799959 500.692,11.692 L500.692,16.34 Z M499.684,16.284 L499.684,11.748 C499.684,11.1879972 499.532335,10.7306684 499.229,10.376 C498.925665,10.0213316 498.503336,9.844 497.962,9.844 C497.420664,9.844 496.998335,10.0213316 496.695,10.376 C496.391665,10.7306684 496.24,11.1879972 496.24,11.748 L496.24,16.284 C496.24,16.8440028 496.391665,17.3013316 496.695,17.656 C496.998335,18.0106684 497.420664,18.188 497.962,18.188 C498.503336,18.188 498.925665,18.0106684 499.229,17.656 C499.532335,17.3013316 499.684,16.8440028 499.684,16.284 L499.684,16.284 Z M510.075,17.592 C510.075,18.0393356 509.935668,18.3986653 509.657,18.67 C509.378332,18.9413347 509.022669,19.077 508.59,19.077 C508.157331,19.077 507.801668,18.9413347 507.523,18.67 C507.244332,18.3986653 507.105,18.0393356 507.105,17.592 L507.105,16.437 C507.105,15.9896644 507.244332,15.6303347 507.523,15.359 C507.801668,15.0876653 508.157331,14.952 508.59,14.952 C509.022669,14.952 509.378332,15.0876653 509.657,15.359 C509.935668,15.6303347 510.075,15.9896644 510.075,16.437 L510.075,17.592 Z M508.37,11.168 L504.696,19 L504.036,19 L507.71,11.168 L508.37,11.168 Z M505.301,13.731 C505.301,14.1710022 505.161668,14.5266653 504.883,14.798 C504.604332,15.0693347 504.248669,15.205 503.816,15.205 C503.383331,15.205 503.027668,15.0693347 502.749,14.798 C502.470332,14.5266653 502.331,14.1710022 502.331,13.731 L502.331,12.576 C502.331,12.1286644 502.470332,11.7693347 502.749,11.498 C503.027668,11.2266653 503.383331,11.091 503.816,11.091 C504.248669,11.091 504.604332,11.2266653 504.883,11.498 C505.161668,11.7693347 505.301,12.1286644 505.301,12.576 L505.301,13.731 Z M509.448,17.57 L509.448,16.459 C509.448,15.8209968 509.162003,15.502 508.59,15.502 C508.017997,15.502 507.732,15.8209968 507.732,16.459 L507.732,17.57 C507.732,18.2080032 508.017997,18.527 508.59,18.527 C509.162003,18.527 509.448,18.2080032 509.448,17.57 L509.448,17.57 Z M504.674,13.709 L504.674,12.598 C504.674,11.9599968 504.388003,11.641 503.816,11.641 C503.243997,11.641 502.958,11.9599968 502.958,12.598 L502.958,13.709 C502.958,14.3396698 503.243997,14.655 503.816,14.655 C504.388003,14.655 504.674,14.3396698 504.674,13.709 L504.674,13.709 Z" id="70%" fill="#787878"></path>
                <path d="M564.594,16.256 C564.594,17.0866708 564.314003,17.765664 563.754,18.293 C563.193997,18.820336 562.494004,19.084 561.654,19.084 C560.813996,19.084 560.114003,18.820336 559.554,18.293 C558.993997,17.765664 558.714,17.0866708 558.714,16.256 C558.714,15.2106614 559.213328,14.4033362 560.212,13.834 C559.343996,13.3393309 558.91,12.6020049 558.91,11.622 C558.91,10.8473295 559.168997,10.2080025 559.687,9.704 C560.205003,9.19999748 560.860663,8.948 561.654,8.948 C562.447337,8.948 563.102997,9.19999748 563.621,9.704 C564.139003,10.2080025 564.398,10.8473295 564.398,11.622 C564.398,12.6020049 563.968671,13.3393309 563.11,13.834 C564.099338,14.3940028 564.594,15.2013281 564.594,16.256 L564.594,16.256 Z M563.39,11.636 C563.39,11.1133307 563.229002,10.6840017 562.907,10.348 C562.584998,10.0119983 562.167336,9.844 561.654,9.844 C561.140664,9.844 560.723002,10.0119983 560.401,10.348 C560.078998,10.6840017 559.918,11.1133307 559.918,11.636 C559.918,12.1586693 560.078998,12.585665 560.401,12.917 C560.723002,13.248335 561.140664,13.414 561.654,13.414 C562.167336,13.414 562.584998,13.248335 562.907,12.917 C563.229002,12.585665 563.39,12.1586693 563.39,11.636 L563.39,11.636 Z M563.586,16.242 C563.586,15.6913306 563.401669,15.2293352 563.033,14.856 C562.664331,14.4826648 562.204669,14.296 561.654,14.296 C561.103331,14.296 560.643669,14.4826648 560.275,14.856 C559.906331,15.2293352 559.722,15.6913306 559.722,16.242 C559.722,16.7926694 559.906331,17.2546648 560.275,17.628 C560.643669,18.0013352 561.103331,18.188 561.654,18.188 C562.204669,18.188 562.664331,18.0013352 563.033,17.628 C563.401669,17.2546648 563.586,16.7926694 563.586,16.242 L563.586,16.242 Z M571.692,16.34 C571.692,17.1520041 571.433003,17.8123308 570.915,18.321 C570.396997,18.8296692 569.746004,19.084 568.962,19.084 C568.177996,19.084 567.527003,18.8296692 567.009,18.321 C566.490997,17.8123308 566.232,17.1520041 566.232,16.34 L566.232,11.692 C566.232,10.8799959 566.490997,10.2196692 567.009,9.711 C567.527003,9.20233079 568.177996,8.948 568.962,8.948 C569.746004,8.948 570.396997,9.20233079 570.915,9.711 C571.433003,10.2196692 571.692,10.8799959 571.692,11.692 L571.692,16.34 Z M570.684,16.284 L570.684,11.748 C570.684,11.1879972 570.532335,10.7306684 570.229,10.376 C569.925665,10.0213316 569.503336,9.844 568.962,9.844 C568.420664,9.844 567.998335,10.0213316 567.695,10.376 C567.391665,10.7306684 567.24,11.1879972 567.24,11.748 L567.24,16.284 C567.24,16.8440028 567.391665,17.3013316 567.695,17.656 C567.998335,18.0106684 568.420664,18.188 568.962,18.188 C569.503336,18.188 569.925665,18.0106684 570.229,17.656 C570.532335,17.3013316 570.684,16.8440028 570.684,16.284 L570.684,16.284 Z M581.075,17.592 C581.075,18.0393356 580.935668,18.3986653 580.657,18.67 C580.378332,18.9413347 580.022669,19.077 579.59,19.077 C579.157331,19.077 578.801668,18.9413347 578.523,18.67 C578.244332,18.3986653 578.105,18.0393356 578.105,17.592 L578.105,16.437 C578.105,15.9896644 578.244332,15.6303347 578.523,15.359 C578.801668,15.0876653 579.157331,14.952 579.59,14.952 C580.022669,14.952 580.378332,15.0876653 580.657,15.359 C580.935668,15.6303347 581.075,15.9896644 581.075,16.437 L581.075,17.592 Z M579.37,11.168 L575.696,19 L575.036,19 L578.71,11.168 L579.37,11.168 Z M576.301,13.731 C576.301,14.1710022 576.161668,14.5266653 575.883,14.798 C575.604332,15.0693347 575.248669,15.205 574.816,15.205 C574.383331,15.205 574.027668,15.0693347 573.749,14.798 C573.470332,14.5266653 573.331,14.1710022 573.331,13.731 L573.331,12.576 C573.331,12.1286644 573.470332,11.7693347 573.749,11.498 C574.027668,11.2266653 574.383331,11.091 574.816,11.091 C575.248669,11.091 575.604332,11.2266653 575.883,11.498 C576.161668,11.7693347 576.301,12.1286644 576.301,12.576 L576.301,13.731 Z M580.448,17.57 L580.448,16.459 C580.448,15.8209968 580.162003,15.502 579.59,15.502 C579.017997,15.502 578.732,15.8209968 578.732,16.459 L578.732,17.57 C578.732,18.2080032 579.017997,18.527 579.59,18.527 C580.162003,18.527 580.448,18.2080032 580.448,17.57 L580.448,17.57 Z M575.674,13.709 L575.674,12.598 C575.674,11.9599968 575.388003,11.641 574.816,11.641 C574.243997,11.641 573.958,11.9599968 573.958,12.598 L573.958,13.709 C573.958,14.3396698 574.243997,14.655 574.816,14.655 C575.388003,14.655 575.674,14.3396698 575.674,13.709 L575.674,13.709 Z" id="80%" fill="#787878"></path>
                <path d="M635.398,11.818 C635.398,12.4620032 635.188002,13.2086624 634.768,14.058 L632.318,19 L631.268,19 L633.508,14.52 C633.199998,14.6600007 632.845335,14.73 632.444,14.73 C631.678663,14.73 631.058002,14.466336 630.582,13.939 C630.105998,13.411664 629.868,12.7326708 629.868,11.902 C629.868,11.043329 630.119997,10.3363361 630.624,9.781 C631.128003,9.22566389 631.795329,8.948 632.626,8.948 C633.466004,8.948 634.137997,9.20933072 634.642,9.732 C635.146003,10.2546693 635.398,10.9499957 635.398,11.818 L635.398,11.818 Z M634.39,11.86 C634.39,11.2533303 634.229002,10.7656685 633.907,10.397 C633.584998,10.0283315 633.158003,9.844 632.626,9.844 C632.093997,9.844 631.669335,10.0283315 631.352,10.397 C631.034665,10.7656685 630.876,11.2533303 630.876,11.86 C630.876,12.4386696 631.029998,12.9193314 631.338,13.302 C631.646002,13.6846686 632.075331,13.876 632.626,13.876 C633.158003,13.876 633.584998,13.6940018 633.907,13.33 C634.229002,12.9659982 634.39,12.4760031 634.39,11.86 L634.39,11.86 Z M642.692,16.34 C642.692,17.1520041 642.433003,17.8123308 641.915,18.321 C641.396997,18.8296692 640.746004,19.084 639.962,19.084 C639.177996,19.084 638.527003,18.8296692 638.009,18.321 C637.490997,17.8123308 637.232,17.1520041 637.232,16.34 L637.232,11.692 C637.232,10.8799959 637.490997,10.2196692 638.009,9.711 C638.527003,9.20233079 639.177996,8.948 639.962,8.948 C640.746004,8.948 641.396997,9.20233079 641.915,9.711 C642.433003,10.2196692 642.692,10.8799959 642.692,11.692 L642.692,16.34 Z M641.684,16.284 L641.684,11.748 C641.684,11.1879972 641.532335,10.7306684 641.229,10.376 C640.925665,10.0213316 640.503336,9.844 639.962,9.844 C639.420664,9.844 638.998335,10.0213316 638.695,10.376 C638.391665,10.7306684 638.24,11.1879972 638.24,11.748 L638.24,16.284 C638.24,16.8440028 638.391665,17.3013316 638.695,17.656 C638.998335,18.0106684 639.420664,18.188 639.962,18.188 C640.503336,18.188 640.925665,18.0106684 641.229,17.656 C641.532335,17.3013316 641.684,16.8440028 641.684,16.284 L641.684,16.284 Z M652.075,17.592 C652.075,18.0393356 651.935668,18.3986653 651.657,18.67 C651.378332,18.9413347 651.022669,19.077 650.59,19.077 C650.157331,19.077 649.801668,18.9413347 649.523,18.67 C649.244332,18.3986653 649.105,18.0393356 649.105,17.592 L649.105,16.437 C649.105,15.9896644 649.244332,15.6303347 649.523,15.359 C649.801668,15.0876653 650.157331,14.952 650.59,14.952 C651.022669,14.952 651.378332,15.0876653 651.657,15.359 C651.935668,15.6303347 652.075,15.9896644 652.075,16.437 L652.075,17.592 Z M650.37,11.168 L646.696,19 L646.036,19 L649.71,11.168 L650.37,11.168 Z M647.301,13.731 C647.301,14.1710022 647.161668,14.5266653 646.883,14.798 C646.604332,15.0693347 646.248669,15.205 645.816,15.205 C645.383331,15.205 645.027668,15.0693347 644.749,14.798 C644.470332,14.5266653 644.331,14.1710022 644.331,13.731 L644.331,12.576 C644.331,12.1286644 644.470332,11.7693347 644.749,11.498 C645.027668,11.2266653 645.383331,11.091 645.816,11.091 C646.248669,11.091 646.604332,11.2266653 646.883,11.498 C647.161668,11.7693347 647.301,12.1286644 647.301,12.576 L647.301,13.731 Z M651.448,17.57 L651.448,16.459 C651.448,15.8209968 651.162003,15.502 650.59,15.502 C650.017997,15.502 649.732,15.8209968 649.732,16.459 L649.732,17.57 C649.732,18.2080032 650.017997,18.527 650.59,18.527 C651.162003,18.527 651.448,18.2080032 651.448,17.57 L651.448,17.57 Z M646.674,13.709 L646.674,12.598 C646.674,11.9599968 646.388003,11.641 645.816,11.641 C645.243997,11.641 644.958,11.9599968 644.958,12.598 L644.958,13.709 C644.958,14.3396698 645.243997,14.655 645.816,14.655 C646.388003,14.655 646.674,14.3396698 646.674,13.709 L646.674,13.709 Z" id="90%" fill="#787878"></path>
            </g>
        </g>
    </g>
</svg>