<?xml version="1.0" encoding="utf-8"?>
<!-- Generator: Adobe Illustrator 19.2.1, SVG Export Plug-In . SVG Version: 6.00 Build 0)  -->
<!DOCTYPE svg PUBLIC "-//W3C//DTD SVG 1.1//EN" "http://www.w3.org/Graphics/SVG/1.1/DTD/svg11.dtd">
<svg version="1.1" id="圖層_1" xmlns="http://www.w3.org/2000/svg" xmlns:xlink="http://www.w3.org/1999/xlink" x="0px" y="0px"
	 viewBox="0 0 550 550" enable-background="new 0 0 550 550" xml:space="preserve">
<g>
	<rect x="98.7" y="228.8" fill="#1A1A1A" width="357.7" height="250.5"/>
	<g>
		<path fill="#F2F2F2" d="M417,436H137c-0.7,0-1.2-0.3-1.2-1s0.5-1,1.2-1h280c0.7,0,1.2,0.3,1.2,1S417.6,436,417,436z"/>
		<path fill="#F2F2F2" d="M207.6,364.7h-70c-0.7,0-1.2-0.5-1.2-1.2v-70c0-0.7,0.5-1.2,1.2-1.2h70c0.7,0,1.2,0.5,1.2,1.2v70
			C208.8,364.2,208.2,364.7,207.6,364.7z M138.8,362.3h67.6v-67.6h-67.6V362.3z"/>
		<path fill="#F2F2F2" d="M277.6,364.7h-70c-0.7,0-1.2-0.5-1.2-1.2v-70c0-0.7,0.5-1.2,1.2-1.2h70c0.7,0,1.2,0.5,1.2,1.2v70
			C278.8,364.2,278.2,364.7,277.6,364.7z M208.8,362.3h67.6v-67.6h-67.6V362.3z"/>
		<path fill="#F2F2F2" d="M347.6,364.7h-70c-0.7,0-1.2-0.5-1.2-1.2v-70c0-0.7,0.5-1.2,1.2-1.2h70c0.7,0,1.2,0.5,1.2,1.2v70
			C348.8,364.2,348.2,364.7,347.6,364.7z M278.8,362.3h67.6v-67.6h-67.6V362.3z"/>
		<path fill="#F2F2F2" d="M417.6,364.7h-70c-0.7,0-1.2-0.5-1.2-1.2v-70c0-0.7,0.5-1.2,1.2-1.2h70c0.7,0,1.2,0.5,1.2,1.2v70
			C418.8,364.2,418.2,364.7,417.6,364.7z M348.8,362.3h67.6v-67.6h-67.6V362.3z"/>
		<rect x="146.6" y="272" fill="#F2F2F2" width="22.7" height="12"/>
		<rect x="146.6" y="342.9" fill="#F2F2F2" width="22.7" height="12"/>
		<rect x="146.6" y="412.6" fill="#F2F2F2" width="22.7" height="12"/>
		<rect x="146.6" y="445.1" fill="#F2F2F2" width="22.7" height="12"/>
		<rect x="287.2" y="412.6" fill="#F2F2F2" width="22.7" height="12"/>
		<rect x="217.2" y="342.9" fill="#F2F2F2" width="22.7" height="12"/>
		<rect x="287.2" y="342.9" fill="#F2F2F2" width="22.7" height="12"/>
		<rect x="357.2" y="342.9" fill="#F2F2F2" width="22.7" height="12"/>
	</g>
	<g>
		<rect x="98.7" y="192.9" fill="#333333" width="357.7" height="35.9"/>
		<polygon fill="#EEF4F4" points="267.9,192.9 229.8,192.9 199.4,228.8 237.5,228.8 		"/>
		<polygon fill="#EEF4F4" points="325.7,192.9 287.6,192.9 257.2,228.8 295.3,228.8 		"/>
		<polygon fill="#EEF4F4" points="383.5,192.9 345.4,192.9 315.1,228.8 353.1,228.8 		"/>
		<polygon fill="#EEF4F4" points="441.3,192.9 403.2,192.9 372.9,228.8 411,228.8 		"/>
	</g>
	<g>
		
			<rect x="89.6" y="128.3" transform="matrix(0.945 -0.3272 0.3272 0.945 -33.0644 95.8872)" fill="#333333" width="357.7" height="35.9"/>
		<polygon fill="#EEF4F4" points="265.2,166.3 229.2,178.8 188.7,154.8 224.7,142.4 		"/>
		<polygon fill="#EEF4F4" points="319.8,147.4 283.8,159.9 243.4,135.9 279.4,123.4 		"/>
		<polygon fill="#EEF4F4" points="374.4,128.5 338.5,141 298,117 334,104.5 		"/>
		<polygon fill="#EEF4F4" points="429.1,109.6 393.1,122.1 352.7,98.1 388.6,85.6 		"/>
	</g>
	<path fill="#4D4D4D" d="M149.8,178.8h-44.7c-3.5,0-6.4,2.8-6.4,6.3v37.4c0,3.5,2.9,6.3,6.4,6.3h61.1c4.6,0,7.7-4.7,5.8-8.8
		l-16.4-37.4C154.7,180.3,152.4,178.8,149.8,178.8z"/>
	<circle fill="#F2F2F2" cx="107.2" cy="187.1" r="2.3"/>
	<circle fill="#F2F2F2" cx="107.2" cy="221.9" r="2.3"/>
	<circle fill="#F2F2F2" cx="164" cy="221.9" r="2.3"/>
</g>
</svg>
