<?xml version="1.0" encoding="utf-8"?>
<!-- Generator: Adobe Illustrator 17.1.0, SVG Export Plug-In . SVG Version: 6.00 Build 0)  -->
<!DOCTYPE svg PUBLIC "-//W3C//DTD SVG 1.1//EN" "http://www.w3.org/Graphics/SVG/1.1/DTD/svg11.dtd">
<svg version="1.1" id="圖層_1" xmlns="http://www.w3.org/2000/svg" xmlns:xlink="http://www.w3.org/1999/xlink" x="0px" y="0px"
	 viewBox="0 0 210.588 210.587" enable-background="new 0 0 210.588 210.587" xml:space="preserve">
<g>
	<g>
		<g id="XMLID_1_">
			<path fill="#8DB44D" d="M105.299,83.956l83.937,70.448c-6.711,11.473-15.716,21.428-26.373,29.262L105.299,83.956z"/>
			<path fill="#53B670" d="M201.227,118.873l0.355,0.048c-1.786,12.797-6.068,24.798-12.346,35.483l-83.937-70.448L201.227,118.873z
				"/>
			<path fill="#41AA79" d="M202.542,105.289c0,4.627-0.326,9.178-0.96,13.633l-0.355-0.048l-95.928-34.917h94.891
				C201.736,90.821,202.542,97.963,202.542,105.289z"/>
			<path fill="#519BC6" d="M200.19,83.956h-94.891l73.434-42.405h0.01C189.111,53.484,196.619,67.981,200.19,83.956z"/>
			<path fill="#4D7ABD" d="M178.733,41.551l-73.434,42.405l39.103-67.722C157.66,22.053,169.363,30.76,178.733,41.551z"/>
			<path fill="#596CB2" d="M144.402,16.235l-39.103,67.722V8.045C119.21,8.045,132.439,10.964,144.402,16.235z"/>
			<path fill="#B14393" d="M105.299,8.045v75.911L66.196,16.235C78.158,10.964,91.388,8.045,105.299,8.045z"/>
			<path fill="#CE3C68" d="M66.196,16.235l39.103,67.722L31.855,41.551C41.225,30.76,52.938,22.053,66.196,16.235z"/>
			<path fill="#E23745" d="M105.299,83.956H76.497H10.398c3.571-15.975,11.079-30.472,21.447-42.405h0.01L105.299,83.956z"/>
			<path fill="#E56B36" d="M105.299,83.956L9.361,118.873l-0.355,0.048c-0.634-4.455-0.96-9.005-0.96-13.633
				c0-7.325,0.806-14.468,2.352-21.332h66.099H105.299z"/>
			<path fill="#E78437" d="M105.299,83.956l-83.947,70.448c-6.279-10.685-10.561-22.686-12.346-35.483l0.355-0.048L105.299,83.956z"
				/>
			<path fill="#E89A37" d="M105.299,83.956l-57.564,99.711c-10.666-7.824-19.671-17.79-26.382-29.262L105.299,83.956z"/>
			<path fill="#E7C93B" d="M105.299,83.956l57.564,99.711c-16.119,11.866-36.021,18.875-57.564,18.875s-41.445-7.008-57.564-18.875
				L105.299,83.956z"/>
		</g>
	</g>
	<path fill="#FFFFFF" d="M105.294,0C47.234,0,0,47.234,0,105.294c0,58.059,47.234,105.293,105.294,105.293
		s105.294-47.234,105.294-105.293C210.588,47.234,163.353,0,105.294,0z M198.995,79.072h-89.701V8.089
		C152.1,9.829,187.865,39.352,198.995,79.072z M101.294,8.089v70.984h-26H11.593C22.723,39.352,58.488,9.829,101.294,8.089z
		 M8,105.294c0-6.227,0.595-12.317,1.719-18.222h65.575h23.072l-54.191,93.861C22.125,163.082,8,135.808,8,105.294z M50.636,185.742
		l54.658-94.67l54.658,94.67c-15.589,10.625-34.41,16.845-54.658,16.845S66.225,196.367,50.636,185.742z M166.413,180.933
		l-54.191-93.861h88.647c1.123,5.905,1.719,11.995,1.719,18.222C202.588,135.808,188.463,163.082,166.413,180.933z"/>
	<path fill="#FEF9EB" d="M105.294,202.587c2.822,0,5.612-0.133,8.374-0.37l-6.619-19.961c3.885-0.81,6.805-4.252,6.805-8.378
		c0-4.727-3.832-8.559-8.559-8.559s-8.559,3.832-8.559,8.559c0,4.126,2.92,7.568,6.805,8.378l-6.62,19.961
		C99.682,202.454,102.472,202.587,105.294,202.587z"/>
</g>
</svg>
