<?xml version="1.0" encoding="utf-8"?>
<!-- Generator: Adobe Illustrator 18.0.0, SVG Export Plug-In . SVG Version: 6.00 Build 0)  -->
<!DOCTYPE svg PUBLIC "-//W3C//DTD SVG 1.1//EN" "http://www.w3.org/Graphics/SVG/1.1/DTD/svg11.dtd" [
	<!ENTITY ns_flows "http://ns.adobe.com/Flows/1.0/">
	<!ENTITY ns_extend "http://ns.adobe.com/Extensibility/1.0/">
	<!ENTITY ns_ai "http://ns.adobe.com/AdobeIllustrator/10.0/">
	<!ENTITY ns_graphs "http://ns.adobe.com/Graphs/1.0/">
	<!ENTITY ns_vars "http://ns.adobe.com/Variables/1.0/">
	<!ENTITY ns_imrep "http://ns.adobe.com/ImageReplacement/1.0/">
	<!ENTITY ns_sfw "http://ns.adobe.com/SaveForWeb/1.0/">
	<!ENTITY ns_custom "http://ns.adobe.com/GenericCustomNamespace/1.0/">
	<!ENTITY ns_adobe_xpath "http://ns.adobe.com/XPath/1.0/">
]>
<svg version="1.1" id="圖層_1" xmlns:x="&ns_extend;" xmlns:i="&ns_ai;" xmlns:graph="&ns_graphs;"
	 xmlns="http://www.w3.org/2000/svg" xmlns:xlink="http://www.w3.org/1999/xlink" xmlns:a="http://ns.adobe.com/AdobeSVGViewerExtensions/3.0/"
	 x="0px" y="0px" viewBox="0 0 550 550" enable-background="new 0 0 550 550" xml:space="preserve">
<metadata>
	<sfw  xmlns="&ns_sfw;">
		<slices></slices>
		<sliceSourceBounds  width="3421" height="2195.0949707" bottomLeftOrigin="true" y="-2195.0949707" x="0"></sliceSourceBounds>
	</sfw>
</metadata>
<g>
	<path opacity="0.3" fill="#DA4A69"  a:adobe-blending-mode="lighten" d="M376.3508606,300.879303
		c-0.4337769,0-1.7456055,0-2.749054-0.987793c-1.03479-1.019104-1.03479-2.3648987-1.03479-2.8065186
		c0.0418091-13.3244324,0.0418091-26.6253357,0-39.9445496c0-2.3230743,1.4267883-3.7655334,3.7315674-3.7655334
		c0,0,3.6009216,0.0862427,4.520752,0.0862427c0.9354858,0,1.8657837-0.0235291,2.796051-0.1019135
		c0.3554077-0.0261383,0.6950989-0.0391998,1.024353-0.0391998c7.6408386,0,11.3358459,7.0763855,11.5187683,12.1014709
		c0.1358643,3.8151855-0.7996216,6.7419128-3.0939636,9.4909363c2.6706238,2.1323547,4.4632263,5.1975708,5.1165161,8.8010864
		c0.9041748,5.06427-0.6271362,10.4238586-3.9040222,13.6536865c-2.3309326,2.286499-4.9388428,3.4232178-7.9753418,3.4780884
		l-9.867218,0.0339966H376.3508606z M381.7130127,294.333374c1.1289062,0,2.1950684,0.028717,3.3186951,0.0600891l0.7630615,0.01828
		c2.0591431-0.002594,3.5799866-0.9772949,4.7559204-3.0730591c1.2595215-2.2185364,1.6044617-4.5703735,1.03479-6.9953918
		c-0.8884583-3.6897583-2.9476013-5.3360291-6.6739502-5.3360291c0,0-5.1008606,0.01828-5.6130371,0.010437
		c0.0209045,1.8788757,0.0156555,3.5800171,0.010437,5.281189v4.7088928c0.015686,1.779541,0.026123,3.5695496-0.0209045,5.3647766
		C380.1921692,294.3464355,380.9656677,294.333374,381.7130127,294.333374z M384.3104858,272.5684814
		c1.8501282-0.0026245,2.9946594-0.6611328,4.0503845-2.3544617c1.0191345-1.6358337,1.3692932-3.4911499,1.0452576-5.5111084
		c-0.5278625-3.2220154-2.4615784-4.8578491-5.7489319-4.8578491c0,0-4.1026306,0.026123-4.3587036,0.0235291
		c0.0209045,1.515625,0.0156555,2.8848877,0.010437,4.2489624c0,0,0,6.9274597-0.010437,8.4300232
		c0.6010132-0.007843,1.2020264-0.0104675,1.8030701-0.0104675
		C382.1729431,272.5371094,383.2391052,272.5475769,384.3104858,272.5684814z"/>
	<path fill="#E63168" d="M390.7714844,275.1633301c2.9097595-2.8764343,4.0137939-5.6966553,3.8739929-9.6882324
		c-0.1711426-4.6017761-3.5826111-11.1875458-10.9046631-10.6015472c-1.8919067,0.1567841-3.8060303,0.1084442-5.7149353,0.0561829
		l-1.7259827-0.0365906c-1.4699097,0-2.2159424,0.753891-2.2159424,2.2427521
		c0.0404968,13.3224487,0.0404968,26.6272888,0,39.9478149c0,0.4951782,0.0600891,1.2131348,0.5827332,1.7259827
		c0.5056458,0.493866,1.2033386,0.5513611,1.6854553,0.5513611h0.0731812
		c1.0726929-0.0189514,2.1440735-0.0235291,3.2167969-0.0235291l3.944519,0.007843
		c0.8937073,0,1.7874146-0.0032654,2.6889343-0.0150146c2.6314392-0.050293,4.8996582-1.0452576,6.9353027-3.0429993
		c2.9358521-2.8947144,4.2986145-7.7238159,3.4741821-12.304657
		C395.9978027,280.1668396,393.8720093,277.0232239,390.7714844,275.1633301z M389.6439209,271.0155945
		c-1.2987366,2.0924988-2.9267273,3.068512-5.3543396,3.068512h-0.007843
		c-2.1231689-0.0392151-4.2280579-0.0405273-6.3865051,0.0019531l-0.105835,0.9479065
		c-0.005249,0-0.0065308-0.0032654-0.0130615-0.0032654l-0.1816406-0.958374
		c0.0705566,0.0209045,0.1685486,0.1175842,0.1920776,0.1868591c-0.0013123-0.007843-0.0274353-0.0927734-0.0209045-0.3645325
		c0.0300598-1.9494324,0.0274353-3.9027405,0.0222168-5.8547668l-0.0013123-1.8801575l0.0039062-2.0460815
		c0.007843-1.8435974,0.013092-3.6897888-0.0248108-5.5621033c-0.0065308-0.1005859-0.0039062-0.1776733-0.007843-0.22995
		c0.105835-0.0013123,0.2312622-0.0052185,0.2312622-0.0052185c0.6924744,0.0287476,1.3849792,0.0385437,2.0787659,0.0385437
		l3.5865479-0.0294189c4.0268555,0,6.6021118,2.1793823,7.2514648,6.1356812
		C391.2901917,266.8496094,390.8668823,269.0544434,389.6439209,271.0155945z M378.1434631,295.9613647
		c-0.1933594,0-0.2978821-0.0196228-0.3344727-0.0196228h-0.0130615c-0.0222168-0.0614014-0.0627136-0.2430115-0.0509644-0.7381897
		c0.0744629-2.0709229,0.0640259-4.1353149,0.0509644-6.1944885l-0.0091553-2.2773438l0.0039062-2.4341431
		c0.007843-2.1911316,0.013092-4.3835449-0.0248108-6.5786133c-0.0026245-0.1136475,0-0.1959839-0.0039062-0.2469177
		c0.0444031-0.0032654,0.1005859-0.005249,0.1711426-0.005249v-0.9557495c0.0013123,0,0.0013123-0.0006409,0.0013123-0.0006409
		l0.0914612,0.958374c0.9328918,0.0320129,1.8670959,0.04245,2.796051,0.04245l4.0895996-0.0215454
		c4.4318848,0,7.0959778,2.1290588,8.1477661,6.5034485c0.6663513,2.8078308,0.269165,5.5287781-1.1837463,8.0877075
		c-1.4568176,2.5883179-3.4571838,3.8458862-6.1121521,3.8458862l-0.5997009-0.0117493
		C382.8954773,295.8529053,380.8663635,295.7875671,378.1434631,295.9613647z"/>
	<path opacity="0.3" fill="#DA4A69"  a:adobe-blending-mode="lighten" d="M446.9528198,300.6075134
		c-1.3901978,0-2.1950378-0.6062317-2.6235962-1.1131897c-0.9511719-1.1236572-0.7160034-2.4276123-0.6323853-2.9188843
		c0-4.8839722-0.0052185-17.1317749-0.0052185-17.1317749c0-7.2462769-0.0052185-14.4898987-0.0470276-21.741394
		c0-2.673233,1.4633484-4.2019348,4.0190125-4.2019348c1.5208435,0.0444336,2.6967773,0.0496521,3.8674622,0.0496521
		l4.311676-0.0130615c6.9039307,0,11.5762329,3.7367859,13.1650391,10.5179138
		c1.6201477,6.9039307-0.5278625,12.8279419-6.0520325,16.8260498c2.1061707,4.1575012,4.2332764,8.2941284,6.3656006,12.4385681
		l1.275238,2.524292l0.4755859,1.006073c0.2978821,0.6428223,0.3187866,1.3745117,0.0574951,2.01474
		c-0.261322,0.6480408-0.7944031,1.1628418-1.4529114,1.4058533c-0.5330811,0.2012329-1.0714111,0.3031311-1.5888062,0.3031311
		c-2.3100281,0-3.4284363-1.9049683-3.7158813-2.4877014c-1.4320068-2.8169861-6.7262573-13.0578918-7.8969421-15.3679199
		c-1.3065796,0.0444336-2.5556641,0.0679321-3.794281,0.0679321c-0.7839355,0-1.5574341-0.010437-2.3413696-0.026123
		c0.0418091,4.6278687,0.0313416,9.2322388-0.0104675,13.8522949c0.0731812,0.5330811,0.235199,1.8291931-0.7055359,2.9005737
		c-0.4285583,0.488678-1.2229614,1.0766296-2.5870361,1.0923157l-0.010437,0.002594H446.9528198z M457.0238953,276.3026428
		c1.2647705-0.002594,2.2055054-0.4076538,3.2193909-1.4058533c1.6410522-1.6201477,2.5870056-4.0974121,2.5974731-6.7915649
		c0.0052185-2.6680298-0.9146118-5.1217651-2.513855-6.7262573c-1.2177124-1.2046509-1.9755249-1.3745117-2.5556641-1.3823547
		c0,0-6.7419128,0-7.4317627-0.0052185c0.0209045,1.8318176,0.0156555,3.5068359,0.0052185,5.1844788l0.0052185,5.7019043
		c0.0104675,1.8004456,0.0209045,3.6061401-0.0052185,5.4092102c0.9564209-0.0235291,1.8657837-0.0313721,2.759491-0.0313721
		C454.4212036,276.2556152,455.7120972,276.2738953,457.0238953,276.3026428z"/>
	<path fill="#E63168" d="M469.7002563,297.496582L469.382782,296.8237c-0.1894531-0.4037476-0.367157-0.7813416-0.5592346-1.1576233
		l-0.6036377-1.1746216c-2.3688049-4.6017456-4.7310791-9.1950073-7.0659485-13.8137512
		c-0.0457153-0.0829468-0.0992737-0.1678772-0.1855164-0.2893982c5.8024902-3.6159363,8.1347046-9.2877808,6.5603027-15.9872131
		c-1.4346313-6.1141357-5.4745483-9.345932-11.6820679-9.345932l-4.3143005,0.0130615
		c-1.1903076,0-2.3766785-0.00914-3.5552063-0.0437622l-0.3135681-0.0058746c-1.7063904,0-2.5020752,0.8486176-2.5020752,2.6745605
		c0.0470276,8.0628357,0.0470276,16.1165771,0.0483398,24.1722412c0.002594,4.9159851,0.002594,9.8300171-0.0183105,14.9752808
		c-0.0705566,0.4128723-0.1881409,1.1027527,0.2900696,1.6697998c0.3240356,0.3841248,0.8205261,0.5788269,1.4711914,0.5788269
		h0.0627136c0.644165-0.007843,1.138031-0.2025146,1.4672852-0.5788269
		c0.4860535-0.5533142,0.4037476-1.2490845,0.3527832-1.6639099c-0.0091553-0.0908203-0.0222168-0.1777039-0.0222168-0.2489014
		c0.0418091-5.0028687,0.0509644-9.9900513,0-14.9863892c-0.002594-0.2162476,0.0104675-0.3416748,0-0.3880615
		c0.0614014-0.007843,0.1829224-0.0091553,0.3462524-0.0130615c2.5556641,0.0809937,5.0316162,0.0823059,7.7322998-0.0274353
		c0.401123,0,0.5187073,0.0234985,0.8192139,0.6251831c1.2111816,2.3812256,2.4393616,4.7552795,3.6662598,7.1319275
		c1.4581299,2.8189392,2.917572,5.6385193,4.3508606,8.4757385c0.2874451,0.5709839,1.3301086,2.2139893,3.4232483,1.4326782
		c0.2599792-0.0960388,0.4677429-0.2972717,0.5748901-0.5559692
		C469.8296204,298.0361938,469.8204651,297.7467957,469.7002563,297.496582z M448.8238525,267.9993896l0.007843-2.8326721
		c0.0078125-2.1701965,0.01828-4.3417358-0.0183105-6.5014954c-0.002594-0.0927734,0.0013123-0.1639709-0.002594-0.2077332
		c0.0391846-0.0026245,0.0848999-0.0039368,0.142395-0.0039368v-0.9694824h0.0013123l0.0431213,0.9694824
		c1.132782,0.0228577,2.2642822,0.0300598,3.3957825,0.0300598l3.8478699-0.0091553l1.5456543,0.0058899
		c1.2360229,0.0137024,2.3505249,0.5781555,3.6113892,1.8285522c1.88797,1.8880005,2.9659119,4.7323914,2.9567566,7.8002319
		c-0.0091553,3.0991821-1.1197205,5.9671326-3.0429993,7.8688354c-1.2752075,1.2556152-2.5974731,1.8396606-4.3103943,1.8396606
		h-0.0065308c-2.5791626-0.0522766-5.0864868-0.0790405-7.8838501,0.0267944c-0.113678,0-0.1947021-0.0058899-0.2404175-0.0058899
		c-0.0117493,0-0.0235291,0-0.0313721,0.0019531c-0.0156555-0.0705566-0.0326538-0.2182007-0.026123-0.4971313
		c0.0418091-2.1525879,0.0313721-4.3071289,0.0209045-6.4603577L448.8238525,267.9993896z"/>
	<path opacity="0.3" fill="#DA4A69"  a:adobe-blending-mode="lighten" d="M412.0986938,300.7564697
		c-0.3710632,0-0.752594-0.0574951-1.1288757-0.1672363c-1.2229614-0.3527832-1.7821655-1.1131897-2.038269-1.6907043
		c-0.5487671-1.2229614-0.0418091-2.3021851,0.1515808-2.7072144l3.3814087-14.2939148l5.9736328-24.9712219
		c0.1829224-3.1828156,2.5922546-3.5042267,3.3239441-3.5277557c0,0,0,0,0.0052185,0
		c0.8205261,0,3.3552856,0.2560883,3.5852356,3.5016327c2.9214783,12.3836975,9.2975769,39.427124,9.2975769,39.427124
		l0.1463318,0.744751c0.1567993,1.006073-0.0418091,1.8605652-0.5957947,2.539978
		c-0.3606262,0.4494629-1.0557251,1.021759-2.268219,1.1001282c-0.0052185,0-0.010437,0-0.010437,0
		c-2.0905151,0-3.4389038-1.0556946-3.8204346-2.8927307c-0.2090454-1.0400391-0.4442444-2.0565491-0.6846313-3.0730591
		c-0.2770081-1.1706848-0.5435486-2.3100281-0.76828-3.4519653c-1.499939,0.1593933-3.2298584,0.1750793-4.9336243,0.1750793
		c-1.5940247,0-3.1671143-0.0130615-4.7454529-0.0418091c-0.0627136,0.6976929-0.2717896,1.5469666-0.491272,2.3936462
		c-0.3240356,1.2908936-0.6428528,2.5791626-0.9198303,3.8857422
		C415.0776672,299.9542236,413.4575195,300.7564697,412.0986938,300.7564697z M425.2218933,285.0357971
		c-0.2978821-1.2412415-3.2977905-13.9254761-3.2977905-13.9254761l-3.3239136,13.9124146l3.015564-0.0104675
		C422.8282776,285.0122681,424.0250854,285.0201111,425.2218933,285.0357971z"/>
	<path fill="#E63168" d="M432.5883789,294.1909485c-2.8927612-12.2752686-5.7881165-24.5563965-8.713562-36.8388367
		c-0.0248108-0.1045227-0.028717-0.2221069-0.0365601-0.3416748c-0.0365906-0.5180359-0.1463318-2.0976868-2.030426-2.0976868
		c-1.745575,0.0555267-1.8396606,1.5887756-1.8710022,2.0937805c-0.005249,0.1006165-0.007843,0.1986084-0.0248413,0.2737122
		c-3.1527405,13.0971069-6.2663269,26.2307739-9.4504395,39.5408325c-0.1424255,0.3005066-0.4089661,0.8597107-0.1384888,1.4659729
		c0.1789856,0.4024353,0.5317688,0.6885681,1.0726929,0.8479614c0.2443237,0.0699158,0.4795227,0.1025696,0.7016296,0.1025696
		c0.4768982,0,1.6240845-0.1789856,1.9781494-1.8475037c0.2782898-1.3229065,0.6075439-2.6307678,0.9355164-3.941925
		c0.2521667-1.008667,0.5056458-2.0166931,0.7382202-3.0371094c0.0875244-0.3893738,0.1619873-0.4671021,0.1619873-0.4671021
		s0.1084595-0.0437927,0.4768982-0.0457458c3.6296692,0.0764465,7.1992188,0.063385,11.002655,0.0091553
		c0.3841553,0,0.4782104,0.058136,0.4782104,0.058136v0.0013123c0,0,0.0849304,0.0849304,0.1633301,0.4978027
		c0.2416992,1.3157043,0.5500793,2.6229553,0.858429,3.9308167c0.2430115,1.0335083,0.4886475,2.0689697,0.6963806,3.112915
		c0.227356,1.1040649,0.9289856,1.6907043,2.2277222,1.6907043h0.0195923
		c0.5265503-0.0346069,0.9263611-0.2195129,1.1929016-0.549408c0.2665405-0.3299255,0.3606262-0.7519226,0.269165-1.3366394
		c-0.0418091-0.1737671-0.0731812-0.3586426-0.1358948-0.6905212L432.5883789,294.1909485z M427.1556396,286.5840759
		c-0.0404968,0.0026245-0.0888367-0.0111084-0.1411133,0.0026245c-1.7900085-0.0444336-3.5813293-0.0561829-5.3961487-0.0561829
		l-4.9440613,0.0117493c1.745575-7.3265991,3.4610901-14.5160217,5.2485046-21.9752502
		c1.1798401,4.9911194,2.3113098,9.7424622,3.4480286,14.4944763l0.2939758,1.2556152
		c0.4768982,2.0271301,0.9485779,4.0458069,1.4463806,6.0683594
		C427.1295166,286.4632263,427.1438904,286.5292053,427.1556396,286.5840759z"/>
	<path opacity="0.3" fill="#DA4A69"  a:adobe-blending-mode="lighten" d="M206.29776,302.4419556
		c-1.7246704-0.2012024-2.7019958-1.4476929-2.8849182-3.7028198c-0.3762817-3.1540833-0.3919678-5.9867249-0.4076385-8.7305298
		l-0.0627289-4.0738831c-0.0888367-3.5408325-0.1776886-7.1730957,0.5226288-10.847168
		c0.2979126-1.5496216,0.7682648-2.8849182,1.4424591-4.0921936c1.2229614-2.1872253,3.2246246-3.3944702,5.6443939-3.3944702
		c3.7315826,0.1254272,4.938858,3.1618958,5.3412781,4.1601257c1.1236572,2.8169556,1.4163208,5.7279968,1.5678864,8.4535217
		c0.2874451,5.3778381,0.0836182,10.601532-0.3083496,16.7894592c-0.0418091,0.6010132-0.1254272,1.1942139-0.2142792,1.7926025
		c-0.3083496,2.260376-1.1759186,3.3448486-2.6392822,3.5878601c-0.0731659,0.0026245-0.1463318,0.0026245-0.2194977,0.0026245
		c-1.285675,0-2.6445007-0.3972168-3.3186951-2.4223938c-0.1672516-0.4337769-0.3240356-0.8649597-0.4703674-1.2961121
		c-0.0470428,0.1384888-0.0940704,0.2769775-0.1411133,0.4154663c-0.6376038,2.8300476-2.1950378,3.3866577-3.4023132,3.3866577
		L206.29776,302.4419556z"/>
	<path fill="#E63168" d="M214.4847412,272.3234863c-0.3736725-0.9315796-1.254303-3.1155396-3.934082-3.2056885
		c-1.8710175,0-3.3657379,0.9048157-4.3208466,2.6170654c-0.5905609,1.0570374-1.008667,2.2446899-1.2739105,3.6355591
		c-0.6715698,3.5270996-0.5827179,7.0848694-0.4978027,10.52771c0.0215607,0.8623352,0.0424652,1.7259827,0.0522614,2.5856934
		l0.0098114,1.5025635c0.0150146,2.7019958,0.0307007,5.4967651,0.3743286,8.2621155l0.0300446,0.3508301
		c0.0548859,0.7061768,0.1646423,2.1754456,1.5626678,2.3374329c0.0431213,0.0058899,0.2182007,0.0169983,0.262619,0.0169983
		c1.4189453,0,1.7403564-1.4150085,1.8801575-2.0186462c0.0287476-0.1274109,0.0535736-0.2489014,0.0849304-0.3397217
		c0.6088562-1.7939148,1.0975189-3.5969849,1.5691986-5.5254822c0.5134735,2.0643616,1.0517883,4.1927795,1.9154358,6.4067688
		c0.1267395,0.3913269,0.4690552,1.4352722,1.5718079,1.4352722c0.0535583,0,0.2273407-0.015686,0.2796021-0.0248108
		c1.0909882-0.179657,1.245163-1.3007202,1.3327026-1.9272156l0.0548706-0.3873901
		c0.0836334-0.557251,0.1620178-1.1092834,0.1986084-1.6665344c0.3906708-6.1578674,0.5905762-11.3377991,0.3070374-16.6065369
		C215.8056946,277.7072144,215.5326233,274.9477234,214.4847412,272.3234863z"/>
	<path opacity="0.3" fill="#DA4A69"  a:adobe-blending-mode="lighten" d="M209.7836914,270.2453918
		c-0.4599152,0-0.9145966-0.0418091-1.369278-0.1254272c-2.2316284-0.4416504-4.2855682-1.8344421-5.5189667-3.7289734
		c-1.0713959-1.6593628-1.4372406-3.5512695-1.0348053-5.3229675c0.9877625-4.4240723,4.2332916-7.2854614,8.2679901-7.2854614
		c0.4965057,0,1.0086823,0.0444183,1.5260773,0.1384888c2.2316284,0.376297,4.1549072,1.5600586,5.3987579,3.3343811
		c1.2229614,1.753418,1.6776428,3.9223328,1.285675,6.1069336
		C217.6335907,267.1592407,213.7974854,270.2453918,209.7836914,270.2453918z"/>
	<path fill="#E63168" d="M211.3907776,255.4131622c-3.8739777-0.6918335-7.1234283,1.8305206-8.0511017,5.9906464
		c-0.3122711,1.3751526-0.0176392,2.8522339,0.8296814,4.1601257c1.0125885,1.5561218,2.7019958,2.7019958,4.5259705,3.0625916
		c0.3592987,0.0692444,0.7225342,0.1019287,1.0896759,0.1019287c3.2625122,0,6.4936676-2.5804749,7.0567932-5.6365662
		c0.3240356-1.7886963-0.0431061-3.5525818-1.033493-4.9662781
		C214.7996368,256.688385,213.227829,255.7241211,211.3907776,255.4131622z"/>
	<path opacity="0.3" fill="#DA4A69"  a:adobe-blending-mode="lighten" d="M252.4877319,301.0230103
		c-0.6846466,0-2.9371796-0.2273254-3.3448334-3.1514587l-3.3134613-10.7452393
		c-1.1341095,3.2193909-3.9354095,11.137207-3.9354095,11.137207c-0.5592041,1.6750488-1.6306,2.5713501-3.146225,2.5713501
		c-2.1950378-0.261322-3.2559814-1.5365295-3.2873383-3.4389038c-0.4494629-3.9824219-0.8832397-7.9700928-1.2908936-11.9525146
		l-0.4494629-4.4005432c-0.7421265-7.2253418-1.4842529-14.4716187-2.1898041-21.710022
		c-0.1202087-0.3292542-0.4860535-1.5861816,0.3083496-2.767334c0.3919678-0.5565796,1.1131897-1.2124939,2.4197693-1.3196259
		c0,0,0.0052185,0,0.0104523,0c2.1532288,0,3.4127655,1.2673798,3.5172882,3.3840179l2.6236115,24.495636
		c0.7316742-2.0905151,1.4633484-4.1784363,2.2159424-6.2663269c0.6323853-2.6784668,2.3936462-3.0599976,3.391861-3.0599976
		c0.7003174,0.007843,2.9633026,0.2586975,3.3343811,3.1880493l1.9598541,6.308136l3.3134766-23.3144836l0.1306458-0.8806458
		c0.3658447-2.9476318,2.2316437-3.3892517,3.3082428-3.3892517c1.269989,0.0653381,2.1323242,0.4755859,2.7019958,1.262146
		c0.8780212,1.1811523,0.522644,2.495575,0.4024353,2.9267273c-0.1933899,1.5286865-0.4233398,3.0835266-0.6585083,4.6383362
		l-0.9512024,6.6635132c-1.2333984,8.6991882-2.4667969,17.3878784-3.7420197,26.0661316
		c0.0574799,0.4625244,0.1254272,1.7011719-0.8048553,2.7098389c-0.4128723,0.4520874-1.1759186,1.008667-2.4406738,1.0426636
		l-0.0209045,0.002594H252.4877319z"/>
	<path fill="#E63168" d="M258.0641785,257.2306213c-1.5443726,0-1.7246704,1.4306946-1.8030701,2.0591431
		c-0.015686,0.1528625-0.0431213,0.301178-0.0679321,0.4455566c-0.0274353,0.1619873-0.0548706,0.3227234-0.0692444,0.459259
		l-4.2568207,29.9930115l-0.6232452-2.0016479c-1.1197205-3.5950317-2.2290039-7.1613464-3.3552704-10.7256775
		c-0.0287476-0.0849304-0.0326691-0.1829224-0.0444336-0.2835083c-0.0561829-0.456665-0.2247162-1.8435669-1.8278961-1.8586121
		c-1.4698944,0-1.7756195,1.2882996-1.8919067,1.7723694c-0.0209045,0.0979919-0.0418091,0.1933594-0.0731659,0.2796021
		c-1.0204468,2.8581238-2.0199738,5.7142944-3.0195007,8.5744019l-1.3967285,3.976532
		c-0.0587921-0.4285583-0.1123657-0.8544922-0.1607056-1.280426l-3.2050171-29.9388123
		c-0.0744781-1.5966492-0.9551086-1.9441833-1.8631744-1.9441833h-0.0274353
		c-0.5814362,0.0483398-1.0112915,0.2704468-1.277832,0.6578674c-0.401123,0.5885925-0.2090454,1.2477722-0.0601044,1.7703857
		c0.7042389,7.2364807,1.4463806,14.4814148,2.1872101,21.7041626l0.4520721,4.4005127
		c0.4076538,3.9772339,0.8414307,7.960968,1.2987366,12.0766602c0.0209045,1.1510925,0.5291595,1.8030701,1.515625,1.9337463
		c0.0418091,0.0065308,0.2129669,0.0156555,0.254776,0.0156555c1.1850586,0,1.5378418-1.0354614,1.7416534-1.624054
		c0.1019135-0.2561035,0.1972961-0.5200195,0.2900696-0.7839355l0.2508545-0.6911926
		c1.6110077-4.6148071,3.2259369-9.2048035,4.8957367-13.9241333l1.0374146,3.3617859
		c1.2059631,3.9105835,2.4106293,7.8198547,3.6374969,11.7310791c0.0274353,0.0829773,0.0352783,0.179657,0.0483398,0.2776489
		c0.0627289,0.4553528,0.2560883,1.8403015,1.8357391,1.8403015h0.0444336
		c0.5827179-0.015686,1.0439453-0.2005615,1.367981-0.5559387c0.4990997-0.5435486,0.4546814-1.2490845,0.4194031-1.8997498
		c1.2752228-8.6743469,2.5046997-17.3617554,3.7380981-26.0596008l0.4952087-3.4963989
		c0.1450195-1.0400391,0.2991943-2.0748291,0.4507446-3.1109619c0.2338867-1.5718079,0.4677734-3.139679,0.7042542-4.8787231
		c0.0953674-0.367157,0.2704773-1.0491943-0.1607056-1.6358337
		C259.2636108,257.4814758,258.819397,257.269165,258.0641785,257.2306213z"/>
	<path opacity="0.3" fill="#DA4A69"  a:adobe-blending-mode="lighten" d="M186.0197449,300.9498596
		c-1.4320068,0-3.0260162-0.8832703-3.2089386-3.3631287c-0.3658447-1.8631897-0.7055511-3.6636353-1.0086823-5.4797668
		c-0.893692,0.010437-1.7089996,0.01828-2.524292,0.01828c-1.4738159,0-2.9371796-0.0234985-4.4005432-0.0548706
		c-0.271759,1.3562317-0.5644379,2.6654053-0.8623352,3.9772034l-0.4076538,1.8265991
		c-0.6010132,2.6967773-2.5086212,2.9894409-3.303009,2.9894409l-0.6794281-0.0653381
		c-1.0034485-0.1724548-1.8082886-0.7212219-2.2577515-1.541748c-0.6950989-1.3039551-0.1515656-2.5112305,0.0313568-2.9058228
		l7.9073792-38.0212708c0.0783997-0.3789062,0.1567841-0.6350098,0.2142792-0.7839355
		c0.736908-1.8527374,2.0225677-2.2420959,2.9737549-2.2420959l0.6689758,0.0705566
		c1.4006348,0.3161926,2.3256989,1.2987366,2.5504303,2.7019958c0.22995,1.0922852,0.4076385,1.9259033,0.5644379,2.7908325
		c2.2891083,11.7879028,4.5625458,23.6333008,6.8098602,35.4656372c0.2194977,0.4337769,0.7316742,1.6514893,0.026123,2.9528503
		c-0.3188019,0.5957947-0.9929962,1.3562317-2.3727264,1.5940247L186.0197449,300.9498596z M180.5739441,285.6341858
		l-2.1061859-10.8628235l-2.2838898,10.8445435l0.7473602-0.0052185L180.5739441,285.6341858z"/>
	<path fill="#E63168" d="M180.7895355,261.1411743c-0.1594086-0.8479614-0.3318634-1.6697998-0.5056458-2.5072937
		l-0.0666351-0.3135986c-0.1620178-0.9897156-0.8179169-1.338562-1.3621063-1.4620361
		c-0.0633698-0.0137329-0.294632-0.0365906-0.360611-0.0365906c-1.056366,0-1.4169769,0.9198303-1.5620117,1.288269
		c-0.024826,0.0640259-0.0679321,0.2116699-0.0790405,0.2776489c-0.0058746,0.0248413-0.058136,0.2279968-0.0633698,0.2528381
		c-2.6712952,12.758667-5.3386536,25.5356445-8.0112457,38.3348389c-0.1352386,0.301178-0.4128876,0.9276733-0.0777435,1.5548096
		c0.1528625,0.2874451,0.4866943,0.6532898,1.196167,0.7774353c0.0594482,0.0091248,0.3468933,0.0378723,0.4069977,0.0378723
		c1.4254608,0,1.7246704-1.3588257,1.8226624-1.8030701l0.3201141-1.4254761
		c0.3880463-1.7298889,0.7767639-3.459137,1.1066742-5.1910095c0.04245-0.2182007,0.0770874-0.3645325,0.0444183-0.388031
		c0.0692444-0.0039368,0.2410583-0.013092,0.2410583-0.013092c2.9600372,0.0810242,5.8854675,0.1195679,8.9441528,0.0365906
		c0.1607056-0.0013123,0.2338715,0.0235291,0.254776,0.0117493c0.0365906,0.0692749,0.0810089,0.2391052,0.1293488,0.4899902
		c0.3357849,2.0709229,0.7160034,4.1013184,1.1321411,6.128479c0.0176392,0.0849304,0.0215607,0.1835632,0.0294037,0.2854919
		c0.0914612,1.2974243,0.6624298,1.9559326,1.6933136,1.9559326c0.1437225,0,0.3057404-0.015686,0.4638367-0.0470581
		c0.6232452-0.1077881,1.0589752-0.385437,1.2961273-0.8231201c0.360611-0.6650391,0.0718536-1.3385925-0.1868439-1.9494019
		C185.3520813,284.7849121,183.0786438,272.9421387,180.7895355,261.1411743z M182.4155579,287.1668091l-0.6225739-0.0052185
		c-1.6515045-0.015686-3.2638245-0.0313721-4.8624115-0.0313721c-0.8793182,0-1.7553864,0.0058899-2.6164093,0.0176392
		l4.2149963-20.0356445L182.4155579,287.1668091z"/>
	<path opacity="0.3" fill="#DA4A69"  a:adobe-blending-mode="lighten" d="M275.4886475,300.897583
		c-1.0609436-0.1698608-1.8710327-0.7107849-2.3257141-1.5286865c-0.7055359-1.2752075-0.1829224-2.4903259-0.010437-2.8901367
		l2.5922241-13.3558044l4.9075012-24.9372559l0.1097412-0.3580017c-0.015686,0.0601196-0.0313416,0.0862427-0.0313416,0.0862427
		c-0.0104675,0,0.0418091-0.2142639,0.0940552-0.3527832c0.7055664-1.8710022,2.0121155-2.2682037,2.9790039-2.2682037
		l0.5957947,0.0522614c1.4372253,0.3031311,2.3727417,1.2752075,2.6235962,2.6732483l0.5957947,2.7803955
		c2.4302368,11.7696228,4.8395386,23.5862427,7.2279663,35.3898315c0.2195129,0.4128723,0.763031,1.6358337,0.0574951,2.9606934
		c-0.3083496,0.5932007-0.9721069,1.3640747-2.3414001,1.6175537l-0.7578125,0.0783691
		c-1.787384,0-3.0469055-1.3065491-3.2089233-3.3317566c-0.3919678-1.8527222-0.7578125-3.6453247-1.0870667-5.4536133
		c-1.5469971,0.0365601-2.9894409,0.0548706-4.4266968,0.0548706c-0.8361816,0-1.6671753-0.0052185-2.4981384-0.015686
		c-0.2926941,1.541748-0.6010437,3.0103455-0.9146118,4.4789429l-0.2822266,1.3379211
		c-0.5644226,2.7333374-2.5033875,3.0286255-3.3082275,3.0286255L275.4886475,300.897583z M281.8229065,285.6289673
		c1.4529114-0.0209045,2.9058228-0.0287476,4.3848572-0.0339661l-2.2368469-10.8419495L281.8229065,285.6289673z"/>
	<path fill="#E63168" d="M286.1319885,261.103302c-0.1685486-0.8453674-0.3501587-1.6645813-0.5343933-2.4981689
		l-0.0718689-0.3181763c-0.1724548-0.9910278-0.8348999-1.330719-1.378418-1.444397
		c-0.0614319-0.0117493-0.2822266-0.0326843-0.3436279-0.0326843c-1.0740051,0-1.4267883,0.9394531-1.5652771,1.3118286
		c-0.0117798,0.028717-0.0640259,0.2364807-0.0718689,0.2658691c-0.007843,0.0228577-0.0574951,0.2371521-0.0614014,0.2600098
		c-2.521698,12.7907104-5.035553,25.5977173-7.5585327,38.4302368c-0.129364,0.3024597-0.3984985,0.9315796-0.0574951,1.5541687
		c0.1554871,0.2835388,0.4952087,0.6480713,1.2033691,0.7617188c0.0561829,0.0097961,0.3292542,0.0326843,0.385437,0.0326843
		c0.9603271,0,1.5757141-0.612793,1.8252869-1.8220215l0.282196-1.3424988c0.3763123-1.7625732,0.75-3.5264587,1.0661621-5.291626
		c0.0379028-0.2201538,0.0731812-0.3664856,0.0392151-0.3880615c0.0679321-0.0052185,0.2404175-0.0169678,0.2404175-0.0169678
		c2.9541626,0.0522461,5.9043884,0.0541992,8.9682922-0.0692749c0.1411133,0,0.2142944,0.0261536,0.2325745,0.0091553
		c0.0365906,0.0692444,0.0823364,0.2391052,0.131958,0.488678c0.3606262,2.0643616,0.7656555,4.0921631,1.2072754,6.1134338
		c0.0196228,0.0842896,0.0235291,0.1829224,0.0326843,0.2828674c0.1214905,1.486908,1.000824,2.1408386,2.1819763,1.8860474
		c0.6193237-0.1149597,1.0504761-0.3971863,1.2817383-0.8362122c0.3527832-0.6702576,0.0588074-1.3405457-0.2077332-1.9507141
		C290.9754639,284.6889038,288.5635071,272.8742065,286.1319885,261.103302z M288.0683289,287.10672l-0.8414307,0.002594
		c-2.4615784,0.007843-4.8408508,0.0130615-7.2593384,0.0731812l3.9746094-20.0898743L288.0683289,287.10672z"/>
	<path opacity="0.3" fill="#DA4A69"  a:adobe-blending-mode="lighten" d="M145.9445343,303.947113
		c-1.8919067,0-3.1409912-1.2987366-3.172348-3.305603c-0.0261383-0.3763123-0.015686-0.6637573-0.0052338-0.9616394
		l-0.026123-12.8540649c-0.0209045-8.1112061-0.0470428-16.2250366-0.0209045-24.3336182
		c-0.8989258,0.0574646-1.6149292,0.0731506-2.3309326,0.0731506l-3.43367-0.0444031l-1.5051727-0.0496521
		c-1.2490845-0.0313721-2.294342-1.0008545-2.4250031-2.252533l-0.1097565-0.9616394
		c-0.0522614-0.8466797,0.2142792-1.6410522,0.752594-2.2368469c0.5696564-0.6193237,1.3536072-0.9485779,2.3309174-0.97995
		l18.7414856-0.0496368c0.2874451-0.0391998,0.5017242-0.0548859,0.7107849-0.0548859
		c1.2281647,0,1.9650726,0.4860535,2.3675079,0.8910828c0.4233246,0.4311829,0.9198303,1.2020569,0.9093628,2.4380798
		c-0.0731659,1.9964294-1.3536072,3.2559814-3.2559662,3.2559814l0,0c-0.261322,0-0.5278625-0.0235291-0.778717-0.0653381
		c-1.1445618,0.0235291-2.3413849,0.0522461-3.538208,0.0522461c-0.6794128,0-1.3588409-0.010437-2.03302-0.0313416
		c0.0574799,10.8941956,0.0731659,21.5061951,0.0888367,32.1207886l0.0052338,4.6357117
		c0.0209045,0.4128723,0.0313568,0.7656555,0.0209045,1.1158142c0.1411133,2.4772644-1.4738159,3.5016174-3.0417023,3.5904846
		L145.9445343,303.947113z"/>
	<path fill="#E63168" d="M154.9892883,257.483429l-0.2541199,0.0248108l-2.8659668-0.0058594
		c-2.4837952,0-4.9695587,0.0117493-7.4533539,0.0209045l-6.8849792,0.0215454
		c-0.4840851,0-0.9701385,0.0019531-1.4679413,0.0117798c-0.2312622,0.0058594-0.8427429,0.0189209-1.2713013,0.4860229
		c-0.1848755,0.2018738-0.3971863,0.557251-0.361908,1.1164856c0.0117493,0.1620178,0.0326538,0.3200989,0.0555267,0.493866
		l0.050293,0.4102783c0.0503082,0.4978027,0.4625397,0.879303,0.9622955,0.8910828l1.4581299,0.0483398
		c0.565094,0,1.1321564,0.0117493,1.6992035,0.0235291c1.4594421,0.028717,2.9136658,0.0574646,4.3482819-0.0967102
		c0.5788116-0.058136,0.9720917,0.0130615,1.0413361,0.0829773c0.0718536,0.0711975,0.1907501,0.3331909,0.1894531,1.2843628
		c-0.0235138,8.9154053,0.0039215,17.8386536,0.0307007,26.7618713l0.0189514,10.6766663
		c-0.0130768,0.2528381-0.0209045,0.4958496,0.0039215,0.8799744c0.0235138,1.499939,0.9145966,1.8135376,1.656723,1.8135376
		c0.0196075,0,0.146347-0.0032654,0.1659393-0.0052185c0.7865601-0.0457458,1.7063904-0.4181213,1.6123047-2.1231995
		c0.0117645-0.3161926-0.0019531-0.631073-0.0235138-1.0648499l-0.0052185-4.6357117
		c-0.016983-11.0118103-0.0326691-22.0203552-0.121521-33.0210266c0-0.4337769,0.0535736-0.5971069,0.0418091-0.6147461
		c0.0405121-0.0111084,0.2051392-0.0346375,0.6702728-0.0385437c2.128418,0.1018982,4.2711945,0.0653381,6.4061279,0
		c0.0751343,0,0.1580963,0.0195923,0.2469482,0.0326538c0.9988708,0.1639709,2.2094116-0.0496521,2.2753906-1.7063904
		c0.0039215-0.5768433-0.1561279-1.0334778-0.4781952-1.3575134
		C156.329834,257.4814758,155.681778,257.3984985,154.9892883,257.483429z"/>
	<path opacity="0.3" fill="#DA4A69"  a:adobe-blending-mode="lighten" d="M327.4797974,301.0021057
		c-1.1079712,0-2.5713501-0.4729614-3.276886-2.7254944l-10.0397034-24.223877l-0.3919678,22.742218
		c0,0.6637268,0,1.3771057-0.2770081,2.1453857c-0.3396912,0.736908-1.0870667,1.7743225-2.8796692,1.7743225
		c-0.235199,0-0.5905762-0.0209045-0.9668884-0.1123657c-1.2490845-0.2926636-2.6079102-1.4241638-2.289093-3.6322632
		l0.1620178-12.6972961l0.3919678-24.9189453c-0.3815308-2.4877319,1.0138855-3.7002106,2.4406738-4.021637l0.1672363-0.0391998
		l0.6637268-0.0574799c0.7264709,0,2.5086365,0.2691498,3.2455444,2.769928l10.102417,24.3127136
		c0.1097412-5.809021,0.3919678-23.4190063,0.3919678-23.4190063c0.1149902-2.4877319,1.6881104-3.3866425,3.1305542-3.423233
		c0.9250488,0.0130768,1.6515198,0.2665405,2.2159424,0.7499847c0.5017395,0.4337769,1.0922852,1.2595215,1.0661621,2.7333374
		l-0.2769775,18.2214661l-0.3449402,19.7632446c0.1202087,0.3867188,0.3658447,1.5365295-0.3658447,2.6340332
		c-0.3397217,0.5017395-0.9877625,1.1471863-2.1741333,1.3588257L327.4797974,301.0021057z"/>
	<path fill="#E63168" d="M328.0938721,256.9908447c-0.7160034,0.0195923-1.5809326,0.3488464-1.6514893,1.9075928
		c0,0.2195129-0.0091553,0.4338074-0.0183105,0.6461182l-0.0888367,5.2746277
		c-0.1045227,6.8960876-0.2090454,13.8078613-0.3449402,20.7183228c-0.026123,1.2373352-0.108429,2.4798889-0.2038269,3.7446289
		l-5.6522217-13.5896606c-2.3492126-5.6548462-4.6958313-11.3096924-7.0555115-16.9606018
		c-0.0391846-0.0888672-0.0679321-0.1920776-0.0992737-0.2966003c-0.1672668-0.5631409-0.6938171-1.9886169-2.2891235-1.6234131
		c-1.0478821,0.2351685-1.4816589,0.9988708-1.2908936,2.2662354c0.0130615,0.0979919,0.0339661,0.1920776,0.0300293,0.3005066
		l-0.395874,24.9163513c-0.0666504,4.2470093-0.1175842,8.5090637-0.1750793,12.8919678
		c-0.2025146,1.4084778,0.6362915,1.8226624,1.1497803,1.9428711c0.2247314,0.0535583,0.4546814,0.0653381,0.6088562,0.0653381
		c0.7251587,0,1.2020569-0.235199,1.4476929-0.7754517c0.1842346-0.5017395,0.1881409-1.0047607,0.1920471-1.6508789
		l0.5161133-30.0354919l12.7691345,30.7756653c0.0404968,0.0934448,0.0692444,0.1966553,0.1045227,0.3050842
		c0.1541748,0.499115,0.5161133,1.6698303,1.8331299,1.6698303c0.1371765,0,0.2861328-0.013092,0.4285583-0.0418396
		c0.5304565-0.0927429,0.9250488-0.3305359,1.1759033-0.7055359c0.3867493-0.5787964,0.243042-1.2229614,0.1149902-1.8213501
		c0.1267395-6.5799255,0.2364807-13.1696167,0.3475342-19.7593079l0.2730713-18.2227783
		C329.8486023,257.3553772,328.920929,257.0058899,328.0938721,256.9908447z"/>
	<path opacity="0.3" fill-rule="evenodd" clip-rule="evenodd" fill="#97C73E"  a:adobe-blending-mode="lighten" d="
		M100.2562943,279.3574219c-1.2908936-0.026123-2.5817871-0.0548706-3.8726807-0.0548706l-19.2379837,0.2769775
		c-0.4494629,0.005249-2.0278015,0.0836182-2.0278015,0.0836182l-0.7943954-0.5670471
		c-0.2404099-0.245636-0.5278549-0.6872559-0.5121765-1.3927917c0.0313568-3.7943115,0.209053-7.2096863,0.5383072-10.4290771
		c0.2299576-2.260376,0.569664-4.9231567,1.3274765-7.5310974c0.2142792-0.747345,0.5383148-1.7272644,1.0975266-2.6810608
		c0.324028-0.5618286,1.3222504-2.2812958,3.4650269-2.2812958c0.5487595,0,1.1341095,0.1097565,1.7978439,0.3423309
		c1.9755402,0.6872559,3.4023209,2.025177,4.5416489,3.2455139c1.0818481,1.1471863,2.100975,2.4511414,3.1305542,3.9928894
		c0.0888443-0.4024048,0.1829147-0.8022156,0.2822189-1.2020264c0.9093704-3.6897888,2.0434799-7.954422,4.0660553-11.9185791
		c0.5957947-1.1523895,1.3640594-2.4694214,2.5870132-3.5381927c0.8989182-0.7944031,1.918045-1.2151184,2.9371719-1.2151184
		c1.0713959,0,2.1218796,0.4599152,3.03125,1.3353271c1.5887985,1.5365295,2.4093246,3.417984,3.1148758,5.2158356
		c1.5260773,3.9197235,2.3779602,7.9727173,3.0103378,11.4220581c0.0365906,0.1959839,0.0731735,0.3893738,0.1097565,0.5853577
		c0.1202011-0.1698608,0.2404099-0.3423462,0.3658371-0.5095825c1.1027527-1.515625,2.4250031-3.2559814,4.0869598-4.7141113
		c0.778717-0.6924744,1.5051727-1.1602173,2.2629852-1.4659729c0.5226288-0.2064209,0.9929962-0.3031311,1.4424591-0.3031311
		c0.7682648,0,1.8553314,0.2979126,2.6706314,1.7142334c0.8153076,1.4084778,1.1236572,2.9215088,1.3745193,4.3535156
		c0.6898727,3.9562988,0.8571091,7.9256592,0.9250488,11.2861633l0.0627213,4.8656921l-0.5383072,0.8649292
		c-0.3606186,0.3710632-0.8518906,0.5618286-1.4529114,0.5618286L100.2562943,279.3574219z M109.7890549,274.342804
		c2.3988647,0.0809937,4.8029556,0.1802979,7.2070541,0.282196l-0.0313568-2.8953552
		c-0.0522614-2.6262207-0.130661-5.2576599-0.3867493-7.8707886c-0.0313568-0.3318787-0.0679398-0.6846619-0.1202011-1.0374146
		c-0.0627136,0.1018982-2.9580841,4.9754333-2.9580841,4.9754333c-0.7055511,1.1628418-1.4999466,2.4694214-2.6392746,3.5721436
		c-0.8727951,0.8388367-1.7037735,1.243866-2.5452042,1.243866c-1.113205,0-2.0643845-0.6924744-2.8117447-2.0565491
		c-0.7160034-1.3065491-1.191597-2.6863098-1.6044769-3.9824219c-0.7055435-2.2394714-1.3013458-4.5102844-1.8971405-6.7863464
		c-0.4442368-1.6959229-0.8832474-3.3918457-1.3797455-5.0747223l-0.1724625-0.5801239
		c-0.3188019-1.0844574-0.6271591-2.1218719-1.0713882-3.0678253c-0.3188095,0.7760925-0.5121765,1.4920959-0.700325,2.1898041
		c-0.5174026,1.9415741-0.9564133,3.9066467-1.3901978,5.8691406c-0.4233246,1.8814697-0.8414307,3.7629089-1.3274765,5.6234741
		c-0.5383072,2.0487061-1.0713882,4.0712891-2.1166458,5.9658203c-0.8048477,1.4555359-1.8082962,2.1898193-2.9737625,2.1898193
		c-0.9825439,0-1.9128189-0.525238-2.8483276-1.6070862c-0.9041519-1.0348206-1.5835648-2.1924438-2.1793671-3.2115479
		l-0.9250488-1.6149292c-0.7996216-1.4137268-1.5574341-2.7516479-2.5086212-3.9562988
		c-0.4128799-0.5357056-0.7316818-0.8414307-1.0713882-1.0296021c-0.4599152,0.4834595-0.6950989,1.0531006-0.9041519,1.8919373
		c-0.893692,3.5591125-1.0557098,7.1626282-1.1602325,10.9516907l4.625267-0.1541748l8.5920258-0.245636
		c1.2595291-0.0470276,2.5138397-0.0914612,3.7733765-0.0914612l0.830986,0.007843
		c5.6391678,0.0993042,8.4613647,0.2090454,9.8724594,0.4886475l1.6201553-0.007843L109.7890549,274.342804z"/>
	<path fill-rule="evenodd" clip-rule="evenodd" fill="#97C73E" d="M107.9951859,267.1223145
		c0.8141098-1.3028259,1.5916138-2.5253296,2.4414291-3.6884766c1.1662674-1.5996399,2.3691254-3.161377,3.8647842-4.4691162
		c0.5503311-0.4909668,1.1399307-0.9261475,1.8286209-1.1992798c1.0279007-0.4052734,1.6840057-0.1914978,2.2374573,0.7609863
		c0.6882477,1.1943665,0.958725,2.5289001,1.189476,3.8531799c0.6391449,3.6621399,0.8266068,7.3591003,0.9060516,11.0587463
		c0.0294571,1.4135437,0.0129471,2.8239441,0.0459747,4.2339172c0.009819,0.3824768-0.0825729,0.5159302-0.4909668,0.5087891
		c-3.7991714-0.0691528-7.5912018-0.1182556-11.3899307-0.1758423c-2.1977386-0.0361633-4.3954697-0.0923767-6.5896378-0.12854
		c-2.3294067-0.0397339-4.6588058-0.1187134-6.991333-0.07901c-5.9803925,0.0906067-11.9536514,0.1727295-17.9269028,0.2651367
		c-0.4677582,0.0062256-0.9359589,0.0129395-1.4068375,0.0428467c-0.2834167,0.0147095-0.3923264-0.0709839-0.3887558-0.3771667
		c0.0361557-3.4429932,0.1843338-6.8761597,0.5338135-10.3013306c0.2535172-2.4530334,0.5860367-4.8877563,1.2747269-7.2600098
		c0.237442-0.816803,0.5208664-1.6076965,0.9457703-2.3392334c0.8699036-1.4925232,1.8188019-1.8420105,3.4595184-1.2716064
		c1.5947418,0.5565796,2.8069763,1.6456299,3.930397,2.848053c1.7991562,1.9129639,3.2457199,4.0888367,4.5534668,6.3570862
		c0.09552,0.1749878,0.1450577,0.3843079,0.3691177,0.520874c0.3624191-1.6014404,0.6851196-3.1876831,1.0738754-4.7610168
		c0.9788055-3.9768066,2.069191-7.9174652,3.9442291-11.5907745c0.5864792-1.1368103,1.2550812-2.2307587,2.2334442-3.087265
		c1.2952499-1.1435089,2.6757584-1.1203003,3.9178925,0.0758667c1.3474808,1.2979279,2.0888367,2.9698944,2.7543106,4.6735382
		c1.4001465,3.5992126,2.2401428,7.355545,2.9324036,11.1413116
		C107.5109177,264.1573486,107.7385406,265.5869446,107.9951859,267.1223145z M106.8588257,275.8503418
		c0.965416,0,1.9205627-0.0245667,2.8761597,0.0080261c2.7775192,0.0941772,5.5514679,0.2128906,8.3289871,0.3329468
		c0.3396606,0.0080566,0.4744492-0.0691528,0.4646301-0.4298096c-0.0397186-1.3510437-0.0196381-2.7052002-0.0490952-4.06073
		c-0.0495453-2.6690369-0.12854-5.337677-0.3923264-7.9920044c-0.0825729-0.8779297-0.1910248-1.7625427-0.4775696-2.6025391
		c-0.2869949-0.849823-0.7676926-0.9555969-1.4171066-0.3459167c-0.4940872,0.4677429-0.8859634,1.0180664-1.2323227,1.6009827
		c-0.9319382,1.5487671-1.8348618,3.1087036-2.7641296,4.6557007c-0.6985092,1.1533203-1.4135284,2.3160095-2.3918915,3.2635498
		c-1.2653427,1.2140503-2.1249771,1.0823669-2.9716721-0.4565735c-0.6458435-1.1729736-1.084137-2.4316101-1.4862823-3.7063599
		c-1.2354431-3.9009094-2.1151657-7.9058533-3.268486-11.8317871c-0.4873962-1.6259766-0.9221191-3.2881165-1.8018417-4.7739563
		c-0.6886826-1.163147-1.2818604-1.1417236-1.9080658,0.0624847c-0.540062,1.0345917-0.8498154,2.1580048-1.1528702,3.2850037
		c-1.0216522,3.8089752-1.7264099,7.700119-2.7248535,11.5037384c-0.5039062,1.9259338-1.0046921,3.8616638-1.9736786,5.6193237
		c-0.981926,1.7674561-2.0227737,1.8580627-3.3474884,0.3226929c-0.7940216-0.9127502-1.4068375-1.9487-2.0196457-2.9881897
		c-1.1497498-1.9406433-2.1415024-3.96521-3.5483322-5.7447205c-0.4316025-0.5516663-0.8993607-1.0622864-1.5188675-1.4117737
		c-0.8502655-0.4677429-1.5554657-0.3079529-2.1151657,0.4762573c-0.5172958,0.7132263-0.8007202,1.5371704-1.0082626,2.3704529
		c-1.0279007,4.1151733-1.1238632,8.3276672-1.2390137,12.530304c-0.0165176,0.4708862,0.3030548,0.3325195,0.5369339,0.3276062
		c1.8978043-0.04776,3.7924805-0.1169434,5.6867065-0.1763c2.1615829-0.0588989,4.3195953-0.1151428,6.4776077-0.1744995
		c2.2173767-0.0557861,4.4316254-0.1941528,6.6490021-0.1548767
		C100.3348007,275.4156189,106.8588257,275.8172913,106.8588257,275.8503418z"/>
	<path opacity="0.3" fill-rule="evenodd" clip-rule="evenodd" fill="#73C19A"  a:adobe-blending-mode="lighten" d="
		M86.0146484,298.0100708c-0.6376038,0-1.2856674-0.0705566-1.9337311-0.2116699
		c-3.3866348-0.7264709-6.3081284-1.8866882-8.926506-3.5434265l-0.4808197-0.3370972
		c-1.2752151-1.013916-1.7246704-2.5870361-1.1079712-3.8439331c0.5278549-1.032196,1.7037735-1.7142334,2.9476318-1.7142334
		h0.209053l0.6741867,0.1202087c0.9825439,0.271759,1.9180527,0.6898499,2.8483276,1.1131897l0.9355087,0.4154968
		c1.6306,0.6924744,2.822197,1.1968079,4.0660553,1.4685974c0.2299576,0.0522461,0.4390106,0.0757751,0.6480637,0.0757751
		c0.2665405,0,0.5226288-0.0418091,0.7839432-0.1280518c1.2072678-0.4024353,2.330925-1.0138855,3.4545746-1.6175232
		l1.4424591-0.760437c1.1445541-0.5879517,2.2995682-1.1602478,3.4911652-1.6750183
		c1.6306-0.6977234,3.3239212-1.0505066,5.0276871-1.0505066c1.7664871,0,3.6009216,0.3789062,5.4510269,1.1262817
		c1.5103989,0.6088562,2.9633026,1.3327026,4.3744049,2.1114197c1.7664871,0.9720764,3.5747833,1.4450684,5.5294189,1.4450684
		c0.2822189,0,2.0905151-0.0470276,2.0905151-0.0470276c1.1811447,0.007843,2.1584549,0.5278625,2.6810913,1.4241638
		c0.5278549,0.9067688,0.4860382,2.0303955-0.1045303,3.0809021c-0.8205261,1.4581299-2.2264023,1.8866882-3.2089386,2.0826721
		c-0.3501663,0.0731506-0.7264557,0.1018982-1.0661697,0.1254272c-2.7385712-0.0731812-4.740242-0.7160034-6.6791992-1.3379211
		l-1.6096954-0.522644c-1.9755402-0.6454468-3.9510803-1.2908936-5.9736557-1.7743225
		c-0.930275-0.2221069-1.8501053-0.3344727-2.7385788-0.3344727c-1.9859848,0-3.8622284,0.535675-5.7436905,1.6358337
		l-2.4720383,1.3875732C89.1399689,297.5762634,87.5877609,298.0100708,86.0146484,298.0100708z"/>
	<path fill-rule="evenodd" clip-rule="evenodd" fill="#73C19A" d="M115.4614182,296.1758118
		c-2.0758896-0.0856934-3.9536057-0.6855469-5.8353424-1.2881165c-2.553009-0.8172302-5.0837097-1.7054138-7.6996613-2.329834
		c-3.4166641-0.8154602-6.5927582-0.2883301-9.597908,1.4697571c-0.8100891,0.4708862-1.6407166,0.9109802-2.4575043,1.3805237
		c-1.7103424,0.9819031-3.5121765,1.3309326-5.4729156,0.9091492c-2.9980087-0.6458435-5.8348846-1.7018433-8.4311981-3.3456726
		c-0.1352386-0.0776672-0.2535172-0.1696167-0.3722382-0.2620239c-0.6985092-0.5503235-0.968544-1.3505859-0.6654816-1.96875
		c0.3227005-0.6373596,1.2649002-1.0230103,2.0558014-0.7989502c1.2555313,0.3459167,2.4084015,0.9524841,3.6010056,1.4613037
		c1.417099,0.5998535,2.8203659,1.227417,4.3361053,1.5567932c0.7511749,0.1665039,1.4827118,0.1513062,2.2240677-0.0937195
		c1.8085403-0.599884,3.4264908-1.6130371,5.1131744-2.4664307c1.1238632-0.5730896,2.2504044-1.1332397,3.4068451-1.6340027
		c3.1203079-1.3345337,6.2205276-1.1582336,9.3144913,0.0888062c1.4496841,0.5833435,2.8498306,1.2832031,4.2075653,2.0330505
		c2.2566528,1.243927,4.6485443,1.7790527,7.2122726,1.6009827c0.3753662-0.0263367,0.7511749-0.0129395,1.1301117-0.0129395
		c1.3376541,0.0066833,1.9303818,1.0542297,1.2649002,2.2419128c-0.4775696,0.8466797-1.2948074,1.1618042-2.1843414,1.341217
		C116.2125931,296.1409912,115.7908096,296.1477051,115.4614182,296.1758118z"/>
	<path opacity="0.3" fill-rule="evenodd" clip-rule="evenodd" fill="#73C19A"  a:adobe-blending-mode="lighten" d="
		M98.6622772,305.0760193l0.0209045-1.515625l-0.3972015,1.5130005c-1.3431549-0.015686-2.7385712-0.0287476-4.170578-0.3972168
		c-1.5731125-0.4050293-2.5295258-1.5809326-2.4877167-3.0678101c0.0209045-1.513031,1.060936-2.6837158,2.6601868-2.9580994
		c1.8082962-0.3083496,3.6427231-0.4625244,5.4614716-0.4625244c1.0191269,0,2.0382538,0.0470581,3.0573807,0.1437378
		c1.5678864,0.1515503,2.6967697,1.2673645,2.822197,2.780365c0.130661,1.7247009-0.7891693,3.1148987-2.3413773,3.5486755
		c-1.3901978,0.3762817-2.7229004,0.3919678-4.0085678,0.4076538l-0.5905685,0.010437L98.6622772,305.0760193z"/>
	<path fill-rule="evenodd" clip-rule="evenodd" fill="#73C19A" d="M98.6842651,303.5608215
		c-1.4068375-0.0196533-2.8136749,0-4.1910553-0.3526001c-0.9060516-0.2320862-1.3706818-0.7824402-1.3505936-1.5568237
		c0.0129395-0.7824097,0.4940872-1.3505859,1.4001389-1.5054626c2.6918259-0.4579468,5.4068604-0.5601501,8.1250153-0.3030701
		c0.866333,0.0821228,1.3871994,0.6355896,1.4496841,1.3952332c0.0723114,0.9703369-0.3691177,1.7183838-1.2390137,1.9620972
		C101.5015106,303.5742188,100.0911026,303.5344849,98.6842651,303.5608215z"/>
	<path opacity="0.3" fill-rule="evenodd" clip-rule="evenodd" fill="#73C19A"  a:adobe-blending-mode="lighten" d="
		M83.4433136,305.4758301c-2.1166458-0.0810242-4.3744049-0.235199-6.5589981-0.8283691
		c-0.5801163-0.1515808-1.6880875-0.4416199-2.5138474-1.3562317c-0.9877701-1.1053772-1.0086746-2.4485168-0.0731659-3.5982971
		c0.7734909-0.9302979,1.7926178-1.3823547,3.1357727-1.3823547l0.6114807,0.026123
		c1.0922928,0.0940857,2.1793594,0.2351685,3.2612076,0.3789062c1.269989,0.1672363,2.5347443,0.3370972,3.8151932,0.4154968
		c1.3274765,0.0809937,2.278656,0.9590149,2.4929352,2.294342c0.1515656,0.9668579-0.1045227,1.9467773-0.6950912,2.6941528
		c-0.5958023,0.752594-1.4633636,1.2072754-2.4406815,1.280426L83.4433136,305.4758301z"/>
	<path fill-rule="evenodd" clip-rule="evenodd" fill="#73C19A" d="M83.4987335,303.9611816
		c-2.1941681-0.0856934-4.233902-0.2405701-6.2173996-0.7775269c-0.658783-0.1713867-1.3077469-0.380249-1.7822037-0.9091797
		c-0.4811401-0.5373535-0.4878387-1.0578003-0.026329-1.6210632c0.6458435-0.7774963,1.4956589-0.8815002,2.4476776-0.803833
		c2.3727036,0.2026367,4.7217407,0.6489563,7.1038132,0.7940063c0.6391449,0.0392761,0.991745,0.3936768,1.087265,1.0194397
		c0.1812057,1.1403809-0.6061172,2.1383667-1.7496185,2.2240601
		C84.0258484,303.918335,83.6866379,303.9446716,83.4987335,303.9611816z"/>
	<path opacity="0.3" fill-rule="evenodd" clip-rule="evenodd" fill="#73C19A"  a:adobe-blending-mode="lighten" d="
		M100.1413193,286.5331116c-1.5260773-0.0653076-3.2507553-0.1411133-4.9911118-0.4755859
		c-0.3867493-0.0705566-0.9825439-0.2038269-1.5731125-0.5043335c-1.5208511-0.7839355-1.7508087-1.8945312-1.6776428-2.6915283
		c0.1097565-1.1863708,1.191597-2.2786865,2.461586-2.4877319c1.0348053-0.1620178,2.0643845-0.2168884,3.0991898-0.2168884
		l0.7734909,0.0104675c1.0870667,0.0156555,2.1845932,0.0627136,3.2821121,0.1071167l1.7403564,0.0705566
		c2.4929428,0.0548706,2.9476242,1.787384,3.0260239,2.3152466c0.2299576,1.5286865-0.7682648,3.0181885-2.3204727,3.4650269
		c-1.2334061,0.3475647-2.4406815,0.3763123-3.6061478,0.4050598L100.1413193,286.5331116z"/>
	<path fill-rule="evenodd" clip-rule="evenodd" fill="#73C19A" d="M100.2098236,285.0162048
		c-1.5684052-0.0674133-3.182785-0.14151-4.7708359-0.4481201c-0.4083939-0.0754395-0.8069687-0.1807861-1.1760788-0.3691101
		c-0.4847183-0.2499695-0.9127502-0.5699768-0.8533859-1.1988525c0.0495377-0.5106201,0.6061172-1.0314941,1.1957169-1.130127
		c1.1930466-0.1878967,2.395462-0.2124329,3.5947571-0.1878967c1.6670456,0.0263367,3.3345413,0.1218567,5.004715,0.1776428
		c0.9256897,0.0231934,1.4760132,0.361084,1.5751038,1.0247803c0.1182709,0.7645569-0.408844,1.5456238-1.2354507,1.7826538
		C102.4669266,284.9702148,101.3631439,284.9898682,100.2098236,285.0162048z"/>
	<path opacity="0.3" fill-rule="evenodd" clip-rule="evenodd" fill="#73C19A"  a:adobe-blending-mode="lighten" d="
		M82.4869003,286.2535095c-1.4685898,0-2.8274231-0.1411133-4.1496735-0.4311523
		c-0.7107773-0.1541748-1.7351303-0.4834595-2.383194-1.5391541c-0.5174026-0.8518982-0.5539856-1.8500977-0.1045227-2.6758728
		c0.4964981-0.9015198,1.4894943-1.4581299,2.6601868-1.4816589l3.8256454-0.0052185
		c1.384964,0,2.7647018,0.0313721,4.1444473,0.245636c1.3745117,0.2142944,2.2054977,1.2098999,2.2264023,2.6601868
		c0.0418091,1.9128113-1.1497879,2.7647095-2.1793671,2.9084473
		C85.18367,286.1307068,83.8352814,286.2535095,82.4869003,286.2535095z"/>
	<path fill-rule="evenodd" clip-rule="evenodd" fill="#73C19A" d="M81.4165955,281.6392517
		c1.6112595-0.0066833,3.2256393-0.0232239,4.8266296,0.2271729c0.6556549,0.1022034,0.9390793,0.471344,0.9488983,1.1828003
		c0.0165176,0.7712402-0.2798462,1.2983704-0.876152,1.3822632c-2.5570297,0.3771667-5.1136169,0.4664307-7.6572571-0.0906067
		c-0.5534515-0.1204834-1.084137-0.3177795-1.4068375-0.8502502c-0.5436325-0.8926697,0.0888214-1.8219299,1.2881088-1.8500366
		C79.4991531,281.6160278,80.457428,281.6392517,81.4165955,281.6392517z"/>
	<path opacity="0.3" fill-rule="evenodd" clip-rule="evenodd" fill="#73C19A"  a:adobe-blending-mode="lighten" d="
		M113.3167953,305.5123901c-1.060936,0-2.0068893-0.1202087-2.8901367-0.3684387
		c-1.7926178-0.488678-2.2838898-1.6097107-2.3779602-2.4615784c-0.0783997-0.6689758,0.0104523-1.9755554,1.4738083-3.0547791
		c0.5278625-0.3789062,1.1288834-0.5879517,1.8030777-0.6323853c0.6532822-0.0496521,1.3170242-0.0731506,1.9755325-0.0731506
		c1.3797455,0,2.7594833,0.1071167,4.1340027,0.3187866c0.3449326,0.0574951,0.6950912,0.1620178,1.0191269,0.3057556
		c0.8675613,0.3736572,1.4529037,1.03479,1.6462784,1.8631592c0.1933746,0.8179016-0.0470352,1.6985474-0.6585159,2.4171753
		c-1.139328,1.3431396-2.6915359,1.518219-3.8256454,1.6462708c-0.3188019,0.0313416-0.5435333,0.0391846-0.7734909,0.0391846
		H113.3167953z"/>
	<path fill-rule="evenodd" clip-rule="evenodd" fill="#73C19A" d="M113.9621887,303.9808044
		c-1.0542374,0.0464172-2.0955276-0.0080261-3.1234283-0.2963562c-0.6324539-0.1744995-1.2024155-0.4449768-1.2818604-1.1662598
		c-0.0821304-0.7150269,0.3066254-1.2568665,0.863205-1.6706238c0.2968063-0.2142334,0.6427155-0.3160095,1.0051346-0.3392029
		c1.9339523-0.1419373,3.8580933-0.06427,5.775528,0.2320862c0.2178116,0.0379333,0.4418716,0.1071167,0.6458435,0.1963806
		c0.879715,0.3785095,1.0542374,1.1894836,0.4414215,1.9107361c-0.7676926,0.9047241-1.8513794,1.0046997-2.9158859,1.1252136
		C114.9079666,304.0205383,114.4366379,303.9808044,113.9621887,303.9808044z"/>
	<path opacity="0.3" fill-rule="evenodd" clip-rule="evenodd" fill="#73C19A"  a:adobe-blending-mode="lighten" d="
		M115.1512299,286.4129028c-1.515625,0-3.0521545-0.2038269-4.5677795-0.6062317
		c-0.7630386-0.2012329-1.3640671-0.5487671-1.8396606-1.0609436c-0.8780136-0.9276733-0.8362045-2.2080994,0.1045303-3.1070251
		c0.5801163-0.5357056,1.2752151-0.8388367,2.1427765-0.9407349c0.7891693-0.0966797,1.5887985-0.1228333,2.383194-0.1489563
		c0.5174026-0.015686,1.0348053-0.0287476,1.5417557-0.0731506l2.0957413,0.0914612
		c2.2002716,0.1018982,2.6706314,1.6305847,2.7647095,2.0957336c0.2613144,1.2151184-0.5017242,2.6993713-1.7142258,3.2821045
		c-0.700325,0.3344727-1.4058685,0.4128723-2.006897,0.4442444L115.1512299,286.4129028z"/>
	<path fill-rule="evenodd" clip-rule="evenodd" fill="#73C19A" d="M115.0396347,281.9882812
		c0.6753006,0.0299072,1.2948074,0.0678406,1.9107437,0.0941772c0.7842026,0.0379333,1.2256241,0.3244934,1.3376541,0.8748169
		c0.118721,0.5547791-0.3128815,1.3474731-0.882843,1.6206055c-0.4512405,0.2160339-0.9390793,0.2704773-1.4264755,0.296814
		c-1.6969528,0.0888367-3.3639984-0.09729-5.0082855-0.5338135c-0.4249039-0.11203-0.8038406-0.2963562-1.1135941-0.6261902
		c-0.3227005-0.3441162-0.2896729-0.6686096,0.0361481-0.9752197c0.3624268-0.3356628,0.7975998-0.4776001,1.272049-0.5333862
		C112.4763489,282.0445251,113.787674,282.0922852,115.0396347,281.9882812z"/>
	<path opacity="0.3" fill="#4D98D1"  a:adobe-blending-mode="lighten" d="M57.9599113,330.9252319
		c-9.7940712,0-17.7589378-7.9674683-17.7589378-17.7615356v-76.3273926c0-9.7940674,7.9648666-17.7615509,17.7589378-17.7615509
		h434.0749207c9.7940674,0,17.7641602,7.9674835,17.7641602,17.7615509v76.3273926
		c0,9.7940674-7.9700928,17.7615356-17.7641602,17.7615356H57.9599113z M57.9599113,230.2328949
		c-3.6427231,0-6.6060333,2.9606934-6.6060333,6.6034088v76.3273926c0,3.6427307,2.9633102,6.6034241,6.6060333,6.6034241
		h434.0749207c3.6427307,0,6.6060486-2.9606934,6.6060486-6.6034241v-76.3273926
		c0-3.6427155-2.9633179-6.6034088-6.6060486-6.6034088H57.9599113z"/>
	<path fill="#4D98D1" d="M492.0361328,329.4078674H57.962326c-8.9574242,0-16.2446785-7.2876892-16.2446785-16.2446899v-76.3262329
		c0-8.9574127,7.2872543-16.2451172,16.2446785-16.2451172h434.0737915c8.959198,0,16.2446594,7.2877045,16.2446594,16.2451172
		v76.3262329C508.2807922,322.1201782,500.9953308,329.4078674,492.0361328,329.4078674z M57.962326,228.7141724
		c-4.4793816,0-8.1223373,3.6429443-8.1223373,8.1227722v76.3262329c0,4.4794006,3.6429558,8.122345,8.1223373,8.122345h434.0737915
		c4.4776001,0,8.122345-3.6429443,8.122345-8.122345v-76.3262329c0-4.4798279-3.6447449-8.1227722-8.122345-8.1227722H57.962326z"/>
</g>
</svg>
