<?xml version="1.0" encoding="utf-8"?>
<!-- Generator: Adobe Illustrator 17.1.0, SVG Export Plug-In . SVG Version: 6.00 Build 0)  -->
<!DOCTYPE svg PUBLIC "-//W3C//DTD SVG 1.1//EN" "http://www.w3.org/Graphics/SVG/1.1/DTD/svg11.dtd">
<svg version="1.1" id="圖層_1" xmlns="http://www.w3.org/2000/svg" xmlns:xlink="http://www.w3.org/1999/xlink" x="0px" y="0px"
	 viewBox="307.624 249.288 788.034 288.946" enable-background="new 307.624 249.288 788.034 288.946" xml:space="preserve">
<g>
	<path opacity="0.3" fill="#DA4A69" enable-background="new    " d="M847.419,437.643c-0.631,0-2.539,0-3.999-1.437
		c-1.505-1.482-1.505-3.44-1.505-4.082c0.061-19.381,0.061-38.728,0-58.101c0-3.379,2.075-5.477,5.428-5.477
		c0,0,5.238,0.125,6.576,0.125c1.361,0,2.714-0.034,4.067-0.148c0.517-0.038,1.011-0.057,1.49-0.057
		c11.114,0,16.489,10.293,16.755,17.602c0.198,5.549-1.163,9.806-4.5,13.805c3.885,3.102,6.492,7.56,7.442,12.802
		c1.315,7.366-0.912,15.162-5.679,19.86c-3.39,3.326-7.184,4.979-11.601,5.059l-14.352,0.049H847.419z M855.219,428.121
		c1.642,0,3.193,0.042,4.827,0.087l1.11,0.027c2.995-0.004,5.207-1.422,6.918-4.47c1.832-3.227,2.334-6.648,1.505-10.175
		c-1.292-5.367-4.287-7.762-9.708-7.762c0,0-7.419,0.027-8.164,0.015c0.03,2.733,0.023,5.207,0.015,7.682v6.849
		c0.023,2.588,0.038,5.192-0.03,7.803C853.007,428.14,854.132,428.121,855.219,428.121z M858.997,396.463
		c2.691-0.004,4.356-0.962,5.891-3.425c1.482-2.379,1.992-5.078,1.52-8.016c-0.768-4.687-3.581-7.066-8.362-7.066
		c0,0-5.967,0.038-6.34,0.034c0.03,2.205,0.023,4.196,0.015,6.18c0,0,0,10.076-0.015,12.262c0.874-0.011,1.748-0.015,2.623-0.015
		C855.888,396.418,857.439,396.433,858.997,396.463z"/>
	<path fill="#E63168" d="M868.395,400.238c4.232-4.184,5.838-8.286,5.635-14.092c-0.249-6.693-5.211-16.273-15.861-15.42
		c-2.752,0.228-5.536,0.158-8.313,0.082l-2.51-0.053c-2.138,0-3.223,1.097-3.223,3.262c0.059,19.378,0.059,38.731,0,58.106
		c0,0.72,0.087,1.765,0.848,2.511c0.736,0.718,1.75,0.802,2.452,0.802h0.106c1.56-0.028,3.119-0.034,4.679-0.034l5.737,0.011
		c1.3,0,2.6-0.005,3.911-0.022c3.828-0.073,7.127-1.52,10.088-4.426c4.27-4.21,6.253-11.235,5.053-17.898
		C875.997,407.515,872.905,402.943,868.395,400.238z M866.755,394.205c-1.889,3.044-4.257,4.463-7.788,4.463h-0.011
		c-3.088-0.057-6.15-0.059-9.289,0.003l-0.154,1.379c-0.008,0-0.01-0.005-0.019-0.005l-0.264-1.394
		c0.103,0.03,0.245,0.171,0.279,0.272c-0.002-0.011-0.04-0.135-0.03-0.53c0.044-2.836,0.04-5.677,0.032-8.516l-0.002-2.735
		l0.006-2.976c0.011-2.682,0.019-5.367-0.036-8.09c-0.01-0.146-0.006-0.258-0.011-0.334c0.154-0.002,0.336-0.008,0.336-0.008
		c1.007,0.042,2.015,0.056,3.024,0.056l5.217-0.043c5.857,0,9.603,3.17,10.548,8.925
		C869.149,388.145,868.534,391.352,866.755,394.205z M850.027,430.489c-0.281,0-0.433-0.029-0.487-0.029h-0.019
		c-0.032-0.089-0.091-0.353-0.074-1.074c0.108-3.012,0.093-6.015,0.074-9.01l-0.013-3.312l0.006-3.541
		c0.011-3.187,0.019-6.376-0.036-9.569c-0.004-0.165,0-0.285-0.006-0.359c0.065-0.005,0.146-0.008,0.249-0.008v-1.39
		c0.002,0,0.002-0.001,0.002-0.001l0.133,1.394c1.357,0.047,2.716,0.062,4.067,0.062l5.948-0.031c6.446,0,10.321,3.097,11.851,9.46
		c0.969,4.084,0.391,8.042-1.722,11.764c-2.119,3.765-5.029,5.594-8.89,5.594l-0.872-0.017
		C856.939,430.332,853.987,430.236,850.027,430.489z"/>
	<path opacity="0.3" fill="#DA4A69" enable-background="new    " d="M950.113,437.247c-2.022,0-3.193-0.882-3.816-1.619
		c-1.383-1.634-1.041-3.531-0.92-4.246c0-7.104-0.008-24.919-0.008-24.919c0-10.54-0.008-21.076-0.068-31.624
		c0-3.888,2.128-6.112,5.846-6.112c2.212,0.065,3.923,0.072,5.625,0.072l6.272-0.019c10.042,0,16.838,5.435,19.149,15.299
		c2.357,10.042-0.768,18.659-8.803,24.474c3.064,6.047,6.158,12.064,9.259,18.092l1.855,3.672l0.692,1.463
		c0.433,0.935,0.464,1.999,0.084,2.931c-0.38,0.943-1.156,1.691-2.113,2.045c-0.775,0.293-1.558,0.441-2.311,0.441
		c-3.36,0-4.987-2.771-5.405-3.618c-2.083-4.097-9.784-18.993-11.486-22.353c-1.901,0.065-3.717,0.099-5.519,0.099
		c-1.14,0-2.265-0.015-3.406-0.038c0.061,6.731,0.046,13.429-0.015,20.149c0.106,0.775,0.342,2.661-1.026,4.219
		c-0.623,0.711-1.779,1.566-3.763,1.589l-0.015,0.004H950.113z M964.762,401.895c1.84-0.004,3.208-0.593,4.683-2.045
		c2.387-2.357,3.763-5.96,3.778-9.879c0.008-3.881-1.33-7.45-3.657-9.784c-1.771-1.752-2.873-1.999-3.717-2.011
		c0,0-9.806,0-10.81-0.008c0.03,2.664,0.023,5.101,0.008,7.541l0.008,8.294c0.015,2.619,0.03,5.245-0.008,7.868
		c1.391-0.034,2.714-0.046,4.014-0.046C960.976,401.826,962.854,401.853,964.762,401.895z"/>
	<path fill="#E63168" d="M983.2,432.722l-0.462-0.979c-0.276-0.587-0.534-1.137-0.813-1.684l-0.878-1.709
		c-3.446-6.693-6.882-13.375-10.278-20.093c-0.066-0.121-0.144-0.244-0.27-0.421c8.44-5.26,11.832-13.509,9.542-23.254
		c-2.087-8.893-7.963-13.594-16.992-13.594l-6.275,0.019c-1.731,0-3.457-0.013-5.171-0.064l-0.456-0.009
		c-2.482,0-3.639,1.234-3.639,3.89c0.068,11.728,0.068,23.442,0.07,35.16c0.004,7.151,0.004,14.298-0.027,21.782
		c-0.103,0.601-0.274,1.604,0.422,2.429c0.471,0.559,1.193,0.842,2.14,0.842h0.091c0.937-0.011,1.655-0.295,2.134-0.842
		c0.707-0.805,0.587-1.817,0.513-2.42c-0.013-0.132-0.032-0.258-0.032-0.362c0.061-7.277,0.074-14.531,0-21.798
		c-0.004-0.315,0.015-0.497,0-0.564c0.089-0.011,0.266-0.013,0.504-0.019c3.717,0.118,7.319,0.12,11.247-0.04
		c0.583,0,0.754,0.034,1.192,0.909c1.762,3.464,3.548,6.917,5.333,10.374c2.121,4.1,4.244,8.201,6.329,12.328
		c0.418,0.831,1.935,3.22,4.979,2.084c0.378-0.14,0.68-0.432,0.836-0.809C983.389,433.507,983.375,433.086,983.2,432.722z
		 M952.835,389.817l0.011-4.12c0.011-3.157,0.027-6.315-0.027-9.457c-0.004-0.135,0.002-0.238-0.004-0.302
		c0.057-0.004,0.123-0.006,0.207-0.006v-1.41h0.002l0.063,1.41c1.648,0.033,3.294,0.044,4.939,0.044l5.597-0.013l2.248,0.009
		c1.798,0.02,3.419,0.841,5.253,2.66c2.746,2.746,4.314,6.883,4.301,11.346c-0.013,4.508-1.629,8.679-4.426,11.446
		c-1.855,1.826-3.778,2.676-6.27,2.676h-0.01c-3.751-0.076-7.398-0.115-11.467,0.039c-0.165,0-0.283-0.009-0.35-0.009
		c-0.017,0-0.034,0-0.046,0.003c-0.023-0.103-0.047-0.317-0.038-0.723c0.061-3.131,0.046-6.265,0.03-9.397L952.835,389.817z"/>
	<path opacity="0.3" fill="#DA4A69" enable-background="new    " d="M899.416,437.464c-0.54,0-1.095-0.084-1.642-0.243
		c-1.779-0.513-2.592-1.619-2.965-2.459c-0.798-1.779-0.061-3.349,0.22-3.938l4.918-20.791l8.689-36.322
		c0.266-4.63,3.771-5.097,4.835-5.131c0,0,0,0,0.008,0c1.193,0,4.88,0.372,5.215,5.093c4.249,18.013,13.524,57.349,13.524,57.349
		l0.213,1.083c0.228,1.463-0.061,2.706-0.867,3.695c-0.525,0.654-1.536,1.486-3.299,1.6c-0.008,0-0.015,0-0.015,0
		c-3.041,0-5.002-1.536-5.557-4.208c-0.304-1.513-0.646-2.991-0.996-4.47c-0.403-1.703-0.791-3.36-1.117-5.021
		c-2.182,0.232-4.698,0.255-7.176,0.255c-2.319,0-4.607-0.019-6.902-0.061c-0.091,1.015-0.395,2.25-0.715,3.482
		c-0.471,1.878-0.935,3.751-1.338,5.652C903.749,436.297,901.393,437.464,899.416,437.464z M918.505,414.598
		c-0.433-1.805-4.797-20.255-4.797-20.255l-4.835,20.236l4.386-0.015C915.023,414.563,916.764,414.575,918.505,414.598z"/>
	<path fill="#E63168" d="M929.219,427.914c-4.208-17.855-8.419-35.718-12.674-53.584c-0.036-0.152-0.042-0.323-0.053-0.497
		c-0.053-0.754-0.213-3.051-2.953-3.051c-2.539,0.081-2.676,2.311-2.721,3.046c-0.008,0.146-0.011,0.289-0.036,0.398
		c-4.586,19.05-9.115,38.154-13.746,57.514c-0.207,0.437-0.595,1.25-0.201,2.132c0.26,0.585,0.773,1.002,1.56,1.233
		c0.355,0.102,0.697,0.149,1.021,0.149c0.694,0,2.362-0.26,2.877-2.687c0.405-1.924,0.884-3.827,1.361-5.734
		c0.367-1.467,0.735-2.933,1.074-4.418c0.127-0.566,0.236-0.679,0.236-0.679s0.158-0.064,0.694-0.067
		c5.28,0.111,10.472,0.092,16.004,0.013c0.559,0,0.696,0.085,0.696,0.085v0.002c0,0,0.124,0.124,0.238,0.724
		c0.352,1.914,0.8,3.815,1.249,5.718c0.353,1.503,0.711,3.009,1.013,4.528c0.331,1.606,1.351,2.459,3.24,2.459h0.029
		c0.766-0.05,1.347-0.319,1.735-0.799c0.388-0.48,0.525-1.094,0.391-1.944c-0.061-0.253-0.106-0.522-0.198-1.004L929.219,427.914z
		 M921.317,416.85c-0.059,0.004-0.129-0.016-0.205,0.004c-2.604-0.065-5.209-0.082-7.849-0.082l-7.191,0.017
		c2.539-10.657,5.034-21.114,7.634-31.964c1.716,7.26,3.362,14.171,5.015,21.083l0.428,1.826c0.694,2.949,1.38,5.885,2.104,8.827
		C921.279,416.674,921.3,416.77,921.317,416.85z"/>
	<path opacity="0.3" fill="#DA4A69" enable-background="new    " d="M600.069,439.916c-2.509-0.293-3.93-2.106-4.196-5.386
		c-0.547-4.588-0.57-8.708-0.593-12.699l-0.091-5.926c-0.129-5.15-0.258-10.434,0.76-15.778c0.433-2.254,1.117-4.196,2.098-5.952
		c1.779-3.181,4.69-4.937,8.21-4.937c5.428,0.182,7.184,4.599,7.769,6.051c1.634,4.097,2.06,8.332,2.281,12.296
		c0.418,7.822,0.122,15.42-0.449,24.421c-0.061,0.874-0.182,1.737-0.312,2.607c-0.449,3.288-1.71,4.865-3.839,5.219
		c-0.106,0.004-0.213,0.004-0.319,0.004c-1.87,0-3.847-0.578-4.827-3.523c-0.243-0.631-0.471-1.258-0.684-1.885
		c-0.068,0.201-0.137,0.403-0.205,0.604c-0.927,4.116-3.193,4.926-4.949,4.926L600.069,439.916z"/>
	<path fill="#E63168" d="M611.978,396.107c-0.544-1.355-1.824-4.532-5.722-4.663c-2.721,0-4.896,1.316-6.285,3.807
		c-0.859,1.538-1.467,3.265-1.853,5.288c-0.977,5.13-0.848,10.305-0.724,15.313c0.031,1.254,0.062,2.511,0.076,3.761l0.014,2.186
		c0.022,3.93,0.045,7.995,0.544,12.018l0.044,0.51c0.08,1.027,0.24,3.164,2.273,3.4c0.063,0.009,0.317,0.025,0.382,0.025
		c2.064,0,2.531-2.058,2.735-2.936c0.042-0.185,0.078-0.362,0.124-0.494c0.886-2.609,1.596-5.232,2.282-8.037
		c0.747,3.003,1.53,6.099,2.786,9.319c0.184,0.569,0.682,2.088,2.286,2.088c0.078,0,0.331-0.023,0.407-0.036
		c1.587-0.261,1.811-1.892,1.938-2.803l0.08-0.563c0.122-0.811,0.236-1.613,0.289-2.424c0.568-8.957,0.859-16.491,0.447-24.155
		C613.899,403.938,613.502,399.924,611.978,396.107z"/>
	<path opacity="0.3" fill="#DA4A69" enable-background="new    " d="M605.14,393.084c-0.669,0-1.33-0.061-1.992-0.182
		c-3.246-0.642-6.234-2.668-8.028-5.424c-1.558-2.414-2.091-5.165-1.505-7.742c1.437-6.435,6.158-10.597,12.026-10.597
		c0.722,0,1.467,0.065,2.22,0.201c3.246,0.547,6.044,2.269,7.853,4.85c1.779,2.55,2.44,5.705,1.87,8.883
		C616.558,388.595,610.978,393.084,605.14,393.084z"/>
	<path fill="#E63168" d="M607.478,371.51c-5.635-1.006-10.361,2.663-11.711,8.714c-0.454,2-0.026,4.149,1.207,6.051
		c1.473,2.263,3.93,3.93,6.583,4.455c0.523,0.101,1.051,0.148,1.585,0.148c4.745,0,9.445-3.753,10.264-8.199
		c0.471-2.602-0.063-5.167-1.503-7.224C612.436,373.365,610.15,371.962,607.478,371.51z"/>
	<path opacity="0.3" fill="#DA4A69" enable-background="new    " d="M667.255,437.852c-0.996,0-4.272-0.331-4.865-4.584
		l-4.82-15.629c-1.65,4.683-5.724,16.2-5.724,16.2c-0.813,2.436-2.372,3.74-4.576,3.74c-3.193-0.38-4.736-2.235-4.782-5.002
		c-0.654-5.793-1.285-11.593-1.878-17.385l-0.654-6.401c-1.079-10.51-2.159-21.05-3.185-31.578
		c-0.175-0.479-0.707-2.307,0.448-4.025c0.57-0.81,1.619-1.764,3.52-1.919c0,0,0.008,0,0.015,0c3.132,0,4.964,1.843,5.116,4.922
		l3.816,35.63c1.064-3.041,2.129-6.078,3.223-9.115c0.92-3.896,3.482-4.451,4.934-4.451c1.019,0.011,4.31,0.376,4.85,4.637
		l2.851,9.175l4.82-33.912l0.19-1.281c0.532-4.287,3.246-4.93,4.812-4.93c1.847,0.095,3.102,0.692,3.93,1.836
		c1.277,1.718,0.76,3.63,0.585,4.257c-0.281,2.224-0.616,4.485-0.958,6.747l-1.384,9.692c-1.794,12.653-3.588,25.291-5.443,37.914
		c0.084,0.673,0.182,2.474-1.171,3.942c-0.601,0.658-1.71,1.467-3.55,1.517l-0.03,0.004H667.255z"/>
	<path fill="#E63168" d="M675.366,374.154c-2.246,0-2.509,2.081-2.623,2.995c-0.023,0.222-0.063,0.438-0.099,0.648
		c-0.04,0.236-0.08,0.469-0.101,0.668l-6.192,43.626l-0.907-2.911c-1.629-5.229-3.242-10.417-4.88-15.601
		c-0.042-0.124-0.048-0.266-0.065-0.412c-0.082-0.664-0.327-2.682-2.659-2.703c-2.138,0-2.583,1.874-2.752,2.578
		c-0.03,0.143-0.061,0.281-0.106,0.407c-1.484,4.157-2.938,8.312-4.392,12.472l-2.032,5.784c-0.086-0.623-0.163-1.243-0.234-1.862
		l-4.662-43.547c-0.108-2.322-1.389-2.828-2.71-2.828h-0.04c-0.846,0.07-1.471,0.393-1.859,0.957
		c-0.583,0.856-0.304,1.815-0.087,2.575c1.024,10.526,2.104,21.064,3.181,31.57l0.658,6.401c0.593,5.785,1.224,11.58,1.889,17.566
		c0.03,1.674,0.77,2.623,2.205,2.813c0.061,0.01,0.31,0.023,0.371,0.023c1.724,0,2.237-1.506,2.533-2.362
		c0.148-0.373,0.287-0.756,0.422-1.14l0.365-1.005c2.343-6.712,4.692-13.389,7.121-20.253l1.509,4.89
		c1.754,5.688,3.506,11.374,5.291,17.063c0.04,0.121,0.051,0.261,0.07,0.404c0.091,0.662,0.372,2.677,2.67,2.677h0.065
		c0.848-0.023,1.518-0.292,1.99-0.809c0.726-0.791,0.661-1.817,0.61-2.763c1.855-12.617,3.643-25.253,5.437-37.905l0.72-5.086
		c0.211-1.513,0.435-3.018,0.656-4.525c0.34-2.286,0.68-4.567,1.024-7.096c0.139-0.534,0.393-1.526-0.234-2.379
		C677.111,374.519,676.465,374.21,675.366,374.154z"/>
	<path opacity="0.3" fill="#DA4A69" enable-background="new    " d="M570.574,437.745c-2.083,0-4.401-1.285-4.668-4.892
		c-0.532-2.71-1.026-5.329-1.467-7.971c-1.3,0.015-2.486,0.027-3.672,0.027c-2.144,0-4.272-0.034-6.401-0.08
		c-0.395,1.973-0.821,3.877-1.254,5.785l-0.593,2.657c-0.874,3.923-3.649,4.348-4.804,4.348l-0.988-0.095
		c-1.46-0.251-2.63-1.049-3.284-2.243c-1.011-1.897-0.22-3.653,0.046-4.227l11.502-55.304c0.114-0.551,0.228-0.924,0.312-1.14
		c1.072-2.695,2.942-3.261,4.326-3.261l0.973,0.103c2.037,0.46,3.383,1.889,3.71,3.93c0.334,1.589,0.593,2.801,0.821,4.059
		c3.33,17.146,6.636,34.376,9.905,51.586c0.319,0.631,1.064,2.402,0.038,4.295c-0.464,0.867-1.444,1.973-3.451,2.319
		L570.574,437.745z M562.653,415.468l-3.064-15.8l-3.322,15.774l1.087-0.008L562.653,415.468z"/>
	<path fill="#E63168" d="M562.967,379.842c-0.232-1.233-0.483-2.429-0.735-3.647l-0.097-0.456c-0.236-1.44-1.19-1.947-1.981-2.127
		c-0.092-0.02-0.429-0.053-0.525-0.053c-1.536,0-2.061,1.338-2.272,1.874c-0.036,0.093-0.099,0.308-0.115,0.404
		c-0.009,0.036-0.085,0.332-0.092,0.368c-3.886,18.558-7.765,37.143-11.653,55.76c-0.197,0.438-0.601,1.349-0.113,2.262
		c0.222,0.418,0.708,0.95,1.74,1.131c0.086,0.013,0.505,0.055,0.592,0.055c2.073,0,2.509-1.976,2.651-2.623l0.466-2.073
		c0.564-2.516,1.13-5.031,1.61-7.551c0.062-0.317,0.112-0.53,0.065-0.564c0.101-0.006,0.351-0.019,0.351-0.019
		c4.306,0.118,8.561,0.174,13.01,0.053c0.234-0.002,0.34,0.034,0.371,0.017c0.053,0.101,0.118,0.348,0.188,0.713
		c0.488,3.012,1.041,5.966,1.647,8.914c0.026,0.124,0.031,0.267,0.043,0.415c0.133,1.887,0.964,2.845,2.463,2.845
		c0.209,0,0.445-0.023,0.675-0.068c0.906-0.157,1.54-0.561,1.885-1.197c0.525-0.967,0.104-1.947-0.272-2.836
		C569.603,414.233,566.296,397.007,562.967,379.842z M565.332,417.697l-0.906-0.008c-2.402-0.023-4.747-0.046-7.073-0.046
		c-1.279,0-2.553,0.009-3.806,0.026l6.131-29.143L565.332,417.697z"/>
	<path opacity="0.3" fill="#DA4A69" enable-background="new    " d="M700.711,437.669c-1.543-0.247-2.721-1.034-3.383-2.224
		c-1.026-1.855-0.266-3.622-0.015-4.204l3.771-19.427l7.138-36.272l0.16-0.521c-0.023,0.087-0.046,0.125-0.046,0.125
		c-0.015,0,0.061-0.312,0.137-0.513c1.026-2.721,2.927-3.299,4.333-3.299l0.867,0.076c2.091,0.441,3.451,1.855,3.816,3.888
		l0.867,4.044c3.535,17.119,7.039,34.307,10.513,51.476c0.319,0.601,1.11,2.379,0.084,4.306c-0.449,0.863-1.414,1.984-3.406,2.353
		l-1.102,0.114c-2.6,0-4.432-1.9-4.668-4.846c-0.57-2.695-1.102-5.302-1.581-7.933c-2.25,0.053-4.348,0.08-6.439,0.08
		c-1.216,0-2.425-0.008-3.634-0.023c-0.426,2.243-0.874,4.379-1.33,6.515l-0.411,1.946c-0.821,3.976-3.641,4.405-4.812,4.405
		L700.711,437.669z M709.924,415.46c2.113-0.03,4.227-0.042,6.378-0.049l-3.254-15.77L709.924,415.46z"/>
	<path fill="#E63168" d="M716.192,379.787c-0.245-1.23-0.509-2.421-0.777-3.634l-0.105-0.463c-0.251-1.441-1.214-1.936-2.005-2.101
		c-0.089-0.017-0.41-0.048-0.5-0.048c-1.562,0-2.075,1.366-2.277,1.908c-0.017,0.042-0.093,0.344-0.105,0.387
		c-0.011,0.033-0.084,0.345-0.089,0.378c-3.668,18.605-7.324,37.233-10.994,55.899c-0.188,0.44-0.58,1.355-0.084,2.261
		c0.226,0.412,0.72,0.943,1.75,1.108c0.082,0.014,0.479,0.048,0.561,0.048c1.397,0,2.292-0.891,2.655-2.65l0.41-1.953
		c0.547-2.564,1.091-5.129,1.551-7.697c0.055-0.32,0.106-0.533,0.057-0.564c0.099-0.008,0.35-0.025,0.35-0.025
		c4.297,0.076,8.588,0.079,13.045-0.101c0.205,0,0.312,0.038,0.338,0.013c0.053,0.101,0.12,0.348,0.192,0.711
		c0.525,3.003,1.114,5.952,1.756,8.892c0.029,0.123,0.034,0.266,0.048,0.411c0.177,2.163,1.456,3.114,3.174,2.743
		c0.901-0.167,1.528-0.578,1.864-1.216c0.513-0.975,0.086-1.95-0.302-2.837C723.237,414.093,719.729,396.908,716.192,379.787z
		 M719.008,417.61l-1.224,0.004c-3.581,0.011-7.041,0.019-10.559,0.106l5.781-29.222L719.008,417.61z"/>
	<path opacity="0.3" fill="#DA4A69" enable-background="new    " d="M512.283,442.105c-2.752,0-4.569-1.889-4.614-4.808
		c-0.038-0.547-0.023-0.965-0.008-1.399l-0.038-18.697c-0.03-11.798-0.068-23.6-0.03-35.394c-1.308,0.084-2.349,0.106-3.39,0.106
		l-4.994-0.065l-2.189-0.072c-1.817-0.046-3.337-1.456-3.527-3.276l-0.16-1.399c-0.076-1.232,0.312-2.387,1.095-3.254
		c0.829-0.901,1.969-1.38,3.39-1.425l27.26-0.072c0.418-0.057,0.73-0.08,1.034-0.08c1.786,0,2.858,0.707,3.444,1.296
		c0.616,0.627,1.338,1.748,1.323,3.546c-0.106,2.904-1.969,4.736-4.736,4.736l0,0c-0.38,0-0.768-0.034-1.133-0.095
		c-1.665,0.034-3.406,0.076-5.146,0.076c-0.988,0-1.977-0.015-2.957-0.046c0.084,15.846,0.106,31.282,0.129,46.721l0.008,6.743
		c0.03,0.601,0.046,1.114,0.03,1.623c0.205,3.603-2.144,5.093-4.424,5.223L512.283,442.105z"/>
	<path fill="#E63168" d="M525.439,374.521l-0.37,0.036l-4.169-0.009c-3.613,0-7.228,0.017-10.841,0.03l-10.014,0.031
		c-0.704,0-1.411,0.003-2.135,0.017c-0.336,0.009-1.226,0.028-1.849,0.707c-0.269,0.294-0.578,0.811-0.526,1.624
		c0.017,0.236,0.047,0.466,0.081,0.718l0.073,0.597c0.073,0.724,0.673,1.279,1.4,1.296l2.121,0.07c0.822,0,1.647,0.017,2.472,0.034
		c2.123,0.042,4.238,0.084,6.325-0.141c0.842-0.085,1.414,0.019,1.515,0.121c0.104,0.104,0.277,0.485,0.276,1.868
		c-0.034,12.968,0.006,25.947,0.045,38.926l0.028,15.53c-0.019,0.368-0.03,0.721,0.006,1.28c0.034,2.182,1.33,2.638,2.41,2.638
		c0.029,0,0.213-0.005,0.241-0.008c1.144-0.067,2.482-0.608,2.345-3.088c0.017-0.46-0.003-0.918-0.034-1.549l-0.008-6.743
		c-0.025-16.017-0.047-32.03-0.177-48.031c0-0.631,0.078-0.869,0.061-0.894c0.059-0.016,0.298-0.05,0.975-0.056
		c3.096,0.148,6.213,0.095,9.318,0c0.109,0,0.23,0.028,0.359,0.047c1.453,0.238,3.214-0.072,3.31-2.482
		c0.006-0.839-0.227-1.503-0.696-1.975C527.389,374.519,526.446,374.398,525.439,374.521z"/>
	<path opacity="0.3" fill="#DA4A69" enable-background="new    " d="M776.334,437.821c-1.612,0-3.74-0.688-4.766-3.964
		l-14.603-35.235l-0.57,33.08c0,0.965,0,2.003-0.403,3.121c-0.494,1.072-1.581,2.581-4.189,2.581c-0.342,0-0.859-0.03-1.406-0.163
		c-1.817-0.426-3.793-2.072-3.33-5.283l0.236-18.469l0.57-36.246c-0.555-3.618,1.475-5.382,3.55-5.85l0.243-0.057l0.965-0.084
		c1.057,0,3.649,0.391,4.721,4.029l14.694,35.364c0.16-8.449,0.57-34.064,0.57-34.064c0.167-3.619,2.455-4.926,4.554-4.979
		c1.346,0.019,2.402,0.388,3.223,1.091c0.73,0.631,1.589,1.832,1.551,3.976l-0.403,26.504l-0.502,28.747
		c0.175,0.562,0.532,2.235-0.532,3.831c-0.494,0.73-1.437,1.669-3.162,1.976L776.334,437.821z"/>
	<path fill="#E63168" d="M777.227,373.805c-1.041,0.029-2.3,0.507-2.402,2.775c0,0.319-0.013,0.631-0.027,0.94l-0.129,7.672
		c-0.152,10.031-0.304,20.084-0.502,30.136c-0.038,1.8-0.158,3.607-0.296,5.447l-8.221-19.767c-3.417-8.225-6.83-16.45-10.263-24.67
		c-0.057-0.129-0.099-0.279-0.144-0.431c-0.243-0.819-1.009-2.893-3.33-2.361c-1.524,0.342-2.155,1.453-1.878,3.296
		c0.019,0.143,0.049,0.279,0.044,0.437l-0.576,36.242c-0.097,6.177-0.171,12.377-0.255,18.752c-0.295,2.049,0.926,2.651,1.672,2.826
		c0.327,0.078,0.661,0.095,0.886,0.095c1.055,0,1.748-0.342,2.106-1.128c0.268-0.73,0.274-1.461,0.279-2.401l0.751-43.688
		l18.573,44.765c0.059,0.136,0.101,0.286,0.152,0.444c0.224,0.726,0.751,2.429,2.666,2.429c0.2,0,0.416-0.019,0.623-0.061
		c0.772-0.135,1.346-0.481,1.71-1.026c0.563-0.842,0.354-1.779,0.167-2.649c0.184-9.571,0.344-19.156,0.506-28.741l0.397-26.506
		C779.78,374.335,778.43,373.827,777.227,373.805z"/>
	<path opacity="0.3" fill="#97C73E" enable-background="new    " d="M445.827,406.338c-1.878-0.038-3.755-0.08-5.633-0.08
		l-27.983,0.403c-0.654,0.008-2.95,0.122-2.95,0.122l-1.155-0.825c-0.35-0.357-0.768-1-0.745-2.026
		c0.046-5.519,0.304-10.487,0.783-15.17c0.334-3.288,0.829-7.161,1.931-10.954c0.312-1.087,0.783-2.512,1.596-3.9
		c0.471-0.817,1.923-3.318,5.04-3.318c0.798,0,1.65,0.16,2.615,0.498c2.874,1,4.949,2.946,6.606,4.721
		c1.574,1.669,3.056,3.565,4.554,5.808c0.129-0.585,0.266-1.167,0.41-1.748c1.323-5.367,2.972-11.57,5.914-17.336
		c0.867-1.676,1.984-3.592,3.763-5.146c1.307-1.155,2.79-1.767,4.272-1.767c1.558,0,3.086,0.669,4.409,1.942
		c2.311,2.235,3.504,4.972,4.531,7.587c2.22,5.701,3.459,11.597,4.379,16.614c0.053,0.285,0.106,0.566,0.16,0.851
		c0.175-0.247,0.35-0.498,0.532-0.741c1.604-2.205,3.527-4.736,5.945-6.857c1.133-1.007,2.189-1.688,3.292-2.132
		c0.76-0.3,1.444-0.441,2.098-0.441c1.117,0,2.699,0.433,3.885,2.493c1.186,2.049,1.634,4.249,1.999,6.332
		c1.003,5.755,1.247,11.528,1.346,16.416l0.091,7.077l-0.783,1.258c-0.525,0.54-1.239,0.817-2.113,0.817L445.827,406.338z
		 M459.693,399.044c3.489,0.118,6.986,0.262,10.483,0.41l-0.046-4.211c-0.076-3.82-0.19-7.647-0.563-11.448
		c-0.046-0.483-0.099-0.996-0.175-1.509c-0.091,0.148-4.303,7.237-4.303,7.237c-1.026,1.691-2.182,3.592-3.839,5.196
		c-1.27,1.22-2.478,1.809-3.702,1.809c-1.619,0-3.003-1.007-4.09-2.991c-1.041-1.9-1.733-3.907-2.334-5.793
		c-1.026-3.257-1.893-6.56-2.759-9.871c-0.646-2.467-1.285-4.934-2.007-7.381l-0.251-0.844c-0.464-1.577-0.912-3.086-1.558-4.462
		c-0.464,1.129-0.745,2.17-1.019,3.185c-0.753,2.824-1.391,5.682-2.022,8.537c-0.616,2.737-1.224,5.473-1.931,8.18
		c-0.783,2.98-1.558,5.922-3.079,8.678c-1.171,2.117-2.63,3.185-4.325,3.185c-1.429,0-2.782-0.764-4.143-2.338
		c-1.315-1.505-2.303-3.189-3.17-4.671l-1.346-2.349c-1.163-2.056-2.265-4.002-3.649-5.755c-0.601-0.779-1.064-1.224-1.558-1.498
		c-0.669,0.703-1.011,1.532-1.315,2.752c-1.3,5.177-1.536,10.418-1.688,15.93l6.728-0.224l12.497-0.357
		c1.832-0.068,3.656-0.133,5.489-0.133l1.209,0.011c8.202,0.144,12.307,0.304,14.36,0.711l2.357-0.011L459.693,399.044z"/>
	<path fill="#97C73E" d="M457.084,388.542c1.184-1.895,2.315-3.673,3.551-5.365c1.696-2.327,3.446-4.598,5.621-6.501
		c0.8-0.714,1.658-1.347,2.66-1.744c1.495-0.59,2.449-0.279,3.254,1.107c1.001,1.737,1.395,3.678,1.73,5.605
		c0.93,5.327,1.202,10.704,1.318,16.085c0.043,2.056,0.019,4.108,0.067,6.158c0.014,0.556-0.12,0.75-0.714,0.74
		c-5.526-0.101-11.042-0.172-16.567-0.256c-3.197-0.053-6.393-0.134-9.585-0.187c-3.388-0.058-6.776-0.173-10.169-0.115
		c-8.699,0.132-17.387,0.251-26.076,0.386c-0.68,0.009-1.361,0.019-2.046,0.062c-0.412,0.021-0.571-0.103-0.565-0.549
		c0.053-5.008,0.268-10.002,0.776-14.984c0.369-3.568,0.852-7.109,1.854-10.56c0.345-1.188,0.758-2.338,1.376-3.403
		c1.265-2.171,2.646-2.679,5.032-1.85c2.32,0.81,4.083,2.394,5.717,4.143c2.617,2.783,4.721,5.947,6.623,9.247
		c0.139,0.255,0.211,0.559,0.537,0.758c0.527-2.329,0.997-4.637,1.562-6.925c1.424-5.784,3.01-11.516,5.737-16.859
		c0.853-1.654,1.826-3.245,3.249-4.491c1.884-1.663,3.892-1.63,5.699,0.11c1.96,1.888,3.038,4.32,4.006,6.798
		c2.037,5.235,3.258,10.699,4.265,16.206C456.38,384.229,456.711,386.308,457.084,388.542z M455.431,401.237
		c1.404,0,2.794-0.036,4.184,0.012c4.04,0.137,8.075,0.31,12.115,0.484c0.494,0.012,0.69-0.101,0.676-0.625
		c-0.058-1.965-0.029-3.935-0.071-5.907c-0.072-3.882-0.187-7.764-0.571-11.625c-0.12-1.277-0.278-2.564-0.695-3.786
		c-0.417-1.236-1.117-1.39-2.061-0.503c-0.719,0.68-1.289,1.481-1.792,2.329c-1.356,2.253-2.669,4.522-4.021,6.772
		c-1.016,1.678-2.056,3.369-3.479,4.747c-1.84,1.766-3.091,1.574-4.322-0.664c-0.939-1.706-1.577-3.537-2.162-5.391
		c-1.797-5.674-3.077-11.499-4.754-17.21c-0.709-2.365-1.341-4.783-2.621-6.944c-1.002-1.692-1.865-1.661-2.775,0.091
		c-0.786,1.505-1.236,3.139-1.677,4.778c-1.486,5.54-2.511,11.2-3.963,16.733c-0.733,2.801-1.461,5.617-2.871,8.174
		c-1.428,2.571-2.942,2.703-4.869,0.469c-1.155-1.328-2.046-2.834-2.938-4.346c-1.672-2.823-3.115-5.768-5.161-8.356
		c-0.628-0.802-1.308-1.545-2.209-2.053c-1.237-0.68-2.262-0.448-3.077,0.693c-0.752,1.037-1.165,2.236-1.467,3.448
		c-1.495,5.986-1.635,12.113-1.802,18.226c-0.024,0.685,0.441,0.484,0.781,0.477c2.76-0.069,5.516-0.17,8.272-0.256
		c3.144-0.086,6.283-0.167,9.422-0.254c3.225-0.081,6.446-0.282,9.671-0.225C445.942,400.605,455.431,401.189,455.431,401.237z"/>
	<path opacity="0.3" fill="#73C19A" enable-background="new    " d="M425.112,433.469c-0.927,0-1.87-0.103-2.813-0.308
		c-4.926-1.057-9.175-2.744-12.984-5.154l-0.699-0.49c-1.855-1.475-2.509-3.763-1.612-5.591c0.768-1.501,2.478-2.493,4.287-2.493
		h0.304l0.981,0.175c1.429,0.395,2.79,1.003,4.143,1.619l1.361,0.604c2.372,1.007,4.105,1.741,5.914,2.136
		c0.334,0.076,0.639,0.11,0.943,0.11c0.388,0,0.76-0.061,1.14-0.186c1.756-0.585,3.39-1.475,5.025-2.353l2.098-1.106
		c1.665-0.855,3.345-1.688,5.078-2.436c2.372-1.015,4.835-1.528,7.313-1.528c2.569,0,5.238,0.551,7.929,1.638
		c2.197,0.886,4.31,1.938,6.363,3.071c2.569,1.414,5.2,2.102,8.043,2.102c0.41,0,3.041-0.068,3.041-0.068
		c1.718,0.011,3.14,0.768,3.9,2.072c0.768,1.319,0.707,2.953-0.152,4.481c-1.193,2.121-3.238,2.744-4.668,3.029
		c-0.509,0.106-1.057,0.148-1.551,0.182c-3.983-0.106-6.895-1.041-9.715-1.946l-2.341-0.76c-2.874-0.939-5.747-1.878-8.689-2.581
		c-1.353-0.323-2.691-0.487-3.983-0.487c-2.889,0-5.618,0.779-8.354,2.379l-3.596,2.018
		C429.658,432.838,427.4,433.469,425.112,433.469z"/>
	<path fill="#73C19A" d="M467.944,430.801c-3.019-0.125-5.751-0.997-8.488-1.874c-3.713-1.189-7.394-2.481-11.199-3.389
		c-4.97-1.186-9.589-0.419-13.961,2.138c-1.178,0.685-2.387,1.325-3.575,2.008c-2.488,1.428-5.109,1.936-7.961,1.322
		c-4.361-0.939-8.487-2.475-12.264-4.866c-0.197-0.113-0.369-0.247-0.541-0.381c-1.016-0.8-1.409-1.964-0.968-2.864
		c0.469-0.927,1.84-1.488,2.99-1.162c1.826,0.503,3.503,1.385,5.238,2.126c2.061,0.872,4.102,1.785,6.307,2.264
		c1.093,0.242,2.157,0.22,3.235-0.136c2.631-0.873,4.984-2.346,7.437-3.588c1.635-0.834,3.273-1.648,4.955-2.377
		c4.539-1.941,9.048-1.685,13.548,0.129c2.109,0.849,4.145,1.866,6.12,2.957c3.282,1.809,6.762,2.588,10.491,2.329
		c0.546-0.038,1.093-0.019,1.644-0.019c1.946,0.01,2.808,1.533,1.84,3.261c-0.695,1.232-1.883,1.69-3.177,1.951
		C469.036,430.751,468.423,430.76,467.944,430.801z"/>
	<path opacity="0.3" fill="#73C19A" enable-background="new    " d="M443.509,443.747l0.03-2.205l-0.578,2.201
		c-1.954-0.023-3.983-0.042-6.066-0.578c-2.288-0.589-3.679-2.3-3.618-4.462c0.03-2.201,1.543-3.904,3.869-4.303
		c2.63-0.449,5.299-0.673,7.944-0.673c1.482,0,2.965,0.068,4.447,0.209c2.281,0.22,3.923,1.843,4.105,4.044
		c0.19,2.509-1.148,4.531-3.406,5.162c-2.022,0.547-3.961,0.57-5.831,0.593l-0.859,0.015L443.509,443.747z"/>
	<path fill="#73C19A" d="M443.541,441.543c-2.046-0.029-4.093,0-6.096-0.513c-1.318-0.338-1.994-1.138-1.964-2.264
		c0.019-1.138,0.719-1.964,2.037-2.19c3.915-0.666,7.865-0.815,11.818-0.441c1.26,0.119,2.018,0.924,2.109,2.029
		c0.105,1.411-0.537,2.499-1.802,2.854C447.639,441.563,445.587,441.505,443.541,441.543z"/>
	<path opacity="0.3" fill="#73C19A" enable-background="new    " d="M421.372,444.328c-3.079-0.118-6.363-0.342-9.54-1.205
		c-0.844-0.22-2.455-0.642-3.657-1.973c-1.437-1.608-1.467-3.561-0.106-5.234c1.125-1.353,2.607-2.011,4.561-2.011l0.889,0.038
		c1.589,0.137,3.17,0.342,4.744,0.551c1.847,0.243,3.687,0.49,5.549,0.604c1.931,0.118,3.314,1.395,3.626,3.337
		c0.22,1.406-0.152,2.832-1.011,3.919c-0.867,1.095-2.129,1.756-3.55,1.862L421.372,444.328z"/>
	<path fill="#73C19A" d="M421.453,442.125c-3.192-0.125-6.158-0.35-9.044-1.131c-0.958-0.249-1.902-0.553-2.592-1.322
		c-0.7-0.782-0.71-1.539-0.038-2.358c0.939-1.131,2.176-1.282,3.56-1.169c3.451,0.295,6.868,0.944,10.333,1.155
		c0.93,0.057,1.443,0.573,1.581,1.483c0.264,1.659-0.882,3.11-2.545,3.235C422.219,442.063,421.726,442.101,421.453,442.125z"/>
	<path opacity="0.3" fill="#73C19A" enable-background="new    " d="M445.66,416.775c-2.22-0.095-4.728-0.205-7.26-0.692
		c-0.563-0.103-1.429-0.296-2.288-0.734c-2.212-1.14-2.547-2.756-2.44-3.915c0.16-1.726,1.733-3.314,3.581-3.618
		c1.505-0.236,3.003-0.315,4.508-0.315l1.125,0.015c1.581,0.023,3.178,0.091,4.774,0.156l2.531,0.103
		c3.626,0.08,4.287,2.6,4.401,3.368c0.334,2.224-1.117,4.39-3.375,5.04c-1.794,0.506-3.55,0.547-5.245,0.589L445.66,416.775z"/>
	<path fill="#73C19A" d="M445.76,414.569c-2.281-0.098-4.63-0.206-6.939-0.652c-0.594-0.11-1.174-0.263-1.711-0.537
		c-0.705-0.364-1.328-0.829-1.241-1.744c0.072-0.743,0.882-1.5,1.739-1.644c1.735-0.273,3.484-0.309,5.229-0.273
		c2.425,0.038,4.85,0.177,7.28,0.258c1.346,0.034,2.147,0.525,2.291,1.491c0.172,1.112-0.595,2.248-1.797,2.593
		C449.043,414.502,447.437,414.531,445.76,414.569z"/>
	<path opacity="0.3" fill="#73C19A" enable-background="new    " d="M419.981,416.369c-2.136,0-4.113-0.205-6.036-0.627
		c-1.034-0.224-2.524-0.703-3.466-2.239c-0.753-1.239-0.806-2.691-0.152-3.892c0.722-1.311,2.167-2.121,3.869-2.155l5.565-0.008
		c2.014,0,4.021,0.046,6.028,0.357c1.999,0.312,3.208,1.76,3.238,3.869c0.061,2.782-1.672,4.021-3.17,4.23
		C423.904,416.19,421.942,416.369,419.981,416.369z"/>
	<path fill="#73C19A" d="M418.424,409.657c2.344-0.01,4.692-0.034,7.021,0.33c0.954,0.149,1.366,0.686,1.38,1.72
		c0.024,1.122-0.407,1.889-1.274,2.011c-3.719,0.549-7.438,0.678-11.138-0.132c-0.805-0.175-1.577-0.462-2.046-1.237
		c-0.791-1.298,0.129-2.65,1.874-2.691C415.635,409.623,417.029,409.657,418.424,409.657z"/>
	<path opacity="0.3" fill="#73C19A" enable-background="new    " d="M464.824,444.382c-1.543,0-2.919-0.175-4.204-0.536
		c-2.607-0.711-3.322-2.341-3.459-3.58c-0.114-0.973,0.015-2.874,2.144-4.443c0.768-0.551,1.642-0.855,2.623-0.92
		c0.95-0.072,1.916-0.106,2.874-0.106c2.007,0,4.014,0.156,6.013,0.464c0.502,0.084,1.011,0.236,1.482,0.445
		c1.262,0.543,2.113,1.505,2.395,2.71c0.281,1.19-0.068,2.471-0.958,3.516c-1.657,1.954-3.915,2.208-5.565,2.395
		c-0.464,0.046-0.791,0.057-1.125,0.057H464.824z"/>
	<path fill="#73C19A" d="M465.763,442.154c-1.533,0.068-3.048-0.012-4.543-0.431c-0.92-0.254-1.749-0.647-1.865-1.696
		c-0.119-1.04,0.446-1.828,1.256-2.43c0.432-0.312,0.935-0.46,1.462-0.493c2.813-0.206,5.612-0.093,8.401,0.338
		c0.317,0.055,0.643,0.156,0.939,0.286c1.28,0.551,1.533,1.73,0.642,2.779c-1.117,1.316-2.693,1.461-4.241,1.637
		C467.139,442.212,466.453,442.154,465.763,442.154z"/>
	<path opacity="0.3" fill="#73C19A" enable-background="new    " d="M467.493,416.601c-2.205,0-4.439-0.296-6.644-0.882
		c-1.11-0.293-1.984-0.798-2.676-1.543c-1.277-1.349-1.216-3.212,0.152-4.519c0.844-0.779,1.855-1.22,3.117-1.368
		c1.148-0.141,2.311-0.179,3.466-0.217c0.753-0.023,1.505-0.042,2.243-0.106l3.048,0.133c3.2,0.148,3.885,2.372,4.021,3.048
		c0.38,1.767-0.73,3.926-2.493,4.774c-1.019,0.487-2.045,0.601-2.919,0.646L467.493,416.601z"/>
	<path fill="#73C19A" d="M467.33,410.165c0.982,0.043,1.883,0.099,2.779,0.137c1.141,0.055,1.783,0.472,1.946,1.272
		c0.173,0.807-0.455,1.96-1.284,2.357c-0.656,0.314-1.366,0.393-2.075,0.432c-2.468,0.129-4.893-0.142-7.285-0.776
		c-0.618-0.163-1.169-0.431-1.62-0.911c-0.469-0.501-0.421-0.973,0.053-1.419c0.527-0.488,1.16-0.695,1.85-0.776
		C463.602,410.247,465.509,410.316,467.33,410.165z"/>
	<path opacity="0.3" fill="#4D98D1" enable-background="new    " d="M384.305,481.346c-14.246,0-25.831-11.589-25.831-25.835
		V344.489c0-14.246,11.585-25.835,25.831-25.835h631.382c14.246,0,25.839,11.589,25.839,25.835v111.022
		c0,14.246-11.593,25.835-25.839,25.835H384.305z M384.305,334.884c-5.298,0-9.609,4.306-9.609,9.605v111.022
		c0,5.299,4.31,9.605,9.609,9.605h631.382c5.299,0,9.609-4.306,9.609-9.605V344.489c0-5.299-4.31-9.605-9.609-9.605H384.305z"/>
	<path fill="#4D98D1" d="M1015.689,479.139h-631.38c-13.029,0-23.629-10.6-23.629-23.629V344.49c0-13.029,10.6-23.629,23.629-23.629
		h631.38c13.031,0,23.629,10.6,23.629,23.629v111.02C1039.318,468.538,1028.72,479.139,1015.689,479.139z M384.309,332.675
		c-6.515,0-11.814,5.299-11.814,11.815v111.02c0,6.515,5.299,11.814,11.814,11.814h631.38c6.513,0,11.814-5.299,11.814-11.814
		V344.49c0-6.516-5.301-11.815-11.814-11.815H384.309z"/>
</g>
</svg>
