<?xml version="1.0" encoding="utf-8"?>
<!-- Generator: Adobe Illustrator 17.1.0, SVG Export Plug-In . SVG Version: 6.00 Build 0)  -->
<!DOCTYPE svg PUBLIC "-//W3C//DTD SVG 1.1//EN" "http://www.w3.org/Graphics/SVG/1.1/DTD/svg11.dtd">
<svg version="1.1" id="圖層_1" xmlns="http://www.w3.org/2000/svg" xmlns:xlink="http://www.w3.org/1999/xlink" x="0px" y="0px"
	 viewBox="0 0 1400 800" enable-background="new 0 0 1400 800" xml:space="preserve">
<g>
	<path opacity="0.3" fill="#DA4A69" enable-background="new    " d="M955.278,459.232c-1.121,0-4.511,0-7.105-2.553
		c-2.674-2.633-2.674-6.111-2.674-7.252c0.108-34.432,0.108-68.803,0-103.221c0-6.003,3.686-9.73,9.643-9.73
		c0,0,9.306,0.222,11.683,0.222c2.418,0,4.822-0.06,7.225-0.263c0.919-0.068,1.796-0.101,2.647-0.101
		c19.745,0,29.294,18.286,29.766,31.271c0.352,9.858-2.066,17.421-7.995,24.526c6.902,5.511,11.534,13.431,13.221,22.744
		c2.336,13.086-1.62,26.936-10.089,35.283c-6.023,5.909-12.763,8.846-20.61,8.988l-25.497,0.087L955.278,459.232L955.278,459.232z
		 M969.135,442.315c2.917,0,5.673,0.075,8.576,0.155l1.972,0.048c5.321-0.007,9.251-2.526,12.29-7.941
		c3.255-5.733,4.146-11.811,2.674-18.077c-2.295-9.535-7.616-13.79-17.247-13.79c0,0-13.18,0.048-14.504,0.027
		c0.053,4.855,0.041,9.251,0.027,13.648v12.168c0.041,4.598,0.068,9.224-0.053,13.863
		C965.206,442.349,967.204,442.315,969.135,442.315z M975.847,386.073c4.781-0.007,7.739-1.709,10.466-6.085
		c2.633-4.226,3.539-9.021,2.7-14.241c-1.364-8.327-6.362-12.553-14.856-12.553c0,0-10.601,0.068-11.264,0.06
		c0.053,3.917,0.041,7.455,0.027,10.979c0,0,0,17.901-0.027,21.784c1.553-0.02,3.105-0.027,4.66-0.027
		C970.324,385.993,973.079,386.019,975.847,386.073z"/>
	<path fill="#E63168" d="M992.543,392.779c7.518-7.433,10.372-14.721,10.011-25.035c-0.442-11.891-9.258-28.91-28.178-27.395
		c-4.889,0.405-9.835,0.281-14.769,0.146l-4.459-0.094c-3.798,0-5.726,1.949-5.726,5.795c0.105,34.426,0.105,68.808,0,103.23
		c0,1.279,0.155,3.136,1.507,4.461c1.308,1.276,3.109,1.425,4.356,1.425h0.188c2.771-0.05,5.541-0.06,8.313-0.06l10.192,0.02
		c2.31,0,4.619-0.009,6.948-0.039c6.801-0.13,12.662-2.7,17.922-7.863c7.586-7.479,11.109-19.96,8.977-31.797
		C1006.049,405.707,1000.556,397.585,992.543,392.779z M989.63,382.061c-3.356,5.408-7.563,7.929-13.836,7.929h-0.02
		c-5.486-0.101-10.926-0.105-16.503,0.005l-0.274,2.45c-0.014,0-0.018-0.009-0.034-0.009l-0.469-2.477
		c0.183,0.053,0.435,0.304,0.496,0.483c-0.004-0.02-0.071-0.24-0.053-0.942c0.078-5.038,0.071-10.086,0.057-15.129l-0.004-4.859
		l0.011-5.287c0.02-4.765,0.034-9.535-0.064-14.372c-0.018-0.259-0.011-0.458-0.02-0.593c0.274-0.004,0.597-0.014,0.597-0.014
		c1.789,0.075,3.58,0.099,5.372,0.099l9.268-0.076c10.405,0,17.06,5.632,18.739,15.856
		C993.883,371.295,992.79,376.993,989.63,382.061z M959.911,446.522c-0.499,0-0.769-0.052-0.865-0.052h-0.034
		c-0.057-0.158-0.162-0.627-0.131-1.908c0.192-5.351,0.165-10.686,0.131-16.007l-0.023-5.884l0.011-6.291
		c0.019-5.662,0.034-11.327-0.064-17c-0.007-0.293,0-0.506-0.011-0.638c0.115-0.009,0.259-0.014,0.442-0.014v-2.469
		c0.004,0,0.004-0.002,0.004-0.002l0.236,2.477c2.411,0.083,4.825,0.11,7.225,0.11l10.567-0.055
		c11.452,0,18.336,5.502,21.054,16.806c1.721,7.256,0.695,14.287-3.059,20.9c-3.765,6.689-8.934,9.938-15.794,9.938l-1.549-0.03
		C972.191,446.243,966.947,446.073,959.911,446.522z"/>
	<path opacity="0.3" fill="#DA4A69" enable-background="new    " d="M1137.721,458.528c-3.592,0-5.673-1.567-6.779-2.876
		c-2.457-2.903-1.849-6.273-1.635-7.543c0-12.621-0.014-44.27-0.014-44.27c0-18.725-0.014-37.443-0.121-56.182
		c0-6.907,3.781-10.858,10.386-10.858c3.93,0.115,6.969,0.128,9.993,0.128l11.143-0.034c17.84,0,29.914,9.656,34.02,27.18
		c4.187,17.84-1.365,33.149-15.639,43.48c5.443,10.743,10.94,21.433,16.449,32.142l3.296,6.524l1.229,2.599
		c0.769,1.661,0.824,3.551,0.149,5.207c-0.675,1.675-2.054,3.004-3.754,3.633c-1.377,0.521-2.768,0.783-4.106,0.783
		c-5.969,0-8.86-4.923-9.602-6.428c-3.701-7.279-17.382-33.742-20.406-39.712c-3.377,0.115-6.604,0.176-9.805,0.176
		c-2.025,0-4.024-0.027-6.051-0.068c0.108,11.958,0.082,23.858-0.027,35.796c0.188,1.377,0.608,4.727-1.823,7.495
		c-1.107,1.263-3.161,2.782-6.685,2.823l-0.027,0.007h-0.192V458.528z M1163.746,395.723c3.269-0.007,5.699-1.053,8.32-3.633
		c4.241-4.187,6.685-10.588,6.712-17.551c0.014-6.895-2.363-13.235-6.497-17.382c-3.146-3.113-5.104-3.551-6.604-3.573
		c0,0-17.421,0-19.205-0.014c0.053,4.733,0.041,9.062,0.014,13.397l0.014,14.735c0.027,4.653,0.053,9.318-0.014,13.978
		c2.471-0.06,4.822-0.082,7.131-0.082C1157.02,395.6,1160.357,395.648,1163.746,395.723z"/>
	<path fill="#E63168" d="M1196.503,450.489l-0.821-1.739c-0.49-1.043-0.949-2.02-1.444-2.992l-1.56-3.036
		c-6.122-11.891-12.226-23.762-18.26-35.697c-0.117-0.215-0.256-0.433-0.48-0.748c14.994-9.345,21.02-24,16.952-41.312
		c-3.708-15.799-14.147-24.151-30.188-24.151l-11.148,0.034c-3.075,0-6.141-0.023-9.187-0.114l-0.81-0.016
		c-4.41,0-6.465,2.192-6.465,6.911c0.121,20.836,0.121,41.646,0.124,62.464c0.007,12.704,0.007,25.401-0.048,38.697
		c-0.183,1.068-0.487,2.85,0.75,4.315c0.837,0.993,2.119,1.496,3.802,1.496h0.162c1.665-0.02,2.94-0.524,3.791-1.496
		c1.256-1.43,1.043-3.228,0.911-4.299c-0.023-0.234-0.057-0.458-0.057-0.643c0.108-12.928,0.131-25.815,0-38.726
		c-0.007-0.56,0.027-0.883,0-1.002c0.158-0.02,0.473-0.023,0.896-0.034c6.603,0.21,13.003,0.213,19.981-0.071
		c1.036,0,1.34,0.06,2.118,1.615c3.13,6.154,6.303,12.289,9.474,18.43c3.768,7.284,7.54,14.57,11.244,21.902
		c0.743,1.476,3.438,5.721,8.846,3.702c0.672-0.249,1.208-0.767,1.485-1.437C1196.839,451.884,1196.814,451.136,1196.503,450.489z
		 M1142.557,374.266l0.02-7.319c0.02-5.609,0.048-11.219-0.048-16.801c-0.007-0.24,0.004-0.423-0.007-0.537
		c0.101-0.007,0.218-0.011,0.368-0.011v-2.505h0.004l0.112,2.505c2.928,0.059,5.852,0.078,8.775,0.078l9.943-0.023l3.994,0.016
		c3.194,0.035,6.074,1.494,9.332,4.726c4.878,4.878,7.664,12.228,7.641,20.157c-0.023,8.009-2.894,15.419-7.863,20.335
		c-3.296,3.244-6.712,4.754-11.139,4.754h-0.018c-6.664-0.135-13.143-0.204-20.372,0.069c-0.293,0-0.503-0.016-0.622-0.016
		c-0.03,0-0.06,0-0.082,0.005c-0.041-0.183-0.083-0.563-0.068-1.284c0.108-5.562,0.082-11.13,0.053-16.694L1142.557,374.266z"/>
	<path opacity="0.3" fill="#DA4A69" enable-background="new    " d="M1047.654,458.914c-0.959,0-1.945-0.149-2.917-0.432
		c-3.161-0.911-4.605-2.876-5.268-4.369c-1.418-3.16-0.108-5.95,0.391-6.996l8.737-36.937l15.437-64.529
		c0.473-8.226,6.699-9.055,8.59-9.116c0,0,0,0,0.014,0c2.119,0,8.67,0.661,9.265,9.048c7.549,32.001,24.026,101.885,24.026,101.885
		l0.379,1.924c0.405,2.599-0.108,4.807-1.54,6.564c-0.933,1.162-2.729,2.64-5.861,2.843c-0.014,0-0.027,0-0.027,0
		c-5.403,0-8.886-2.729-9.872-7.476c-0.54-2.688-1.148-5.314-1.769-7.941c-0.716-3.026-1.405-5.969-1.984-8.92
		c-3.877,0.412-8.346,0.453-12.749,0.453c-4.12,0-8.185-0.034-12.262-0.108c-0.162,1.803-0.702,3.997-1.27,6.186
		c-0.837,3.336-1.661,6.664-2.377,10.041C1055.352,456.841,1051.167,458.914,1047.654,458.914z M1081.568,418.291
		c-0.769-3.207-8.522-35.984-8.522-35.984l-8.59,35.951l7.792-0.027C1075.381,418.229,1078.474,418.25,1081.568,418.291z"/>
	<path fill="#E63168" d="M1100.602,441.948c-7.476-31.721-14.957-63.456-22.516-95.196c-0.064-0.27-0.075-0.574-0.094-0.883
		c-0.094-1.34-0.378-5.42-5.246-5.42c-4.511,0.144-4.754,4.106-4.834,5.411c-0.014,0.259-0.02,0.513-0.064,0.707
		c-8.147,33.844-16.193,67.783-24.421,102.178c-0.368,0.776-1.057,2.221-0.357,3.788c0.462,1.039,1.373,1.78,2.771,2.191
		c0.631,0.181,1.238,0.265,1.814,0.265c1.233,0,4.196-0.462,5.111-4.774c0.719-3.418,1.57-6.799,2.418-10.187
		c0.652-2.606,1.306-5.211,1.908-7.849c0.226-1.006,0.419-1.206,0.419-1.206s0.281-0.114,1.233-0.119
		c9.38,0.197,18.604,0.163,28.432,0.023c0.993,0,1.236,0.151,1.236,0.151v0.004c0,0,0.22,0.22,0.423,1.286
		c0.625,3.4,1.421,6.778,2.219,10.158c0.627,2.67,1.263,5.346,1.8,8.044c0.588,2.853,2.4,4.369,5.756,4.369h0.052
		c1.361-0.089,2.393-0.567,3.082-1.42c0.689-0.853,0.933-1.944,0.695-3.454c-0.108-0.449-0.188-0.927-0.352-1.784L1100.602,441.948z
		 M1086.563,422.292c-0.105,0.007-0.229-0.028-0.364,0.007c-4.626-0.115-9.254-0.146-13.944-0.146l-12.775,0.03
		c4.511-18.933,8.943-37.511,13.562-56.786c3.049,12.898,5.973,25.176,8.91,37.456l0.76,3.244
		c1.233,5.239,2.452,10.455,3.738,15.682C1086.496,421.979,1086.533,422.149,1086.563,422.292z"/>
	<path opacity="0.3" fill="#DA4A69" enable-background="new    " d="M515.843,463.27c-4.457-0.521-6.982-3.741-7.454-9.569
		c-0.972-8.151-1.013-15.47-1.054-22.561l-0.162-10.528c-0.229-9.149-0.458-18.537,1.35-28.031
		c0.769-4.004,1.984-7.455,3.727-10.574c3.161-5.651,8.332-8.771,14.586-8.771c9.643,0.323,12.763,8.17,13.802,10.75
		c2.903,7.279,3.66,14.802,4.052,21.845c0.743,13.896,0.217,27.395-0.798,43.386c-0.108,1.553-0.323,3.086-0.554,4.632
		c-0.798,5.841-3.038,8.643-6.82,9.272c-0.188,0.007-0.378,0.007-0.567,0.007c-3.322,0-6.834-1.027-8.576-6.259
		c-0.432-1.121-0.837-2.235-1.215-3.349c-0.121,0.357-0.243,0.716-0.364,1.073c-1.647,7.312-5.673,8.751-8.792,8.751L515.843,463.27
		z"/>
	<path fill="#E63168" d="M537,385.44c-0.966-2.407-3.24-8.051-10.166-8.284c-4.834,0-8.698,2.338-11.166,6.763
		c-1.526,2.732-2.606,5.801-3.292,9.395c-1.736,9.114-1.507,18.308-1.286,27.205c0.055,2.228,0.11,4.461,0.135,6.682l0.025,3.884
		c0.039,6.982,0.08,14.204,0.966,21.351l0.078,0.906c0.142,1.825,0.426,5.621,4.038,6.04c0.112,0.016,0.563,0.044,0.679,0.044
		c3.667,0,4.497-3.656,4.859-5.216c0.075-0.329,0.139-0.643,0.22-0.878c1.574-4.635,2.835-9.295,4.054-14.278
		c1.327,5.335,2.718,10.835,4.95,16.556c0.327,1.011,1.212,3.71,4.061,3.71c0.139,0,0.588-0.041,0.723-0.064
		c2.819-0.464,3.217-3.361,3.443-4.98l0.142-1c0.217-1.441,0.419-2.866,0.513-4.306c1.009-15.913,1.526-29.297,0.794-42.913
		C540.413,399.352,539.707,392.221,537,385.44z"/>
	<path opacity="0.3" fill="#DA4A69" enable-background="new    " d="M524.852,380.07c-1.189,0-2.363-0.108-3.539-0.323
		c-5.767-1.141-11.075-4.74-14.262-9.636c-2.768-4.289-3.715-9.176-2.674-13.754c2.553-11.432,10.94-18.826,21.365-18.826
		c1.283,0,2.606,0.115,3.944,0.357c5.767,0.972,10.738,4.031,13.951,8.616c3.161,4.53,4.335,10.135,3.322,15.781
		C545.137,372.095,535.223,380.07,524.852,380.07z"/>
	<path fill="#E63168" d="M529.005,341.742c-10.011-1.787-18.407,4.731-20.805,15.481c-0.807,3.553-0.046,7.371,2.144,10.75
		c2.617,4.02,6.982,6.982,11.695,7.915c0.929,0.179,1.867,0.263,2.816,0.263c8.43,0,16.78-6.667,18.235-14.566
		c0.837-4.623-0.112-9.18-2.67-12.834C537.813,345.037,533.752,342.545,529.005,341.742z"/>
	<path opacity="0.3" fill="#DA4A69" enable-background="new    " d="M635.203,459.603c-1.769,0-7.589-0.588-8.643-8.144
		l-8.563-27.766c-2.931,8.32-10.169,28.781-10.169,28.781c-1.444,4.328-4.214,6.644-8.13,6.644
		c-5.673-0.675-8.414-3.971-8.496-8.886c-1.162-10.292-2.283-20.596-3.336-30.886l-1.162-11.372
		c-1.917-18.672-3.836-37.397-5.658-56.101c-0.311-0.851-1.256-4.099,0.796-7.151c1.013-1.439,2.876-3.134,6.254-3.409
		c0,0,0.014,0,0.027,0c5.564,0,8.819,3.274,9.089,8.744l6.779,63.299c1.89-5.403,3.782-10.798,5.726-16.193
		c1.634-6.922,6.186-7.908,8.766-7.908c1.81,0.02,7.657,0.668,8.616,8.238l5.065,16.3l8.563-60.247l0.338-2.276
		c0.945-7.616,5.767-8.758,8.549-8.758c3.281,0.169,5.511,1.229,6.982,3.262c2.269,3.052,1.35,6.449,1.039,7.563
		c-0.499,3.951-1.094,7.968-1.702,11.987l-2.459,17.219c-3.187,22.479-6.374,44.931-9.67,67.357c0.149,1.196,0.323,4.395-2.08,7.003
		c-1.068,1.169-3.038,2.606-6.307,2.695l-0.053,0.007h-0.16V459.603z"/>
	<path fill="#E63168" d="M649.613,346.439c-3.99,0-4.457,3.697-4.66,5.321c-0.041,0.394-0.112,0.778-0.176,1.151
		c-0.071,0.419-0.142,0.833-0.179,1.187l-11.001,77.505l-1.611-5.172c-2.894-9.29-5.76-18.507-8.67-27.716
		c-0.075-0.22-0.085-0.473-0.115-0.732c-0.146-1.18-0.581-4.765-4.724-4.802c-3.798,0-4.589,3.329-4.889,4.58
		c-0.053,0.254-0.108,0.499-0.188,0.723c-2.636,7.385-5.22,14.767-7.803,22.157l-3.61,10.276c-0.153-1.107-0.29-2.208-0.416-3.308
		l-8.282-77.364c-0.192-4.125-2.468-5.024-4.815-5.024h-0.071c-1.503,0.124-2.613,0.698-3.303,1.7
		c-1.036,1.521-0.54,3.224-0.155,4.575c1.819,18.7,3.738,37.422,5.651,56.086l1.169,11.372c1.054,10.277,2.174,20.573,3.356,31.207
		c0.053,2.974,1.368,4.66,3.917,4.997c0.108,0.018,0.551,0.041,0.659,0.041c3.063,0,3.974-2.676,4.5-4.196
		c0.263-0.663,0.51-1.343,0.75-2.025l0.648-1.785c4.163-11.924,8.336-23.787,12.651-35.981l2.681,8.687
		c3.116,10.105,6.229,20.207,9.4,30.314c0.071,0.215,0.091,0.464,0.124,0.718c0.162,1.176,0.661,4.756,4.743,4.756h0.115
		c1.507-0.041,2.697-0.519,3.535-1.437c1.29-1.405,1.174-3.228,1.084-4.909c3.296-22.415,6.472-44.864,9.659-67.341l1.279-9.036
		c0.375-2.688,0.773-5.362,1.165-8.039c0.604-4.061,1.208-8.114,1.819-12.607c0.247-0.949,0.698-2.711-0.416-4.226
		C652.713,347.088,651.566,346.539,649.613,346.439z"/>
	<path opacity="0.3" fill="#DA4A69" enable-background="new    " d="M463.443,459.413c-3.701,0-7.819-2.283-8.293-8.691
		c-0.945-4.814-1.823-9.467-2.606-14.161c-2.31,0.027-4.417,0.048-6.524,0.048c-3.809,0-7.589-0.06-11.372-0.142
		c-0.702,3.505-1.459,6.888-2.228,10.277l-1.054,4.72c-1.553,6.969-6.483,7.725-8.535,7.725l-1.755-0.169
		c-2.594-0.446-4.672-1.864-5.834-3.985c-1.796-3.37-0.391-6.49,0.082-7.51l20.434-98.252c0.203-0.979,0.405-1.642,0.554-2.025
		c1.905-4.788,5.227-5.793,7.685-5.793l1.729,0.183c3.619,0.817,6.01,3.356,6.591,6.982c0.593,2.823,1.054,4.976,1.459,7.211
		c5.916,30.461,11.789,61.072,17.597,91.646c0.567,1.121,1.89,4.267,0.068,7.63c-0.824,1.54-2.565,3.505-6.131,4.12L463.443,459.413
		z M449.37,419.836l-5.443-28.07l-5.902,28.024l1.931-0.014L449.37,419.836z"/>
	<path fill="#E63168" d="M449.928,356.544c-0.412-2.191-0.858-4.315-1.306-6.479l-0.172-0.81c-0.419-2.558-2.114-3.459-3.519-3.779
		c-0.163-0.036-0.762-0.094-0.933-0.094c-2.729,0-3.661,2.377-4.036,3.329c-0.064,0.165-0.176,0.547-0.204,0.718
		c-0.016,0.064-0.151,0.59-0.163,0.654c-6.904,32.97-13.795,65.987-20.702,99.062c-0.35,0.778-1.068,2.397-0.201,4.019
		c0.394,0.743,1.258,1.688,3.091,2.009c0.153,0.023,0.897,0.098,1.052,0.098c3.683,0,4.457-3.511,4.71-4.66l0.828-3.683
		c1.002-4.47,2.008-8.938,2.86-13.415c0.11-0.563,0.199-0.942,0.115-1.002c0.179-0.011,0.624-0.034,0.624-0.034
		c7.65,0.21,15.209,0.309,23.113,0.094c0.416-0.004,0.604,0.06,0.659,0.03c0.094,0.179,0.21,0.618,0.334,1.267
		c0.867,5.351,1.849,10.599,2.926,15.836c0.046,0.22,0.055,0.474,0.076,0.737c0.236,3.352,1.713,5.054,4.376,5.054
		c0.371,0,0.791-0.041,1.199-0.121c1.61-0.279,2.736-0.997,3.349-2.127c0.933-1.718,0.185-3.459-0.483-5.038
		C461.718,417.642,455.842,387.039,449.928,356.544z M454.13,423.796l-1.61-0.014c-4.267-0.041-8.433-0.082-12.566-0.082
		c-2.272,0-4.536,0.016-6.762,0.046l10.892-51.775L454.13,423.796z"/>
	<path opacity="0.3" fill="#DA4A69" enable-background="new    " d="M694.641,459.278c-2.741-0.439-4.834-1.837-6.01-3.951
		c-1.823-3.296-0.473-6.435-0.027-7.469l6.699-34.513l12.681-64.44l0.284-0.926c-0.041,0.155-0.082,0.222-0.082,0.222
		c-0.027,0,0.108-0.554,0.243-0.911c1.823-4.834,5.2-5.861,7.698-5.861l1.54,0.135c3.715,0.784,6.131,3.296,6.779,6.907l1.54,7.184
		c6.28,30.413,12.505,60.949,18.677,91.451c0.567,1.068,1.972,4.226,0.149,7.65c-0.798,1.533-2.512,3.525-6.051,4.18l-1.958,0.203
		c-4.619,0-7.874-3.375-8.293-8.609c-1.013-4.788-1.958-9.419-2.809-14.094c-3.997,0.094-7.725,0.142-11.439,0.142
		c-2.16,0-4.308-0.014-6.456-0.041c-0.757,3.985-1.553,7.78-2.363,11.574l-0.73,3.457c-1.459,7.064-6.469,7.826-8.549,7.826
		L694.641,459.278z M711.008,419.822c3.754-0.053,7.51-0.075,11.331-0.087l-5.781-28.017L711.008,419.822z"/>
	<path fill="#E63168" d="M722.144,356.446c-0.435-2.185-0.904-4.301-1.38-6.456l-0.187-0.823c-0.446-2.56-2.157-3.439-3.562-3.733
		c-0.158-0.03-0.728-0.085-0.888-0.085c-2.775,0-3.686,2.427-4.045,3.39c-0.03,0.075-0.165,0.611-0.187,0.688
		c-0.019,0.059-0.149,0.613-0.158,0.672c-6.517,33.053-13.012,66.147-19.532,99.309c-0.334,0.782-1.03,2.407-0.149,4.017
		c0.401,0.732,1.279,1.675,3.109,1.968c0.146,0.025,0.851,0.085,0.997,0.085c2.482,0,4.072-1.583,4.717-4.708l0.728-3.47
		c0.972-4.555,1.938-9.112,2.755-13.674c0.098-0.569,0.188-0.947,0.101-1.002c0.176-0.014,0.622-0.044,0.622-0.044
		c7.634,0.135,15.257,0.14,23.175-0.179c0.364,0,0.554,0.068,0.6,0.023c0.094,0.179,0.213,0.618,0.341,1.263
		c0.933,5.335,1.979,10.574,3.12,15.797c0.051,0.218,0.06,0.473,0.085,0.73c0.314,3.843,2.587,5.532,5.639,4.873
		c1.601-0.297,2.715-1.027,3.312-2.16c0.911-1.732,0.153-3.464-0.537-5.04C734.66,417.394,728.427,386.863,722.144,356.446z
		 M727.146,423.642l-2.174,0.007c-6.362,0.02-12.509,0.034-18.759,0.188l10.27-51.915L727.146,423.642z"/>
	<path opacity="0.3" fill="#DA4A69" enable-background="new    " d="M359.884,467.159c-4.889,0-8.117-3.356-8.197-8.542
		c-0.068-0.972-0.041-1.714-0.014-2.485l-0.068-33.217c-0.053-20.96-0.121-41.927-0.053-62.88c-2.324,0.149-4.173,0.188-6.023,0.188
		l-8.872-0.115l-3.889-0.128c-3.228-0.082-5.928-2.587-6.266-5.82l-0.284-2.485c-0.135-2.189,0.554-4.241,1.945-5.781
		c1.473-1.601,3.498-2.452,6.023-2.532l48.429-0.128c0.743-0.101,1.297-0.142,1.837-0.142c3.173,0,5.077,1.256,6.118,2.302
		c1.094,1.114,2.377,3.105,2.35,6.3c-0.188,5.159-3.498,8.414-8.414,8.414l0,0c-0.675,0-1.364-0.06-2.013-0.169
		c-2.958,0.06-6.051,0.135-9.142,0.135c-1.755,0-3.512-0.027-5.253-0.082c0.149,28.152,0.188,55.575,0.229,83.003l0.014,11.979
		c0.053,1.068,0.082,1.979,0.053,2.883c0.364,6.401-3.809,9.048-7.86,9.279L359.884,467.159z"/>
	<path fill="#E63168" d="M383.257,347.091l-0.657,0.064l-7.407-0.016c-6.419,0-12.841,0.03-19.26,0.053l-17.791,0.055
		c-1.251,0-2.507,0.005-3.793,0.03c-0.597,0.016-2.178,0.05-3.285,1.256c-0.478,0.522-1.027,1.441-0.934,2.885
		c0.03,0.419,0.083,0.828,0.144,1.276l0.13,1.061c0.13,1.286,1.196,2.272,2.487,2.302l3.768,0.124c1.46,0,2.926,0.03,4.392,0.06
		c3.772,0.075,7.529,0.149,11.237-0.25c1.496-0.151,2.512,0.034,2.692,0.215c0.185,0.185,0.492,0.862,0.49,3.319
		c-0.06,23.039,0.011,46.097,0.08,69.155l0.05,27.59c-0.034,0.654-0.053,1.281,0.011,2.274c0.06,3.876,2.363,4.687,4.282,4.687
		c0.052,0,0.378-0.009,0.428-0.014c2.032-0.119,4.409-1.08,4.166-5.486c0.03-0.817-0.005-1.631-0.06-2.752l-0.014-11.979
		c-0.044-28.455-0.083-56.904-0.314-85.331c0-1.121,0.139-1.544,0.108-1.588c0.105-0.028,0.529-0.089,1.732-0.099
		c5.5,0.263,11.038,0.169,16.554,0c0.194,0,0.409,0.05,0.638,0.083c2.581,0.423,5.71-0.128,5.88-4.409
		c0.011-1.491-0.403-2.67-1.236-3.509C386.721,347.088,385.046,346.873,383.257,347.091z"/>
	<path opacity="0.3" fill="#DA4A69" enable-background="new    " d="M828.99,459.548c-2.864,0-6.644-1.222-8.467-7.042
		l-25.943-62.598l-1.013,58.769c0,1.714,0,3.558-0.716,5.545c-0.878,1.904-2.809,4.585-7.442,4.585c-0.608,0-1.526-0.053-2.498-0.29
		c-3.228-0.757-6.739-3.681-5.916-9.386l0.419-32.812l1.013-64.394c-0.986-6.428,2.62-9.561,6.307-10.393l0.432-0.101l1.714-0.149
		c1.878,0,6.483,0.695,8.387,7.158l26.105,62.827c0.284-15.01,1.013-60.517,1.013-60.517c0.297-6.429,4.362-8.751,8.091-8.846
		c2.391,0.034,4.267,0.689,5.726,1.938c1.297,1.121,2.823,3.255,2.755,7.064l-0.716,47.086l-0.892,51.071
		c0.311,0.998,0.945,3.971-0.945,6.806c-0.878,1.297-2.553,2.965-5.618,3.511L828.99,459.548z"/>
	<path fill="#E63168" d="M830.577,345.819c-1.849,0.051-4.086,0.901-4.267,4.93c0,0.567-0.023,1.121-0.048,1.67l-0.229,13.63
		c-0.27,17.821-0.54,35.681-0.892,53.539c-0.068,3.198-0.281,6.408-0.526,9.677l-14.605-35.118
		c-6.07-14.612-12.134-29.225-18.233-43.828c-0.101-0.229-0.176-0.496-0.256-0.766c-0.432-1.455-1.793-5.14-5.916-4.194
		c-2.707,0.608-3.829,2.581-3.336,5.856c0.034,0.254,0.087,0.496,0.078,0.776l-1.023,64.387
		c-0.172,10.974-0.304,21.989-0.453,33.314c-0.524,3.64,1.645,4.71,2.97,5.021c0.581,0.139,1.174,0.169,1.574,0.169
		c1.874,0,3.105-0.608,3.742-2.004c0.476-1.297,0.487-2.596,0.496-4.266l1.334-77.615l32.996,79.528
		c0.105,0.242,0.179,0.508,0.27,0.789c0.398,1.29,1.334,4.315,4.736,4.315c0.355,0,0.739-0.034,1.107-0.108
		c1.371-0.24,2.391-0.855,3.038-1.823c1-1.496,0.629-3.16,0.297-4.706c0.327-17.004,0.611-34.032,0.899-51.06l0.705-47.09
		C835.112,346.761,832.714,345.858,830.577,345.819z"/>
	<path opacity="0.3" fill="#97C73E" enable-background="new    " d="M241.82,403.616c-3.336-0.068-6.671-0.142-10.007-0.142
		l-49.714,0.716c-1.162,0.014-5.241,0.217-5.241,0.217l-2.052-1.466c-0.622-0.634-1.364-1.777-1.324-3.599
		c0.082-9.805,0.54-18.631,1.391-26.951c0.593-5.841,1.473-12.722,3.431-19.461c0.554-1.931,1.391-4.463,2.835-6.929
		c0.837-1.451,3.416-5.895,8.954-5.895c1.418,0,2.931,0.284,4.646,0.885c5.106,1.777,8.792,5.234,11.736,8.387
		c2.796,2.965,5.429,6.333,8.09,10.318c0.229-1.039,0.473-2.073,0.728-3.105c2.35-9.535,5.28-20.555,10.507-30.799
		c1.54-2.978,3.525-6.381,6.685-9.142c2.322-2.052,4.957-3.139,7.59-3.139c2.768,0,5.483,1.189,7.833,3.45
		c4.106,3.971,6.225,8.833,8.05,13.479c3.944,10.128,6.145,20.603,7.78,29.516c0.094,0.506,0.188,1.006,0.284,1.512
		c0.311-0.439,0.622-0.885,0.945-1.316c2.85-3.917,6.266-8.414,10.562-12.182c2.013-1.789,3.889-2.999,5.848-3.788
		c1.35-0.533,2.565-0.783,3.727-0.783c1.984,0,4.795,0.769,6.902,4.429c2.107,3.64,2.903,7.549,3.551,11.249
		c1.782,10.224,2.215,20.48,2.391,29.164l0.162,12.573l-1.391,2.235c-0.933,0.959-2.201,1.451-3.754,1.451L241.82,403.616z
		 M266.454,390.658c6.198,0.21,12.411,0.465,18.624,0.728l-0.082-7.481c-0.135-6.787-0.338-13.585-1-20.338
		c-0.082-0.858-0.176-1.769-0.311-2.681c-0.162,0.263-7.645,12.857-7.645,12.857c-1.823,3.004-3.876,6.381-6.82,9.231
		c-2.256,2.167-4.402,3.214-6.577,3.214c-2.876,0-5.335-1.789-7.266-5.314c-1.849-3.375-3.079-6.941-4.147-10.292
		c-1.823-5.786-3.363-11.654-4.902-17.537c-1.148-4.383-2.283-8.766-3.566-13.113l-0.446-1.499c-0.824-2.802-1.62-5.483-2.768-7.927
		c-0.824,2.006-1.324,3.855-1.81,5.658c-1.338,5.017-2.471,10.095-3.592,15.167c-1.094,4.862-2.175,9.723-3.431,14.532
		c-1.391,5.294-2.768,10.521-5.47,15.417c-2.08,3.761-4.672,5.658-7.684,5.658c-2.539,0-4.942-1.357-7.36-4.154
		c-2.336-2.674-4.091-5.665-5.632-8.298l-2.391-4.173c-2.066-3.653-4.024-7.11-6.483-10.224c-1.068-1.384-1.89-2.175-2.768-2.661
		c-1.189,1.249-1.796,2.722-2.336,4.889c-2.31,9.197-2.729,18.508-2.999,28.301l11.953-0.398l22.202-0.634
		c3.255-0.121,6.495-0.236,9.752-0.236l2.148,0.02c14.571,0.256,21.864,0.54,25.512,1.263l4.187-0.02L266.454,390.658z"/>
	<path fill="#97C73E" d="M261.819,372c2.103-3.367,4.113-6.525,6.309-9.531c3.013-4.134,6.122-8.169,9.986-11.55
		c1.421-1.268,2.946-2.393,4.726-3.098c2.656-1.048,4.351-0.496,5.781,1.967c1.778,3.086,2.478,6.534,3.073,9.958
		c1.652,9.464,2.135,19.016,2.342,28.576c0.076,3.653,0.034,7.298,0.119,10.94c0.025,0.988-0.213,1.332-1.268,1.315
		c-9.817-0.179-19.617-0.306-29.432-0.455c-5.68-0.094-11.358-0.238-17.028-0.332c-6.019-0.103-12.038-0.307-18.066-0.204
		c-15.454,0.234-30.889,0.446-46.326,0.686c-1.208,0.016-2.418,0.034-3.635,0.11c-0.732,0.037-1.014-0.183-1.004-0.975
		c0.094-8.897,0.476-17.769,1.379-26.62c0.656-6.339,1.514-12.63,3.294-18.761c0.613-2.111,1.347-4.154,2.445-6.046
		c2.247-3.857,4.701-4.759,8.94-3.287c4.122,1.439,7.254,4.253,10.157,7.36c4.649,4.944,8.387,10.565,11.766,16.428
		c0.247,0.453,0.375,0.993,0.954,1.347c0.936-4.138,1.771-8.238,2.775-12.303c2.53-10.276,5.348-20.459,10.192-29.951
		c1.515-2.938,3.244-5.765,5.772-7.979c3.347-2.954,6.914-2.896,10.125,0.195c3.482,3.354,5.397,7.675,7.117,12.077
		c3.619,9.3,5.788,19.008,7.577,28.791C260.569,364.338,261.157,368.032,261.819,372z M258.883,394.554
		c2.494,0,4.964-0.064,7.433,0.021c7.177,0.243,14.346,0.551,21.523,0.86c0.878,0.021,1.226-0.179,1.201-1.11
		c-0.103-3.491-0.052-6.991-0.126-10.494c-0.128-6.897-0.332-13.793-1.014-20.653c-0.213-2.269-0.494-4.555-1.235-6.726
		c-0.741-2.196-1.984-2.469-3.661-0.894c-1.277,1.208-2.29,2.631-3.184,4.138c-2.409,4.003-4.742,8.034-7.144,12.031
		c-1.805,2.981-3.653,5.985-6.181,8.433c-3.269,3.137-5.491,2.796-7.678-1.18c-1.668-3.031-2.802-6.284-3.841-9.577
		c-3.193-10.08-5.467-20.429-8.446-30.575c-1.26-4.202-2.382-8.497-4.656-12.337c-1.78-3.006-3.313-2.951-4.93,0.162
		c-1.396,2.674-2.196,5.577-2.979,8.488c-2.64,9.842-4.461,19.898-7.041,29.727c-1.302,4.976-2.596,9.979-5.101,14.522
		c-2.537,4.568-5.227,4.802-8.65,0.833c-2.052-2.359-3.635-5.035-5.22-7.721c-2.97-5.015-5.534-10.247-9.169-14.845
		c-1.116-1.425-2.324-2.745-3.924-3.647c-2.198-1.208-4.019-0.796-5.467,1.231c-1.336,1.842-2.07,3.972-2.606,6.126
		c-2.656,10.635-2.905,21.52-3.201,32.38c-0.043,1.217,0.783,0.86,1.388,0.847c4.903-0.123,9.8-0.302,14.696-0.455
		c5.586-0.153,11.162-0.297,16.739-0.451c5.729-0.144,11.452-0.501,17.181-0.4C242.025,393.431,258.883,394.469,258.883,394.554z"/>
	<path opacity="0.3" fill="#73C19A" enable-background="new    " d="M205.019,451.816c-1.647,0-3.322-0.183-4.997-0.547
		c-8.751-1.878-16.3-4.875-23.067-9.156l-1.242-0.87c-3.296-2.62-4.457-6.685-2.864-9.933c1.364-2.667,4.402-4.429,7.616-4.429h0.54
		l1.743,0.311c2.539,0.702,4.957,1.782,7.36,2.876l2.418,1.073c4.214,1.789,7.293,3.093,10.507,3.795
		c0.593,0.135,1.135,0.195,1.675,0.195c0.689,0,1.35-0.108,2.025-0.33c3.12-1.039,6.023-2.62,8.927-4.18l3.727-1.965
		c2.958-1.519,5.943-2.999,9.021-4.328c4.214-1.803,8.59-2.715,12.992-2.715c4.564,0,9.306,0.979,14.086,2.91
		c3.903,1.574,7.657,3.443,11.304,5.456c4.564,2.512,9.238,3.734,14.289,3.734c0.728,0,5.403-0.121,5.403-0.121
		c3.052,0.02,5.578,1.364,6.929,3.681c1.364,2.343,1.256,5.246-0.27,7.961c-2.119,3.768-5.753,4.875-8.293,5.381
		c-0.904,0.188-1.878,0.263-2.755,0.323c-7.076-0.188-12.249-1.849-17.259-3.457l-4.159-1.35c-5.106-1.668-10.21-3.336-15.437-4.585
		c-2.404-0.574-4.781-0.865-7.076-0.865c-5.133,0-9.981,1.384-14.841,4.226l-6.389,3.585
		C213.095,450.695,209.084,451.816,205.019,451.816z"/>
	<path fill="#73C19A" d="M281.113,447.077c-5.363-0.222-10.217-1.771-15.08-3.329c-6.596-2.112-13.136-4.408-19.896-6.021
		c-8.83-2.107-17.036-0.744-24.803,3.798c-2.093,1.217-4.241,2.354-6.351,3.567c-4.42,2.537-9.077,3.439-14.143,2.349
		c-7.748-1.668-15.078-4.397-21.788-8.645c-0.35-0.201-0.656-0.439-0.961-0.677c-1.805-1.421-2.503-3.489-1.72-5.088
		c0.833-1.647,3.269-2.644,5.312-2.064c3.244,0.894,6.223,2.461,9.306,3.777c3.662,1.549,7.287,3.171,11.205,4.022
		c1.942,0.43,3.832,0.391,5.747-0.242c4.674-1.551,8.854-4.168,13.212-6.374c2.905-1.482,5.815-2.928,8.803-4.223
		c8.064-3.448,16.074-2.993,24.069,0.229c3.747,1.508,7.364,3.315,10.873,5.253c5.831,3.214,12.013,4.598,18.638,4.138
		c0.97-0.068,1.942-0.034,2.921-0.034c3.457,0.018,4.989,2.723,3.269,5.793c-1.235,2.189-3.345,3.002-5.644,3.466
		C283.053,446.988,281.964,447.004,281.113,447.077z"/>
	<path opacity="0.3" fill="#73C19A" enable-background="new    " d="M237.702,470.076l0.053-3.917l-1.027,3.91
		c-3.471-0.041-7.076-0.075-10.777-1.027c-4.065-1.046-6.536-4.086-6.428-7.927c0.053-3.91,2.741-6.936,6.874-7.645
		c4.672-0.798,9.414-1.196,14.113-1.196c2.633,0,5.268,0.121,7.9,0.371c4.052,0.391,6.969,3.274,7.293,7.184
		c0.338,4.457-2.04,8.05-6.051,9.171c-3.592,0.972-7.037,1.013-10.359,1.053l-1.526,0.027L237.702,470.076z"/>
	<path fill="#73C19A" d="M237.759,466.161c-3.635-0.052-7.271,0-10.83-0.911c-2.342-0.6-3.542-2.022-3.489-4.022
		c0.034-2.022,1.277-3.489,3.619-3.891c6.955-1.183,13.973-1.448,20.996-0.783c2.238,0.211,3.585,1.642,3.747,3.605
		c0.187,2.507-0.954,4.44-3.201,5.07C245.04,466.196,241.394,466.093,237.759,466.161z"/>
	<path opacity="0.3" fill="#73C19A" enable-background="new    " d="M198.374,471.108c-5.47-0.21-11.304-0.608-16.949-2.141
		c-1.499-0.391-4.361-1.141-6.497-3.505c-2.553-2.857-2.606-6.326-0.188-9.299c1.999-2.404,4.632-3.573,8.103-3.573l1.579,0.068
		c2.823,0.243,5.632,0.608,8.428,0.979c3.281,0.432,6.55,0.871,9.858,1.073c3.431,0.21,5.888,2.478,6.442,5.928
		c0.391,2.498-0.27,5.031-1.796,6.962c-1.54,1.945-3.782,3.12-6.307,3.308L198.374,471.108z"/>
	<path fill="#73C19A" d="M198.518,467.195c-5.671-0.222-10.94-0.622-16.067-2.009c-1.702-0.442-3.379-0.982-4.605-2.349
		c-1.244-1.389-1.261-2.734-0.068-4.189c1.668-2.009,3.866-2.278,6.325-2.077c6.131,0.524,12.202,1.677,18.357,2.052
		c1.652,0.101,2.564,1.018,2.809,2.635c0.469,2.947-1.567,5.525-4.521,5.747C199.879,467.084,199.003,467.152,198.518,467.195z"/>
	<path opacity="0.3" fill="#73C19A" enable-background="new    " d="M241.524,422.158c-3.944-0.169-8.4-0.364-12.898-1.229
		c-1-0.183-2.539-0.526-4.065-1.304c-3.93-2.025-4.525-4.896-4.335-6.955c0.284-3.066,3.079-5.888,6.362-6.428
		c2.674-0.419,5.335-0.56,8.009-0.56l1.999,0.027c2.809,0.041,5.646,0.162,8.481,0.277l4.497,0.183
		c6.442,0.142,7.616,4.619,7.819,5.984c0.593,3.951-1.984,7.799-5.996,8.954c-3.187,0.899-6.307,0.972-9.318,1.046L241.524,422.158z
		"/>
	<path fill="#73C19A" d="M241.701,418.239c-4.052-0.174-8.226-0.366-12.328-1.158c-1.055-0.195-2.086-0.467-3.04-0.954
		c-1.252-0.647-2.359-1.473-2.205-3.098c0.128-1.32,1.567-2.665,3.089-2.921c3.082-0.485,6.19-0.549,9.29-0.485
		c4.308,0.068,8.616,0.314,12.933,0.458c2.391,0.06,3.814,0.933,4.07,2.649c0.306,1.976-1.057,3.994-3.192,4.607
		C247.534,418.12,244.681,418.172,241.701,418.239z"/>
	<path opacity="0.3" fill="#73C19A" enable-background="new    " d="M195.903,421.437c-3.795,0-7.307-0.364-10.723-1.114
		c-1.837-0.398-4.484-1.249-6.158-3.978c-1.338-2.201-1.432-4.781-0.27-6.914c1.283-2.329,3.85-3.768,6.874-3.829l9.887-0.014
		c3.578,0,7.144,0.082,10.709,0.634c3.551,0.554,5.699,3.127,5.753,6.874c0.108,4.942-2.97,7.144-5.632,7.515
		C202.873,421.119,199.387,421.437,195.903,421.437z"/>
	<path fill="#73C19A" d="M193.137,409.513c4.164-0.018,8.336-0.06,12.473,0.586c1.695,0.265,2.427,1.219,2.452,3.056
		c0.043,1.993-0.723,3.356-2.263,3.573c-6.607,0.975-13.214,1.205-19.787-0.234c-1.43-0.311-2.802-0.821-3.635-2.198
		c-1.405-2.306,0.229-4.708,3.329-4.781C188.182,409.452,190.659,409.513,193.137,409.513z"/>
	<path opacity="0.3" fill="#73C19A" enable-background="new    " d="M275.57,471.204c-2.741,0-5.186-0.311-7.469-0.952
		c-4.632-1.263-5.902-4.159-6.145-6.36c-0.203-1.729,0.027-5.106,3.809-7.893c1.364-0.979,2.917-1.519,4.66-1.634
		c1.688-0.128,3.404-0.188,5.106-0.188c3.566,0,7.131,0.277,10.683,0.824c0.892,0.149,1.796,0.419,2.633,0.791
		c2.242,0.965,3.754,2.674,4.255,4.814c0.499,2.114-0.121,4.39-1.702,6.246c-2.944,3.471-6.955,3.923-9.887,4.255
		c-0.824,0.082-1.405,0.101-1.999,0.101h-3.944V471.204z"/>
	<path fill="#73C19A" d="M277.238,467.246c-2.723,0.121-5.415-0.021-8.071-0.766c-1.634-0.451-3.107-1.149-3.313-3.013
		c-0.211-1.848,0.792-3.248,2.231-4.317c0.768-0.554,1.661-0.817,2.597-0.876c4.997-0.366,9.97-0.165,14.925,0.6
		c0.563,0.098,1.142,0.277,1.668,0.508c2.274,0.979,2.723,3.073,1.141,4.937c-1.984,2.338-4.784,2.596-7.534,2.908
		C279.683,467.349,278.464,467.246,277.238,467.246z"/>
	<path opacity="0.3" fill="#73C19A" enable-background="new    " d="M280.312,421.849c-3.917,0-7.886-0.526-11.804-1.567
		c-1.972-0.521-3.525-1.418-4.754-2.741c-2.269-2.397-2.16-5.706,0.27-8.028c1.499-1.384,3.296-2.167,5.538-2.43
		c2.04-0.25,4.106-0.318,6.158-0.386c1.338-0.041,2.674-0.075,3.985-0.188l5.415,0.236c5.685,0.263,6.902,4.214,7.144,5.415
		c0.675,3.139-1.297,6.975-4.429,8.481c-1.81,0.865-3.633,1.068-5.186,1.148L280.312,421.849z"/>
	<path fill="#73C19A" d="M280.022,410.415c1.745,0.076,3.345,0.176,4.937,0.243c2.027,0.098,3.168,0.839,3.457,2.26
		c0.307,1.434-0.808,3.482-2.281,4.187c-1.165,0.558-2.427,0.698-3.686,0.767c-4.385,0.229-8.693-0.252-12.942-1.379
		c-1.098-0.29-2.077-0.766-2.878-1.618c-0.833-0.89-0.748-1.729,0.094-2.521c0.936-0.867,2.061-1.235,3.287-1.379
		C273.399,410.561,276.787,410.684,280.022,410.415z"/>
	<path opacity="0.3" fill="#4D98D1" enable-background="new    " d="M132.522,536.873c-25.309,0-45.891-20.589-45.891-45.898
		V293.737c0-25.309,20.582-45.898,45.891-45.898h1121.696c25.309,0,45.905,20.589,45.905,45.898v197.239
		c0,25.309-20.596,45.898-45.905,45.898H132.522z M132.522,276.673c-9.412,0-17.071,7.65-17.071,17.064v197.239
		c0,9.414,7.657,17.064,17.071,17.064h1121.696c9.414,0,17.071-7.65,17.071-17.064V293.737c0-9.414-7.657-17.064-17.071-17.064
		H132.522z"/>
	<path fill="#4D98D1" d="M1254.222,532.953H132.529c-23.147,0-41.979-18.832-41.979-41.979V293.739
		c0-23.147,18.832-41.979,41.979-41.979h1121.693c23.151,0,41.979,18.832,41.979,41.979v197.235
		C1296.201,514.119,1277.372,532.953,1254.222,532.953z M132.529,272.749c-11.574,0-20.988,9.414-20.988,20.99v197.235
		c0,11.574,9.414,20.988,20.988,20.988h1121.693c11.571,0,20.988-9.414,20.988-20.988V293.739c0-11.576-9.418-20.99-20.988-20.99
		H132.529z"/>
</g>
</svg>
