<?xml version="1.0" encoding="utf-8"?>
<!-- Generator: Adobe Illustrator 17.1.0, SVG Export Plug-In . SVG Version: 6.00 Build 0)  -->
<!DOCTYPE svg PUBLIC "-//W3C//DTD SVG 1.1//EN" "http://www.w3.org/Graphics/SVG/1.1/DTD/svg11.dtd">
<svg version="1.1" id="圖層_1" xmlns="http://www.w3.org/2000/svg" xmlns:xlink="http://www.w3.org/1999/xlink" x="0px" y="0px"
	 viewBox="1083.7 327.3 134.9 134.9" enable-background="new 1083.7 327.3 134.9 134.9" xml:space="preserve">
<g>
	<g>
		<circle fill="#FFFFFF" cx="1151.1" cy="394.7" r="64.9"/>
		<path fill="#6F6F6F" d="M1151.1,462.2c-37.2,0-67.4-30.2-67.4-67.4s30.2-67.4,67.4-67.4s67.4,30.2,67.4,67.4
			S1188.3,462.2,1151.1,462.2z M1151.1,332.3c-34.4,0-62.4,28-62.4,62.4s28,62.4,62.4,62.4s62.4-28,62.4-62.4
			S1185.5,332.3,1151.1,332.3z"/>
	</g>
	<g>
		
			<rect x="1125.9" y="407.9" transform="matrix(0.7071 0.7071 -0.7071 0.7071 622.6607 -686.419)" fill="#FFFFFF" width="28" height="1"/>
	</g>
	<g>
		<g>
			<path fill="#6F6F6F" d="M1150.4,421.3c-0.8,0-1.5-0.3-2.1-0.9l-19.8-19.5c-1.2-1.2-1.2-3.1,0-4.2c1.2-1.2,3.1-1.2,4.2,0
				l14.7,14.5v-38.4c0-1.7,1.3-3,3-3c1.7,0,3,1.3,3,3v45.5c0,1.2-0.7,2.3-1.8,2.8C1151.2,421.2,1150.8,421.3,1150.4,421.3z"/>
		</g>
		<g>
			<path fill="#6F6F6F" d="M1151.2,421.3c-0.8,0-1.5-0.3-2.1-0.9c-1.2-1.2-1.2-3.1,0-4.2l20-19.8c1.2-1.2,3.1-1.2,4.2,0
				c1.2,1.2,1.2,3.1,0,4.2l-20,19.8C1152.8,421,1152,421.3,1151.2,421.3z"/>
		</g>
	</g>
</g>
</svg>
