<?xml version="1.0" encoding="utf-8"?>
<!-- Generator: Adobe Illustrator 18.0.0, SVG Export Plug-In . SVG Version: 6.00 Build 0)  -->
<!DOCTYPE svg PUBLIC "-//W3C//DTD SVG 1.1//EN" "http://www.w3.org/Graphics/SVG/1.1/DTD/svg11.dtd" [
	<!ENTITY ns_flows "http://ns.adobe.com/Flows/1.0/">
	<!ENTITY ns_extend "http://ns.adobe.com/Extensibility/1.0/">
	<!ENTITY ns_ai "http://ns.adobe.com/AdobeIllustrator/10.0/">
	<!ENTITY ns_graphs "http://ns.adobe.com/Graphs/1.0/">
	<!ENTITY ns_vars "http://ns.adobe.com/Variables/1.0/">
	<!ENTITY ns_imrep "http://ns.adobe.com/ImageReplacement/1.0/">
	<!ENTITY ns_sfw "http://ns.adobe.com/SaveForWeb/1.0/">
	<!ENTITY ns_custom "http://ns.adobe.com/GenericCustomNamespace/1.0/">
	<!ENTITY ns_adobe_xpath "http://ns.adobe.com/XPath/1.0/">
]>
<svg version="1.1" id="圖層_1" xmlns:x="&ns_extend;" xmlns:i="&ns_ai;" xmlns:graph="&ns_graphs;"
	 xmlns="http://www.w3.org/2000/svg" xmlns:xlink="http://www.w3.org/1999/xlink" xmlns:a="http://ns.adobe.com/AdobeSVGViewerExtensions/3.0/"
	 x="0px" y="0px" viewBox="0 0 550 550" enable-background="new 0 0 550 550" xml:space="preserve">
<metadata>
	<sfw  xmlns="&ns_sfw;">
		<slices></slices>
		<sliceSourceBounds  width="3421" height="2195.0949707" bottomLeftOrigin="true" y="-2195.0949707" x="0"></sliceSourceBounds>
	</sfw>
</metadata>
<g>
	<path fill="#FBC600" d="M487.300415,275.005249c0,117.2409973-95.0441589,212.294342-212.2999878,212.294342
		c-117.2490082,0-212.3008728-95.0533447-212.3008728-212.294342c0-117.2578125,95.0518646-212.3048401,212.3008728-212.3048401
		C392.2562561,62.7004166,487.300415,157.7474365,487.300415,275.005249z"/>
	<path fill="#FFD900" d="M481.2205505,272.5542908c0,113.8816833-92.3215942,206.2009583-206.2041321,206.2009583
		c-113.887146,0-206.2038269-92.3192749-206.2038269-206.2009583S161.1292725,66.3472824,275.0164185,66.3472824
		C388.8989563,66.3472824,481.2205505,158.6725616,481.2205505,272.5542908z"/>
	<path fill="#EEEEEF" d="M275.0004272,453.7358704c-10.2901001,0-19.3251038-4.6985779-28.0727844-9.2240601
		c-5.4012451-2.8003845-10.4942627-5.4475403-15.5227509-6.7928467c-5.3338776-1.4287109-11.2506561-1.7143555-17.5147858-2.0080261
		c-9.6953735-0.480957-19.7203827-0.9619751-28.2647095-5.902771c-8.6911163-5.0327759-14.1325989-13.5274048-19.3987732-21.7495422
		c-3.3429871-5.2252808-6.507782-10.1661072-10.3146362-13.9746399c-3.8039856-3.8085632-8.7430878-6.9624634-13.9729462-10.3100586
		c-8.2169952-5.263031-16.7158813-10.7048035-21.7378311-19.4016418c-4.9507599-8.5414734-5.4360352-18.5693054-5.9087601-28.254425
		c-0.2982178-6.2655334-0.581871-12.1969604-2.0051575-17.5233154c-1.3435516-5.0213623-3.993927-10.1227112-6.7967911-15.525116
		c-4.5303497-8.7425232-9.2109756-17.7798157-9.2109756-28.0641785c0-10.3014832,4.6806259-19.3410492,9.2109756-28.078476
		c2.8028641-5.4069214,5.4532394-10.5000153,6.7967911-15.5296173c1.4232864-5.3269653,1.7069397-11.2466583,2.0051575-17.518219
		c0.4727249-9.6962585,0.9580002-19.7129669,5.9087601-28.254425c5.0219498-8.7022247,13.5208359-14.1412048,21.7378311-19.3987732
		c5.2398529-3.3475494,10.1689606-6.5105896,13.9729462-10.3188934c3.8068542-3.8051605,6.9716492-8.7485504,10.3203583-13.968399
		c5.2604523-8.2218475,10.7019348-16.7230148,19.3930511-21.7472458c8.5443268-4.9461975,18.5693359-5.4297867,28.2647095-5.8996353
		c6.2641296-0.3053513,12.1809082-0.5904083,17.5147858-2.0108261c5.0284882-1.3539124,10.1215057-3.9951019,15.5227509-6.7956924
		c8.7436981-4.5251999,17.7826843-9.2212677,28.0727844-9.2212677c10.2991943,0,19.3399353,4.6960678,28.0761719,9.2212677
		c5.4046936,2.8005905,10.5049133,5.4417801,15.5267944,6.7956924c5.328125,1.4204178,11.2486572,1.7054749,17.5187988,2.0108261
		c9.6885376,0.4698486,19.7140808,0.9534378,28.2640686,5.8996353c8.6854553,5.024231,14.1318054,13.5253983,19.3925171,21.7472458
		c3.349884,5.2198486,6.507782,10.1632385,10.3135376,13.968399c3.8079529,3.8083038,8.7459106,6.971344,13.9723511,10.3188934
		c8.2226562,5.2575684,16.7258911,10.6965485,21.7443848,19.3987732c4.9436951,8.5414581,5.4303894,18.5581665,5.9022217,28.254425
		c0.2982178,6.268692,0.5838318,12.1912537,2.0153809,17.518219c1.3413391,5.0296021,3.9873657,10.1226959,6.7865601,15.5296173
		c4.5369568,8.7374268,9.2189941,17.7769928,9.2189941,28.078476c0,10.2843628-4.6820374,19.3216553-9.2189941,28.0641785
		c-2.7991943,5.4024048-5.4452209,10.5037537-6.7865601,15.525116c-1.4315491,5.326355-1.7171631,11.257782-2.0153809,17.5233154
		c-0.4718323,9.6965332-0.9585266,19.7129517-5.9022217,28.2658386
		c-5.0184937,8.6854248-13.5217285,14.1271973-21.7443848,19.3902283
		c-5.2264404,3.3475952-10.1643982,6.5014954-13.9723511,10.3100586
		c-3.8057556,3.8085327-6.9636536,8.7493591-10.3100891,13.9746399
		c-5.2641602,8.2221375-10.7105103,16.7167664-19.3959656,21.7495422c-8.5499878,4.9407959-18.575531,5.421814-28.2640686,5.902771
		c-6.2701416,0.2936707-12.1906738,0.5793152-17.5187988,2.0080261c-5.0218811,1.3453064-10.1221008,3.9924622-15.5267944,6.7928467
		C294.3335266,449.0372925,285.2996216,453.7358704,275.0004272,453.7358704z"/>
	<path fill="#FFFFFF" d="M448.577179,275.005249c0,15.0698242-12.1147156,28.3555603-15.8329773,42.2639465
		c-3.8508606,14.3894348-0.1057129,31.9270325-7.3961182,44.53302
		c-7.3988953,12.7824402-24.5258484,18.2676697-34.8975525,28.640564
		c-10.368927,10.3711853-15.8575439,27.5026245-28.6434326,34.8946838
		c-12.6013794,7.2909851-30.1384277,3.5549927-44.5301819,7.4035339
		c-13.9135132,3.707489-27.1895752,15.8266907-42.2764893,15.8266907c-15.076355,0-28.3604126-12.1192017-42.2673798-15.8266907
		c-14.390564-3.8485413-31.9341736-0.1125488-44.5335693-7.4035339
		c-12.7833099-7.3920593-18.2693634-24.5234985-28.6476898-34.8946838
		c-10.3720703-10.3728943-27.4921112-15.8581238-34.8918839-28.640564
		c-7.2904053-12.6059875-3.5500641-30.1435852-7.3986282-44.53302
		c-3.7163467-13.9083862-15.8381271-27.1941223-15.8381271-42.2639465c0-15.094635,12.1217804-28.368927,15.8381271-42.2833862
		c3.8485641-14.3802643,0.108223-31.9272614,7.3986282-44.5249634
		c7.3997726-12.7787476,24.5198135-18.2751007,34.9010086-28.6431427
		c10.3692017-10.3703003,15.8552551-27.499527,28.6385651-34.8998947
		c12.5993958-7.2880554,30.1430054-3.5551987,44.5335693-7.4008942
		c13.9069672-3.7100449,27.1910248-15.8295898,42.2673798-15.8295898c15.0869141,0,28.3629761,12.119545,42.2742004,15.8295898
		c14.394043,3.8456955,31.9310913,0.1128387,44.5324707,7.4008942
		c12.7858887,7.4003677,18.2745056,24.5295944,28.6434326,34.8998947
		c10.3717041,10.368042,27.4986572,15.8643951,34.8975525,28.6431427
		c7.2904053,12.597702,3.5452576,30.1446991,7.3961182,44.5249634
		C436.4624634,246.636322,448.577179,259.910614,448.577179,275.005249z"/>
	<g>
		<g>
			<g>
				<path fill="#9E9E9F" d="M174.3170776,357.9393311v3.532074c0,0.4867554-0.4259186,0.9277649-0.9477081,0.9277649
					c-0.4984436,0-0.9374542-0.4267273-0.9374542-0.9277649v-10.3249207c0-0.544342,0.503006-1.0253906,1.080246-1.0253906
					h2.5292206c3.0376892,0,4.1190643,1.88974,4.1190643,3.9268494c0,2.5003967-1.6097717,3.8913879-4.1190643,3.8913879
					H174.3170776z M174.3170776,356.1821289h1.7243042c1.4544678,0,2.2253418-0.688324,2.2253418-2.1399231
					c0-1.0722351-0.4061432-2.1581726-2.2253418-2.1581726h-1.7243042V356.1821289z"/>
				<path fill="#9E9E9F" d="M184.4211731,362.3494568c-0.5341339,0-0.9305725-0.3564758-0.9305725-0.8489075v-10.9184265
					c0-0.4438782,0.3821716-0.867157,0.9060059-0.867157c0.5201569,0,0.9365845,0.3718567,0.9365845,0.867157v3.4195557
					c0.5318604-0.3490601,1.185379-0.5878296,1.8868866-0.5878296c2.0079498,0,2.9445648,1.2070618,2.9445648,2.9270935v5.1596069
					c0,0.4924316-0.4381409,0.8489075-0.936615,0.8489075c-0.5318451,0-0.9259949-0.3564758-0.9259949-0.8489075v-5.2264099
					c0-0.8294678-0.4135742-1.2956238-1.2344666-1.2956238c-0.6024017,0-1.2953491,0.2473755-1.734375,0.7745972v5.7474365
					C185.3331909,361.992981,184.9370575,362.3494568,184.4211731,362.3494568z"/>
				<path fill="#9E9E9F" d="M195.3422394,351.9822388c-0.614975,0-1.082016-0.4638062-1.082016-1.0231018
					c0-0.5615234,0.467041-1.0048523,1.082016-1.0048523c0.606369,0,1.0904999,0.4547424,1.0904999,1.0048523
					C196.4096222,351.526947,195.9486084,351.9822388,195.3422394,351.9822388z M195.3422394,362.3494568
					c-0.53302,0-0.924881-0.3564758-0.924881-0.8489075v-7.1681519c0-0.4689636,0.391861-0.8580322,0.924881-0.8580322
					c0.5189819,0,0.9234314,0.3890686,0.9234314,0.8580322v7.1681519
					C196.2656708,361.992981,195.8612213,362.3494568,195.3422394,362.3494568z"/>
				<path fill="#9E9E9F" d="M200.5292053,360.4745789v-9.8033752c0-0.4604187,0.3975983-0.8522949,0.9271698-0.8522949
					c0.5158386,0,0.92659,0.3742065,0.92659,0.8522949v9.7085571c0,0.354187,0.0245667,0.518158,0.2430573,0.7546692
					c0.1182861,0.1176147,0.2216492,0.2187805,0.2216492,0.4695435c0,0.4689636-0.3770142,0.7603455-0.9591064,0.7603455
					C201.3386993,362.3643188,200.5292053,362.1540833,200.5292053,360.4745789z"/>
				<path fill="#9E9E9F" d="M206.0958862,359.2503662v-2.7197571c0-1.7714539,1.206192-3.1253052,3.4703827-3.1253052
					c2.2730103,0,3.4652252,1.3538513,3.4652252,3.1253052v2.7197571c0,1.7451782-1.192215,3.1139526-3.4652252,3.1139526
					C207.3020782,362.3643188,206.0958862,360.9955444,206.0958862,359.2503662z M211.1863251,359.2503662v-2.7397156
					c0-0.9042969-0.5587006-1.4778442-1.6200562-1.4778442c-1.0662842,0-1.6209412,0.5735474-1.6209412,1.4778442v2.7397156
					c0,0.9186096,0.554657,1.4835815,1.6209412,1.4835815C210.6276245,360.7339478,211.1863251,360.1689758,211.1863251,359.2503662
					z"/>
				<path fill="#9E9E9F" d="M219.3907471,353.4138489c1.0111084,0,2.4644012,0.2559204,2.4644012,1.2618713
					c0,0.4633179-0.3018951,0.6941223-0.7446594,0.6941223c-0.5518036,0-0.8111725-0.3690491-1.7197418-0.3690491
					c-0.4304199,0-1.2145081,0.0868225-1.2145081,0.8300171c0,1.682373,3.9959717,0.8529358,3.9959717,3.9205627
					c0,1.6018372-1.081955,2.5980835-3.1270599,2.5980835c-0.9837494,0-2.7983246-0.2210693-2.7983246-1.134552
					c0-0.3055725,0.2059174-1.0053711,0.9602966-0.8180237c0.3127747,0.0662842,1.0488586,0.3918762,1.7674713,0.3918762
					c0.7763062,0,1.3752594-0.3832703,1.3752594-0.993988c0-1.6217651-4.0010681-0.7660522-4.0010681-3.7971191
					C216.3487854,354.4512024,217.3799133,353.4138489,219.3907471,353.4138489z"/>
				<path fill="#9E9E9F" d="M225.3349609,359.2503662v-2.7197571c0-1.7714539,1.1956635-3.1253052,3.4632416-3.1253052
					c2.2696075,0,3.4695587,1.3538513,3.4695587,3.1253052v2.7197571c0,1.7451782-1.1999512,3.1139526-3.4695587,3.1139526
					C226.5306244,362.3643188,225.3349609,360.9955444,225.3349609,359.2503662z M230.4137115,359.2503662v-2.7397156
					c0-0.9042969-0.5472412-1.4778442-1.615509-1.4778442c-1.067688,0-1.6166229,0.5735474-1.6166229,1.4778442v2.7397156
					c0,0.9186096,0.5489349,1.4835815,1.6166229,1.4835815
					C229.8664703,360.7339478,230.4137115,360.1689758,230.4137115,359.2503662z"/>
				<path fill="#9E9E9F" d="M237.8520966,362.0101318v3.0328064c0,0.4901428-0.3373413,0.8734741-0.924881,0.8734741
					c-0.5989532,0-0.9328613-0.4118652-0.9328613-0.8734741v-9.0452881c0-0.4804382-0.0682526-0.7397766-0.2350922-0.9968567
					c-0.1039429-0.1405029-0.1744995-0.2536316-0.1744995-0.4490051c0-0.5038452,0.445282-0.8208923,0.8554535-0.8208923
					c0.3270721,0,0.5835724,0.1702271,0.7908783,0.4467468c0.7952118-0.4467468,1.5641479-0.7637939,2.4618378-0.7637939
					c1.8826141,0,2.9354401,1.3453064,2.9354401,3.3069763v2.1113892c0,2.0456848-0.7548981,3.5172424-3.0753632,3.5172424
					C239.0188751,362.3494568,238.4653168,362.2695007,237.8520966,362.0101318z M237.8520966,360.4974365
					c0.5301056,0.2045288,1.1179352,0.2913208,1.4995117,0.2913208c1.0411224,0,1.42276-0.6197815,1.42276-1.956543v-2.1113892
					c0-1.1144714-0.4664612-1.7086182-1.3884735-1.7086182c-0.4869843,0-1.0354004,0.1730957-1.6003571,0.4758606
					c0.0319977,0.1845093,0.0665588,0.3542175,0.0665588,0.5095825V360.4974365z"/>
				<path fill="#9E9E9F" d="M247.2275543,362.3494568c-0.5300903,0-0.9231262-0.3564758-0.9231262-0.8489075v-10.9184265
					c0-0.4438782,0.3770142-0.867157,0.9111481-0.867157c0.5132446,0,0.9240112,0.3718567,0.9240112,0.867157v3.4195557
					c0.5312653-0.3490601,1.1864929-0.5878296,1.8879852-0.5878296c2.0136871,0,2.9399872,1.2070618,2.9399872,2.9270935v5.1596069
					c0,0.4924316-0.4295959,0.8489075-0.9263,0.8489075c-0.5341339,0-0.9305573-0.3564758-0.9305573-0.8489075v-5.2264099
					c0-0.8294678-0.413559-1.2956238-1.2362213-1.2956238c-0.6001129,0-1.2902069,0.2473755-1.7348938,0.7745972v5.7474365
					C248.1395874,361.992981,247.7485352,362.3494568,247.2275543,362.3494568z"/>
				<path fill="#9E9E9F" d="M260.9703369,361.0390015c-0.8803101,2.7168884-1.5286865,4.6837463-3.9508057,4.6837463
					c-0.5478821,0-0.9437561-0.3593445-0.9437561-0.8460388c0-0.4152832,0.3225098-0.8066406,0.8754883-0.8414917
					c0.910553,0,1.3338318-0.6226501,1.8208618-2.0627747l-2.6963501-7.351532
					c-0.0548401-0.1154175-0.0548401-0.2536316-0.0548401-0.3399048c0-0.469574,0.3987427-0.8066406,0.9303284-0.8066406
					c0.3401489,0,0.704071,0.1896667,0.8383179,0.5735779l0.1616211,0.4752808
					c0.5858459,1.7280579,1.1679382,3.4480896,1.7354736,5.2201538c0.5127258-1.9216919,1.0440063-3.7977295,1.6304321-5.6954346
					c0.1165466-0.3839111,0.5312805-0.5735779,0.8774414-0.5735779c0.4667053,0,0.9305725,0.3370667,0.9305725,0.8580322
					c0,0.0782776-0.0245667,0.1730957-0.0639954,0.2571106L260.9703369,361.0390015z"/>
				<path fill="#9E9E9F" d="M275.0004272,357.9393311v3.532074c0,0.4867554-0.4304504,0.9277649-0.9448853,0.9277649
					c-0.4906616,0-0.9402771-0.4267273-0.9402771-0.9277649v-10.3249207c0-0.544342,0.4983826-1.0253906,1.0813599-1.0253906
					h2.5238647c3.0419617,0,4.1204529,1.88974,4.1204529,3.9268494c0,2.5003967-1.6109619,3.8913879-4.1204529,3.8913879
					H275.0004272z M275.0004272,356.1821289h1.7200623c1.4607239,0,2.2409973-0.688324,2.2409973-2.1399231
					c0-1.0722351-0.4187012-2.1581726-2.2409973-2.1581726h-1.7200623V356.1821289z"/>
				<path fill="#9E9E9F" d="M285.1008606,362.3494568c-0.5289917,0-0.9260559-0.3564758-0.9260559-0.8489075v-10.9184265
					c0-0.4438782,0.3799133-0.867157,0.9066162-0.867157c0.5187073,0,0.9362488,0.3718567,0.9362488,0.867157v3.4195557
					c0.5312805-0.3490601,1.179657-0.5878296,1.8840332-0.5878296c2.0113831,0,2.9345398,1.2070618,2.9345398,2.9270935v5.1596069
					c0,0.4924316-0.4278564,0.8489075-0.9231567,0.8489075c-0.5300903,0-0.9248352-0.3564758-0.9248352-0.8489075v-5.2264099
					c0-0.8294678-0.4165039-1.2956238-1.2356262-1.2956238c-0.5993042,0-1.2967529,0.2473755-1.7349548,0.7745972v5.7474365
					C286.0176697,361.992981,285.6172485,362.3494568,285.1008606,362.3494568z"/>
				<path fill="#9E9E9F" d="M296.0295715,351.9822388c-0.6243896,0-1.0853882-0.4638062-1.0853882-1.0231018
					c0-0.5615234,0.4609985-1.0048523,1.0853882-1.0048523c0.6044006,0,1.08078,0.4547424,1.08078,1.0048523
					C297.0943909,351.526947,296.6339722,351.9822388,296.0295715,351.9822388z M296.0295715,362.3494568
					c-0.5392761,0-0.9294434-0.3564758-0.9294434-0.8489075v-7.1681519c0-0.4689636,0.3901672-0.8580322,0.9294434-0.8580322
					c0.5123901,0,0.9202881,0.3890686,0.9202881,0.8580322v7.1681519
					C296.9498596,361.992981,296.5419617,362.3494568,296.0295715,362.3494568z"/>
				<path fill="#9E9E9F" d="M301.214325,360.4745789v-9.8033752c0-0.4604187,0.3912964-0.8522949,0.9362488-0.8522949
					c0.5084534,0,0.9112244,0.3742065,0.9112244,0.8522949v9.7085571c0,0.354187,0.0273743,0.518158,0.2473145,0.7546692
					c0.1216736,0.1176147,0.2148132,0.2187805,0.2148132,0.4695435c0,0.4689636-0.3707581,0.7603455-0.9511719,0.7603455
					C302.0232239,362.3643188,301.214325,362.1540833,301.214325,360.4745789z"/>
				<path fill="#9E9E9F" d="M306.7766113,359.2503662v-2.7197571c0-1.7714539,1.2048035-3.1253052,3.4698792-3.1253052
					c2.2701416,0,3.4669189,1.3538513,3.4669189,3.1253052v2.7197571c0,1.7451782-1.1967773,3.1139526-3.4669189,3.1139526
					C307.9814148,362.3643188,306.7766113,360.9955444,306.7766113,359.2503662z M311.8597107,359.2503662v-2.7397156
					c0-0.9042969-0.5426636-1.4778442-1.6132202-1.4778442c-1.0671082,0-1.6086731,0.5735474-1.6086731,1.4778442v2.7397156
					c0,0.9186096,0.5415649,1.4835815,1.6086731,1.4835815
					C311.3170471,360.7339478,311.8597107,360.1689758,311.8597107,359.2503662z"/>
				<path fill="#9E9E9F" d="M320.0744019,353.4138489c1.0111389,0,2.4746704,0.2559204,2.4746704,1.2618713
					c0,0.4633179-0.3119202,0.6941223-0.7580566,0.6941223c-0.5529785,0-0.8134766-0.3690491-1.7166138-0.3690491
					c-0.4312744,0-1.2242126,0.0868225-1.2242126,0.8300171c0,1.682373,4.0016479,0.8529358,4.0016479,3.9205627
					c0,1.6018372-1.0756836,2.5980835-3.125885,2.5980835c-0.9768982,0-2.7952271-0.2210693-2.7952271-1.134552
					c0-0.3055725,0.2085571-1.0053711,0.9660339-0.8180237c0.3096313,0.0662842,1.0419922,0.3918762,1.7611694,0.3918762
					c0.7792358,0,1.3790588-0.3832703,1.3790588-0.993988c0-1.6217651-4.0108337-0.7660522-4.0108337-3.7971191
					C317.0261536,354.4512024,318.0652771,353.4138489,320.0744019,353.4138489z"/>
				<path fill="#9E9E9F" d="M326.0131836,359.2503662v-2.7197571c0-1.7714539,1.2025146-3.1253052,3.4681091-3.1253052
					c2.2684326,0,3.4698486,1.3538513,3.4698486,3.1253052v2.7197571c0,1.7451782-1.201416,3.1139526-3.4698486,3.1139526
					C327.2156982,362.3643188,326.0131836,360.9955444,326.0131836,359.2503662z M331.1025391,359.2503662v-2.7397156
					c0-0.9042969-0.5575562-1.4778442-1.6212463-1.4778442c-1.0665283,0-1.6103516,0.5735474-1.6103516,1.4778442v2.7397156
					c0,0.9186096,0.5438232,1.4835815,1.6103516,1.4835815
					C330.5449829,360.7339478,331.1025391,360.1689758,331.1025391,359.2503662z"/>
				<path fill="#9E9E9F" d="M338.5397644,362.0101318v3.0328064c0,0.4901428-0.3484802,0.8734741-0.9260254,0.8734741
					c-0.599823,0-0.934021-0.4118652-0.934021-0.8734741v-9.0452881c0-0.4804382-0.0697327-0.7397766-0.2381897-0.9968567
					c-0.1022644-0.1405029-0.1736755-0.2536316-0.1736755-0.4490051c0-0.5038452,0.4512939-0.8208923,0.8642883-0.8208923
					c0.3199158,0,0.5769653,0.1702271,0.7838135,0.4467468c0.7946167-0.4467468,1.5646667-0.7637939,2.4620667-0.7637939
					c1.8840637,0,2.9356995,1.3453064,2.9356995,3.3069763v2.1113892c0,2.0456848-0.7637634,3.5172424-3.0756226,3.5172424
					C339.7033691,362.3494568,339.1538391,362.2695007,338.5397644,362.0101318z M338.5397644,360.4974365
					c0.5346375,0.2045288,1.1150513,0.2913208,1.4892578,0.2913208c1.0545349,0,1.4343872-0.6197815,1.4343872-1.956543v-2.1113892
					c0-1.1144714-0.4729919-1.7086182-1.3967285-1.7086182c-0.4838257,0-1.0322266,0.1730957-1.6023254,0.4758606
					c0.0376587,0.1845093,0.0754089,0.3542175,0.0754089,0.5095825V360.4974365z"/>
				<path fill="#9E9E9F" d="M347.9135132,362.3494568c-0.5324402,0-0.9237366-0.3564758-0.9237366-0.8489075v-10.9184265
					c0-0.4438782,0.3695984-0.867157,0.9031372-0.867157c0.5267029,0,0.934021,0.3718567,0.934021,0.867157v3.4195557
					c0.5335693-0.3490601,1.1853943-0.5878296,1.8931274-0.5878296c2.0057068,0,2.9248657,1.2070618,2.9248657,2.9270935v5.1596069
					c0,0.4924316-0.4284363,0.8489075-0.9191589,0.8489075c-0.534668,0-0.9283142-0.3564758-0.9283142-0.8489075v-5.2264099
					c0-0.8294678-0.4164124-1.2956238-1.2367249-1.2956238c-0.601532,0-1.2910767,0.2473755-1.7337952,0.7745972v5.7474365
					C348.8269348,361.992981,348.4299316,362.3494568,347.9135132,362.3494568z"/>
				<path fill="#9E9E9F" d="M361.654541,361.0390015c-0.8780518,2.7168884-1.5241394,4.6837463-3.9485474,4.6837463
					c-0.5506897,0-0.9465332-0.3593445-0.9465332-0.8460388c0-0.4152832,0.3227234-0.8066406,0.8757019-0.8414917
					c0.9088745,0,1.3367615-0.6226501,1.8171997-2.0627747l-2.6929016-7.351532
					c-0.0491333-0.1154175-0.0491333-0.2536316-0.0491333-0.3399048c0-0.469574,0.3958435-0.8066406,0.9248352-0.8066406
					c0.3461914,0,0.7055359,0.1896667,0.845459,0.5735779l0.1479797,0.4752808
					c0.579834,1.7280579,1.1739197,3.4480896,1.7406311,5.2201538c0.5118408-1.9216919,1.0442505-3.7977295,1.6303711-5.6954346
					c0.1193848-0.3839111,0.5300903-0.5735779,0.8768616-0.5735779c0.4564514,0,0.9277039,0.3370667,0.9277039,0.8580322
					c0,0.0782776-0.0171204,0.1730957-0.0559692,0.2571106L361.654541,361.0390015z"/>
			</g>
			<g>
				<path fill="#9E9E9F" d="M212.6499176,374.284729c0-2.6848755,1.2861786-4.4335327,4.1190643-4.4335327
					c1.6854553,0,3.3004456,0.7603455,3.3004456,1.6567078c0,0.4432678-0.3804626,0.8208618-0.8843536,0.8208618
					c-0.3141937,0-0.4249878-0.1234131-0.6769257-0.2793579l-0.0922546-0.0548096
					c-0.4624176-0.3250732-0.9568329-0.4810181-1.5643768-0.4810181c-1.7429199,0-2.3135986,1.0716553-2.3135986,2.7711487
					v3.5407104c0,1.6994324,0.5706787,2.7625732,2.3135986,2.7625732c0.6075439,0,1.1019592-0.158844,1.5643768-0.4638977
					l0.0922546-0.0542297c0.2519379-0.1502686,0.3627319-0.2651062,0.6769257-0.2651062
					c0.503891,0,0.8843536,0.3599548,0.8843536,0.7918091c0,0.9191284-1.6149902,1.6537781-3.3004456,1.6537781
					c-2.8328857,0-4.1190643-1.7485962-4.1190643-4.4249268V374.284729z"/>
				<path fill="#9E9E9F" d="M224.4104309,382.2332153c-0.5273132,0-0.9260864-0.3575745-0.9260864-0.8586121v-10.9098816
					c0-0.437561,0.3816376-0.8665771,0.9103394-0.8665771c0.5158234,0,0.9317322,0.3742065,0.9317322,0.8665771v3.4224243
					c0.5283966-0.3598938,1.1816406-0.5763855,1.8828278-0.5763855c2.0094299,0,2.9383087,1.1990662,2.9383087,2.9099731v5.1538696
					c0,0.5010376-0.4250336,0.8586121-0.9288788,0.8586121c-0.5272827,0-0.9251862-0.3575745-0.9251862-0.8586121V376.15448
					c0-0.823761-0.4118652-1.28479-1.238205-1.28479c-0.5998077,0-1.2835846,0.2388-1.7288666,0.7718201v5.7330933
					C225.326416,381.8756409,224.9265289,382.2332153,224.4104309,382.2332153z"/>
				<path fill="#9E9E9F" d="M235.3317108,371.8648987c-0.6152649,0-1.0748291-0.466156-1.0748291-1.0168457
					c0-0.5615234,0.4595642-1.0139771,1.0748291-1.0139771c0.6089478,0,1.0870972,0.4638672,1.0870972,1.0139771
					C236.3988037,371.4152832,235.9406586,371.8648987,235.3317108,371.8648987z M235.3317108,382.2332153
					c-0.5263977,0-0.9223175-0.3575745-0.9223175-0.8586121v-7.1561279c0-0.469574,0.3959198-0.8585815,0.9223175-0.8585815
					c0.5180969,0,0.9299774,0.3890076,0.9299774,0.8585815v7.1561279
					C236.2616882,381.8756409,235.8498077,382.2332153,235.3317108,382.2332153z"/>
				<path fill="#9E9E9F" d="M240.1076813,376.5749512c0-1.8177795,1.0200043-3.2150574,3.31987-3.2150574
					c0.9120178,0,2.6634827,0.2421875,2.6634827,1.268158c0,0.3593445-0.2453461,0.7140808-0.8311768,0.7140808
					c-0.1325073,0-0.2536469-0.0114136-0.4275665-0.0634155c-0.3778839-0.1702271-0.7060547-0.3484802-1.2664948-0.3484802
					c-1.1479645,0-1.6012573,0.6021118-1.6012573,1.6447144v2.4455261c0,1.0317078,0.4532928,1.6538086,1.6012573,1.6538086
					c0.5604401,0,0.8886108-0.1725159,1.2664948-0.3513184c0.1396942-0.0462952,0.2462311-0.0811462,0.414444-0.0811462
					c0.5989532,0,0.8442993,0.3810425,0.8442993,0.7352295c0,1.0168152-1.7514648,1.2733154-2.6834869,1.2733154
					c-2.2798615,0-3.2998657-1.4207153-3.2998657-3.2298889V376.5749512z"/>
				<path fill="#9E9E9F" d="M251.2272186,376.4772644l2.47612-2.624939
					c0.2202301-0.2416382,0.4884491-0.4867554,0.8700104-0.4867554c0.5010376,0,0.8903351,0.3484802,0.8903351,0.8129272
					c0,0.223938-0.0848236,0.4318848-0.237915,0.5786743l-2.3250122,2.4112854
					c0.9193878,1.2733459,1.8297424,2.5466614,2.7168884,3.8085938c0.1065216,0.1411133,0.155365,0.3656311,0.155365,0.5209961
					c-0.0256805,0.4672546-0.4135742,0.7351685-0.8903198,0.7351685c-0.5267029,0-0.6349335-0.1816101-0.9976654-0.7174988
					l-2.2676239-3.2698669c-0.133667,0.1239624-0.2547607,0.2850647-0.3901825,0.3976135v2.3564148
					c0,0.6278381-0.2087708,1.2333374-0.9317322,1.2333374c-0.534668,0-0.9279785-0.3575745-0.9279785-0.8586121v-10.3848877
					c0-0.6803589,0.1530762-1.2910156,0.9279785-1.2910156c0.5124359,0,0.9317322,0.3741455,0.9317322,0.8586121V376.4772644z"/>
				<path fill="#9E9E9F" d="M260.3927917,378.6114502v0.7837524c0,0.7695312,0.5369568,1.2790833,1.6143494,1.2790833
					c0.6407166,0,1.109375-0.1725159,1.669281-0.4324646c0.0505066-0.0336914,0.174469-0.0862122,0.3786926-0.0862122
					c0.5864258,0,0.8471985,0.4324036,0.8471985,0.775116c0,1.0345764-2.0325623,1.3196411-3.0476685,1.3196411
					c-2.1159668,0-3.3118591-1.2733154-3.3118591-2.9356689v-3.0334167c0-1.6966248,1.1827393-2.97052,3.4024048-2.97052
					c2.0722656,0,3.0996094,1.1207886,3.0996094,2.8437195c0,1.6132202-0.9374084,2.5729065-3.125061,2.5729065
					C261.4393005,378.7273865,260.940033,378.70401,260.3927917,378.6114502z M261.9020691,374.8348999
					c-0.9620361,0-1.5092773,0.5072327-1.5092773,1.3309631v1.0197449c0.5846863,0.071991,1.2544556,0.1011353,1.5092773,0.1011353
					c0.9822083,0,1.3092957-0.4610291,1.3092957-1.1842651
					C263.2113647,375.1896362,262.7489319,374.8348999,261.9020691,374.8348999z"/>
				<path fill="#9E9E9F" d="M270.4780579,381.3746033c0,0.4810181-0.3024902,0.8586121-0.932312,0.8586121
					c-0.6132507,0-0.928833-0.377594-0.928833-0.8586121v-5.5080566c0-0.7580566-0.1122437-0.7951965-0.2145081-0.9710999
					c-0.1399841-0.1902466-0.2047729-0.310791-0.2047729-0.5039062c0-0.4523926,0.375824-0.7894592,0.8902588-0.7894592
					c0.3270569,0,0.6006775,0.1845703,0.8038025,0.4987488c0.7745972-0.5415649,1.6143188-0.7695312,2.3721008-0.7695312
					c1.9968262,0,2.9877319,1.3310242,2.9877319,3.3013306v4.7419739c0,0.4810181-0.3505249,0.8586121-0.9206238,0.8586121
					c-0.6061096,0-0.9305725-0.377594-0.9305725-0.8586121v-4.7419739c0-1.0773926-0.4992676-1.710907-1.35849-1.710907
					c-0.5152283,0-1.0436401,0.1867676-1.6143188,0.5272827c0.0376587,0.155365,0.0505371,0.2987366,0.0505371,0.4175415
					V381.3746033z"/>
				<path fill="#9E9E9F" d="M285.7468872,374.284729c0-2.6848755,1.2893372-4.4335327,4.1245117-4.4335327
					c1.6823425,0,3.2967529,0.7603455,3.2967529,1.6567078c0,0.4432678-0.3742065,0.8208618-0.8723145,0.8208618
					c-0.3313293,0-0.4359131-0.1234131-0.6964111-0.2793579l-0.0822449-0.0548096
					c-0.4581299-0.3250732-0.9596863-0.4810181-1.5606689-0.4810181c-1.7543335,0-2.3256226,1.0716553-2.3256226,2.7711487
					v3.5407104c0,1.6994324,0.5712891,2.7625732,2.3256226,2.7625732c0.6009827,0,1.1025391-0.158844,1.5606689-0.4638977
					l0.0822449-0.0542297c0.260498-0.1502686,0.3650818-0.2651062,0.6964111-0.2651062
					c0.4981079,0,0.8723145,0.3599548,0.8723145,0.7918091c0,0.9191284-1.6144104,1.6537781-3.2967529,1.6537781
					c-2.8351746,0-4.1245117-1.7485962-4.1245117-4.4249268V374.284729z"/>
				<path fill="#9E9E9F" d="M300.9663696,376.3909607c0-1.0059509-0.5186768-1.5041199-1.5795288-1.5041199
					c-0.4512939,0-0.7232056,0.1005554-1.015686,0.2216492l-0.3244934,0.1325378
					c-0.1068115,0.0605469-0.2976074,0.0896912-0.4444275,0.0896912c-0.4964294,0-0.7123413-0.4004822-0.7123413-0.7580566
					c0-0.9071655,1.3298645-1.2619019,2.6677551-1.2619019c2.3187561,0,3.2619019,1.2104797,3.2619019,3.4949646v3.4880981
					c0,0.4295959,0.1765442,0.4986877,0.4278564,0.547821c0.362793,0.0770874,0.5141296,0.2964478,0.5141296,0.621521
					c0,0.4787598-0.3604736,0.7237854-1.0099487,0.7237854c-0.6010132,0-1.0505676-0.2450256-1.3733521-0.7780762
					c-0.6329346,0.556427-1.3881226,0.8243408-2.3335266,0.8243408c-1.8703613,0-2.8397522-1.0493774-2.8397522-2.6420593
					v-0.0485535c0-1.7171631,1.0682068-2.5986633,3.2218933-2.5986633c0.5244141,0,1.035675,0.0691528,1.5395203,0.2131042
					V376.3909607z M298.0466614,379.5534973v0.0548096c0,0.6855164,0.3416443,1.0831299,1.2825012,1.0831299
					c0.5849609,0,1.1048279-0.1725769,1.637207-0.5964355v-1.5612183c-0.5038452-0.1148376-1.0671082-0.1759644-1.4983826-0.1759644
					C298.2654724,378.3578186,298.0466614,378.9085083,298.0466614,379.5534973z"/>
				<path fill="#9E9E9F" d="M308.8994141,376.4772644l2.4724426-2.624939
					c0.2250977-0.2416382,0.5038147-0.4867554,0.8786011-0.4867554c0.4958191,0,0.8871765,0.3484802,0.8871765,0.8129272
					c0,0.223938-0.0817261,0.4318848-0.2376709,0.5786743l-2.3175964,2.4112854
					c0.9100342,1.2733459,1.8177185,2.5466614,2.713501,3.8085938c0.103363,0.1411133,0.1547852,0.3656311,0.1547852,0.5209961
					c-0.0354004,0.4672546-0.4129944,0.7351685-0.8923035,0.7351685c-0.5358582,0-0.6323547-0.1816101-0.9962769-0.7174988
					l-2.2644653-3.2698669c-0.1388245,0.1239624-0.2639465,0.2850647-0.3981934,0.3976135v2.3564148
					c0,0.6278381-0.2010498,1.2333374-0.9259949,1.2333374c-0.5358276,0-0.9316711-0.3575745-0.9316711-0.8586121v-10.3848877
					c0-0.6803589,0.1627808-1.2910156,0.9316711-1.2910156c0.5175781,0,0.9259949,0.3741455,0.9259949,0.8586121V376.4772644z"/>
				<path fill="#9E9E9F" d="M318.0733032,378.6114502v0.7837524c0,0.7695312,0.5300903,1.2790833,1.6132202,1.2790833
					c0.6358032,0,1.0933533-0.1725159,1.667511-0.4324646c0.0502319-0.0336914,0.1696472-0.0862122,0.3770142-0.0862122
					c0.5838013,0,0.8363342,0.4324036,0.8363342,0.775116c0,1.0345764-2.023407,1.3196411-3.0334167,1.3196411
					c-2.1182251,0-3.3200989-1.2733154-3.3200989-2.9356689v-3.0334167c0-1.6966248,1.1870728-2.97052,3.401825-2.97052
					c2.0845337,0,3.1116028,1.1207886,3.1116028,2.8437195c0,1.6132202-0.9454041,2.5729065-3.1247864,2.5729065
					C319.1175232,378.7273865,318.6250916,378.70401,318.0733032,378.6114502z M319.5820007,374.8348999
					c-0.9569092,0-1.5086975,0.5072327-1.5086975,1.3309631v1.0197449c0.5786438,0.071991,1.2561646,0.1011353,1.5086975,0.1011353
					c0.9859619,0,1.311615-0.4610291,1.311615-1.1842651C320.8936157,375.1896362,320.4223022,374.8348999,319.5820007,374.8348999z
					"/>
			</g>
		</g>
		<g>
			<path fill="#ADDDEF" d="M356.6554565,218.9031677h-6.9013367c-1.3990173,0-2.5415649-1.1379395-2.5415649-2.5469513
				c0-1.4113007,1.1425476-2.5404053,2.5415649-2.5404053h6.9013367c1.4121704,0,2.5466614,1.1291046,2.5466614,2.5404053
				C359.2021179,217.7652283,358.067627,218.9031677,356.6554565,218.9031677z"/>
			<path fill="#ADDDEF" d="M356.6554565,226.5457153h-6.9013367c-1.3990173,0-2.5415649-1.1376495-2.5415649-2.54953
				c0-1.4087067,1.1425476-2.5406342,2.5415649-2.5406342h6.9013367c1.4121704,0,2.5466614,1.1319275,2.5466614,2.5406342
				C359.2021179,225.4080658,358.067627,226.5457153,356.6554565,226.5457153z"/>
			<path fill="#F2A8C8" d="M349.7541199,234.1797333c-1.3990173,0-2.5415649-1.1290588-2.5415649-2.5466614v-15.2768555
				c0-1.4113007,1.1425476-2.5404053,2.5415649-2.5404053c1.4098206,0,2.54953,1.1291046,2.54953,2.5404053v15.2768555
				C352.3036499,233.0506744,351.1639404,234.1797333,349.7541199,234.1797333z"/>
			<path fill="#ADDDEF" d="M350.732666,211.8104248c-0.5255432,0-1.0568237-0.1607971-1.512085-0.5009613
				c-0.9934692-0.7289276-1.2922058-2.059967-0.7815247-3.1339722c1.2322388-3.0133362,3.1390381-4.0333557,4.5237732-4.3529816
				c2.1685486-0.5129547,3.6292114,0.5615692,4.4141235,1.1291046c0.1182861,0.089386,0.2753296,0.201355,0.3787537,0.2679138
				c1.336731-0.2301788,2.6272278,0.616684,2.9277344,1.9502869c0.3032837,1.3712921-0.5598755,2.7394714-1.9297791,3.045105
				c-2.1558838,0.4783936-3.5977783-0.5849609-4.3803406-1.155365c-0.1068726-0.0774536-0.2422485-0.1730957-0.3467712-0.2362061
				c-0.1697083,0.0865173-0.5164185,0.3801727-0.8728943,1.281601c-0.0770874,0.1730957-0.1730957,0.4095917-0.3753052,0.6889191
				C352.2807617,211.4505615,351.5084229,211.8104248,350.732666,211.8104248z"/>
			<path fill="#ADDDEF" d="M392.70755,218.9031677h-6.8945312c-1.400116,0-2.5449219-1.1379395-2.5449219-2.5469513
				c0-1.4113007,1.1448059-2.5404053,2.5449219-2.5404053h6.8945312c1.4121399,0,2.5455017,1.1291046,2.5455017,2.5404053
				C395.2530518,217.7652283,394.1196899,218.9031677,392.70755,218.9031677z"/>
			<path fill="#ADDDEF" d="M392.70755,226.5457153h-6.8945312c-1.400116,0-2.5449219-1.1376495-2.5449219-2.54953
				c0-1.4087067,1.1448059-2.5406342,2.5449219-2.5406342h6.8945312c1.4121399,0,2.5455017,1.1319275,2.5455017,2.5406342
				C395.2530518,225.4080658,394.1196899,226.5457153,392.70755,226.5457153z"/>
			<path fill="#ADDDEF" d="M392.70755,211.090332c-0.3616028,0-0.7312012-0.0830688-1.0670776-0.244751
				c-0.8334656-0.2479095-4.460968-1.1005554-7.662323-1.823761c-1.3572998-0.3076324-2.2290344-1.6706085-1.9205627-3.0387878
				c0.3073425-1.3744354,1.6703796-2.2384949,3.0413513-1.9243164c8.9470825,2.0051575,8.9921875,2.0540009,9.6611633,2.9756775
				c0.8328857,1.1291046,0.5963745,2.7169495-0.5415649,3.5575409
				C393.7684021,210.9320984,393.2371521,211.090332,392.70755,211.090332z"/>
			<path fill="#ADDDEF" d="M325.0146484,239.6875458c-1.4030457,0-2.5466614-1.1433716-2.5466614-2.5461273v-13.4216766
				c0-1.4058533,1.1436157-2.5492401,2.5466614-2.5492401c1.4172668,0,2.5483398,1.1433868,2.5483398,2.5492401v13.4216766
				C327.5629883,238.5441742,326.4319153,239.6875458,325.0146484,239.6875458z"/>
			<path fill="#F2A8C8" d="M197.2853241,239.6875458c-1.4061279,0-2.5437927-1.1433716-2.5437927-2.5461273v-13.4216766
				c0-1.4058533,1.1376648-2.5492401,2.5437927-2.5492401c1.4104919,0,2.5441589,1.1433868,2.5441589,2.5492401v13.4216766
				C199.829483,238.5441742,198.695816,239.6875458,197.2853241,239.6875458z"/>
			<path fill="#ADDDEF" d="M227.5951538,328.1036682c-1.4047394,0-2.5481262-1.1379395-2.5481262-2.5523376v-37.1414795
				c0-1.4087219,1.1433868-2.5466614,2.5481262-2.5466614c1.4101257,0,2.5437927,1.1379395,2.5437927,2.5466614v37.1414795
				C230.1389465,326.9657288,229.0052795,328.1036682,227.5951538,328.1036682z"/>
			<path fill="#F2A8C8" d="M326.0257568,320.0689697c-1.4029846,0-2.5484009-1.1408081-2.5484009-2.5518188
				c0-2.4004211-1.9536743-4.3644409-4.365509-4.3644409c-2.4038696,0-4.3747253,1.9640198-4.3747253,4.3644409
				c0,1.4110107-1.129364,2.5518188-2.5426331,2.5518188c-1.4030457,0-2.5426941-1.1408081-2.5426941-2.5518188
				c0-5.2116089,4.2438965-9.4577637,9.4600525-9.4577637c5.2166748,0,9.4599915,4.2461548,9.4599915,9.4577637
				C328.5718384,318.9281616,327.4344788,320.0689697,326.0257568,320.0689697z"/>
			<path fill="#ADDDEF" d="M349.5672913,314.9184875c-1.4069824,0-2.5449829-1.1379395-2.5449829-2.5409851V285.724884
				c0-1.4081116,1.1380005-2.5523376,2.5449829-2.5523376c1.4098816,0,2.5455322,1.1442261,2.5455322,2.5523376v26.6526184
				C352.1128235,313.7805481,350.9771729,314.9184875,349.5672913,314.9184875z"/>
			<path fill="#ADDDEF" d="M175.4104462,262.5552368c-9.2286987,0-12.5014191-5.83078-12.5014191-10.8061676
				c0-1.5175323,0.3199158-4.4358215,2.4792786-6.9250946c2.2065125-2.5577698,5.5843353-3.8571014,10.0221405-3.8571014
				c10.2064056,0,17.6130371,4.5312195,17.6130371,10.782196
				C193.0234833,258.0123291,185.6168518,262.5552368,175.4104462,262.5552368z M175.4104462,246.0627747
				c-2.7657318,0-7.4049377,0.740036-7.4049377,5.6862946c0,2.1322021,0.9562988,5.7160187,7.4049377,5.7160187
				c6.9047852,0,12.5194244-2.5701141,12.5194244-5.7160187
				C187.9298706,249.0010071,182.9045258,246.0627747,175.4104462,246.0627747z"/>
			<path fill="#F2A8C8" d="M186.0129852,214.4608002c-1.303299,0-2.4069672-0.9880066-2.5281067-2.3044739
				c-0.1376495-1.3998871,0.8903351-2.6475067,2.2873383-2.7772064c0.0620117,0,6.7336884-0.7171631,18.431076-5.4326477
				c1.303894-0.5158234,2.7871857,0.1122437,3.3075714,1.42276c0.5209656,1.2907257-0.1025391,2.7799988-1.4104156,3.3044281
				c-12.4591827,5.0236359-19.5487671,5.7411041-19.8423615,5.7756805
				C186.1789398,214.4550629,186.0966949,214.4608002,186.0129852,214.4608002z"/>
			<path fill="#ADDDEF" d="M172.1365509,216.3016357h-17.2097015c-1.4101257,0-2.5480652-1.1347809-2.5480652-2.5403442
				c0-1.4121704,1.1379395-2.5498199,2.5480652-2.5498199h17.2097015c1.4044647,0,2.5481262,1.1376495,2.5481262,2.5498199
				C174.6846771,215.1668549,173.5410156,216.3016357,172.1365509,216.3016357z"/>
			<path fill="#F2A8C8" d="M153.6578217,237.5561676c-1.4070282,0-2.5452576-1.1379395-2.5452576-2.5526886
				c0-1.399826,1.1382294-2.54953,2.5452576-2.54953c5.6014709,0,7.0435944-1.2356262,7.2726746-1.4772797
				c0,0,0.0200043,0.2707825,0.0285492,0.3713379c-0.0028687-0.057373-0.0028687-0.1068115-0.0028687-0.1613922v-24.8782806
				c0-1.4055634,1.1339569-2.5403442,2.5467072-2.5403442c1.4029999,0,2.5463715,1.1347809,2.5463715,2.5403442v24.8554688
				c0.0045624,0.5698242-0.1251068,1.9210968-1.3912811,3.283844
				C162.7048187,236.5304718,159.1082001,237.5561676,153.6578217,237.5561676z"/>
			<path fill="#ADDDEF" d="M154.9211121,227.9662018c-1.2632904,0-2.3561249-0.9306335-2.5223846-2.2156372
				c-0.1825104-1.4030457,0.7997742-2.6703796,2.193634-2.8545837l17.6045074-2.2761688
				c1.4018097-0.1756592,2.6834717,0.8094788,2.8591461,2.1981964c0.177063,1.3970184-0.8049164,2.6737671-2.1990814,2.8608398
				l-17.6104584,2.2667542C155.1402588,227.9598694,155.024826,227.9662018,154.9211121,227.9662018z"/>
			<path fill="#ADDDEF" d="M205.6148682,226.2663879h-19.5907135c-1.4010468,0-2.5392761-1.1439514-2.5392761-2.5466461
				c0-1.4058533,1.1382294-2.5492401,2.5392761-2.5492401h19.5907135c1.4147339,0,2.5483398,1.1433868,2.5483398,2.5492401
				C208.163208,225.1224365,207.0296021,226.2663879,205.6148682,226.2663879z"/>
			<path fill="#F2A8C8" d="M303.1383057,262.5552368c-9.2223816,0-12.4968567-5.83078-12.4968567-10.8061676
				c0-1.5175323,0.3141785-4.4358215,2.4769897-6.9307556c2.2113342-2.5521088,5.5897827-3.8514404,10.0198669-3.8514404
				c10.210083,0,17.6233215,4.5312195,17.6233215,10.782196
				C320.7616272,258.0123291,313.3483887,262.5552368,303.1383057,262.5552368z M303.1383057,246.0627747
				c-2.7683105,0-7.4086304,0.740036-7.4086304,5.6862946c0,2.1322021,0.9608459,5.7160187,7.4086304,5.7160187
				c6.9036865,0,12.5248108-2.5701141,12.5248108-5.7160187
				C315.6631165,249.0010071,310.6269531,246.0627747,303.1383057,246.0627747z"/>
			<path fill="#F2A8C8" d="M313.7488708,214.4608002c-1.2996216,0-2.4067383-0.9880066-2.5375366-2.3044739
				c-0.1319885-1.3998871,0.8980408-2.6475067,2.2958679-2.7772064c0.0594482,0,6.7356873-0.7171631,18.4248047-5.4326477
				c1.3013306-0.5158234,2.7928772,0.1122437,3.3092957,1.42276c0.5244141,1.2907257-0.1045532,2.7799988-1.4087219,3.3044281
				c-12.4683228,5.0236359-19.5421448,5.7411041-19.843811,5.7756805
				C313.9082031,214.4550629,313.8294067,214.4608002,313.7488708,214.4608002z"/>
			<path fill="#F2A8C8" d="M299.8707275,216.3016357h-17.2160339c-1.4052429,0-2.5472412-1.1347809-2.5472412-2.5403442
				c0-1.4121704,1.1419983-2.5498199,2.5472412-2.5498199h17.2160339c1.4041443,0,2.5460815,1.1376495,2.5460815,2.5498199
				C302.4168091,215.1668549,301.2748718,216.3016357,299.8707275,216.3016357z"/>
			<path fill="#ADDDEF" d="M281.3905029,237.5561676c-1.4127502,0-2.5484009-1.1379395-2.5484009-2.5526886
				c0-1.399826,1.1356506-2.54953,2.5484009-2.54953c5.5897217,0,7.0242004-1.2127533,7.29953-1.5092163v-24.6363983
				c0-1.4055634,1.1288147-2.5403442,2.5409241-2.5403442c1.4093018,0,2.5461426,1.1347809,2.5461426,2.5403442v24.8554688
				c0.0091248,0.5698242-0.1239624,1.9210968-1.3847351,3.283844
				C290.4386902,236.5304718,286.8403015,237.5561676,281.3905029,237.5561676z"/>
			<path fill="#F2A8C8" d="M282.6478577,227.9662018c-1.2573547,0-2.3553162-0.9306335-2.5215454-2.2156372
				c-0.173645-1.4030457,0.8066711-2.6703796,2.2038879-2.8545837l17.5982056-2.2761688
				c1.401886-0.1756592,2.6775208,0.8094788,2.8580322,2.1981964c0.1764832,1.3970184-0.8032227,2.6737671-2.198761,2.8608398
				l-17.60849,2.2667542C282.8706665,227.9598694,282.7626648,227.9662018,282.6478577,227.9662018z"/>
			<path fill="#F2A8C8" d="M333.3504333,226.2663879h-19.5907593c-1.4046631,0-2.5437927-1.1439514-2.5437927-2.5466461
				c0-1.4058533,1.1391296-2.5492401,2.5437927-2.5492401h19.5907593c1.4132996,0,2.5472412,1.1433868,2.5472412,2.5492401
				C335.8976746,225.1224365,334.7637329,226.2663879,333.3504333,226.2663879z"/>
			
				<path fill="none" stroke="#ADDDEF" stroke-width="14" stroke-linecap="round" stroke-linejoin="round" stroke-miterlimit="10" d="
				M263.6101074,231.6330719"/>
			<path fill="#F2A8C8" d="M228.9273071,218.9031677h-6.9019318c-1.400116,0-2.5469513-1.1379395-2.5469513-2.5469513
				c0-1.4113007,1.1468353-2.5404053,2.5469513-2.5404053h6.9019318c1.3987122,0,2.5438385,1.1291046,2.5438385,2.5404053
				C231.4711456,217.7652283,230.3260193,218.9031677,228.9273071,218.9031677z"/>
			<path fill="#F2A8C8" d="M228.9273071,226.5457153h-6.9019318c-1.400116,0-2.5469513-1.1376495-2.5469513-2.54953
				c0-1.4087067,1.1468353-2.5406342,2.5469513-2.5406342h6.9019318c1.3987122,0,2.5438385,1.1319275,2.5438385,2.5406342
				C231.4711456,225.4080658,230.3260193,226.5457153,228.9273071,226.5457153z"/>
			<path fill="#F2A8C8" d="M223.0076752,211.8104248c-0.5329742,0.0091248-1.0642548-0.1607971-1.5226746-0.5009613
				c-0.986557-0.740097-1.2947845-2.059967-0.7777863-3.1402283c1.2344513-3.0070801,3.1402283-4.0270996,4.5229187-4.3467255
				c2.1690521-0.5129547,3.6329346,0.5615692,4.4160919,1.1291046c0.1225586,0.089386,0.274826,0.201355,0.3744965,0.2679138
				c1.3350372-0.2301788,2.6257477,0.616684,2.9228516,1.9502869c0.3110352,1.3712921-0.5461273,2.7394714-1.9217377,3.045105
				c-2.1547852,0.4783936-3.6066132-0.5849609-4.3818207-1.155365c-0.1122589-0.0774536-0.2402496-0.1730957-0.3370514-0.2362061
				c-0.185379,0.0865173-0.5244293,0.3801727-0.8814392,1.281601c-0.0733948,0.1730957-0.1668243,0.4095917-0.3744965,0.6889191
				C224.5497589,211.4505615,223.784256,211.8104248,223.0076752,211.8104248z"/>
			<path fill="#F2A8C8" d="M264.980011,218.9031677h-6.8979492c-1.4044495,0-2.547821-1.1379395-2.547821-2.5469513
				c0-1.4113007,1.1433716-2.5404053,2.547821-2.5404053h6.8979492c1.4086914,0,2.5451965,1.1291046,2.5451965,2.5404053
				C267.5252075,217.7652283,266.3887024,218.9031677,264.980011,218.9031677z"/>
			<path fill="#F2A8C8" d="M264.980011,226.5457153h-6.8979492c-1.4044495,0-2.547821-1.1376495-2.547821-2.54953
				c0-1.4087067,1.1433716-2.5406342,2.547821-2.5406342h6.8979492c1.4086914,0,2.5451965,1.1319275,2.5451965,2.5406342
				C267.5252075,225.4080658,266.3887024,226.5457153,264.980011,226.5457153z"/>
			<path fill="#F2A8C8" d="M264.980011,211.090332c-0.3684998,0-0.7372437-0.0830688-1.0728455-0.244751
				c-0.8317566-0.2479095-4.4620667-1.1005554-7.6511536-1.823761c-1.3773041-0.3076324-2.2373199-1.6706085-1.9217377-3.0387878
				c0.2982178-1.3744354,1.6652374-2.2384949,3.0319672-1.9243164c8.9516296,2.0051575,8.9921875,2.0540009,9.660553,2.9756775
				c0.8369141,1.1291046,0.5989685,2.7169495-0.5358276,3.5575409
				C266.0348206,210.9320984,265.5055237,211.090332,264.980011,211.090332z"/>
			<path fill="#ADDDEF" d="M246.7577209,214.4899292c-0.6149902,0-1.2402039-0.2247925-1.7357788-0.674118l-6.5117493-6.0727234
				c-1.0282593-0.9534454-1.0874023-2.5666656-0.1279907-3.5895386c0.9620361-1.0370941,2.5669556-1.0830688,3.6012573-0.1382294
				l6.511734,6.0613251c1.0253906,0.9591675,1.0913696,2.5695343,0.1325531,3.6009369
				C248.118988,214.2191467,247.439209,214.4899292,246.7577209,214.4899292z"/>
			<path fill="#ADDDEF" d="M246.7577209,227.3954926c-0.6149902,0-1.2402039-0.2245026-1.7357788-0.6741028l-6.5117493-6.0667725
				c-1.0282593-0.9591064-1.0874023-2.555191-0.1279907-3.5894775c0.9620361-1.0314178,2.5669556-1.0888062,3.6012573-0.1353607
				l6.511734,6.0610352c1.0253906,0.9591064,1.0913696,2.5640869,0.1325531,3.6009369
				C248.118988,227.1361237,247.439209,227.3954926,246.7577209,227.3954926z"/>
			<path fill="#ADDDEF" d="M236.9443512,262.9814453c-5.1910095,0-9.1087189-2.7743225-9.1087189-6.4441223
				c0-3.6817322,3.9177094-6.453186,9.1087189-6.453186h4.0113525v-3.1253662c0-1.4113007,1.1453705-2.5552063,2.5452576-2.5552063
				c2.3824768,0,3.794281-0.9362946,4.0048065-1.3510437c-0.2105255-0.4147339-1.6223297-1.362442-4.0048065-1.362442
				c-2.4369812,0-3.8614349,0.9965515-4.0184937,1.3856049c-0.0114594,1.4001312-1.1422729,2.5263672-2.5404053,2.5263672
				c-1.4132843,0-2.5514984-1.1439667-2.5514984-2.54953c0-3.6760559,3.917923-6.4497986,9.1103973-6.4497986
				c5.1958618,0,9.1047363,2.7737427,9.1047363,6.4497986c0,3.045105-2.689209,5.4734955-6.5537872,6.2078552v0.823761h9.385498
				c1.4090271,0,2.5515137,1.1382294,2.5515137,2.5355377c0,1.4141541-1.1424866,2.5518036-2.5515137,2.5518036h-9.385498v1.3572998
				C246.0519104,260.2071228,242.1368103,262.9814453,236.9443512,262.9814453z M232.9407043,256.537323
				c0.2099457,0.4118652,1.6217651,1.3539124,4.0036469,1.3539124c2.4415436,0,3.8562927-0.9936829,4.0142365-1.391571
				l-0.0028839-1.328186h-4.0113525C234.5539398,255.1714783,233.143219,256.1134644,232.9407043,256.537323z"/>
			<path fill="#ADDDEF" d="M396.349884,240.998291c-1.4110107,0-2.5489502-1.1433868-2.5489502-2.5463715v-4.2721863h-45.1322327
				v4.2721863c0,1.4029846-1.1350708,2.5463715-2.5506897,2.5463715c-1.4075623,0-2.5415039-1.1433868-2.5415039-2.5463715
				v-6.8188477c0-1.4055634,1.1339417-2.5432129,2.5415039-2.5432129h50.2318726
				c1.4047241,0,2.5449524,1.1376495,2.5449524,2.5432129v6.8188477
				C398.8948364,239.8549042,397.7546082,240.998291,396.349884,240.998291z"/>
			
				<path fill="none" stroke="#ADDDEF" stroke-width="14" stroke-linecap="round" stroke-linejoin="round" stroke-miterlimit="10" d="
				M391.3416748,231.6330719"/>
			<path fill="#F2A8C8" d="M334.65979,328.8754883c-0.5221558,0-1.0602722-0.155426-1.5092773-0.4924316
				c-0.9991455-0.740387-1.3041992-2.0713806-0.7843323-3.1459656c1.2218628-3.0042114,3.1367798-4.0239258,4.5203247-4.3523865
				c2.1673889-0.5101624,3.6326599,0.5644226,4.4180908,1.1350708c0.1193848,0.0834045,0.267395,0.2011108,0.3753357,0.2679138
				c1.3310242-0.2398987,2.62323,0.6158447,2.927124,1.9468689c0.3050537,1.3744507-0.5506897,2.7311707-1.9274292,3.0453491
				c-2.157074,0.4775696-3.6017761-0.5878296-4.3843994-1.1556396c-0.10849-0.0748291-0.2456055-0.1696472-0.3404541-0.2416077
				c-0.1782227,0.1004944-0.509552,0.3884277-0.8792114,1.2904358c-0.0696411,0.1697083-0.1650696,0.4090271-0.3678589,0.6769409
				C336.2084045,328.5155334,335.4395447,328.8754883,334.65979,328.8754883z"/>
			<path fill="#F2A8C8" d="M392.70755,234.1797333c-1.4035645,0-2.5415039-1.1290588-2.5415039-2.5466614v-15.2768555
				c0-1.4113007,1.1379395-2.5404053,2.5415039-2.5404053c1.4121399,0,2.5455017,1.1291046,2.5455017,2.5404053v15.2768555
				C395.2530518,233.0506744,394.1196899,234.1797333,392.70755,234.1797333z"/>
			<path fill="#ADDDEF" d="M367.8646851,214.3833466c-0.7146606,0-1.4201355-0.2910156-1.9239807-0.8788452
				c-0.9203186-1.0568085-0.805481-2.661499,0.2559204-3.5866852l6.7408447-5.853653
				c1.0556641-0.9185791,2.6717834-0.8066101,3.5863647,0.2539368c0.9259949,1.0625305,0.8111877,2.6672211-0.2490845,3.5832214
				l-6.7391052,5.8599701C369.0546265,214.1785583,368.4559631,214.3833466,367.8646851,214.3833466z"/>
			<path fill="#F2A8C8" d="M374.4918213,214.4899292c-0.6226196,0-1.2459106-0.2247925-1.7371826-0.674118l-6.5123291-6.0727234
				c-1.0288391-0.9534454-1.0865173-2.5666656-0.1251221-3.5895386c0.957428-1.0370941,2.571228-1.0830688,3.6006775-0.1382294
				l6.5089111,6.0613251c1.0305481,0.9591675,1.0876465,2.5695343,0.1319275,3.6009369
				C375.8560486,214.2191467,375.1733704,214.4899292,374.4918213,214.4899292z"/>
			<path fill="#ADDDEF" d="M367.8646851,227.2920837c-0.7146606,0-1.4201355-0.2913208-1.9239807-0.8674622
				c-0.9203186-1.0599518-0.805481-2.6703186,0.2559204-3.5923462l6.7408447-5.8622589
				c1.0556641-0.9014282,2.6717834-0.8066101,3.5863647,0.2565155c0.9259949,1.059967,0.8111877,2.6789246-0.2490845,3.5980835
				l-6.7391052,5.8507843C369.0546265,227.0958862,368.4559631,227.2920837,367.8646851,227.2920837z"/>
			<path fill="#F2A8C8" d="M374.4918213,227.3954926c-0.6226196,0-1.2459106-0.2245026-1.7371826-0.6741028l-6.5123291-6.0667725
				c-1.0288391-0.9591064-1.0865173-2.555191-0.1251221-3.5894775c0.957428-1.0314178,2.571228-1.0888062,3.6006775-0.1353607
				l6.5089111,6.0610352c1.0305481,0.9591064,1.0876465,2.5640869,0.1319275,3.6009369
				C375.8560486,227.1361237,375.1733704,227.3954926,374.4918213,227.3954926z"/>
			<path fill="#F2A8C8" d="M364.6719055,262.9814453c-5.1881409,0-9.1041565-2.7743225-9.1041565-6.4441223
				c0-3.6817322,3.9160156-6.453186,9.1041565-6.453186h4.0210876v-3.1253662c0-1.4113007,1.1385193-2.5552063,2.5415649-2.5552063
				c2.3809814,0,3.7931213-0.9362946,4.0022278-1.3510437c-0.2125244-0.4147339-1.6212463-1.362442-4.0022278-1.362442
				c-2.4381409,0-3.8640137,0.9965515-4.01651,1.3856049c-0.0143433,1.4001312-1.1499939,2.5263672-2.5461426,2.5263672
				c-1.4024048,0-2.5472412-1.1439667-2.5472412-2.54953c0-3.6760559,3.9171143-6.4497986,9.1098938-6.4497986
				c5.1870117,0,9.1064453,2.7737427,9.1064453,6.4497986c0,3.045105-2.691803,5.4734955-6.5637817,6.2078552v0.823761h9.3931885
				c1.4069824,0,2.5449829,1.1382294,2.5449829,2.5355377c0,1.4141541-1.1380005,2.5518036-2.5449829,2.5518036h-9.3931885
				v1.3572998C373.7772217,260.2071228,369.8749695,262.9814453,364.6719055,262.9814453z M360.6731262,256.537323
				c0.2079468,0.4118652,1.615509,1.3539124,3.9987793,1.3539124c2.4324341,0,3.8594666-0.9936829,4.0210876-1.391571v-1.328186
				h-4.0210876C362.2863464,255.1714783,360.881073,256.1134644,360.6731262,256.537323z"/>
			<path fill="#F2A8C8" d="M271.7539368,320.5613708c-9.2280579,0-12.4976807-5.8217163-12.4976807-10.808197
				c0-1.5241394,0.3167725-4.4300842,2.4783936-6.9310608c2.2056274-2.5409851,5.5772095-3.8457031,10.0192871-3.8457031
				c10.2077942,0,17.6130371,4.5340271,17.6130371,10.7767639
				C289.3669739,316.0187683,281.961731,320.5613708,271.7539368,320.5613708z M271.7539368,304.07547
				c-2.7622986,0-7.4092102,0.7426147-7.4092102,5.6777039c0,2.1313782,0.9665833,5.7125549,7.4092102,5.7125549
				c6.9025574,0,12.5265503-2.5666809,12.5265503-5.7125549C284.2804871,307.0019836,279.2437439,304.07547,271.7539368,304.07547z"
				/>
			
				<path fill="none" stroke="#ADDDEF" stroke-width="14" stroke-linecap="round" stroke-linejoin="round" stroke-miterlimit="10" d="
				M254.9043884,291.1638794"/>
			<path fill="#ADDDEF" d="M301.22229,287.948822c-1.0025024-0.9968262-2.6157837-0.9911194-3.6040649,0.0119934
				c-0.0159912,0.0280151-2.1696472,2.1256714-5.7342529,3.203064c-4.8808594,1.5092773-9.9713135,0.4375305-15.117218-3.1750488
				c-0.865448-0.6129761-1.7229004-1.1607971-2.5512085-1.6789551c0.526123-0.9853821,0.9005432-2.0456543,1.1179199-3.1921997
				h12.3580322c1.4058838,0,2.5472412-1.1401978,2.5472412-2.5466309c0-1.4084473-1.1413574-2.5460815-2.5472412-2.5460815
				h-14.6670837c-1.4029541,0-2.5492249,1.1376343-2.5492249,2.5460815c0,1.26474-0.2490845,2.354126-0.7417908,3.3018494
				c-8.0315552-3.7914124-13.82901-3.4832764-14.9683533-3.3761597c-4.564682,0.0517273-8.1127472,2.9351501-8.1127472,6.60495
				c0,3.6703186,3.5509338,6.5483093,8.1167297,6.6025696c0.2668152,0.0320129,1.0716553,0.0839539,2.2184906,0.0839539
				c3.3153076,0,9.4805908-0.4786682,13.7927551-3.6011658c0.9868164,0.576355,2.0068359,1.2327576,3.0553284,1.9650574
				c5.1522217,3.6206665,9.8633728,4.7557373,13.7467346,4.7557373c2.2273865,0,4.1788025-0.3718567,5.794281-0.867157
				c4.8282776-1.4835205,7.7354126-4.3729858,7.8514099-4.4969482
				C302.2214355,290.5474854,302.2168579,288.9285278,301.22229,287.948822z M255.1309509,288.6343384
				c-0.0462799-0.0057068-0.095108-0.0057068-0.1382904-0.0057068c-0.0262604,0-0.0576782-0.0114136-0.0882721-0.0114136
				c-1.9585266,0-3.1570129-0.9797058-3.1570129-1.5155334c0-0.5415649,1.1984863-1.5178833,3.1570129-1.5178833
				c0.1096802,0,0.2191315-0.0056763,0.3390503-0.0291443c0.0114594,0,1.8983459-0.2010498,4.9802551,0.4261475
				c1.3296204,0.274231,2.9933777,0.7175293,4.9162292,1.4641724
				C261.5101318,288.7731628,257.0063477,288.7988281,255.1309509,288.6343384z"/>
			
				<path fill="none" stroke="#ADDDEF" stroke-width="14" stroke-linecap="round" stroke-linejoin="round" stroke-miterlimit="10" d="
				M280.2428589,290.328125"/>
			<path fill="#ADDDEF" d="M273.0244141,283.1176758c-1.4029541,0-2.5492249-1.1401978-2.5492249-2.5466309v-9.4629211
				c0-1.3998413,1.1462708-2.5412292,2.5492249-2.5412292c1.4073181,0,2.547821,1.1413879,2.547821,2.5412292v9.4629211
				C275.5722351,281.977478,274.4317322,283.1176758,273.0244141,283.1176758z"/>
			
				<path fill="none" stroke="#ADDDEF" stroke-width="14" stroke-linecap="round" stroke-linejoin="round" stroke-miterlimit="10" d="
				M260.6055603,287.1016846"/>
			<path fill="#ADDDEF" d="M274.3077698,328.2219543c-1.4027405,0-2.5406799-1.1385193-2.5406799-2.5409851v-29.1187134
				c0-1.4115906,1.1379395-2.5523987,2.5406799-2.5523987c1.4090271,0,2.553833,1.1408081,2.553833,2.5523987v29.1187134
				C276.8616028,327.0834351,275.7167969,328.2219543,274.3077698,328.2219543z"/>
			<path fill="#F2A8C8" d="M260.0900269,329.5238647c-1.2990417,0-2.4055786-0.9877319-2.527832-2.3107605
				c-0.1268005-1.4024658,0.8985596-2.638092,2.3044739-2.7648926l28.4297485-2.5957947
				c1.4064331-0.1296997,2.6363831,0.9014282,2.771759,2.2987366c0.1239624,1.400177-0.9060059,2.6414795-2.3130188,2.7797241
				l-28.4260559,2.5872498C260.249939,329.5238647,260.1690979,329.5238647,260.0900269,329.5238647z"/>
			<path fill="#F2A8C8" d="M206.8896179,294.1624146c-0.9357147,0-1.838028-0.5152893-2.2801971-1.4281311
				c-0.62323-1.2562256-0.1079254-2.7774963,1.1556549-3.4024048c8.6465912-4.2867737,8.7568665-17.4319458,8.7568665-17.5730896
				c0-1.3998413,1.1356506-2.534668,2.5429077-2.5489502h0.0011749c1.4061432,0,2.54039,1.131958,2.5449524,2.5404053
				c0.0028076,0.6740417-0.0837097,16.4522095-11.5922546,22.1470642
				C207.6559906,294.0761414,207.2700806,294.1624146,206.8896179,294.1624146z"/>
			<path fill="#ADDDEF" d="M214.9543457,328.8754883c-1.4055634,0-2.5449677-1.1408081-2.5449677-2.5432739v-43.5715332
				c0-1.4056091,1.1394043-2.54953,2.5449677-2.54953c1.4015808,0,2.5437927,1.1439209,2.5437927,2.54953v43.5715332
				C217.4981384,327.7346802,216.3559265,328.8754883,214.9543457,328.8754883z"/>
			<path fill="#F2A8C8" d="M236.4288177,290.9507751h-21.474472c-1.4055634,0-2.5449677-1.1436157-2.5449677-2.5409241
				c0-1.4087219,1.1394043-2.5466614,2.5449677-2.5466614h21.474472c1.4061432,0,2.5451965,1.1379395,2.5451965,2.5466614
				C238.9740143,289.8071594,237.8349609,290.9507751,236.4288177,290.9507751z"/>
			<path fill="#F2A8C8" d="M236.4288177,303.5967102h-21.474472c-1.4055634,0-2.5449677-1.1430664-2.5449677-2.5403748
				c0-1.4143982,1.1394043-2.5523987,2.5449677-2.5523987h21.474472c1.4061432,0,2.5451965,1.1380005,2.5451965,2.5523987
				C238.9740143,302.4536438,237.8349609,303.5967102,236.4288177,303.5967102z"/>
			<path fill="#F2A8C8" d="M236.4288177,316.2375183h-21.474472c-1.4055634,0-2.5449677-1.1401978-2.5449677-2.5461121
				c0-1.4035645,1.1394043-2.5466614,2.5449677-2.5466614h21.474472c1.4061432,0,2.5451965,1.1430969,2.5451965,2.5466614
				C238.9740143,315.0973206,237.8349609,316.2375183,236.4288177,316.2375183z"/>
			<path fill="#F2A8C8" d="M236.4288177,328.8754883h-21.474472c-1.4055634,0-2.5449677-1.1408081-2.5449677-2.5432739
				c0-1.4093018,1.1394043-2.5466614,2.5449677-2.5466614h21.474472c1.4061432,0,2.5451965,1.1373596,2.5451965,2.5466614
				C238.9740143,327.7346802,237.8349609,328.8754883,236.4288177,328.8754883z"/>
			<path fill="#F2A8C8" d="M186.6079559,277.0049438c-1.1984711,0-2.2713165-0.8583069-2.5017853-2.0768127
				c-0.2622375-1.3887024,0.6437531-2.7140198,2.025116-2.9728088l14.2108459-2.6966248
				c1.3884888-0.2593384,2.7160645,0.6509399,2.9868469,2.0250854c0.2584991,1.3858948-0.6495361,2.713501-2.0296631,2.9814148
				l-14.2203369,2.6966248C186.9230194,276.9758301,186.7604675,277.0049438,186.6079559,277.0049438z"/>
			<path fill="#ADDDEF" d="M186.3992004,286.0099487c-1.261673,0-2.3636322-0.9391174-2.5167236-2.2324829
				c-0.1599274-1.2790222,0.6615448-2.4572144,1.88974-2.7711487c0.0434113-0.0922546,0.104248-0.1899414,0.1571198-0.2735901
				c0.4624176-0.7866821,1.4192657-2.4002075,3.5866241-2.6709595c2.0165558-0.2530823,3.2969971,0.8649292,3.9853821,1.5475769
				c0.4983978-0.8243408,1.4732361-2.2356262,3.4803772-2.4833069c2.1690674-0.2679138,3.492981,1.0657043,4.1367798,1.7112122
				c0.0705566,0.065979,0.1536713,0.1496887,0.2273254,0.2190552c1.2573853,0,2.3478851,0.9414673,2.5050049,2.2265015
				c0.1756592,1.4001465-0.8168945,2.6700439-2.2039185,2.8431396c-2.0120087,0.250824-3.2987518-0.8700256-3.9870758-1.5526733
				c-0.4984589,0.8323364-1.4667664,2.2325134-3.4758301,2.4833069c-2.0074463,0.2621765-3.290741-0.8695068-3.988266-1.5464478
				c-0.495575,0.8180237-1.4632874,2.2347717-3.4786835,2.4769897
				C186.6108246,286.0099487,186.5074158,286.0099487,186.3992004,286.0099487z"/>
			<path fill="#F2A8C8" d="M201.0070648,318.1535339h-14.708725c-1.4101105,0-2.5449524-1.1465454-2.5449524-2.5466614
				c0-1.4059143,1.1348419-2.5432739,2.5449524-2.5432739h14.708725c1.4090118,0,2.5455475,1.1373596,2.5455475,2.5432739
				C203.5526123,317.0069885,202.4160767,318.1535339,201.0070648,318.1535339z"/>
			<path fill="#ADDDEF" d="M185.6356812,328.7691956c-1.1365356,0-2.1690521-0.7603455-2.4632416-1.9102783
				c-0.348465-1.3595886,0.4655762-2.7540283,1.8234253-3.1025085c5.4866333-1.4287109,6.2789764-12.9024048,6.1233063-16.8058167
				c-0.0576782-1.3973389,1.0311279-2.5900879,2.4458923-2.6478271c1.3869934-0.0541992,2.5826263,1.0345764,2.6457367,2.4341736
				c0.005722,0.1930542,0.1759491,4.6494446-0.793457,9.4491882c-0.9785919,4.8710632-3.3572998,10.9932861-9.1438751,12.499115
				C186.06073,328.7371826,185.8433533,328.7691956,185.6356812,328.7691956z"/>
			<path fill="#F2A8C8" d="M202.8080139,309.7531738c-0.7737885,0-1.5358429-0.3570251-2.0428314-1.0140076l-1.310791-1.7548828
				c-2.4932556,1.2910156-6.7419434,3.1230774-10.1180725,2.7140503c-1.958313-0.2593689-3.357605-0.9448853-4.2767639-2.1256409
				c-0.9034271-1.1665344-1.2184906-2.6734924-0.977951-4.6037598c0.1713409-1.3453064,0.5023651-2.5924072,0.9357147-3.7388916
				c-1.2730713-1.7571716-1.8448792-3.7017822-1.6700897-5.6611938c0.3264771-3.6383362,3.0559387-6.011322,3.3687134-6.2792969
				c1.0813751-0.8934021,2.6891632-0.746582,3.5840454,0.3364868c0.8968658,1.0802612,0.7569427,2.6672363-0.3055725,3.5726929
				c-0.0506134,0.0399475-0.8977661,0.7888794-1.3384857,1.866272c-0.1205597,0.3027954-0.2259064,0.6392517-0.2519379,1.026001
				c2.0325317-1.956543,4.4655304-3.1402283,6.720871-3.4978333c3.4740601-0.5586853,6.4226685,0.7346497,7.7002869,3.3904114
				c1.2196045,2.5301208,0.1899414,5.3241577-2.6146851,7.1447449c0.7623291,0.0176697,1.5024261,0.3656006,1.9854279,1.0168457
				l2.6497955,3.5315247c0.8394318,1.1236572,0.6138,2.7254333-0.5127258,3.5668945
				C203.8733673,309.5858154,203.3438416,309.7531738,202.8080139,309.7531738z M189.1126251,304.4324646
				c0.1120148,0.0548706,0.3630829,0.1382141,0.8537598,0.2016296c1.7272339,0.2188416,4.6340637-0.8962708,6.8982239-2.045105
				c-1.2356262,0.3450928-2.5698242,0.5358887-3.8540039,0.518158c-1.325592-0.019989-2.5583496-0.2330933-3.6742859-0.6221008
				c-0.0779877,0.3661804-0.1445618,0.7403259-0.2093658,1.1350708
				C189.0711975,304.066864,189.0892181,304.3199158,189.1126251,304.4324646z M191.7892609,297.8875427
				c0.9977112,0.1931152,2.0939484,0.140564,3.0405426-0.043396c2.0348053-0.4004822,3.1656189-1.2904358,3.387558-1.6937866
				c-0.3584747-0.6021118-1.4404297-0.6683655-2.2755737-0.532959
				C194.5544586,295.848175,193.0348816,296.6027832,191.7892609,297.8875427z"/>
			<path fill="#ADDDEF" d="M319.1118469,328.8754883c-1.4007568,0-2.5415649-1.1408081-2.5415649-2.5432739v-54.5734253
				c0-1.4113159,1.1408081-2.5489502,2.5415649-2.5489502c1.4029846,0,2.5483704,1.1376343,2.5483704,2.5489502v54.5734253
				C321.6602173,327.7346802,320.5148315,328.8754883,319.1118469,328.8754883z"/>
			<path fill="#F2A8C8" d="M362.4274597,288.2630005h-25.708313c-1.4059143,0-2.5461121-1.1322021-2.5461121-2.5381165
				c0-1.4081116,1.1401978-2.5523376,2.5461121-2.5523376h25.708313c1.3989868,0,2.5392151,1.1442261,2.5392151,2.5523376
				C364.9666748,287.1307983,363.8264465,288.2630005,362.4274597,288.2630005z"/>
			<path fill="#F2A8C8" d="M362.4274597,301.5893555h-25.708313c-1.4059143,0-2.5461121-1.1293945-2.5461121-2.5467224
				c0-1.4058533,1.1401978-2.5466614,2.5461121-2.5466614h25.708313c1.3989868,0,2.5392151,1.1408081,2.5392151,2.5466614
				C364.9666748,300.4599609,363.8264465,301.5893555,362.4274597,301.5893555z"/>
			<path fill="#F2A8C8" d="M362.4274597,314.9184875h-25.708313c-1.4059143,0-2.5461121-1.1379395-2.5461121-2.5409851
				c0-1.4115295,1.1401978-2.5460815,2.5461121-2.5460815h25.708313c1.3989868,0,2.5392151,1.134552,2.5392151,2.5460815
				C364.9666748,313.7805481,363.8264465,314.9184875,362.4274597,314.9184875z"/>
			<path fill="#F2A8C8" d="M319.1118469,290.0344849c-5.216156,0-9.4600525-4.2433167-9.4600525-9.4634399
				c0-1.4084473,1.1396484-2.5460815,2.5426941-2.5460815c1.413269,0,2.5426331,1.1376343,2.5426331,2.5460815
				c0,2.414093,1.9708557,4.3672485,4.3747253,4.3672485c2.4118347,0,4.365509-1.9531555,4.365509-4.3672485
				c0-1.4084473,1.1454163-2.5460815,2.5484009-2.5460815c1.4087219,0,2.5460815,1.1376343,2.5460815,2.5460815
				C328.5718384,285.7911682,324.3285217,290.0344849,319.1118469,290.0344849z"/>
			<path fill="#ADDDEF" d="M232.1077728,277.0049438c0,2.3475952-1.9159393,4.2607422-4.2721405,4.2607422
				c-2.3589935,0-4.2692719-1.913147-4.2692719-4.2607422c0-2.3624573,1.9102783-4.2692566,4.2692719-4.2692566
				C230.1918335,272.7356873,232.1077728,274.6424866,232.1077728,277.0049438z"/>
			<path fill="#F2A8C8" d="M204.0999146,324.4910889c0,2.3649597-1.913208,4.2781067-4.2704315,4.2781067
				c-2.3550415,0-4.2664795-1.913147-4.2664795-4.2781067c0-2.3565063,1.911438-4.260498,4.2664795-4.260498
				C202.1867065,320.2305908,204.0999146,322.1345825,204.0999146,324.4910889z"/>
			<path fill="#ADDDEF" d="M301.588501,323.2633972c0,2.3656311-1.9125671,4.2695618-4.2718811,4.2695618
				c-2.3495789,0-4.2713013-1.9039307-4.2713013-4.2695618c0-2.3529663,1.9217224-4.265564,4.2713013-4.265564
				C299.6759338,318.9978333,301.588501,320.9104309,301.588501,323.2633972z"/>
			<g>
				<path fill="#ADDDEF" d="M338.387207,273.4819641c0-2.3538513,1.9205627-4.2721252,4.2735901-4.2721252
					c2.3581238,0,4.2627258,1.9182739,4.2627258,4.2721252c0,2.3533325-1.9046021,4.2658997-4.2627258,4.2658997
					C340.3077698,277.7478638,338.387207,275.8352966,338.387207,273.4819641z"/>
				<path fill="#F2A8C8" d="M352.2116394,273.4819641c0-2.3538513,1.9148865-4.2721252,4.2724915-4.2721252
					c2.3546448,0,4.2695618,1.9182739,4.2695618,4.2721252c0,2.3533325-1.914917,4.2658997-4.2695618,4.2658997
					C354.1265259,277.7478638,352.2116394,275.8352966,352.2116394,273.4819641z"/>
			</g>
			<path fill="#ADDDEF" d="M346.2751465,324.609314c0-2.3564453,1.9171143-4.2667236,4.2718506-4.2667236
				c2.3575745,0,4.2724304,1.9102783,4.2724304,4.2667236c0,2.3564148-1.914856,4.2661743-4.2724304,4.2661743
				C348.1922607,328.8754883,346.2751465,326.9657288,346.2751465,324.609314z"/>
			<path fill="#F2A8C8" d="M356.4327087,324.609314c0-2.3564453,1.911377-4.2667236,4.2661133-4.2667236
				c2.3610229,0,4.2678528,1.9102783,4.2678528,4.2667236c0,2.3564148-1.9068298,4.2661743-4.2678528,4.2661743
				C358.3440857,328.8754883,356.4327087,326.9657288,356.4327087,324.609314z"/>
			<path fill="#F2A8C8" d="M326.0257568,301.5893555h-13.8312683c-1.4030457,0-2.5426941-1.1293945-2.5426941-2.5467224
				c0-1.4058533,1.1396484-2.5466614,2.5426941-2.5466614h13.8312683c1.4087219,0,2.5460815,1.1408081,2.5460815,2.5466614
				C328.5718384,300.4599609,327.4344788,301.5893555,326.0257568,301.5893555z"/>
			<path fill="#F2A8C8" d="M299.4291382,280.0351868c-1.4161682,0-2.5507202-1.1433716-2.5507202-2.5489197
				c0-1.4693298-0.5289917-2.1202698-0.9305725-2.4810181c-1.4429932-1.3390198-4.394104-1.3998413-5.1138916-1.3361511
				c-0.0616455,0-0.133667,0.0142822-0.2107544,0.0142822h-36.6836548c-1.4101257,0-2.5534973-1.1433716-2.5534973-2.5552673
				c0-1.3973083,1.1433716-2.5406189,2.5534973-2.5406189h36.5962524c0.9545593-0.0636902,5.7377014-0.2162781,8.8636169,2.66745
				c1.6852417,1.5381165,2.5746765,3.7015076,2.5746765,6.2313232
				C301.9740906,278.8918152,300.8344116,280.0351868,299.4291382,280.0351868z"/>
			<path fill="#F2A8C8" d="M175.6164093,238.6478271c-1.4073181,0-2.54953-1.1350708-2.54953-2.5498199
				c0-1.3970184,1.1422119-2.5460663,2.54953-2.5460663c2.5223846,0,4.3858032-0.6683807,5.6880035-2.0485687
				c2.3967285-2.5580597,2.1736145-6.8013611,2.1736145-6.8359375c-0.0113983-0.0545654-0.0113983-0.117981-0.0113983-0.1730804
				v-5.8273926c0-1.4090118,1.1444855-2.5552673,2.5518036-2.5552673c1.4006958,0,2.5469513,1.1462555,2.5469513,2.5552673
				v5.7613983c0.038559,0.8903198,0.1611023,6.5766296-3.5172424,10.5205994
				C182.7591095,237.4030762,179.5831909,238.6478271,175.6164093,238.6478271z"/>
			<path fill="#ADDDEF" d="M222.0253754,234.1797333c-1.400116,0-2.5469513-1.1290588-2.5469513-2.5466614v-15.2768555
				c0-1.4113007,1.1468353-2.5404053,2.5469513-2.5404053c1.4073181,0,2.5460815,1.1291046,2.5460815,2.5404053v15.2768555
				C224.5714569,233.0506744,223.4326935,234.1797333,222.0253754,234.1797333z"/>
			<path fill="#F2A8C8" d="M240.131134,214.3833466c-0.7089233,0-1.4147339-0.2910156-1.9177551-0.8788452
				c-0.9205627-1.0568085-0.8105927-2.661499,0.2508392-3.5866852l6.7411041-5.853653
				c1.0596771-0.9185791,2.6717834-0.8066101,3.5860901,0.2539368c0.9239655,1.0625305,0.8083191,2.6672211-0.2502441,3.5832214
				l-6.7400055,5.8599701C241.3221893,214.1785583,240.7329559,214.3833466,240.131134,214.3833466z"/>
			<path fill="#F2A8C8" d="M240.131134,227.2920837c-0.7089233,0-1.4147339-0.2913208-1.9177551-0.8674622
				c-0.9205627-1.0599518-0.8105927-2.6703186,0.2508392-3.5923462l6.7411041-5.8622589
				c1.0596771-0.9014282,2.6717834-0.8066101,3.5860901,0.2565155c0.9239655,1.059967,0.8083191,2.6789246-0.2502441,3.5980835
				l-6.7400055,5.8507843C241.3221893,227.0958862,240.7329559,227.2920837,240.131134,227.2920837z"/>
			<path fill="#F2A8C8" d="M268.6140442,240.998291c-1.3998718,0-2.5423889-1.1433868-2.5423889-2.5463715v-4.2721863h-45.1339722
				v4.2721863c0,1.4029846-1.1424866,2.5463715-2.5451813,2.5463715c-1.4113007,0-2.5478363-1.1433868-2.5478363-2.5463715
				v-6.8188477c0-1.4055634,1.1365356-2.5432129,2.5478363-2.5432129h50.2215424
				c1.4129944,0,2.5523987,1.1376495,2.5523987,2.5432129v6.8188477
				C271.1664429,239.8549042,270.0270386,240.998291,268.6140442,240.998291z"/>
			<path fill="#ADDDEF" d="M264.980011,234.1797333c-1.4118958,0-2.5507202-1.1290588-2.5507202-2.5466614v-15.2768555
				c0-1.4113007,1.1388245-2.5404053,2.5507202-2.5404053c1.4086914,0,2.5451965,1.1291046,2.5451965,2.5404053v15.2768555
				C267.5252075,233.0506744,266.3887024,234.1797333,264.980011,234.1797333z"/>
			<path fill="#ADDDEF" d="M303.3485413,238.6478271c-1.4093018,0-2.5484314-1.1350708-2.5484314-2.5498199
				c0-1.3970184,1.1391296-2.5460663,2.5484314-2.5460663c2.5215149,0,4.3849792-0.6683807,5.6851196-2.0485687
				c2.4101868-2.5580597,2.1753845-6.8013611,2.1753845-6.8359375c-0.0034485-0.0545654-0.0102844-0.117981-0.0102844-0.1730804
				v-5.8273926c0-1.4090118,1.1470642-2.5552673,2.5512085-2.5552673c1.3990173,0,2.5461426,1.1462555,2.5461426,2.5552673
				v5.7613983c0.0376587,0.8903198,0.1593323,6.5766296-3.5155334,10.5205994
				C310.4904175,237.4030762,307.3227539,238.6478271,303.3485413,238.6478271z"/>
		</g>
	</g>
	<g>
		<g>
			<g>
				<path fill="#EEEEEF" d="M260.9703369,436.3735962c6.432373,3.2236633,12.9415283,5.6058044,20.0688477,3.7189331
					c3.7211609-0.9277649,9.4051819-3.8400269,10.3055115-7.7171326c0.6312256-4.20047-2.9728088-7.1675415-6.1947632-4.2638855
					c-2.5215149,2.267334-5.9450378,3.1922302-9.4954529,2.0079651c-2.9499817-1.1408081-7.5057068-2.6791687-10.2826233-4.4021301
					C259.9443665,422.3475342,252.6505127,431.9778137,260.9703369,436.3735962"/>
			</g>
			<g>
				<path fill="#EEEEEF" d="M407.7384949,367.8381042c6.0136414-3.9553833,11.3303223-8.4060669,13.2657471-15.5250549
					c1.0465393-3.6874695,1.3687439-10.0592957-1.5395203-12.7841797c-3.3218689-2.6358337-7.698822-0.9997253-6.7922668,3.2407227
					c0.7054749,3.3069763-0.2011108,6.7380066-3.0025635,9.2241211c-2.4569397,1.9759521-6.0672913,5.1567078-8.9584351,6.7059631
					C395.0742798,361.7193909,399.7751465,372.8503418,407.7384949,367.8381042"/>
			</g>
			<g>
				<path fill="#EEEEEF" d="M421.7720032,206.4671478c-0.4278564-7.187561-1.6143494-14.0178223-6.811676-19.2490692
					c-2.6631775-2.7543182-8.0250549-6.2198486-11.8444824-5.0588074c-3.9433899,1.5584106-4.7191162,6.1533356-0.5815125,7.498642
					c3.2127686,1.0370941,5.7285767,3.5435028,6.4746704,7.2158203c0.4906616,3.1147766,1.441803,7.8362274,1.3344116,11.099823
					C410.1377869,214.3742218,422.1273193,215.869812,421.7720032,206.4671478"/>
			</g>
			<g>
				<path fill="#EEEEEF" d="M289.0362244,113.6231766c-6.4363403-3.220192-12.9464111-5.6025848-20.0694275-3.7185822
					c-3.7206421,0.929985-9.4040833,3.8368683-10.3043518,7.7199402c-0.6292114,4.1976166,2.9773865,7.1647491,6.1889648,4.2607346
					c2.5224609-2.2667542,5.9462585-3.1918793,9.4995117-2.0022278c2.9459229,1.129631,7.5051575,2.6734772,10.2831726,4.3989563
					C290.0667725,127.6581421,297.3543091,118.0192719,289.0362244,113.6231766"/>
			</g>
			<g>
				<path fill="#EEEEEF" d="M142.2663269,182.1647186c-6.009613,3.9582367-11.3289032,8.4006042-13.2648621,15.5130615
					c-1.0482559,3.690033-1.3707504,10.0653076,1.5384216,12.7907867c3.3318481,2.6411896,7.7016754,1.0022278,6.7884827-3.237915
					c-0.7028961-3.3072968,0.2073822-6.7382507,3.0134125-9.2275238c2.4569855-1.9819794,6.0696259-5.1618652,8.9504852-6.6977081
					C154.937149,188.2720184,150.2314301,177.1496582,142.2663269,182.1647186"/>
			</g>
			<g>
				<path fill="#EEEEEF" d="M128.2337036,343.5270691c0.4275513,7.1932678,1.6132202,14.0209656,6.809082,19.2519836
					c2.667511,2.7540283,8.0313263,6.2135315,11.8399353,5.0590515c3.9508057-1.5560913,4.7185822-6.1593018,0.5989532-7.5074768
					c-3.2176208-1.0339355-5.7386017-3.5349121-6.4875336-7.210968c-0.4878082-3.1167603-1.4389648-7.8382263-1.3321381-11.102417
					C139.8679504,335.6277161,127.8797989,334.1270142,128.2337036,343.5270691"/>
			</g>
		</g>
		<g>
			<g>
				<path fill="#F7F7F7" d="M343.5365601,421.7683105c7.1892395-0.4296265,14.0123596-1.6132507,19.2479553-6.8077087
					c2.7466125-2.6585999,6.2130127-8.0335999,5.0687561-11.8421936c-1.5658569-3.9553833-6.166748-4.7214661-7.5137329-0.5906372
					c-1.0351868,3.2201843-3.5407104,5.7268372-7.2087402,6.484314c-3.1230469,0.4872742-7.8388062,1.4292908-11.1086731,1.3276367
					C335.6268921,410.1386108,334.1410217,422.1167603,343.5365601,421.7683105"/>
			</g>
			<g>
				<path fill="#F7F7F7" d="M436.3773804,289.0319519c3.2196045-6.4329529,5.6028748-12.9490356,3.7211304-20.0671692
					c-0.934021-3.7306213-3.8411255-9.4085999-7.7182312-10.3100586c-4.2073364-0.6195374-7.1618958,2.9728088-4.2707214,6.2021484
					c2.2684326,2.5149536,3.2024536,5.9373474,2.0136719,9.4862976c-1.1379395,2.9554443-2.6797791,7.5074768-4.3986511,10.2872009
					C422.3478394,290.0687561,431.9832458,297.3483276,436.3773804,289.0319519"/>
			</g>
			<g>
				<path fill="#F7F7F7" d="M367.8520813,142.2580719c-3.9742126-6.0068054-8.4122925-11.3243408-15.531311-13.2632141
					c-3.6817932-1.0425339-10.0621338-1.367836-12.7847595,1.5384064c-2.6437683,3.3244324-0.9974365,7.6971283,3.2315979,6.7953949
					c3.3184509-0.7023621,6.7477112,0.2022247,9.2303772,3.0019989c1.9839783,2.4603729,5.1573181,6.075592,6.7042847,8.9532928
					C361.7242737,154.9248505,372.8466187,150.2259827,367.8520813,142.2580719"/>
			</g>
			<g>
				<path fill="#F7F7F7" d="M206.4703217,128.2259674c-7.188736,0.4258575-14.0189362,1.6160889-19.2502441,6.8096771
					c-2.750885,2.6737671-6.2155914,8.0347748-5.061615,11.8433228c1.5640869,3.9579468,6.1595306,4.7214508,7.5031433,0.593277
					c1.0400391-3.223938,3.5443878-5.7240295,7.2158813-6.4872437c3.120224-0.4841156,7.84021-1.4261475,11.107254-1.3284607
					C214.3825378,139.864212,215.8689423,127.8743439,206.4703217,128.2259674"/>
			</g>
			<g>
				<path fill="#F7F7F7" d="M113.6343613,260.9591675c-3.2321854,6.438385-5.6117783,12.9546814-3.7249069,20.0762634
					c0.9248352,3.7183533,3.8396759,9.4023743,7.7159653,10.3129272c4.2027664,0.6072693,7.1715927-2.9848022,4.2710266-6.2078552
					c-2.2730637-2.5066528-3.193634-5.9373474-2.0091324-9.4922791c1.1348419-2.9474182,2.6769333-7.504303,4.3927078-10.2814941
					C127.6692657,259.930603,118.0258942,252.6422577,113.6343613,260.9591675"/>
			</g>
			<g>
				<path fill="#F7F7F7" d="M182.1630249,407.7393494c3.9608154,6.0056458,8.4060516,11.317749,15.523941,13.2566223
					c3.6788635,1.057373,10.0626831,1.3744202,12.7824249-1.5327454c2.6486816-3.3241272,1.0051575-7.6942444-3.2281494-6.7956238
					c-3.3161774,0.6974487-6.7411652-0.2068481-9.2355347-3.0100098c-1.9780121-2.4512634-5.1595764-6.0644226-6.7022705-8.9481506
					C188.2803192,395.0636902,177.1573334,399.7702637,182.1630249,407.7393494"/>
			</g>
		</g>
	</g>
</g>
</svg>
