<?xml version="1.0" encoding="utf-8"?>
<!-- Generator: Adobe Illustrator 18.0.0, SVG Export Plug-In . SVG Version: 6.00 Build 0)  -->
<!DOCTYPE svg PUBLIC "-//W3C//DTD SVG 1.1//EN" "http://www.w3.org/Graphics/SVG/1.1/DTD/svg11.dtd" [
	<!ENTITY ns_extend "http://ns.adobe.com/Extensibility/1.0/">
	<!ENTITY ns_ai "http://ns.adobe.com/AdobeIllustrator/10.0/">
	<!ENTITY ns_graphs "http://ns.adobe.com/Graphs/1.0/">
	<!ENTITY ns_vars "http://ns.adobe.com/Variables/1.0/">
	<!ENTITY ns_imrep "http://ns.adobe.com/ImageReplacement/1.0/">
	<!ENTITY ns_sfw "http://ns.adobe.com/SaveForWeb/1.0/">
	<!ENTITY ns_custom "http://ns.adobe.com/GenericCustomNamespace/1.0/">
	<!ENTITY ns_adobe_xpath "http://ns.adobe.com/XPath/1.0/">
]>
<svg version="1.1" id="圖層_1" xmlns:x="&ns_extend;" xmlns:i="&ns_ai;" xmlns:graph="&ns_graphs;"
	 xmlns="http://www.w3.org/2000/svg" xmlns:xlink="http://www.w3.org/1999/xlink" x="0px" y="0px" viewBox="-1082 0 550 550"
	 enable-background="new -1082 0 550 550" xml:space="preserve">
<metadata>
	<sfw  xmlns="&ns_sfw;">
		<slices></slices>
		<sliceSourceBounds  width="2437.1" height="565.9" x="-1715" y="-15.9" bottomLeftOrigin="true"></sliceSourceBounds>
	</sfw>
</metadata>
<g>
	<defs>
		<rect id="SVGID_3_" x="-1081" width="549" height="551.5"/>
	</defs>
	<clipPath id="SVGID_2_">
		<use xlink:href="#SVGID_3_"  overflow="visible"/>
	</clipPath>
	<g clip-path="url(#SVGID_2_)">
		<g>
			<path fill="#CC7380" d="M-807.6,563.9c-48.2,0-87.4-39.2-87.4-87.4c0-48.2,39.2-87.4,87.4-87.4s87.4,39.2,87.4,87.4
				C-720.2,524.7-759.4,563.9-807.6,563.9z M-807.6,399.8c-42.3,0-76.7,34.4-76.7,76.7s34.4,76.7,76.7,76.7s76.6-34.5,76.6-76.7
				S-765.4,399.8-807.6,399.8z"/>
			<circle fill="#CC7380" cx="-856.8" cy="481.5" r="19.7"/>
			<circle fill="#CC7380" cx="-758.5" cy="481.5" r="19.7"/>
			<path fill="#CC7380" d="M-856.8,519.8c-21.1,0-38.3-17.2-38.3-38.3s17.2-38.3,38.3-38.3c21.1,0,38.3,17.2,38.3,38.3
				S-835.6,519.8-856.8,519.8z M-856.8,453.9c-15.2,0-27.5,12.4-27.5,27.5c0,15.2,12.4,27.5,27.5,27.5c15.2,0,27.5-12.4,27.5-27.5
				C-829.2,466.3-841.6,453.9-856.8,453.9z"/>
			<path fill="#CC7380" d="M-758.5,519.8c-21.1,0-38.3-17.2-38.3-38.3s17.2-38.3,38.3-38.3s38.3,17.2,38.3,38.3
				S-737.4,519.8-758.5,519.8z M-758.5,453.9c-15.2,0-27.5,12.4-27.5,27.5c0,15.2,12.4,27.5,27.5,27.5c15.1,0,27.5-12.2,27.5-27.4
				S-743.3,453.9-758.5,453.9z"/>
			<path fill="#CC7380" d="M-735.2,463.7c-1.4,0-2.8-0.5-3.8-1.6c-2.1-2.1-2.1-5.5,0-7.6l15.1-15.1c2.1-2.1,5.5-2.1,7.6,0
				c2.1,2.1,2.1,5.5,0,7.6l-15.1,15.1C-732.4,463.2-733.8,463.7-735.2,463.7z"/>
			<path fill="#CC7380" d="M-880.1,463.7c-1.4,0-2.8-0.5-3.8-1.6L-899,447c-2.1-2.1-2.1-5.5,0-7.6c2.1-2.1,5.5-2.1,7.6,0l15.1,15.1
				c2.1,2.1,2.1,5.5,0,7.6C-877.4,463.2-878.8,463.7-880.1,463.7z"/>
			<path fill="#CC7380" d="M-722,565.9c-0.4,0-0.8,0-1.2-0.1c-1.9-0.4-3.4-1.9-3.9-3.7l-13.1-44.1c-0.5-1.8-0.1-3.8,1.2-5.2
				c1.3-1.4,3.3-2,5.2-1.5l44.7,10.7c1.9,0.4,3.4,1.9,3.9,3.7c0.5,1.8,0.1,3.8-1.2,5.2l-31.6,33.4
				C-719.2,565.3-720.6,565.9-722,565.9z M-727.3,523.9l7.8,26.2l18.8-19.9L-727.3,523.9z"/>
			<path fill="#CC7380" d="M-892,565.9c-1.5,0-2.9-0.6-3.9-1.7l-31.6-33.4c-1.3-1.4-1.8-3.4-1.2-5.2c0.5-1.8,2-3.3,3.9-3.7
				l44.7-10.7c1.9-0.4,3.8,0.1,5.2,1.5c1.4,1.4,1.8,3.4,1.2,5.2l-13.1,44.1c-0.5,1.8-2,3.3-3.9,3.7
				C-891.1,565.9-891.6,565.9-892,565.9z M-913.3,530.2l18.8,19.9l7.8-26.2L-913.3,530.2z"/>
			<path fill="#CC7380" d="M-807.6,399.8c-3,0-5.4-2.4-5.4-5.4V317c0-3,2.4-5.4,5.4-5.4s5.4,2.4,5.4,5.4v77.4
				C-802.3,397.4-804.7,399.8-807.6,399.8z"/>
			<path fill="#CC7380" d="M-793.5,401c-0.3,0-0.6,0-0.9-0.1c-8.9-1.5-17.6-1.5-26.5,0c-1.6,0.3-3.2-0.2-4.4-1.2
				c-1.2-1-1.9-2.5-1.9-4.1v-64.5c0-10.8,8.8-19.5,19.5-19.5c10.8,0,19.5,8.8,19.5,19.5v64.6c0,1.6-0.7,3.1-1.9,4.1
				C-791,400.6-792.2,401-793.5,401z M-807.6,322.4c-4.8,0-8.8,3.9-8.8,8.8v58.3c5.9-0.6,11.7-0.6,17.6,0v-58.3
				C-798.9,326.4-802.8,322.4-807.6,322.4z"/>
			<g>
				<path fill="#CC7380" d="M-807.6,538c-12.4,0-22.5-9.6-22.5-21.3c0-3,2.4-5.4,5.4-5.4h34.2c3,0,5.4,2.4,5.4,5.4
					C-785.2,528.4-795.2,538-807.6,538z M-817.7,522c2,3.1,5.8,5.2,10.1,5.2s8.1-2.1,10.1-5.2H-817.7z"/>
				<path fill="#CC7380" d="M-824.7,522c-1.3,0-2.6-0.5-3.6-1.4c-3.5-3.1-5.6-7.5-5.6-12c-0.1-4.3,1.7-8.4,4.9-11.5
					c3.4-3.2,7.8-4.9,12.7-4.9c3.1,0,6.1,0.7,8.7,2.1c2.6-1.4,5.6-2.1,8.7-2.1c4.8,0,9.3,1.7,12.7,4.9c3.2,3,5,7.1,4.9,11.5
					c-0.1,4.5-2.1,8.9-5.6,12c-1,0.9-2.3,1.4-3.6,1.4H-824.7z M-816.3,503c-2,0-3.9,0.7-5.3,2c-1.3,1.2-1.5,2.6-1.5,3.5
					c0,1,0.3,1.9,0.9,2.8h29.2c0.5-0.9,0.9-1.8,0.9-2.8c0-0.9-0.2-2.3-1.5-3.5c-1.3-1.3-3.2-2-5.3-2c-2,0-3.8,0.7-5.1,1.8
					c-2,1.8-5.1,1.8-7.1,0C-812.6,503.7-814.4,503-816.3,503z"/>
			</g>
		</g>
		<g>
			<path fill="#CC7380" d="M-783.8,208.1c-1.8-4.5-5.4-8.1-10.7-10.7c-6-3-11.6-3.6-16.8-2c-5.3,1.6-9.3,5.5-12.3,11.5
				c-1.3,2.6-0.2,5.7,2.3,7c2.6,1.3,5.7,0.2,7-2.3c0-0.1,0.1-0.1,0.1-0.2c1.7-3.4,3.7-5.7,5.9-6.8c2.7-1.4,5.8-1.2,9.3,0.5
				c2.8,1.4,4.6,3.2,5.4,5.5c0.7,2.3,0.5,4.8-0.9,7.5c-1,2-2.7,3.6-5.1,4.7l-1.5,0.7c-7.6,2.1-12.6,3.9-14.7,5.6
				c-2.2,1.6-4.1,4-5.7,7.1l-0.6,1.1c-1.3,2.6-0.4,5.6,2.2,6.9c2.6,1.3,5.6,0.2,6.8-2.4l0.6-1.1c1-2,2.5-3.4,4.1-4.6
				c1.5-1.1,3.3-1.9,5.4-2.3c5.6-1.5,9.1-2.5,10.2-2.9c3.2-1.6,6-4.4,8-8.5C-782.3,217.2-781.9,212.5-783.8,208.1z"/>
			<path fill="#CC7380" d="M-822.4,250c-1.6-0.8-3.1-0.9-4.6-0.4c-1.7,0.4-2.8,1.5-3.6,3.1c-0.8,1.6-0.9,3.1-0.3,4.7
				c0.5,1.5,1.5,2.7,3.1,3.5c1.6,0.8,3.1,0.9,4.8,0.5c1.5-0.5,2.8-1.6,3.6-3.2c0.8-1.6,0.9-3.2,0.3-4.7
				C-819.7,251.9-820.8,250.8-822.4,250z"/>
		</g>
	</g>
</g>
</svg>
