<?xml version="1.0" encoding="utf-8"?>
<!-- Generator: Adobe Illustrator 18.0.0, SVG Export Plug-In . SVG Version: 6.00 Build 0)  -->
<!DOCTYPE svg PUBLIC "-//W3C//DTD SVG 1.1//EN" "http://www.w3.org/Graphics/SVG/1.1/DTD/svg11.dtd" [
	<!ENTITY ns_extend "http://ns.adobe.com/Extensibility/1.0/">
	<!ENTITY ns_ai "http://ns.adobe.com/AdobeIllustrator/10.0/">
	<!ENTITY ns_graphs "http://ns.adobe.com/Graphs/1.0/">
	<!ENTITY ns_vars "http://ns.adobe.com/Variables/1.0/">
	<!ENTITY ns_imrep "http://ns.adobe.com/ImageReplacement/1.0/">
	<!ENTITY ns_sfw "http://ns.adobe.com/SaveForWeb/1.0/">
	<!ENTITY ns_custom "http://ns.adobe.com/GenericCustomNamespace/1.0/">
	<!ENTITY ns_adobe_xpath "http://ns.adobe.com/XPath/1.0/">
]>
<svg version="1.1" id="圖層_1" xmlns:x="&ns_extend;" xmlns:i="&ns_ai;" xmlns:graph="&ns_graphs;"
	 xmlns="http://www.w3.org/2000/svg" xmlns:xlink="http://www.w3.org/1999/xlink" x="0px" y="0px" viewBox="-462 0 550 550"
	 enable-background="new -462 0 550 550" xml:space="preserve">
<metadata>
	<sfw  xmlns="&ns_sfw;">
		<slices></slices>
		<sliceSourceBounds  width="2437.1" height="565.9" x="-1715" y="-15.9" bottomLeftOrigin="true"></sliceSourceBounds>
	</sfw>
</metadata>
<g>
	<defs>
		<rect id="SVGID_5_" x="-461.1" width="549" height="551.5"/>
	</defs>
	<clipPath id="SVGID_2_">
		<use xlink:href="#SVGID_5_"  overflow="visible"/>
	</clipPath>
	<g clip-path="url(#SVGID_2_)">
		<g>
			<path fill="#CFA571" d="M-88,565.9h-198c-3,0-5.4-2.4-5.4-5.4V336.6c0-2.4,1.5-4.5,3.8-5.1c2.3-0.7,4.7,0.2,6,2.1l37,54.7h116.8
				l35.2-54.6c1.3-2,3.8-2.9,6-2.2c2.3,0.7,3.9,2.8,3.9,5.2v223.9C-82.7,563.5-85.1,565.9-88,565.9z M-280.6,555.2h187.2V354.9
				l-26.9,41.7c-1,1.5-2.7,2.5-4.5,2.5h-122.6c-1.8,0-3.5-0.9-4.5-2.4l-28.7-42.5L-280.6,555.2L-280.6,555.2z"/>
			<path fill="#CFA571" d="M-187,523.3c-3,0-5.4-2.4-5.4-5.4v-17c0-3,2.4-5.4,5.4-5.4s5.4,2.4,5.4,5.4v17
				C-181.6,520.9-184,523.3-187,523.3z"/>
			<path fill="#CFA571" d="M-209.2,545.5c-15.2,0-27.6-12.4-27.6-27.6c0-3,2.4-5.4,5.4-5.4s5.4,2.4,5.4,5.4
				c0,9.3,7.6,16.9,16.9,16.9c9.3,0,16.9-7.6,16.9-16.9c0-3,2.4-5.4,5.4-5.4s5.4,2.4,5.4,5.4C-181.6,533.1-194,545.5-209.2,545.5z"
				/>
			<path fill="#CFA571" d="M-164.8,545.5c-15.2,0-27.6-12.4-27.6-27.6c0-3,2.4-5.4,5.4-5.4s5.4,2.4,5.4,5.4
				c0,9.3,7.6,16.9,16.9,16.9s16.9-7.6,16.9-16.9c0-3,2.4-5.4,5.4-5.4s5.4,2.4,5.4,5.4C-137.1,533.1-149.5,545.5-164.8,545.5z"/>
			<circle fill="#CFA571" cx="-126.6" cy="467.4" r="23.6"/>
			<path fill="#CFA571" d="M-126.6,511.4c-24.2,0-43.9-19.7-43.9-43.9s19.7-43.9,43.9-43.9s43.9,19.7,43.9,43.9
				C-82.7,491.7-102.4,511.4-126.6,511.4z M-126.6,434.3c-18.3,0-33.2,14.9-33.2,33.2s14.9,33.2,33.2,33.2
				c18.3,0,33.2-14.9,33.2-33.2C-93.4,449.2-108.3,434.3-126.6,434.3z"/>
			<circle fill="#CFA571" cx="-247.4" cy="467.4" r="23.6"/>
			<path fill="#CFA571" d="M-247.4,511.4c-24.2,0-43.9-19.7-43.9-43.9s19.7-43.9,43.9-43.9s43.9,19.7,43.9,43.9
				C-203.5,491.7-223.2,511.4-247.4,511.4z M-247.4,434.3c-18.3,0-33.2,14.9-33.2,33.2s14.9,33.2,33.2,33.2s33.2-14.9,33.2-33.2
				C-214.2,449.2-229.1,434.3-247.4,434.3z"/>
			<path fill="#CFA571" d="M-187,506.3c-3.9,0-7.5-1.2-10.4-3.4l-10.8-8.4c-3.8-3-6-7.2-6.1-11.6c-0.1-4.2,1.8-8.2,5.3-11
				c3.4-2.8,8-4.4,12.8-4.4c3.2,0,6.4,0.7,9.1,2c2.7-1.3,5.9-2,9.1-2c4.8,0,9.4,1.6,12.8,4.4c3.5,2.9,5.4,6.8,5.3,11
				c-0.1,4.4-2.3,8.6-6.1,11.6l-10.8,8.4C-179.5,505.1-183.1,506.3-187,506.3z M-196.1,478.3c-2.3,0-4.5,0.7-6,1.9
				c-0.9,0.8-1.4,1.7-1.4,2.6c0,1.1,0.7,2.3,1.9,3.2l10.8,8.4c1.9,1.4,5.6,1.4,7.5,0l10.8-8.4c1.2-0.9,1.9-2.1,1.9-3.2
				c0-0.9-0.5-1.8-1.4-2.6c-1.5-1.2-3.7-1.9-6-1.9c-2.2,0-4.3,0.7-5.8,1.8c-1.9,1.5-4.7,1.5-6.6,0
				C-191.8,479-193.9,478.3-196.1,478.3z"/>
			<path fill="#CFA571" d="M-215.9,450.6c-1.8,0-3.5-0.9-4.5-2.5l-70-108.5c-1.6-2.5-0.9-5.8,1.6-7.4c2.5-1.6,5.8-0.9,7.4,1.6
				l70,108.5c1.6,2.5,0.9,5.8-1.6,7.4C-213.9,450.3-214.9,450.6-215.9,450.6z"/>
			<path fill="#CFA571" d="M-200.9,434.3c-2.8,0-5.1-2.1-5.4-5l-2.7-35.2c-0.2-3,2-5.6,5-5.8c3-0.2,5.5,2,5.8,5l2.7,35.2
				c0.2,3-2,5.6-5,5.8C-200.6,434.3-200.8,434.3-200.9,434.3z"/>
			<circle fill="#CFA571" cx="-199.3" cy="443" r="5.9"/>
			<path fill="#CFA571" d="M-173.1,434.3c-0.1,0-0.3,0-0.4,0c-3-0.2-5.2-2.8-5-5.8l2.7-35.2c0.2-3,2.8-5.2,5.8-5s5.2,2.8,5,5.8
				l-2.7,35.2C-168,432.1-170.3,434.3-173.1,434.3z"/>
			<circle fill="#CFA571" cx="-174.7" cy="443" r="5.9"/>
			<circle fill="#CFA571" cx="-256.8" cy="523" r="5.9"/>
			<circle fill="#CFA571" cx="-256.8" cy="539.3" r="5.9"/>
			<path fill="#CFA571" d="M-158.1,450.6c-1,0-2-0.3-2.9-0.9c-2.5-1.6-3.2-4.9-1.6-7.4l70-108.5c1.6-2.5,4.9-3.2,7.4-1.6
				c2.5,1.6,3.2,4.9,1.6,7.4l-70,108.5C-154.6,449.7-156.3,450.6-158.1,450.6z"/>
			<g>
				<circle fill="#CFA571" cx="-202.3" cy="512" r="5.5"/>
				<circle fill="#CFA571" cx="-209.4" cy="524" r="5.5"/>
				<circle fill="#CFA571" cx="-216.2" cy="511.8" r="5.5"/>
			</g>
			<g>
				<circle fill="#CFA571" cx="-157.8" cy="512" r="5.5"/>
				<circle fill="#CFA571" cx="-164.9" cy="524" r="5.5"/>
				<circle fill="#CFA571" cx="-171.7" cy="511.8" r="5.5"/>
			</g>
			<path fill="#CFA571" d="M-271.2,528.4H-286c-3,0-5.4-2.4-5.4-5.4s2.4-5.4,5.4-5.4h14.7c3,0,5.4,2.4,5.4,5.4
				S-268.3,528.4-271.2,528.4z"/>
			<path fill="#CFA571" d="M-271.2,544.7H-286c-3,0-5.4-2.4-5.4-5.4s2.4-5.4,5.4-5.4h14.7c3,0,5.4,2.4,5.4,5.4
				S-268.3,544.7-271.2,544.7z"/>
			<circle fill="#CFA571" cx="-117.2" cy="523" r="5.9"/>
			<circle fill="#CFA571" cx="-117.2" cy="539.3" r="5.9"/>
			<path fill="#CFA571" d="M-88,528.4h-14.7c-3,0-5.4-2.4-5.4-5.4s2.4-5.4,5.4-5.4H-88c3,0,5.4,2.4,5.4,5.4S-85.1,528.4-88,528.4z"
				/>
			<path fill="#CFA571" d="M-88,544.7h-14.7c-3,0-5.4-2.4-5.4-5.4s2.4-5.4,5.4-5.4H-88c3,0,5.4,2.4,5.4,5.4S-85.1,544.7-88,544.7z"
				/>
			<path fill="#CFA571" d="M-88,399.1h-16c-3,0-5.4-2.4-5.4-5.4v-32.3c0-3,2.4-5.4,5.4-5.4s5.4,2.4,5.4,5.4v26.9H-88
				c3,0,5.4,2.4,5.4,5.4S-85.1,399.1-88,399.1z"/>
			<path fill="#CFA571" d="M-269.2,399.1h-16c-3,0-5.4-2.4-5.4-5.4s2.4-5.4,5.4-5.4h10.6v-26.9c0-3,2.4-5.4,5.4-5.4s5.4,2.4,5.4,5.4
				v32.3C-263.8,396.6-266.2,399.1-269.2,399.1z"/>
		</g>
		<g>
			<path fill="#CFA571" d="M-163.8,244.7c-1.8-4.5-5.4-8.1-10.7-10.7c-6-3-11.6-3.6-16.8-2c-5.3,1.6-9.3,5.5-12.3,11.5
				c-1.3,2.6-0.2,5.7,2.3,7c2.6,1.3,5.7,0.2,7-2.3c0-0.1,0.1-0.1,0.1-0.2c1.7-3.4,3.7-5.7,5.9-6.8c2.7-1.4,5.8-1.2,9.3,0.5
				c2.8,1.4,4.6,3.2,5.4,5.5c0.7,2.3,0.5,4.8-0.9,7.5c-1,2-2.7,3.6-5.1,4.7l-1.5,0.7c-7.6,2.1-12.6,3.9-14.7,5.6
				c-2.2,1.6-4.1,4-5.7,7.1l-0.6,1.1c-1.3,2.6-0.4,5.6,2.2,6.9s5.6,0.2,6.8-2.4l0.6-1.1c1-2,2.5-3.4,4.1-4.6
				c1.5-1.1,3.3-1.9,5.4-2.3c5.6-1.5,9.1-2.5,10.2-2.9c3.2-1.6,6-4.4,8-8.5C-162.3,253.9-162,249.2-163.8,244.7z"/>
			<path fill="#CFA571" d="M-202.5,286.6c-1.6-0.8-3.1-0.9-4.6-0.4c-1.7,0.4-2.8,1.5-3.6,3.1c-0.8,1.6-0.9,3.1-0.3,4.7
				c0.5,1.5,1.5,2.7,3.1,3.5c1.6,0.8,3.1,0.9,4.8,0.5c1.5-0.5,2.8-1.6,3.6-3.2c0.8-1.6,0.9-3.2,0.3-4.7
				C-199.8,288.6-200.9,287.4-202.5,286.6z"/>
		</g>
	</g>
</g>
</svg>
