<?xml version="1.0" encoding="utf-8"?>
<!-- Generator: Adobe Illustrator 18.0.0, SVG Export Plug-In . SVG Version: 6.00 Build 0)  -->
<!DOCTYPE svg PUBLIC "-//W3C//DTD SVG 1.1//EN" "http://www.w3.org/Graphics/SVG/1.1/DTD/svg11.dtd" [
	<!ENTITY ns_extend "http://ns.adobe.com/Extensibility/1.0/">
	<!ENTITY ns_ai "http://ns.adobe.com/AdobeIllustrator/10.0/">
	<!ENTITY ns_graphs "http://ns.adobe.com/Graphs/1.0/">
	<!ENTITY ns_vars "http://ns.adobe.com/Variables/1.0/">
	<!ENTITY ns_imrep "http://ns.adobe.com/ImageReplacement/1.0/">
	<!ENTITY ns_sfw "http://ns.adobe.com/SaveForWeb/1.0/">
	<!ENTITY ns_custom "http://ns.adobe.com/GenericCustomNamespace/1.0/">
	<!ENTITY ns_adobe_xpath "http://ns.adobe.com/XPath/1.0/">
]>
<svg version="1.1" id="圖層_1" xmlns:x="&ns_extend;" xmlns:i="&ns_ai;" xmlns:graph="&ns_graphs;"
	 xmlns="http://www.w3.org/2000/svg" xmlns:xlink="http://www.w3.org/1999/xlink" x="0px" y="0px" viewBox="173 0 550 550"
	 enable-background="new 173 0 550 550" xml:space="preserve">
<metadata>
	<sfw  xmlns="&ns_sfw;">
		<slices></slices>
		<sliceSourceBounds  width="2437.1" height="565.9" x="-1715" y="-15.9" bottomLeftOrigin="true"></sliceSourceBounds>
	</sfw>
</metadata>
<g>
	<defs>
		<rect id="SVGID_7_" x="173" width="549" height="551.5"/>
	</defs>
	<clipPath id="SVGID_2_">
		<use xlink:href="#SVGID_7_"  overflow="visible"/>
	</clipPath>
	<g clip-path="url(#SVGID_2_)">
		<g>
			<path fill="#C3C4C4" d="M448,565.9c-65.9,0-119.5-48.3-119.5-107.7S382.1,350.6,448,350.6s119.5,48.3,119.5,107.7
				S513.9,565.9,448,565.9z M448,361.3c-60,0-108.7,43.5-108.7,96.9c0,53.4,48.7,97,108.7,97s108.7-43.5,108.7-96.9
				C556.7,404.9,508,361.3,448,361.3z"/>
			<path fill="#C3C4C4" d="M308.7,488.8c-16.9,0-30.6-13.7-30.6-30.6c0-16.9,13.7-30.6,30.6-30.6c16.9,0,30.6,13.7,30.6,30.6
				C339.3,475.1,325.5,488.8,308.7,488.8z M308.7,438.4c-10.9,0-19.8,8.9-19.8,19.8c0,10.9,8.9,19.8,19.8,19.8
				c10.9,0,19.8-8.9,19.8-19.8C328.5,447.3,319.6,438.4,308.7,438.4z"/>
			<path fill="#C3C4C4" d="M587.3,488.8c-16.9,0-30.6-13.7-30.6-30.6c0-16.9,13.7-30.6,30.6-30.6c16.9,0,30.6,13.7,30.6,30.6
				C617.9,475.1,604.2,488.8,587.3,488.8z M587.3,438.4c-10.9,0-19.8,8.9-19.8,19.8c0,10.9,8.9,19.8,19.8,19.8
				c10.9,0,19.8-8.9,19.8-19.8C607.2,447.3,598.3,438.4,587.3,438.4z"/>
			<g>
				<circle fill="#C3C4C4" cx="421.8" cy="445.7" r="7.9"/>
				<circle fill="#C3C4C4" cx="474.2" cy="445.7" r="7.9"/>
			</g>
			<g>
				<path fill="#C3C4C4" d="M448,503.9c-3,0-5.4-2.4-5.4-5.4v-25.2c0-3,2.4-5.4,5.4-5.4s5.4,2.4,5.4,5.4v25.2
					C453.4,501.5,451,503.9,448,503.9z"/>
				<path fill="#C3C4C4" d="M448,503.9c-12.7,0-23-10.3-23-23c0-3,2.4-5.4,5.4-5.4s5.4,2.4,5.4,5.4c0,6.7,5.5,12.2,12.2,12.2
					s12.2-5.5,12.2-12.2c0-3,2.4-5.4,5.4-5.4s5.4,2.4,5.4,5.4C471,493.6,460.7,503.9,448,503.9z"/>
				<path fill="#C3C4C4" d="M448,477.5c-8.6,0-15.6-7-15.6-15.6c0-3,2.4-5.4,5.4-5.4s5.4,2.4,5.4,5.4c0,2.7,2.2,4.8,4.8,4.8
					c2.7,0,4.8-2.2,4.8-4.8c0-3,2.4-5.4,5.4-5.4s5.4,2.4,5.4,5.4C463.6,470.6,456.6,477.5,448,477.5z"/>
			</g>
			<path fill="#C3C4C4" d="M448,530.5c-24.4,0-44.2-19.8-44.2-44.2v-5.9h-3.9c-18.4,0-33.3-15-33.3-33.3s15-33.3,33.3-33.3h96.4
				c18.4,0,33.3,15,33.3,33.3s-15,33.3-33.3,33.3h-3.9v5.9C492.2,510.7,472.4,530.5,448,530.5z M399.8,424.4
				c-12.5,0-22.6,10.1-22.6,22.6s10.1,22.6,22.6,22.6h9.3c3,0,5.4,2.4,5.4,5.4v11.3c0,18.5,15,33.5,33.5,33.5s33.5-15,33.5-33.5V475
				c0-3,2.4-5.4,5.4-5.4h9.3c12.5,0,22.6-10.1,22.6-22.6s-10.1-22.6-22.6-22.6H399.8z"/>
			<path fill="#C3C4C4" d="M333.9,463.6h-25.2c-3,0-5.4-2.4-5.4-5.4s2.4-5.4,5.4-5.4h25.2c3,0,5.4,2.4,5.4,5.4
				S336.8,463.6,333.9,463.6z"/>
			<path fill="#C3C4C4" d="M587.3,463.6h-25.2c-3,0-5.4-2.4-5.4-5.4s2.4-5.4,5.4-5.4h25.2c3,0,5.4,2.4,5.4,5.4
				S590.3,463.6,587.3,463.6z"/>
		</g>
		<g>
			<path fill="#C3C4C4" d="M471.2,247.1c-1.8-4.5-5.4-8.1-10.7-10.7c-6-3-11.6-3.6-16.8-2c-5.3,1.6-9.3,5.5-12.3,11.5
				c-1.3,2.6-0.2,5.7,2.3,7c2.6,1.3,5.7,0.2,7-2.3c0-0.1,0.1-0.1,0.1-0.2c1.7-3.4,3.7-5.7,5.9-6.8c2.7-1.4,5.8-1.2,9.3,0.5
				c2.8,1.4,4.6,3.2,5.4,5.5c0.7,2.3,0.5,4.8-0.9,7.5c-1,2-2.7,3.6-5.1,4.7l-1.5,0.7c-7.6,2.1-12.6,3.9-14.7,5.6
				c-2.2,1.6-4.1,4-5.7,7.1l-0.6,1.1c-1.3,2.6-0.4,5.6,2.2,6.9s5.6,0.2,6.8-2.4l0.6-1.1c1-2,2.5-3.4,4.1-4.6
				c1.5-1.1,3.3-1.9,5.4-2.3c5.6-1.5,9.1-2.5,10.2-2.9c3.2-1.6,6-4.4,8-8.5C472.7,256.2,473.1,251.5,471.2,247.1z"/>
			<path fill="#C3C4C4" d="M432.6,289c-1.6-0.8-3.1-0.9-4.6-0.4c-1.7,0.4-2.8,1.5-3.6,3.1c-0.8,1.6-0.9,3.1-0.3,4.7
				c0.5,1.5,1.5,2.7,3.1,3.5c1.6,0.8,3.1,0.9,4.8,0.5c1.5-0.5,2.8-1.6,3.6-3.2c0.8-1.6,0.9-3.2,0.3-4.7
				C435.3,290.9,434.1,289.8,432.6,289z"/>
		</g>
	</g>
</g>
</svg>
