<?xml version="1.0" encoding="utf-8"?>
<!-- Generator: Adobe Illustrator 18.0.0, SVG Export Plug-In . SVG Version: 6.00 Build 0)  -->
<!DOCTYPE svg PUBLIC "-//W3C//DTD SVG 1.1//EN" "http://www.w3.org/Graphics/SVG/1.1/DTD/svg11.dtd" [
	<!ENTITY ns_extend "http://ns.adobe.com/Extensibility/1.0/">
	<!ENTITY ns_ai "http://ns.adobe.com/AdobeIllustrator/10.0/">
	<!ENTITY ns_graphs "http://ns.adobe.com/Graphs/1.0/">
	<!ENTITY ns_vars "http://ns.adobe.com/Variables/1.0/">
	<!ENTITY ns_imrep "http://ns.adobe.com/ImageReplacement/1.0/">
	<!ENTITY ns_sfw "http://ns.adobe.com/SaveForWeb/1.0/">
	<!ENTITY ns_custom "http://ns.adobe.com/GenericCustomNamespace/1.0/">
	<!ENTITY ns_adobe_xpath "http://ns.adobe.com/XPath/1.0/">
]>
<svg version="1.1" id="圖層_1" xmlns:x="&ns_extend;" xmlns:i="&ns_ai;" xmlns:graph="&ns_graphs;"
	 xmlns="http://www.w3.org/2000/svg" xmlns:xlink="http://www.w3.org/1999/xlink" x="0px" y="0px" viewBox="-1715 0 550 550"
	 enable-background="new -1715 0 550 550" xml:space="preserve">
<metadata>
	<sfw  xmlns="&ns_sfw;">
		<slices></slices>
		<sliceSourceBounds  width="2437.1" height="565.9" x="-1715" y="-15.9" bottomLeftOrigin="true"></sliceSourceBounds>
	</sfw>
</metadata>
<g>
	<defs>
		<rect id="SVGID_1_" x="-1715" width="549" height="551.5"/>
	</defs>
	<clipPath id="SVGID_2_">
		<use xlink:href="#SVGID_1_"  overflow="visible"/>
	</clipPath>
	<g clip-path="url(#SVGID_2_)">
		<g>
			<path fill="#3E63A3" d="M-1393.4,565.9h-93.3c-3,0-5.4-2.4-5.4-5.4V400c0-28.7,23.4-52.1,52.1-52.1c28.7,0,52.1,23.4,52.1,52.1
				v160.6C-1388,563.5-1390.5,565.9-1393.4,565.9z M-1481.4,555.2h82.6V400c0-22.8-18.5-41.3-41.3-41.3c-22.8,0-41.3,18.5-41.3,41.3
				V555.2z"/>
			<path fill="#3E63A3" d="M-1440.1,358.7c-3,0-5.4-2.4-5.4-5.4v-90.1c0-3,2.4-5.4,5.4-5.4s5.4,2.4,5.4,5.4v90.1
				C-1434.7,356.3-1437.1,358.7-1440.1,358.7z"/>
			<path fill="#3E63A3" d="M-1440.1,498L-1440.1,498c-2.4,0-4.5-1.5-5.1-3.8l-14.2-46.4c-0.5-1.6-0.2-3.4,0.8-4.8
				c1-1.4,2.6-2.2,4.3-2.2h28.5c1.7,0,3.3,0.8,4.3,2.2s1.3,3.1,0.8,4.8l-14.2,46.4C-1435.6,496.4-1437.7,498-1440.1,498z
				 M-1447,451.6l6.9,22.6l6.9-22.6H-1447z"/>
			<circle fill="#3E63A3" cx="-1408.8" cy="430.5" r="7.9"/>
			<path fill="#3E63A3" d="M-1393.4,467.9c-20.6,0-37.4-16.8-37.4-37.4c0-20.6,16.8-37.4,37.4-37.4c3,0,5.4,2.4,5.4,5.4
				s-2.4,5.4-5.4,5.4c-14.7,0-26.7,12-26.7,26.7s12,26.7,26.7,26.7c3,0,5.4,2.4,5.4,5.4S-1390.5,467.9-1393.4,467.9z"/>
			<circle fill="#3E63A3" cx="-1471.4" cy="430.5" r="7.9"/>
			<path fill="#3E63A3" d="M-1486.8,467.9c-3,0-5.4-2.4-5.4-5.4s2.4-5.4,5.4-5.4c14.7,0,26.7-12,26.7-26.7s-12-26.7-26.7-26.7
				c-3,0-5.4-2.4-5.4-5.4s2.4-5.4,5.4-5.4c20.6,0,37.4,16.8,37.4,37.4C-1449.3,451.1-1466.1,467.9-1486.8,467.9z"/>
		</g>
		<g>
			<path fill="#3E63A3" d="M-1416.8,154.3c-1.8-4.5-5.4-8.1-10.7-10.7c-6-3-11.6-3.6-16.8-2c-5.3,1.6-9.3,5.5-12.3,11.5
				c-1.3,2.6-0.2,5.7,2.3,7c2.6,1.3,5.7,0.2,7-2.3c0-0.1,0.1-0.1,0.1-0.2c1.7-3.4,3.7-5.7,5.9-6.8c2.7-1.4,5.8-1.2,9.3,0.5
				c2.8,1.4,4.6,3.2,5.4,5.5c0.7,2.3,0.5,4.8-0.9,7.5c-1,2-2.7,3.6-5.1,4.7l-1.5,0.7c-7.6,2.1-12.6,3.9-14.7,5.6
				c-2.2,1.6-4.1,4-5.7,7.1l-0.6,1.1c-1.3,2.6-0.4,5.6,2.2,6.9c2.6,1.3,5.6,0.2,6.8-2.4l0.6-1.1c1-2,2.5-3.4,4.1-4.6
				c1.5-1.1,3.3-1.9,5.4-2.3c5.6-1.5,9.1-2.5,10.2-2.9c3.2-1.6,6-4.4,8-8.5C-1415.3,163.4-1415,158.7-1416.8,154.3z"/>
			<path fill="#3E63A3" d="M-1455.5,196.2c-1.6-0.8-3.1-0.9-4.6-0.4c-1.7,0.4-2.8,1.5-3.6,3.1c-0.8,1.6-0.9,3.1-0.3,4.7
				c0.5,1.5,1.5,2.7,3.1,3.5c1.6,0.8,3.1,0.9,4.8,0.5c1.5-0.5,2.8-1.6,3.6-3.2c0.8-1.6,0.9-3.2,0.3-4.7
				C-1452.8,198.1-1453.9,197-1455.5,196.2z"/>
		</g>
	</g>
</g>
</svg>
