<?xml version="1.0" encoding="utf-8"?>
<!-- Generator: Adobe Illustrator 19.2.1, SVG Export Plug-In . SVG Version: 6.00 Build 0)  -->
<!DOCTYPE svg PUBLIC "-//W3C//DTD SVG 1.1//EN" "http://www.w3.org/Graphics/SVG/1.1/DTD/svg11.dtd">
<svg version="1.1" id="圖層_1" xmlns="http://www.w3.org/2000/svg" xmlns:xlink="http://www.w3.org/1999/xlink" x="0px" y="0px"
	 viewBox="0 0 1166.3 220.6" style="enable-background:new 0 0 1166.3 220.6;" xml:space="preserve">
<style type="text/css">
	.st0{fill:#221714;}
</style>
<g>
	<path class="st0" d="M183,220.6H2.8c-0.9,0-1.7-0.4-2.2-1.1c-0.5-0.7-0.7-1.6-0.5-2.4L39.7,50.5c0.3-1.3,1.4-2.2,2.7-2.2h101.2
		c1.3,0,2.4,0.9,2.7,2.2l39.4,166.6c0.2,0.8,0,1.7-0.5,2.4C184.7,220.2,183.9,220.6,183,220.6z M6.4,215h173.1l-38-161H44.7L6.4,215
		z"/>
	<g>
		<path class="st0" d="M43.3,54c-6.9,0-13.8-2.6-19.1-7.9c-10.5-10.5-10.5-27.7,0-38.2c10.5-10.5,27.7-10.5,38.2,0
			c10.5,10.5,10.5,27.7,0,38.2l0,0C57.1,51.4,50.2,54,43.3,54z M43.3,5.6c-5.5,0-11,2.1-15.1,6.3c-8.3,8.3-8.3,21.9,0,30.3
			c8.3,8.3,21.9,8.3,30.3,0c8.3-8.3,8.3-21.9,0-30.3C54.3,7.7,48.8,5.6,43.3,5.6z M60.4,44.1L60.4,44.1L60.4,44.1z"/>
		<path class="st0" d="M142.5,54c-6.9,0-13.8-2.6-19.1-7.9l0,0c-10.5-10.5-10.5-27.7,0-38.2c10.5-10.5,27.7-10.5,38.2,0
			c10.5,10.5,10.5,27.7,0,38.2C156.4,51.4,149.5,54,142.5,54z M127.4,42.1c8.3,8.3,21.9,8.3,30.3,0c8.3-8.3,8.3-21.9,0-30.3
			c-8.3-8.3-21.9-8.3-30.3,0S119.1,33.8,127.4,42.1L127.4,42.1z"/>
	</g>
	<circle class="st0" cx="68.8" cy="85.7" r="5.4"/>
	<circle class="st0" cx="116.5" cy="85.7" r="5.4"/>
	<path class="st0" d="M122.6,144.9H62.7c-1.6,0-2.8-1.3-2.8-2.8v-40.2c0-1.6,1.3-2.8,2.8-2.8h59.9c1.6,0,2.8,1.3,2.8,2.8v40.2
		C125.4,143.7,124.1,144.9,122.6,144.9z M65.5,139.3h54.3v-34.6H65.5V139.3z"/>
	<path class="st0" d="M103.9,101.9c0,6.2-5,11.3-11.3,11.3c-6.2,0-11.3-5-11.3-11.3H103.9z"/>
	<path class="st0" d="M92.7,135c-1.6,0-2.8-1.3-2.8-2.8v-22.8c0-1.6,1.3-2.8,2.8-2.8c1.6,0,2.8,1.3,2.8,2.8v22.8
		C95.5,133.7,94.2,135,92.7,135z"/>
	<path class="st0" d="M92.7,135c-10.3,0-18.7-8.4-18.7-18.7c0-1.6,1.3-2.8,2.8-2.8s2.8,1.3,2.8,2.8c0,7.2,5.9,13.1,13.1,13.1
		c7.2,0,13.1-5.9,13.1-13.1c0-1.6,1.3-2.8,2.8-2.8c1.6,0,2.8,1.3,2.8,2.8C111.4,126.6,103,135,92.7,135z"/>
	<path class="st0" d="M92.7,202.8c-19,0-34.4-15.4-34.4-34.4c0-6.4,5.2-11.7,11.7-11.7c6.4,0,11.7,5.2,11.7,11.7
		c0,6.1,5,11.1,11.1,11.1c6.1,0,11.1-5,11.1-11.1c0-6.4,5.2-11.7,11.7-11.7s11.7,5.2,11.7,11.7C127.1,187.4,111.6,202.8,92.7,202.8z
		 M69.9,162.3c-3.3,0-6.1,2.7-6.1,6.1c0,15.9,12.9,28.8,28.8,28.8s28.8-12.9,28.8-28.8c0-3.3-2.7-6.1-6.1-6.1s-6.1,2.7-6.1,6.1
		c0,9.2-7.5,16.7-16.7,16.7c-9.2,0-16.7-7.5-16.7-16.7C76,165,73.3,162.3,69.9,162.3z"/>
	<path class="st0" d="M848,220.6H704.3c-1.6,0-2.8-1.3-2.8-2.8V55.2c0-1.2,0.8-2.3,2-2.7c1.2-0.4,2.5,0.1,3.2,1.1l27.2,40.2h86
		l25.9-40.1c0.7-1,2-1.5,3.2-1.2c1.2,0.4,2,1.4,2,2.7v162.6C850.8,219.3,849.6,220.6,848,220.6z M707.1,215h138.1V64.8l-21.5,33.4
		c-0.5,0.8-1.4,1.3-2.4,1.3h-89c-0.9,0-1.8-0.5-2.3-1.2l-22.9-33.8V215z"/>
	<path class="st0" d="M776.2,189.6c-1.6,0-2.8-1.3-2.8-2.8v-12.3c0-1.6,1.3-2.8,2.8-2.8s2.8,1.3,2.8,2.8v12.3
		C779,188.4,777.7,189.6,776.2,189.6z"/>
	<path class="st0" d="M760,205.8c-10.5,0-19-8.5-19-19c0-1.6,1.3-2.8,2.8-2.8s2.8,1.3,2.8,2.8c0,7.4,6,13.3,13.3,13.3
		c7.4,0,13.3-6,13.3-13.3c0-1.6,1.3-2.8,2.8-2.8s2.8,1.3,2.8,2.8C779,197.3,770.5,205.8,760,205.8z"/>
	<path class="st0" d="M792.3,205.8c-10.5,0-19-8.5-19-19c0-1.6,1.3-2.8,2.8-2.8s2.8,1.3,2.8,2.8c0,7.4,6,13.3,13.3,13.3
		c7.4,0,13.3-6,13.3-13.3c0-1.6,1.3-2.8,2.8-2.8s2.8,1.3,2.8,2.8C811.3,197.3,802.8,205.8,792.3,205.8z"/>
	<circle class="st0" cx="820" cy="150.2" r="17.1"/>
	<path class="st0" d="M820,181c-17,0-30.8-13.8-30.8-30.8s13.8-30.8,30.8-30.8s30.8,13.8,30.8,30.8S837,181,820,181z M820,125
		c-13.9,0-25.2,11.3-25.2,25.2s11.3,25.2,25.2,25.2s25.2-11.3,25.2-25.2S833.9,125,820,125z"/>
	<circle class="st0" cx="732.3" cy="150.2" r="17.1"/>
	<path class="st0" d="M732.3,181c-17,0-30.8-13.8-30.8-30.8s13.8-30.8,30.8-30.8c17,0,30.8,13.8,30.8,30.8S749.3,181,732.3,181z
		 M732.3,125c-13.9,0-25.2,11.3-25.2,25.2s11.3,25.2,25.2,25.2c13.9,0,25.2-11.3,25.2-25.2S746.2,125,732.3,125z"/>
	<path class="st0" d="M776.2,177.3c-2.5,0-4.9-0.7-6.8-2.2l-7.8-6.1c-2.5-1.9-4-4.7-4-7.6c0-2.7,1.2-5.3,3.5-7.2
		c4.1-3.4,10.5-3.8,15.2-1.3c4.7-2.5,11.1-2,15.2,1.3c0,0,0,0,0,0c2.3,1.9,3.5,4.4,3.5,7.2c0,2.9-1.5,5.6-4,7.6l-7.8,6.1
		C781.1,176.6,778.6,177.3,776.2,177.3z M769.6,157c-1.8,0-3.7,0.5-5,1.6c-0.9,0.8-1.4,1.7-1.4,2.7c0,1.1,0.7,2.3,1.8,3.2l7.8,6.1
		c1.8,1.4,5,1.4,6.8,0l7.8-6.1c1.1-0.9,1.8-2.1,1.8-3.2c0-1-0.5-2-1.4-2.7l0,0c-2.6-2.1-7.2-2.2-9.9-0.1c-1,0.8-2.4,0.8-3.5,0
		C773.1,157.5,771.4,157,769.6,157z"/>
	<path class="st0" d="M755.2,136.8c-0.9,0-1.8-0.5-2.4-1.3L702,56.7c-0.8-1.3-0.5-3,0.8-3.9c1.3-0.8,3-0.5,3.9,0.8l50.8,78.8
		c0.8,1.3,0.5,3-0.8,3.9C756.2,136.7,755.7,136.8,755.2,136.8z"/>
	<path class="st0" d="M766.1,125c-1.5,0-2.7-1.1-2.8-2.6l-2-25.6c-0.1-1.5,1-2.9,2.6-3c1.6-0.1,2.9,1,3,2.6l2,25.6
		c0.1,1.5-1,2.9-2.6,3C766.2,125,766.2,125,766.1,125z"/>
	<circle class="st0" cx="767.3" cy="132.4" r="4.3"/>
	<path class="st0" d="M786.3,125c-0.1,0-0.1,0-0.2,0c-1.5-0.1-2.7-1.5-2.6-3l2-25.6c0.1-1.5,1.5-2.7,3-2.6c1.5,0.1,2.7,1.5,2.6,3
		l-2,25.6C789,123.9,787.7,125,786.3,125z"/>
	<circle class="st0" cx="785.1" cy="132.4" r="4.3"/>
	<circle class="st0" cx="725.5" cy="190.5" r="4.3"/>
	<circle class="st0" cx="725.5" cy="202.4" r="4.3"/>
	<path class="st0" d="M797.2,136.8c-0.5,0-1-0.1-1.5-0.4c-1.3-0.8-1.7-2.6-0.8-3.9l50.8-78.8c0.8-1.3,2.6-1.7,3.9-0.8
		c1.3,0.8,1.7,2.6,0.8,3.9l-50.8,78.8C799,136.4,798.1,136.8,797.2,136.8z"/>
	<g>
		
			<ellipse transform="matrix(1.063994e-02 -0.9999 0.9999 1.063994e-02 574.4764 945.6345)" class="st0" cx="765.1" cy="182.5" rx="4" ry="4"/>
		
			<ellipse transform="matrix(1.071115e-02 -0.9999 0.9999 1.071115e-02 560.5677 949.0958)" class="st0" cx="759.9" cy="191.2" rx="4" ry="4"/>
		
			<ellipse transform="matrix(1.071115e-02 -0.9999 0.9999 1.071115e-02 564.4855 935.3599)" class="st0" cx="755" cy="182.4" rx="4" ry="4"/>
	</g>
	<g>
		
			<ellipse transform="matrix(1.063994e-02 -0.9999 0.9999 1.063994e-02 606.4322 977.9321)" class="st0" cx="797.4" cy="182.5" rx="4" ry="4"/>
		
			<ellipse transform="matrix(1.071115e-02 -0.9999 0.9999 1.071115e-02 592.5212 981.3934)" class="st0" cx="792.2" cy="191.2" rx="4" ry="4"/>
		
			<ellipse transform="matrix(1.071115e-02 -0.9999 0.9999 1.071115e-02 596.439 967.6575)" class="st0" cx="787.3" cy="182.4" rx="4" ry="4"/>
	</g>
	<path class="st0" d="M715,193.3h-10.7c-1.6,0-2.8-1.3-2.8-2.8s1.3-2.8,2.8-2.8H715c1.6,0,2.8,1.3,2.8,2.8S716.6,193.3,715,193.3z"
		/>
	<path class="st0" d="M715,205.2h-10.7c-1.6,0-2.8-1.3-2.8-2.8c0-1.6,1.3-2.8,2.8-2.8H715c1.6,0,2.8,1.3,2.8,2.8
		C717.8,203.9,716.6,205.2,715,205.2z"/>
	<circle class="st0" cx="826.9" cy="190.5" r="4.3"/>
	<circle class="st0" cx="826.9" cy="202.4" r="4.3"/>
	<path class="st0" d="M848,193.3h-10.7c-1.6,0-2.8-1.3-2.8-2.8s1.3-2.8,2.8-2.8H848c1.6,0,2.8,1.3,2.8,2.8S849.6,193.3,848,193.3z"
		/>
	<path class="st0" d="M848,205.2h-10.7c-1.6,0-2.8-1.3-2.8-2.8c0-1.6,1.3-2.8,2.8-2.8H848c1.6,0,2.8,1.3,2.8,2.8
		C850.8,203.9,849.6,205.2,848,205.2z"/>
	<path class="st0" d="M848,99.4h-11.6c-1.6,0-2.8-1.3-2.8-2.8V73.2c0-1.6,1.3-2.8,2.8-2.8s2.8,1.3,2.8,2.8v20.6h8.8
		c1.6,0,2.8,1.3,2.8,2.8C850.8,98.2,849.6,99.4,848,99.4z"/>
	<path class="st0" d="M716.5,99.4h-11.6c-1.6,0-2.8-1.3-2.8-2.8c0-1.6,1.3-2.8,2.8-2.8h8.8V73.2c0-1.6,1.3-2.8,2.8-2.8
		s2.8,1.3,2.8,2.8v23.4C719.3,98.2,718,99.4,716.5,99.4z"/>
	<path class="st0" d="M1044.1,220.6c-47.2,0-85.7-34.6-85.7-77.1c0-42.5,38.4-77.1,85.7-77.1c47.2,0,85.7,34.6,85.7,77.1
		C1129.7,186,1091.3,220.6,1044.1,220.6z M1044.1,72.1c-44.1,0-80.1,32.1-80.1,71.5c0,39.4,35.9,71.5,80.1,71.5
		c44.1,0,80-32.1,80-71.5C1124.1,104.1,1088.2,72.1,1044.1,72.1z"/>
	<path class="st0" d="M942.9,164.6c-11.6,0-21.1-9.5-21.1-21.1s9.5-21.1,21.1-21.1s21.1,9.5,21.1,21.1S954.6,164.6,942.9,164.6z
		 M942.9,128c-8.5,0-15.5,7-15.5,15.5s6.9,15.5,15.5,15.5c8.5,0,15.5-6.9,15.5-15.5S951.5,128,942.9,128z"/>
	<path class="st0" d="M1145.2,164.6c-11.6,0-21.1-9.5-21.1-21.1s9.5-21.1,21.1-21.1s21.1,9.5,21.1,21.1S1156.9,164.6,1145.2,164.6z
		 M1145.2,128c-8.5,0-15.5,7-15.5,15.5s7,15.5,15.5,15.5c8.5,0,15.5-6.9,15.5-15.5S1153.8,128,1145.2,128z"/>
	<g>
		<circle class="st0" cx="1025.1" cy="134.4" r="5.7"/>
		<circle class="st0" cx="1063.1" cy="134.4" r="5.7"/>
	</g>
	<g>
		<path class="st0" d="M1044.1,175.6c-1.6,0-2.8-1.3-2.8-2.8v-18.3c0-1.6,1.3-2.8,2.8-2.8s2.8,1.3,2.8,2.8v18.3
			C1046.9,174.3,1045.6,175.6,1044.1,175.6z"/>
		<path class="st0" d="M1044.1,175.6c-8.6,0-15.6-7-15.6-15.6c0-1.6,1.3-2.8,2.8-2.8s2.8,1.3,2.8,2.8c0,5.5,4.5,9.9,10,9.9
			c5.5,0,9.9-4.5,9.9-9.9c0-1.6,1.3-2.8,2.8-2.8s2.8,1.3,2.8,2.8C1059.6,168.6,1052.7,175.6,1044.1,175.6z"/>
		<path class="st0" d="M1044.1,156.4c-5.6,0-10.2-4.6-10.2-10.2c0-1.6,1.3-2.8,2.8-2.8s2.8,1.3,2.8,2.8c0,2.5,2.1,4.6,4.6,4.6
			s4.6-2.1,4.6-4.6c0-1.6,1.3-2.8,2.8-2.8s2.8,1.3,2.8,2.8C1054.3,151.8,1049.7,156.4,1044.1,156.4z"/>
	</g>
	<path class="st0" d="M1044.1,194.9c-17.1,0-31-13.9-31-31v-5.4h-4c-12.7,0-23.1-10.4-23.1-23.1s10.4-23.1,23.1-23.1h70
		c12.7,0,23.1,10.4,23.1,23.1s-10.4,23.1-23.1,23.1h-4v5.4C1075.1,181,1061.2,194.9,1044.1,194.9z M1009.1,117.9
		c-9.6,0-17.5,7.8-17.5,17.5c0,9.6,7.8,17.5,17.5,17.5h6.8c1.6,0,2.8,1.3,2.8,2.8v8.2c0,14,11.4,25.4,25.4,25.4
		c14,0,25.4-11.4,25.4-25.4v-8.2c0-1.6,1.3-2.8,2.8-2.8h6.8c9.6,0,17.5-7.8,17.5-17.5c0-9.6-7.8-17.5-17.5-17.5H1009.1z"/>
	<path class="st0" d="M961.2,146.3h-18.3c-1.6,0-2.8-1.3-2.8-2.8c0-1.6,1.3-2.8,2.8-2.8h18.3c1.6,0,2.8,1.3,2.8,2.8
		C964,145.1,962.8,146.3,961.2,146.3z"/>
	<path class="st0" d="M1145.2,146.2h-18.3c-1.5,0-2.7-1.2-2.7-2.7c0-1.5,1.2-2.7,2.7-2.7h18.3c1.5,0,2.7,1.2,2.7,2.7
		C1148,145,1146.7,146.2,1145.2,146.2z"/>
	<path class="st0" d="M537.5,220.6c-34.4,0-62.4-28-62.4-62.4s28-62.4,62.4-62.4c34.4,0,62.4,28,62.4,62.4S571.9,220.6,537.5,220.6z
		 M537.5,101.5c-31.3,0-56.8,25.5-56.8,56.8c0,31.3,25.5,56.8,56.8,56.8c31.3,0,56.8-25.5,56.8-56.8
		C594.2,126.9,568.8,101.5,537.5,101.5z"/>
	<g>
		<path class="st0" d="M547.5,188.2h-20.1c-0.6,0-1.2-0.2-1.7-0.6c-2.1-1.6-3.4-3.9-3.4-6.2c0-2.3,1-4.4,3-6
			c3.3-2.7,8.3-3.1,12.2-1.2c3.9-1.9,8.9-1.5,12.2,1.2c0,0,0,0,0,0c1.9,1.6,3,3.7,3,6c0,2.4-1.3,4.7-3.4,6.2
			C548.7,188,548.1,188.2,547.5,188.2z M528.5,182.6h18c0.3-0.4,0.5-0.9,0.5-1.3c0-0.7-0.5-1.2-0.8-1.5l0,0c-1.8-1.4-5.1-1.5-7-0.1
			c-1,0.7-2.4,0.7-3.4,0c-1.9-1.4-5.2-1.4-7,0.1c-0.4,0.3-0.9,0.8-0.8,1.5C527.9,181.7,528.1,182.1,528.5,182.6z"/>
		<path class="st0" d="M537.5,196.6c-7.7,0-12.9-5.8-12.9-11.3c0-1.6,1.3-2.8,2.8-2.8h20.1c1.6,0,2.8,1.3,2.8,2.8
			C550.3,190.8,545.2,196.6,537.5,196.6z M531.3,188.2c1.2,1.5,3.3,2.8,6.2,2.8c2.8,0,5-1.3,6.2-2.8H531.3z"/>
	</g>
	<path class="st0" d="M572.8,190.1c-14.7,0-26.7-12-26.7-26.7c0-14.7,12-26.7,26.7-26.7c14.7,0,26.7,12,26.7,26.7
		C599.6,178.1,587.6,190.1,572.8,190.1z M572.8,142.3c-11.6,0-21.1,9.5-21.1,21.1s9.5,21.1,21.1,21.1s21.1-9.5,21.1-21.1
		S584.5,142.3,572.8,142.3z"/>
	<path class="st0" d="M589.8,149.3c-0.7,0-1.4-0.3-2-0.8c-1.1-1.1-1.1-2.9,0-4l11-11c1.1-1.1,2.9-1.1,4,0c1.1,1.1,1.1,2.9,0,4
		l-11,11C591.3,149.1,590.5,149.3,589.8,149.3z"/>
	<circle class="st0" cx="506.5" cy="164.9" r="12.2"/>
	<circle class="st0" cx="568.4" cy="164.9" r="12.2"/>
	<path class="st0" d="M502,190.1c-14.7,0-26.7-12-26.7-26.7c0-14.7,12-26.7,26.7-26.7s26.7,12,26.7,26.7
		C528.8,178.1,516.8,190.1,502,190.1z M502,142.3c-11.6,0-21.1,9.5-21.1,21.1s9.5,21.1,21.1,21.1s21.1-9.5,21.1-21.1
		S513.7,142.3,502,142.3z"/>
	<path class="st0" d="M485.1,149.3c-0.7,0-1.4-0.3-2-0.8l-11-11c-1.1-1.1-1.1-2.9,0-4c1.1-1.1,2.9-1.1,4,0l11,11
		c1.1,1.1,1.1,2.9,0,4C486.5,149.1,485.8,149.3,485.1,149.3z"/>
	<path class="st0" d="M598.7,220.6c-0.2,0-0.5,0-0.7-0.1c-1-0.3-1.7-1-2-2l-8.6-32.3c-0.3-1,0-2,0.7-2.7c0.7-0.7,1.8-1,2.7-0.7
		l32.3,8.6c1,0.3,1.7,1,2,2c0.3,1,0,2-0.7,2.7l-23.6,23.6C600.2,220.3,599.5,220.6,598.7,220.6z M594.1,189.5l6.1,22.8l16.7-16.7
		L594.1,189.5z"/>
	<path class="st0" d="M475.6,220.6c-0.7,0-1.5-0.3-2-0.8L450,196.2c-0.7-0.7-1-1.7-0.7-2.7c0.3-1,1-1.7,2-2l32.3-8.6
		c1-0.3,2,0,2.7,0.7c0.7,0.7,1,1.7,0.7,2.7l-8.6,32.3c-0.3,1-1,1.7-2,2C476.1,220.6,475.9,220.6,475.6,220.6z M457.5,195.6
		l16.7,16.7l6.1-22.8L457.5,195.6z"/>
	<path class="st0" d="M537.5,101.5c-1.6,0-2.8-1.3-2.8-2.8V44c0-1.6,1.3-2.8,2.8-2.8c1.6,0,2.8,1.3,2.8,2.8v54.7
		C540.3,100.2,539,101.5,537.5,101.5z"/>
	<path class="st0" d="M527.3,102.3c-0.7,0-1.3-0.2-1.8-0.7c-0.6-0.5-1-1.3-1-2.1V54.2c0-7.2,5.8-13,13-13c7.2,0,13,5.8,13,13v45.4
		c0,0.8-0.4,1.6-1,2.1c-0.6,0.5-1.5,0.8-2.3,0.6c-6.5-1.1-12.9-1.1-19.4,0C527.6,102.3,527.4,102.3,527.3,102.3z M537.5,95.8
		c2.4,0,4.9,0.2,7.4,0.4V54.2c0-4.1-3.3-7.4-7.4-7.4c-4.1,0-7.4,3.3-7.4,7.4v42.1C532.6,96,535,95.8,537.5,95.8z"/>
	<path class="st0" d="M315.1,70.1c-1.6,0-2.8-1.3-2.8-2.8V13.4c0-1.6,1.3-2.8,2.8-2.8c1.6,0,2.8,1.3,2.8,2.8v53.9
		C317.9,68.9,316.6,70.1,315.1,70.1z"/>
	<path class="st0" d="M315.1,166.3c-1.7,0-3.1-1.2-3.5-2.8l-7.8-33.7c-0.2-1.1,0-2.2,0.7-3.1c0.7-0.9,1.7-1.4,2.8-1.4h15.5
		c1.1,0,2.1,0.5,2.8,1.4c0.7,0.9,0.9,2,0.7,3.1l-7.8,33.7C318.2,165.2,316.7,166.3,315.1,166.3z M311.8,132.7l3.2,14l3.2-14H311.8z"
		/>
	<circle class="st0" cx="296" cy="123.3" r="5.7"/>
	<circle class="st0" cx="335" cy="123.3" r="5.7"/>
	<g>
		<path class="st0" d="M341.6,145.1c-12,0-21.7-9.7-21.7-21.7c0-12,9.7-21.7,21.7-21.7c1.6,0,3,1.3,3,3s-1.3,3-3,3
			c-8.7,0-15.8,7.1-15.8,15.8s7.1,15.8,15.8,15.8c1.6,0,3,1.3,3,3C344.5,143.7,343.2,145.1,341.6,145.1z"/>
		<path class="st0" d="M288.6,145.1c-1.6,0-3-1.3-3-3c0-1.6,1.3-3,3-3c8.7,0,15.8-7.1,15.8-15.8s-7.1-15.8-15.8-15.8
			c-1.6,0-3-1.3-3-3s1.3-3,3-3c12,0,21.7,9.7,21.7,21.7C310.3,135.3,300.5,145.1,288.6,145.1z"/>
	</g>
	<path class="st0" d="M344.4,220.6h-58.6c-1.6,0-2.8-1.3-2.8-2.8V96.6c0-17.7,14.4-32.1,32.1-32.1s32.1,14.4,32.1,32.1v121.2
		C347.2,219.3,345.9,220.6,344.4,220.6z M288.6,215h53V96.6c0-14.6-11.9-26.5-26.5-26.5c-14.6,0-26.5,11.9-26.5,26.5V215z"/>
</g>
</svg>
