<?xml version="1.0" encoding="utf-8"?>
<!-- Generator: Adobe Illustrator 18.0.0, SVG Export Plug-In . SVG Version: 6.00 Build 0)  -->
<!DOCTYPE svg PUBLIC "-//W3C//DTD SVG 1.1//EN" "http://www.w3.org/Graphics/SVG/1.1/DTD/svg11.dtd" [
	<!ENTITY ns_flows "http://ns.adobe.com/Flows/1.0/">
	<!ENTITY ns_extend "http://ns.adobe.com/Extensibility/1.0/">
	<!ENTITY ns_ai "http://ns.adobe.com/AdobeIllustrator/10.0/">
	<!ENTITY ns_graphs "http://ns.adobe.com/Graphs/1.0/">
	<!ENTITY ns_vars "http://ns.adobe.com/Variables/1.0/">
	<!ENTITY ns_imrep "http://ns.adobe.com/ImageReplacement/1.0/">
	<!ENTITY ns_sfw "http://ns.adobe.com/SaveForWeb/1.0/">
	<!ENTITY ns_custom "http://ns.adobe.com/GenericCustomNamespace/1.0/">
	<!ENTITY ns_adobe_xpath "http://ns.adobe.com/XPath/1.0/">
]>
<svg version="1.1" id="圖層_1" xmlns:x="&ns_extend;" xmlns:i="&ns_ai;" xmlns:graph="&ns_graphs;"
	 xmlns="http://www.w3.org/2000/svg" xmlns:xlink="http://www.w3.org/1999/xlink" xmlns:a="http://ns.adobe.com/AdobeSVGViewerExtensions/3.0/"
	 x="0px" y="0px" viewBox="0 0 550 550" enable-background="new 0 0 550 550" xml:space="preserve">
<metadata>
	<sfw  xmlns="&ns_sfw;">
		<slices></slices>
		<sliceSourceBounds  width="3421" height="2195.0949707" bottomLeftOrigin="true" y="-2195.0949707" x="0"></sliceSourceBounds>
	</sfw>
</metadata>
<g>
	<defs>
		<rect id="SVGID_3_" width="550" height="550"/>
	</defs>
	<clipPath id="SVGID_2_">
		<use xlink:href="#SVGID_3_"  overflow="visible"/>
	</clipPath>
	<g clip-path="url(#SVGID_2_)">
		<g>
			<path d="M274.9996948,570.3352051c-77.2025452,0-140.0119171-56.5925903-140.0119171-126.1531372
				s62.8093719-126.1531067,140.0119171-126.1531067c77.2031555,0,140.0125427,56.5925903,140.0125427,126.1531067
				S352.2028503,570.3352051,274.9996948,570.3352051z M274.9996948,330.6373596
				c-70.250061,0-127.4035034,50.9360352-127.4035034,113.5447083s57.1534424,113.5447388,127.4035034,113.5447388
				c70.2512817,0,127.4041138-50.9360657,127.4041138-113.5447388S345.2509766,330.6373596,274.9996948,330.6373596z"/>
			<path d="M111.761322,480.0175781c-19.75914,0-35.8348694-16.0757446-35.8348694-35.8355103
				c0-19.7585144,16.0757294-35.834259,35.8348694-35.834259s35.8348694,16.0757446,35.8348694,35.834259
				C147.5961914,463.9418335,131.520462,480.0175781,111.761322,480.0175781z M111.761322,420.9562378
				c-12.8072662,0-23.2264557,10.4191895-23.2264557,23.2258301c0,12.8078918,10.4191895,23.2270813,23.2264557,23.2270813
				s23.2264557-10.4191895,23.2264557-23.2270813C134.9877777,431.3754272,124.5685959,420.9562378,111.761322,420.9562378z"/>
			<path d="M438.2380676,480.0175781c-19.7585144,0-35.834259-16.0757446-35.834259-35.8355103
				c0-19.7585144,16.0757446-35.834259,35.834259-35.834259c19.7597351,0,35.8354797,16.0757446,35.8354797,35.834259
				C474.0735474,463.9418335,457.9978027,480.0175781,438.2380676,480.0175781z M438.2380676,420.9562378
				c-12.8066711,0-23.2258301,10.4191895-23.2258301,23.2258301c0,12.8078918,10.4191589,23.2270813,23.2258301,23.2270813
				c12.8078918,0,23.2270508-10.4191895,23.2270508-23.2270813
				C461.4651184,431.3754272,451.0459595,420.9562378,438.2380676,420.9562378z"/>
			<g>
				<circle cx="244.3526611" cy="429.5284119" r="9.2519531"/>
				<circle cx="305.6464844" cy="429.5284119" r="9.2519531"/>
			</g>
			<g>
				<path d="M274.9996948,497.6705933c-3.4820862,0-6.3041992-2.8221436-6.3041992-6.3042297v-29.5238953
					c0-3.4820862,2.822113-6.3041992,6.3041992-6.3041992s6.3041992,2.822113,6.3041992,6.3041992v29.5238953
					C281.303894,494.8484497,278.481781,497.6705933,274.9996948,497.6705933z"/>
				<path d="M274.9996948,497.6705933c-14.8272095,0-26.8889313-12.0617371-26.8889313-26.8889465
					c0-3.4820862,2.822113-6.3041992,6.3042145-6.3041992c3.4820862,0,6.3041992,2.822113,6.3041992,6.3041992
					c0,7.874115,6.4064026,14.2805176,14.2805176,14.2805176s14.2805176-6.4064026,14.2805176-14.2805176
					c0-3.4820862,2.822113-6.3041992,6.3041992-6.3041992s6.3041992,2.822113,6.3041992,6.3041992
					C301.8886108,485.6088562,289.8269043,497.6705933,274.9996948,497.6705933z"/>
				<path d="M274.9996948,466.7873535c-10.0657959,0-18.2538757-8.1880798-18.2538757-18.2539062
					c0-3.4820862,2.822113-6.3041992,6.3041992-6.3041992s6.3041992,2.822113,6.3041992,6.3041992
					c0,3.1127014,2.5327759,5.6454773,5.6454773,5.6454773s5.6454773-2.5327759,5.6454773-5.6454773
					c0-3.4820862,2.822113-6.3041992,6.3041992-6.3041992s6.3041992,2.822113,6.3041992,6.3041992
					C293.2535706,458.5992737,285.0654907,466.7873535,274.9996948,466.7873535z"/>
			</g>
			<path d="M274.9996948,528.8271484c-28.5844116,0-51.839798-23.2553711-51.839798-51.8397827v-6.8977051h-4.6111908
				c-21.5414276,0-39.066391-17.5249634-39.066391-39.065155s17.5249634-39.065155,39.066391-39.065155h112.9031982
				c21.5401917,0,39.065155,17.5249634,39.065155,39.065155s-17.5249634,39.065155-39.065155,39.065155h-4.6123962v6.8977051
				C326.8395081,505.5717773,303.5841064,528.8271484,274.9996948,528.8271484z M218.5487061,404.567749
				c-14.5895691,0-26.4579773,11.8684082-26.4579773,26.4567566c0,14.5883179,11.8684082,26.4567566,26.4579773,26.4567566h10.91539
				c3.4820862,0,6.3042145,2.822113,6.3042145,6.3041992v13.2019043c0,21.6325378,17.5988312,39.2313843,39.2313843,39.2313843
				s39.2313843-17.5988464,39.2313843-39.2313843v-13.2019043c0-3.4820862,2.822113-6.3041992,6.3041992-6.3041992h10.916626
				c14.5883484,0,26.4567566-11.8684387,26.4567566-26.4567566c0-14.5883484-11.8684082-26.4567566-26.4567566-26.4567566
				H218.5487061z"/>
			<path d="M141.2919769,450.4862976H111.761322c-3.4814758,0-6.3042068-2.8221436-6.3042068-6.3042297
				s2.822731-6.3041992,6.3042068-6.3041992h29.5306549c3.4814758,0,6.3042145,2.822113,6.3042145,6.3041992
				S144.7734528,450.4862976,141.2919769,450.4862976z"/>
			<path d="M438.2380676,450.4862976h-29.5300598c-3.4820862,0-6.3041992-2.8221436-6.3041992-6.3042297
				s2.822113-6.3041992,6.3041992-6.3041992h29.5300598c3.4820862,0,6.3041992,2.822113,6.3041992,6.3041992
				S441.7201538,450.4862976,438.2380676,450.4862976z"/>
		</g>
		<g>
			<path d="M298.5757751,202.4699249c-1.7959595-4.542923-5.4162598-8.0665588-10.6992798-10.694046
				c-6.0139771-2.9910278-11.5758057-3.6284332-16.7681885-1.9533386
				c-5.2739563,1.6345215-9.3251648,5.4998932-12.3161926,11.5138397c-1.2768555,2.5673676-0.2304688,5.6837616,2.3366089,6.9605103
				c2.5676575,1.2770081,5.6836243,0.2307587,6.9605103-2.3366089c0.0363159-0.0730438,0.0518494-0.1498871,0.0844727-0.2237396
				c1.7110596-3.3712921,3.6560364-5.6713562,5.9169617-6.8274384c2.7161865-1.3856964,5.7622375-1.1895294,9.2559509,0.5480652
				c2.7638855,1.3746185,4.5937195,3.1977844,5.370636,5.5094147c0.6947937,2.272171,0.4562073,4.7897034-0.8772888,7.4709015
				c-1.0105286,2.0318451-2.7119751,3.6196899-5.0637512,4.679184l-1.5415344,0.6524811
				c-7.627594,2.0866547-12.5768738,3.8826599-14.7247314,5.5523834c-2.2288818,1.6280518-4.1323547,4.0271606-5.6681519,7.1151733
				l-0.5658569,1.1377411c-1.2835388,2.5807343-0.3891907,5.6350861,2.1916809,6.9186859
				c2.5808716,1.2835846,5.5562134,0.1538086,6.8397217-2.4269409l0.5658569-1.1377411
				c0.9699707-1.9502716,2.5053711-3.41716,4.1260986-4.638092c1.4585266-1.0994415,3.3224487-1.8955078,5.3512878-2.3056488
				c5.5986328-1.4744263,9.1066589-2.4663086,10.2427979-2.9147491c3.2437134-1.6307526,5.9873352-4.4233551,8.0083923-8.4870453
				C300.0669861,211.6262207,300.412323,206.9312439,298.5757751,202.4699249z"/>
			<path d="M259.901886,244.3653564c-1.584259-0.7879181-3.132019-0.927536-4.6424103-0.4206085
				c-1.6548004,0.4350891-2.8041992,1.4811401-3.5921326,3.0653839c-0.7883911,1.5852203-0.9289703,3.132843-0.27742,4.7149963
				c0.5071259,1.5103302,1.516861,2.73172,3.1011047,3.5196533c1.5853577,0.7884521,3.1331787,0.9293213,4.7879944,0.4942169
				c1.5104065-0.5069122,2.7679138-1.5892792,3.5563049-3.1744843c0.7879333-1.5842438,0.8563538-3.167923,0.3492432-4.6782532
				C262.6052246,246.3400269,261.4872437,245.1538239,259.901886,244.3653564z"/>
		</g>
	</g>
</g>
</svg>
