<?xml version="1.0" encoding="utf-8"?>
<!-- Generator: Adobe Illustrator 18.0.0, SVG Export Plug-In . SVG Version: 6.00 Build 0)  -->
<!DOCTYPE svg PUBLIC "-//W3C//DTD SVG 1.1//EN" "http://www.w3.org/Graphics/SVG/1.1/DTD/svg11.dtd" [
	<!ENTITY ns_flows "http://ns.adobe.com/Flows/1.0/">
	<!ENTITY ns_extend "http://ns.adobe.com/Extensibility/1.0/">
	<!ENTITY ns_ai "http://ns.adobe.com/AdobeIllustrator/10.0/">
	<!ENTITY ns_graphs "http://ns.adobe.com/Graphs/1.0/">
	<!ENTITY ns_vars "http://ns.adobe.com/Variables/1.0/">
	<!ENTITY ns_imrep "http://ns.adobe.com/ImageReplacement/1.0/">
	<!ENTITY ns_sfw "http://ns.adobe.com/SaveForWeb/1.0/">
	<!ENTITY ns_custom "http://ns.adobe.com/GenericCustomNamespace/1.0/">
	<!ENTITY ns_adobe_xpath "http://ns.adobe.com/XPath/1.0/">
]>
<svg version="1.1" id="圖層_1" xmlns:x="&ns_extend;" xmlns:i="&ns_ai;" xmlns:graph="&ns_graphs;"
	 xmlns="http://www.w3.org/2000/svg" xmlns:xlink="http://www.w3.org/1999/xlink" xmlns:a="http://ns.adobe.com/AdobeSVGViewerExtensions/3.0/"
	 x="0px" y="0px" viewBox="0 0 550 550" enable-background="new 0 0 550 550" xml:space="preserve">
<metadata>
	<sfw  xmlns="&ns_sfw;">
		<slices></slices>
		<sliceSourceBounds  width="3421" height="2195.0949707" bottomLeftOrigin="true" y="-2195.0949707" x="0"></sliceSourceBounds>
	</sfw>
</metadata>
<g>
	<defs>
		<rect id="SVGID_7_" width="550" height="550"/>
	</defs>
	<clipPath id="SVGID_2_">
		<use xlink:href="#SVGID_7_"  overflow="visible"/>
	</clipPath>
	<g clip-path="url(#SVGID_2_)">
		<g>
			<path d="M286.7368164,567.9489746c-56.4780884,0-102.4261627-45.9481201-102.4261627-102.426178
				s45.9480743-102.4261475,102.4261627-102.4261475s102.4261475,45.9480896,102.4261475,102.4261475
				S343.2148743,567.9489746,286.7368164,567.9489746z M286.7368164,375.7050781
				c-49.5256042,0-89.817749,40.2915344-89.817749,89.8177185s40.2921448,89.8177185,89.817749,89.8177185
				s89.8177185-40.2915039,89.8177185-89.8177185S336.2623901,375.7050781,286.7368164,375.7050781z"/>
			<circle cx="229.1896362" cy="471.3987427" r="23.0730247"/>
			<circle cx="344.2839355" cy="471.3987427" r="23.0730247"/>
			<path d="M229.1893616,516.277832c-24.7464905,0-44.8787079-20.1328125-44.8787079-44.879303
				c0-24.7452393,20.1322174-44.8780823,44.8787079-44.8780823s44.879303,20.132843,44.879303,44.8780823
				C274.0686646,496.1450195,253.9358368,516.277832,229.1893616,516.277832z M229.1893616,439.1288757
				c-17.7940063,0-32.2702942,14.4762573-32.2702942,32.2696533c0,17.7946167,14.4762878,32.2709045,32.2702942,32.2709045
				s32.2709045-14.4762878,32.2709045-32.2709045C261.4602661,453.6051331,246.9833527,439.1288757,229.1893616,439.1288757z"/>
			<path d="M344.2842712,516.277832c-24.7464905,0-44.8793335-20.1328125-44.8793335-44.879303
				c0-24.7452393,20.132843-44.8780823,44.8793335-44.8780823c24.74646,0,44.8786926,20.132843,44.8786926,44.8780823
				C389.1629639,496.1450195,369.0307312,516.277832,344.2842712,516.277832z M344.2842712,439.1288757
				c-17.7940063,0-32.2709045,14.4762573-32.2709045,32.2696533c0,17.7946167,14.4768982,32.2709045,32.2709045,32.2709045
				c17.7939758,0,32.2702637-14.4762878,32.2702637-32.2709045
				C376.5545349,453.6051331,362.0782471,439.1288757,344.2842712,439.1288757z"/>
			<path d="M371.6737061,450.5441589c-1.6136169,0-3.226593-0.6156616-4.4578857-1.8469238
				c-2.4619751-2.4613647-2.4619751-6.4532166,0-8.9145508l17.7428894-17.7429199
				c2.4625854-2.4625549,6.453186-2.4625549,8.9157715,0c2.4619751,2.4613647,2.4619751,6.4532166,0,8.9145508
				l-17.7428894,17.7429199C374.9002991,449.9284973,373.287323,450.5441589,371.6737061,450.5441589z"/>
			<path d="M201.7992859,450.5441589c-1.6136017,0-3.226593-0.6156616-4.4578857-1.8469238l-17.7428894-17.7429199
				c-2.4619751-2.4613342-2.4619751-6.453186,0-8.9145508c2.4625702-2.4625549,6.453186-2.4625549,8.9157715,0
				l17.7429047,17.7429199c2.4619598,2.4613342,2.4619598,6.453186,0,8.9145508
				C205.0258942,449.9284973,203.4129028,450.5441589,201.7992859,450.5441589z"/>
			<path d="M387.0439148,570.3352051c-0.486969,0-0.9782715-0.0566406-1.4640198-0.1723633
				c-2.1904602-0.5220947-3.9358215-2.1744995-4.5785522-4.3341675l-15.3702087-51.644043
				c-0.6421204-2.1584473-0.0843201-4.4954224,1.4640198-6.1318054s3.8520813-2.318512,6.0425415-1.797699l52.4099121,12.5111694
				c2.1904602,0.5233154,3.9358215,2.1744385,4.5785522,4.3341064c0.6421204,2.1584473,0.0843506,4.4954834-1.4640198,6.1318359
				l-37.0396729,39.1328735C390.4170227,569.6383057,388.7547913,570.3352051,387.0439148,570.3352051z M380.8308105,521.0540161
				l9.1405029,30.7133179l22.027771-23.272644L380.8308105,521.0540161z"/>
			<path d="M187.9466553,570.3352051c-1.7108765,0-3.3731232-0.6968994-4.5785522-1.9700928l-37.0396881-39.1328735
				c-1.5483551-1.6363525-2.1061249-3.9733887-1.4640045-6.1318359c0.6427307-2.159668,2.388092-3.810791,4.5785522-4.3341064
				l52.4092712-12.5111694c2.1941681-0.5232849,4.4942169,0.1613159,6.0425568,1.797699
				c1.5483551,1.6363831,2.1061249,3.9733582,1.4640198,6.1318054l-15.3695984,51.644043
				c-0.6427307,2.159668-2.3880768,3.8120728-4.5785522,4.3341675
				C188.9249115,570.2785645,188.4336395,570.3352051,187.9466553,570.3352051z M162.9914703,528.4946899l22.0277863,23.272644
				l9.1398773-30.7133179L162.9914703,528.4946899z"/>
			<path d="M286.7368164,375.7050781c-3.4814758,0-6.3042297-2.822113-6.3042297-6.3041992v-90.6685791
				c0-3.4820862,2.8227539-6.3041992,6.3042297-6.3041992s6.3041992,2.822113,6.3041992,6.3041992v90.6685791
				C293.0410156,372.8829651,290.2182922,375.7050781,286.7368164,375.7050781z"/>
			<path d="M303.3247681,377.1616821c-0.3601685,0-0.722168-0.0307617-1.0823059-0.0935669
				c-10.3785706-1.8087769-20.6290588-1.8087769-31.0112915,0c-1.8340149,0.3226013-3.7148132-0.1871643-5.1394043-1.3851929
				c-1.4246216-1.1980591-2.2471313-2.9637146-2.2471313-4.8254395v-75.5384521
				c0-12.6231995,10.2695923-22.8921509,22.8921814-22.8921509c12.6225586,0,22.8921509,10.2689514,22.8921509,22.8921509
				v75.5384521c0,1.8617249-0.8225098,3.6273804-2.2471008,4.8254395
				C306.2373657,376.6457825,304.7973938,377.1616821,303.3247681,377.1616821z M286.7368164,285.0352783
				c-5.6707153,0-10.2837524,4.6136475-10.2837524,10.2837524v68.3070679c6.8964539-0.7042847,13.6722412-0.7042847,20.5674744,0
				v-68.3070679C297.0205383,289.6489258,292.4075012,285.0352783,286.7368164,285.0352783z"/>
			<g>
				<path d="M286.7368164,537.5803833c-14.5304871,0-26.3514709-11.2158203-26.3514709-25.0013428
					c0-3.4820862,2.8227234-6.3041992,6.3041992-6.3041992h40.0945129c3.4814758,0,6.3042297,2.822113,6.3042297,6.3041992
					C313.0882874,526.364563,301.2672729,537.5803833,286.7368164,537.5803833z M274.9084167,518.8832397
					c2.3960876,3.6421509,6.8010254,6.0887451,11.8283997,6.0887451c5.0273438,0,9.4322815-2.4465942,11.8283997-6.0887451
					H274.9084167z"/>
				<path d="M266.7911377,518.8832397c-1.5434265,0-3.0326843-0.5664062-4.1870117-1.5908203
					c-4.1266785-3.6655273-6.5387573-8.7938843-6.617569-14.0687256c-0.0757294-5.0913696,1.9633026-9.8589478,5.7421112-13.4235229
					c3.9309082-3.7086487,9.1946716-5.7501221,14.8216553-5.7501221c3.6199951,0,7.1107178,0.8545227,10.1864929,2.4576416
					c3.0751343-1.6031189,6.5658569-2.4576416,10.1858521-2.4576416c5.6269836,0,10.8907471,2.0414734,14.8210449,5.7476501
					c3.7800598,3.5658264,5.8190613,8.3346252,5.7427368,13.4272461c-0.0787964,5.2748413-2.4909058,10.401947-6.6169739,14.0662537
					c-1.153717,1.0244141-2.6429443,1.5908203-4.1863708,1.5908203L266.7911377,518.8832397z M276.5503235,496.6584473
					c-2.3628235,0-4.6117859,0.8434448-6.1693726,2.3123779c-1.5064697,1.4208984-1.8032227,2.9945068-1.7872009,4.0644836
					c0.0166016,1.1130981,0.3755188,2.2323303,1.0188904,3.2395325l34.2489624-0.0012207
					c0.6427307-1.0072021,1.0010376-2.1252136,1.01828-3.2383118c0.0159912-1.0699768-0.2813721-2.6448059-1.7878418-4.0657043
					c-1.5575867-1.4689331-3.8059082-2.3111572-6.1693726-2.3111572c-2.3031311,0-4.4332581,0.7658691-5.9988708,2.1572266
					c-2.3874512,2.1203003-5.9859009,2.1203003-8.3733826,0
					C280.9842224,497.4243164,278.8534546,496.6584473,276.5503235,496.6584473z"/>
			</g>
		</g>
		<g>
			<path d="M310.7124634,188.9718018c-1.7959595-4.5429077-5.4162598-8.0665588-10.6992798-10.694046
				c-6.0139465-2.9910278-11.5757751-3.6284332-16.7681885-1.9533386
				c-5.2739563,1.6345215-9.3251343,5.4998932-12.3161621,11.5138397c-1.276886,2.5673828-0.2304993,5.6837616,2.3365784,6.9605103
				c2.5676575,1.2770081,5.6836243,0.2307587,6.9605103-2.3366089c0.0363159-0.0730438,0.0518494-0.1498871,0.0844727-0.2237396
				c1.7110596-3.3712921,3.6560364-5.6713562,5.9169617-6.8274384c2.7161865-1.3856964,5.7622375-1.1895294,9.2559509,0.5480652
				c2.7638855,1.3746185,4.5937195,3.1977844,5.3706665,5.5094147c0.6947937,2.272171,0.4561768,4.7897034-0.8772888,7.4709015
				c-1.0105591,2.0318451-2.7119751,3.6196899-5.0637817,4.679184l-1.5415344,0.6524811
				c-7.627594,2.0866547-12.5768738,3.8826599-14.7247314,5.5523834c-2.2288818,1.6280518-4.1323547,4.0271606-5.6681519,7.1151733
				l-0.5658569,1.1377411c-1.2835388,2.5807343-0.3891907,5.6350861,2.1916809,6.9186859
				c2.5809021,1.2835846,5.5562134,0.1538086,6.8397217-2.4269409l0.5658569-1.1377411
				c0.9699707-1.9502716,2.5053711-3.41716,4.1260986-4.638092c1.4585266-1.0994415,3.3224487-1.8955078,5.3512878-2.3056488
				c5.5986328-1.4744263,9.1066589-2.4663086,10.2427979-2.9147491c3.2437134-1.6307526,5.9873352-4.4233551,8.0083923-8.4870453
				C312.2036743,198.1280975,312.5490112,193.433136,310.7124634,188.9718018z"/>
			<path d="M272.0385742,230.8672333c-1.5842285-0.7879181-3.132019-0.927536-4.642395-0.4206085
				c-1.6548157,0.4350891-2.8041992,1.4811401-3.5921326,3.0653839c-0.7883911,1.5852203-0.9289856,3.132843-0.2774353,4.7149963
				c0.5071411,1.5103302,1.5168762,2.73172,3.1011047,3.5196533c1.5853577,0.7884674,3.1331787,0.929306,4.7879944,0.4942169
				c1.5104065-0.5069122,2.7679138-1.5892792,3.5563354-3.1744843c0.7879028-1.5842438,0.8563232-3.167923,0.3492126-4.6782532
				C274.7419128,232.8419037,273.6239319,231.6557007,272.0385742,230.8672333z"/>
		</g>
	</g>
</g>
</svg>
