<?xml version="1.0" encoding="utf-8"?>
<!-- Generator: Adobe Illustrator 18.0.0, SVG Export Plug-In . SVG Version: 6.00 Build 0)  -->
<!DOCTYPE svg PUBLIC "-//W3C//DTD SVG 1.1//EN" "http://www.w3.org/Graphics/SVG/1.1/DTD/svg11.dtd" [
	<!ENTITY ns_flows "http://ns.adobe.com/Flows/1.0/">
	<!ENTITY ns_extend "http://ns.adobe.com/Extensibility/1.0/">
	<!ENTITY ns_ai "http://ns.adobe.com/AdobeIllustrator/10.0/">
	<!ENTITY ns_graphs "http://ns.adobe.com/Graphs/1.0/">
	<!ENTITY ns_vars "http://ns.adobe.com/Variables/1.0/">
	<!ENTITY ns_imrep "http://ns.adobe.com/ImageReplacement/1.0/">
	<!ENTITY ns_sfw "http://ns.adobe.com/SaveForWeb/1.0/">
	<!ENTITY ns_custom "http://ns.adobe.com/GenericCustomNamespace/1.0/">
	<!ENTITY ns_adobe_xpath "http://ns.adobe.com/XPath/1.0/">
]>
<svg version="1.1" id="圖層_1" xmlns:x="&ns_extend;" xmlns:i="&ns_ai;" xmlns:graph="&ns_graphs;"
	 xmlns="http://www.w3.org/2000/svg" xmlns:xlink="http://www.w3.org/1999/xlink" xmlns:a="http://ns.adobe.com/AdobeSVGViewerExtensions/3.0/"
	 x="0px" y="0px" viewBox="0 0 550 550" enable-background="new 0 0 550 550" xml:space="preserve">
<metadata>
	<sfw  xmlns="&ns_sfw;">
		<slices></slices>
		<sliceSourceBounds  width="3421" height="2195.0949707" bottomLeftOrigin="true" y="-2195.0949707" x="0"></sliceSourceBounds>
	</sfw>
</metadata>
<g>
	<defs>
		<rect id="SVGID_1_" width="550" height="550"/>
	</defs>
	<clipPath id="SVGID_2_">
		<use xlink:href="#SVGID_1_"  overflow="visible"/>
	</clipPath>
	<g clip-path="url(#SVGID_2_)">
		<g>
			<path d="M329.6806946,570.3352051H220.3193054c-3.4814758,0-6.3042145-2.8221436-6.3042145-6.3041992V375.904541
				c0-33.6265564,27.3574371-60.9845886,60.9846039-60.9845886s60.985199,27.3580322,60.985199,60.9845886v188.1264648
				C335.9848938,567.5130615,333.1621704,570.3352051,329.6806946,570.3352051z M226.6235046,557.7268066h96.7529907V375.904541
				c0-26.6746826-21.7015076-48.3761902-48.3768005-48.3761902c-26.6746826,0-48.3761902,21.7015076-48.3761902,48.3761902
				V557.7268066z"/>
			<path d="M274.9996948,327.5283508c-3.4814758,0-6.3041992-2.822113-6.3041992-6.3041992V215.6372833
				c0-3.4821014,2.8227234-6.3042145,6.3041992-6.3042145s6.3041992,2.822113,6.3041992,6.3042145v105.5868683
				C281.303894,324.7062378,278.4811707,327.5283508,274.9996948,327.5283508z"/>
			<path d="M274.9996948,490.6916199L274.9996948,490.6916199c-2.769165,0-5.2145081-1.8075256-6.0271606-4.4548035
				l-16.666153-54.3171692c-0.5860901-1.9122009-0.2308655-3.9881592,0.9573364-5.5962219
				c1.1888123-1.6080627,3.0702362-2.557373,5.0698395-2.557373h33.3328857c1.9996033,0,3.8810425,0.9493103,5.0698547,2.557373
				c1.1881714,1.6080627,1.543396,3.684021,0.9573059,5.5962219l-16.666748,54.3171692
				C280.2142029,488.8840942,277.7688599,490.6916199,274.9996948,490.6916199z M266.8620911,436.3744507l8.1376038,26.5220032
				l8.1382141-26.5220032H266.8620911z"/>
			<circle cx="311.6665649" cy="411.642334" r="9.2519531"/>
			<path d="M329.6806946,455.4914856c-24.1782227,0-43.8487244-19.6698608-43.8487244-43.8487244
				s19.6705017-43.8487244,43.8487244-43.8487244c3.4814758,0,6.3041992,2.822113,6.3041992,6.3041992
				s-2.8227234,6.3041992-6.3041992,6.3041992c-17.225769,0-31.2402954,14.0145569-31.2402954,31.2403259
				c0,17.2257385,14.0145264,31.2402954,31.2402954,31.2402954c3.4814758,0,6.3041992,2.822113,6.3041992,6.3042297
				C335.9848938,452.6693726,333.1621704,455.4914856,329.6806946,455.4914856z"/>
			<circle cx="238.3332062" cy="411.6423645" r="9.2519531"/>
			<path d="M220.3193054,455.4914856c-3.4814758,0-6.3042145-2.822113-6.3042145-6.3041992
				c0-3.4821167,2.8227386-6.3042297,6.3042145-6.3042297c17.2257538,0,31.2403107-14.0145569,31.2403107-31.2402954
				c0-17.225769-14.0145569-31.2403259-31.2403107-31.2403259c-3.4814758,0-6.3042145-2.822113-6.3042145-6.3041992
				s2.8227386-6.3041992,6.3042145-6.3041992c24.1782379,0,43.8487244,19.6698608,43.8487244,43.8487244
				S244.4975433,455.4914856,220.3193054,455.4914856z"/>
		</g>
		<g>
			<path d="M298.2171936,124.7976227c-1.7959595-4.5429077-5.4162598-8.0665436-10.6992798-10.694046
				c-6.0139771-2.9910278-11.5758057-3.6284332-16.7681885-1.9533386
				c-5.2739563,1.6345215-9.3251648,5.4998932-12.3161926,11.5138474c-1.2768555,2.5673752-0.2304688,5.6837692,2.3366089,6.9605026
				c2.5676575,1.2770081,5.6836243,0.2307587,6.9605103-2.3366089c0.0363159-0.0730438,0.0518494-0.1498871,0.0844421-0.2237396
				c1.7110901-3.3712845,3.6560669-5.6713562,5.9169922-6.8274307c2.716156-1.385704,5.7622375-1.1895294,9.2559509,0.5480652
				c2.7638855,1.3746109,4.5937195,3.1977844,5.370636,5.5094147c0.6947937,2.2721634,0.4562073,4.7896957-0.8772888,7.4708939
				c-1.0105286,2.0318451-2.7119751,3.6196899-5.0637512,4.679184l-1.5415344,0.6524963
				c-7.627594,2.0866394-12.5769043,3.8826447-14.7247314,5.5523682c-2.2288818,1.628067-4.1323547,4.0271606-5.6681519,7.1151733
				l-0.5658569,1.1377411c-1.2835388,2.5807343-0.3891907,5.6350861,2.1916809,6.9186859
				c2.5808716,1.2835846,5.5561829,0.1538086,6.8397217-2.4269257l0.5658569-1.1377563
				c0.9699402-1.9502563,2.5053711-3.4171448,4.1260681-4.6380768c1.4585571-1.0994568,3.3224792-1.8955231,5.3512878-2.3056641
				c5.5986633-1.4744263,9.1066895-2.4662933,10.2428284-2.9147339c3.2437134-1.6307678,5.9873352-4.4233704,8.0083923-8.4870605
				C299.7084045,133.9539185,300.0537415,129.2589569,298.2171936,124.7976227z"/>
			<path d="M259.5433044,166.6930542c-1.584259-0.7879181-3.132019-0.9275208-4.6424103-0.4206085
				c-1.6548157,0.4350891-2.8042145,1.4811554-3.5921326,3.0653992c-0.7884064,1.5852051-0.9289703,3.1328278-0.27742,4.7149811
				c0.5071259,1.5103302,1.516861,2.7317352,3.1011047,3.5196533c1.5853424,0.7884674,3.1331787,0.929306,4.7879944,0.4942169
				c1.510376-0.5069122,2.7679138-1.5892639,3.5563049-3.1744843c0.7879333-1.5842438,0.8563538-3.167923,0.3492432-4.6782379
				C262.2466431,168.6677246,261.1286316,167.4815216,259.5433044,166.6930542z"/>
		</g>
	</g>
</g>
</svg>
