<?xml version="1.0" encoding="utf-8"?>
<!-- Generator: Adobe Illustrator 18.0.0, SVG Export Plug-In . SVG Version: 6.00 Build 0)  -->
<!DOCTYPE svg PUBLIC "-//W3C//DTD SVG 1.1//EN" "http://www.w3.org/Graphics/SVG/1.1/DTD/svg11.dtd" [
	<!ENTITY ns_flows "http://ns.adobe.com/Flows/1.0/">
	<!ENTITY ns_extend "http://ns.adobe.com/Extensibility/1.0/">
	<!ENTITY ns_ai "http://ns.adobe.com/AdobeIllustrator/10.0/">
	<!ENTITY ns_graphs "http://ns.adobe.com/Graphs/1.0/">
	<!ENTITY ns_vars "http://ns.adobe.com/Variables/1.0/">
	<!ENTITY ns_imrep "http://ns.adobe.com/ImageReplacement/1.0/">
	<!ENTITY ns_sfw "http://ns.adobe.com/SaveForWeb/1.0/">
	<!ENTITY ns_custom "http://ns.adobe.com/GenericCustomNamespace/1.0/">
	<!ENTITY ns_adobe_xpath "http://ns.adobe.com/XPath/1.0/">
]>
<svg version="1.1" id="圖層_1" xmlns:x="&ns_extend;" xmlns:i="&ns_ai;" xmlns:graph="&ns_graphs;"
	 xmlns="http://www.w3.org/2000/svg" xmlns:xlink="http://www.w3.org/1999/xlink" xmlns:a="http://ns.adobe.com/AdobeSVGViewerExtensions/3.0/"
	 x="0px" y="0px" viewBox="0 0 550 550" enable-background="new 0 0 550 550" xml:space="preserve">
<metadata>
	<sfw  xmlns="&ns_sfw;">
		<slices></slices>
		<sliceSourceBounds  width="3421" height="2195.0949707" bottomLeftOrigin="true" y="-2195.0949707" x="0"></sliceSourceBounds>
	</sfw>
</metadata>
<g>
	<defs>
		<rect id="SVGID_5_" width="550" height="550"/>
	</defs>
	<clipPath id="SVGID_2_">
		<use xlink:href="#SVGID_5_"  overflow="visible"/>
	</clipPath>
	<g clip-path="url(#SVGID_2_)">
		<g>
			<path d="M390.9385681,570.3352051H159.0612793c-3.4814758,0-6.3042145-2.8221436-6.3042145-6.3041992V301.705719
				c0-2.7703857,1.8087616-5.2157288,4.4578857-6.0271606c2.6485138-0.8114014,5.5174255,0.2007141,7.0688477,2.4958191
				l43.2964935,64.038208h136.8167114l41.2451782-63.9249268c1.5157166-2.3493042,4.3981628-3.4168091,7.0786743-2.6287842
				c2.6811218,0.7892456,4.522522,3.2518311,4.522522,6.0468445l-0.0006104,262.3252869
				C397.2427673,567.5130615,394.4200439,570.3352051,390.9385681,570.3352051z M165.3654785,557.7268066h219.2688904
				l0.0006104-234.622467l-31.5056458,48.8305359c-1.1604919,1.7988892-3.1558228,2.8861389-5.2970276,2.8861389H204.2324066
				c-2.0931854,0-4.0503235-1.0392151-5.2225189-2.7728882l-33.6444092-49.7626038V557.7268066z"/>
			<path d="M275.0002136,520.3731079c-3.4814758,0-6.3041992-2.8220825-6.3041992-6.3041992v-19.8841248
				c0-3.4820862,2.8227234-6.3041992,6.3041992-6.3041992s6.3042297,2.822113,6.3042297,6.3041992v19.8841248
				C281.3044434,517.5510254,278.4816895,520.3731079,275.0002136,520.3731079z"/>
			<path d="M248.9393463,546.4334106c-17.8463287,0-32.365097-14.5181885-32.365097-32.364502
				c0-3.4820862,2.8227386-6.3041992,6.3042145-6.3041992s6.3041992,2.822113,6.3041992,6.3041992
				c0,10.8932495,8.8628387,19.7560425,19.7566833,19.7560425s19.7566681-8.862793,19.7566681-19.7560425
				c0-3.4820862,2.8227234-6.3041992,6.3041992-6.3041992s6.3042297,2.822113,6.3042297,6.3041992
				C281.3044434,531.9152222,266.785675,546.4334106,248.9393463,546.4334106z"/>
			<path d="M301.0611267,546.4334106c-17.846344,0-32.3651123-14.5181885-32.3651123-32.364502
				c0-3.4820862,2.8227234-6.3041992,6.3041992-6.3041992s6.3042297,2.822113,6.3042297,6.3041992
				c0,10.8932495,8.8628235,19.7560425,19.7566833,19.7560425c10.8938293,0,19.7566528-8.862793,19.7566528-19.7560425
				c0-3.4820862,2.8227539-6.3041992,6.3042297-6.3041992s6.3041992,2.822113,6.3041992,6.3041992
				C333.4262085,531.9152222,318.9074402,546.4334106,301.0611267,546.4334106z"/>
			<circle cx="345.7679443" cy="454.9536743" r="27.6210785"/>
			<path d="M345.7680359,506.4287415c-28.3836975,0-51.4753418-23.0916138-51.4753418-51.4753418
				c0-28.3836975,23.0916443-51.4753418,51.4753418-51.4753418c28.383728,0,51.4753418,23.0916443,51.4753418,51.4753418
				C397.2433777,483.3371277,374.1517639,506.4287415,345.7680359,506.4287415z M345.7680359,416.0864868
				c-21.4312134,0-38.8669128,17.4350891-38.8669128,38.8669128c0,21.4318542,17.4356995,38.8669434,38.8669128,38.8669434
				c21.4312439,0,38.8669434-17.4350891,38.8669434-38.8669434
				C384.6349792,433.5215759,367.1992798,416.0864868,345.7680359,416.0864868z"/>
			<circle cx="204.2325439" cy="454.9536743" r="27.6210785"/>
			<path d="M204.2324066,506.4287415c-28.3837128,0-51.4753418-23.0916138-51.4753418-51.4753418
				c0-28.3836975,23.091629-51.4753418,51.4753418-51.4753418s51.4753418,23.0916443,51.4753418,51.4753418
				C255.7077484,483.3371277,232.6161194,506.4287415,204.2324066,506.4287415z M204.2324066,416.0864868
				c-21.4312286,0-38.8669281,17.4350891-38.8669281,38.8669128c0,21.4318542,17.4356995,38.8669434,38.8669281,38.8669434
				s38.8669281-17.4350891,38.8669281-38.8669434C243.0993347,433.5215759,225.6636353,416.0864868,204.2324066,416.0864868z"/>
			<path d="M275.0002136,500.4890137c-4.5138855,0-8.8215637-1.4135437-12.1282043-3.9832458l-12.6219635-9.8047485
				c-4.4671173-3.4685669-7.0731354-8.409729-7.1488647-13.5577393c-0.0732574-4.967041,2.1405945-9.5622253,6.2334137-12.9396362
				c4.0115356-3.3085022,9.3381042-5.1307983,14.9995728-5.1307983c3.7917786,0,7.4548645,0.8262024,10.6660461,2.37146
				c3.2106018-1.5452576,6.8736877-2.37146,10.6648254-2.37146c5.661499,0,10.988678,1.8222961,15.0002136,5.1307983
				c4.0921936,3.3749695,6.3066711,7.9701233,6.2340088,12.9371643c-0.0751038,5.1480103-2.6805115,10.0904236-7.1488647,13.5614319
				l-12.6219482,9.8035278C283.8211975,499.07547,279.5135193,500.4890137,275.0002136,500.4890137z M264.3341675,467.6812744
				c-2.7008362,0-5.2434387,0.8200378-6.9765015,2.2495422c-1.1106262,0.9161072-1.6653137,1.9343567-1.6493073,3.0265198
				c0.0190887,1.2977905,0.8483734,2.6780701,2.2754364,3.7862244l12.6231995,9.8059998
				c2.1793823,1.691803,6.6064758,1.6930237,8.7870789-0.0012207l12.6219788-9.8035583
				c1.4276733-1.109375,2.2575684-2.4896545,2.2766418-3.7886658c0.0154114-1.0909424-0.5393066-2.1091919-1.6499023-3.0252991
				c-1.7336731-1.4295044-4.2769165-2.2495422-6.9777527-2.2495422c-2.5967712,0-5.0741272,0.7670898-6.7973328,2.1054993
				c-2.2754211,1.7681274-5.4595337,1.7681274-7.7349548,0
				C269.4095459,468.4483643,266.9315796,467.6812744,264.3341675,467.6812744z"/>
			<path d="M241.1151123,435.178894c-2.0704193,0-4.0977478-1.01828-5.3037872-2.8873901L153.764267,305.1238098
				c-1.8881836-2.9255676-1.0466003-6.8275146,1.878952-8.7150879c2.9261627-1.8912659,6.8274994-1.047821,8.715683,1.8789368
				l82.0476837,127.1677246c1.887558,2.9255371,1.0459747,6.8275146-1.8795776,8.7150574
				C243.4699554,434.8526001,242.2854462,435.178894,241.1151123,435.178894z"/>
			<path d="M258.7084045,416.0864868c-3.2629242,0-6.0253143-2.5142822-6.2789612-5.8215332l-3.1656494-41.2655029
				c-0.2665863-3.472229,2.3320618-6.5024414,5.8036804-6.7684021c3.463623-0.2524109,6.5018311,2.3320618,6.7677917,5.8030701
				l3.1656494,41.2655029c0.266571,3.472229-2.3320618,6.5024414-5.8036804,6.7684021
				C259.0334778,416.0803223,258.8703308,416.0864868,258.7084045,416.0864868z"/>
			<circle cx="260.6020508" cy="426.3059082" r="6.8585653"/>
			<path d="M291.2920532,416.0864868c-0.1619263,0-0.3250732-0.0061646-0.4888306-0.0184631
				c-3.4716187-0.2659607-6.0702515-3.2961731-5.8036804-6.7684021l3.1656494-41.2655029
				c0.2659607-3.472229,3.2967834-6.0714722,6.7677917-5.8030701c3.4716187,0.2659607,6.0702515,3.2961731,5.8036804,6.7684021
				l-3.1656494,41.2655029C297.3173828,413.5722046,294.5543518,416.0864868,291.2920532,416.0864868z"/>
			<circle cx="289.3980713" cy="426.3059082" r="6.8585653"/>
			<circle cx="193.2266846" cy="520.0599976" r="6.8585653"/>
			<circle cx="193.2266846" cy="539.1750488" r="6.8585653"/>
			<path d="M308.8853455,435.178894c-1.1703491,0-2.3548279-0.3262939-3.4118958-1.0084534
				c-2.9255676-1.8875427-3.7671509-5.7895203-1.8795776-8.7150574l82.0470581-127.1677246
				c1.8881836-2.9230652,5.7882996-3.7689819,8.7156982-1.8789368c2.9255371,1.8875732,3.7671204,5.7895203,1.8795776,8.7150879
				l-82.0470581,127.1676941C312.9830933,434.1593628,310.9557495,435.178894,308.8853455,435.178894z"/>
			<g>
				<circle cx="257.1320801" cy="507.1049805" r="6.4340272"/>
				<circle cx="248.7877197" cy="521.2076416" r="6.4340272"/>
				<circle cx="240.7467041" cy="506.9299011" r="6.4340272"/>
			</g>
			<g>
				<circle cx="309.2537842" cy="507.1049805" r="6.4340272"/>
				<circle cx="300.9094238" cy="521.2076416" r="6.4340272"/>
				<circle cx="292.8684082" cy="506.9299011" r="6.4340272"/>
			</g>
			<path d="M176.319046,526.364563h-17.2577667c-3.4814758,0-6.3042145-2.8220825-6.3042145-6.3041992
				c0-3.4820557,2.8227386-6.3041992,6.3042145-6.3041992h17.2577667c3.4814758,0,6.3042145,2.8221436,6.3042145,6.3041992
				C182.6232605,523.5424805,179.8005219,526.364563,176.319046,526.364563z"/>
			<path d="M176.319046,545.479126h-17.2577667c-3.4814758,0-6.3042145-2.8220825-6.3042145-6.3041992
				s2.8227386-6.3041992,6.3042145-6.3041992h17.2577667c3.4814758,0,6.3042145,2.8220825,6.3042145,6.3041992
				S179.8005219,545.479126,176.319046,545.479126z"/>
			<circle cx="356.7735596" cy="520.0599976" r="6.8585653"/>
			<circle cx="356.7735596" cy="539.1750488" r="6.8585653"/>
			<path d="M390.9385681,526.364563h-17.2571716c-3.4814758,0-6.3041992-2.8220825-6.3041992-6.3041992
				c0-3.4820557,2.8227234-6.3041992,6.3041992-6.3041992h17.2571716c3.4814758,0,6.3041992,2.8221436,6.3041992,6.3041992
				C397.2427673,523.5424805,394.4200439,526.364563,390.9385681,526.364563z"/>
			<path d="M390.9385681,545.479126h-17.2571716c-3.4814758,0-6.3041992-2.8220825-6.3041992-6.3041992
				s2.8227234-6.3041992,6.3041992-6.3041992h17.2571716c3.4814758,0,6.3041992,2.8220825,6.3041992,6.3041992
				S394.4200439,545.479126,390.9385681,545.479126z"/>
			<path d="M390.9391785,374.8210144h-18.7156067c-3.4814758,0-6.3042297-2.822113-6.3042297-6.3042297v-37.8030701
				c0-3.4820862,2.8227539-6.3041992,6.3042297-6.3041992s6.3041992,2.822113,6.3041992,6.3041992v31.4988708h12.4114075
				c3.4814758,0,6.3041992,2.822113,6.3041992,6.3041992C397.2433777,371.9989014,394.4206543,374.8210144,390.9391785,374.8210144z
				"/>
			<path d="M178.6738892,374.8210144h-18.7162323c-3.4814758,0-6.3042145-2.822113-6.3042145-6.3042297
				c0-3.4820862,2.8227386-6.3041992,6.3042145-6.3041992h12.4120178v-31.4988708
				c0-3.4820862,2.8227386-6.3041992,6.3042145-6.3041992s6.3042145,2.822113,6.3042145,6.3041992v37.8030701
				C184.9781036,371.9989014,182.155365,374.8210144,178.6738892,374.8210144z"/>
		</g>
		<g>
			<path d="M298.2171936,210.8635559c-1.7959595-4.5429077-5.4162598-8.0665436-10.6992798-10.694046
				c-6.0139771-2.9910278-11.5758057-3.6284332-16.7681885-1.9533386
				c-5.2739563,1.6345215-9.3251648,5.4998932-12.3161926,11.513855c-1.2768555,2.5673676-0.2304688,5.6837616,2.3366089,6.960495
				c2.5676575,1.2770081,5.6836243,0.2307587,6.9605103-2.3366089c0.0363159-0.0730438,0.0518494-0.1498871,0.0844421-0.2237396
				c1.7110901-3.3712769,3.6560669-5.6713562,5.9169922-6.8274231c2.716156-1.3857117,5.7622375-1.1895447,9.2559509,0.5480499
				c2.7638855,1.3746185,4.5937195,3.1977844,5.370636,5.5094299c0.6947937,2.2721558,0.4562073,4.7896881-0.8772888,7.4708862
				c-1.0105286,2.0318451-2.7119751,3.6196899-5.0637512,4.679184l-1.5415344,0.6524963
				c-7.627594,2.0866394-12.5769043,3.8826447-14.7247314,5.5523682c-2.2288818,1.628067-4.1323547,4.0271606-5.6681519,7.1151733
				l-0.5658569,1.1377411c-1.2835388,2.5807343-0.3891907,5.6350861,2.1916809,6.9186859
				c2.5808716,1.2835846,5.5561829,0.1538086,6.8397217-2.4269257l0.5658569-1.1377563
				c0.9699402-1.9502563,2.5053711-3.4171448,4.1260681-4.638092c1.4585571-1.0994415,3.3224792-1.8955078,5.3512878-2.3056488
				c5.5986633-1.4744263,9.1066895-2.4662933,10.2428284-2.9147339c3.2437134-1.6307678,5.9873352-4.4233704,8.0083923-8.4870605
				C299.7084045,220.0198517,300.0537415,215.3248901,298.2171936,210.8635559z"/>
			<path d="M259.5433044,252.7589874c-1.584259-0.7879181-3.132019-0.9275208-4.6424103-0.4206085
				c-1.6548157,0.4350891-2.8042145,1.4811554-3.5921326,3.0653992c-0.7884064,1.5852051-0.9289703,3.132843-0.27742,4.7149963
				c0.5071259,1.5103149,1.516861,2.73172,3.1011047,3.5196228c1.5853424,0.7884827,3.1331787,0.9293213,4.7879944,0.4942322
				c1.510376-0.506897,2.7679138-1.5892639,3.5563049-3.174469c0.7879333-1.584259,0.8563538-3.1679382,0.3492432-4.6782532
				C262.2466431,254.7336578,261.1286316,253.5474548,259.5433044,252.7589874z"/>
		</g>
	</g>
</g>
</svg>
