<?xml version="1.0" encoding="utf-8"?>
<!-- Generator: Adobe Illustrator 17.1.0, SVG Export Plug-In . SVG Version: 6.00 Build 0)  -->
<!DOCTYPE svg PUBLIC "-//W3C//DTD SVG 1.1//EN" "http://www.w3.org/Graphics/SVG/1.1/DTD/svg11.dtd">
<svg version="1.1" id="圖層_1" xmlns="http://www.w3.org/2000/svg" xmlns:xlink="http://www.w3.org/1999/xlink" x="0px" y="0px"
	 viewBox="0 0 24.48 20.885" enable-background="new 0 0 24.48 20.885" xml:space="preserve">
<g>
	<g>
		<polygon fill="#FFFFFF" points="10.024,7.558 9.413,3.982 6.946,6.642 3.356,6.118 5.124,9.287 3.516,12.54 7.076,11.837 
			9.673,14.372 10.039,11.316 23.927,20.885 24.48,20.082 10.592,10.513 13.317,9.082 		"/>
		<path fill="#FFFFFF" d="M2.5,5.597c0.128-0.185,0.081-0.438-0.104-0.566L0.638,3.82C0.452,3.692,0.199,3.739,0.072,3.924
			c-0.128,0.185-0.081,0.438,0.104,0.566l1.758,1.212C2.119,5.829,2.372,5.782,2.5,5.597z"/>
		<path fill="#FFFFFF" d="M2.225,13.525l-1.695,1.297c-0.177,0.134-0.212,0.392-0.075,0.57c0.137,0.178,0.391,0.212,0.57,0.075
			l1.695-1.297c0.035-0.026,0.064-0.058,0.088-0.092c0.097-0.141,0.098-0.334-0.012-0.478C2.658,13.422,2.404,13.389,2.225,13.525z"
			/>
		<path fill="#FFFFFF" d="M10.249,16.312l0.711,2.014c0.075,0.212,0.307,0.323,0.519,0.248c0.084-0.03,0.152-0.084,0.2-0.153
			c0.071-0.103,0.094-0.238,0.049-0.366l-0.711-2.014c-0.075-0.212-0.307-0.323-0.519-0.248
			C10.287,15.868,10.174,16.099,10.249,16.312z"/>
		<path fill="#FFFFFF" d="M15.36,8.728c-0.225,0.005-0.401,0.193-0.396,0.417c0.005,0.225,0.192,0.402,0.417,0.396l2.135-0.053
			c0.135-0.003,0.253-0.072,0.325-0.176c0.047-0.069,0.074-0.152,0.071-0.241c-0.005-0.225-0.192-0.402-0.417-0.396L15.36,8.728z"/>
		<path fill="#FFFFFF" d="M10.862,0.017c-0.215-0.065-0.441,0.061-0.506,0.274L9.747,2.337C9.683,2.552,9.805,2.778,10.02,2.843
			c0.174,0.052,0.354-0.018,0.451-0.159c0.023-0.034,0.042-0.073,0.055-0.115l0.609-2.046C11.2,0.308,11.077,0.082,10.862,0.017z"/>
	</g>
</g>
</svg>
