<?xml version="1.0" encoding="utf-8"?>
<!-- Generator: Adobe Illustrator 17.1.0, SVG Export Plug-In . SVG Version: 6.00 Build 0)  -->
<!DOCTYPE svg PUBLIC "-//W3C//DTD SVG 1.1//EN" "http://www.w3.org/Graphics/SVG/1.1/DTD/svg11.dtd">
<svg version="1.1" id="圖層_1" xmlns="http://www.w3.org/2000/svg" xmlns:xlink="http://www.w3.org/1999/xlink" x="0px" y="0px"
	 viewBox="1118.3 556.5 92.3 92.3" enable-background="new 1118.3 556.5 92.3 92.3" xml:space="preserve">
<g>
	<g>
		<path fill="#3FA9F5" d="M1164.3,648.8c-25.4,0-46.1-20.7-46.1-46.2c0-25.6,20.7-46.1,46.1-46.1c25.4,0,46.2,20.7,46.2,46.1
			C1210.6,628,1189.7,648.8,1164.3,648.8z M1164.3,563.9c-21.4,0-38.8,17.5-38.8,38.8c0,21.4,17.5,38.8,38.8,38.8
			c21.4,0,38.8-17.5,38.8-38.8C1203.2,581.4,1185.7,563.9,1164.3,563.9z"/>
		<polygon fill="#3FA9F5" points="1188.6,602.8 1149.8,625.1 1149.8,580.4 		"/>
	</g>
</g>
</svg>
