<?xml version="1.0" encoding="utf-8"?>
<!-- Generator: Adobe Illustrator 17.1.0, SVG Export Plug-In . SVG Version: 6.00 Build 0)  -->
<!DOCTYPE svg PUBLIC "-//W3C//DTD SVG 1.1//EN" "http://www.w3.org/Graphics/SVG/1.1/DTD/svg11.dtd">
<svg version="1.1" id="圖層_1" xmlns="http://www.w3.org/2000/svg" xmlns:xlink="http://www.w3.org/1999/xlink" x="0px" y="0px"
	 viewBox="0 0 30.048 18.154" enable-background="new 0 0 30.048 18.154" xml:space="preserve">
<g>
	<g>
		<path fill="#E6E6E6" d="M16.271,14.14l6.594,3.976c0.202,0.122,0.446-0.066,0.475-0.366l0.846-8.642L16.271,14.14z"/>
		<path fill="#E6E6E6" d="M17.398,2.638l7.24-2.621c0.222-0.08,0.425,0.151,0.395,0.451l-0.846,8.642L17.398,2.638z"/>
	</g>
	<path fill="#FFFFFF" d="M0.143,6.347c-0.158,0.241-0.187,0.54-0.079,0.807c0.725,1.789,4.105,8.592,13.227,7.454
		C23.777,13.3,23.777,13.3,23.777,13.3l0.41-4.191l0.411-4.191c0,0,0,0-10.033-3.317C5.837-1.285,1.201,4.733,0.143,6.347z"/>
	<circle fill="#F5844E" cx="9.409" cy="7.662" r="3.086"/>
	<circle fill="#FFFFFF" cx="9.409" cy="7.662" r="1.219"/>
	<g>
		<path fill="#E6E6E6" d="M24.214,8.836l-0.217,2.215c0,0,1.157,2.033,3.677,0.841c1.768-0.837,1.677-0.917,1.677-0.917L28.57,9.68
			l1.478-0.984c0,0-3.249-4.081-5.675-1.496L24.214,8.836z"/>
		<path fill="#F5844E" d="M24.195,9.025l-0.064,0.65c0,0,0.938,0.791,1.769,0.314c0.538-0.308,0.541-0.264,0.541-0.264l-0.257-0.383
			l0.477-0.285c0,0-1.228-1.393-2.42-0.513L24.195,9.025z"/>
	</g>
</g>
</svg>
