<?xml version="1.0" encoding="utf-8"?>
<!-- Generator: Adobe Illustrator 18.0.0, SVG Export Plug-In . SVG Version: 6.00 Build 0)  -->
<!DOCTYPE svg PUBLIC "-//W3C//DTD SVG 1.1//EN" "http://www.w3.org/Graphics/SVG/1.1/DTD/svg11.dtd">
<svg version="1.1" id="圖層_1" xmlns="http://www.w3.org/2000/svg" xmlns:xlink="http://www.w3.org/1999/xlink" x="0px" y="0px"
	 viewBox="0 0 550 550" enable-background="new 0 0 550 550" xml:space="preserve">
<g>
	<g>
		
			<circle fill="none" stroke="#333333" stroke-width="2.827" stroke-linecap="round" stroke-linejoin="round" stroke-dasharray="0.7033,19.902" cx="275" cy="274.6" r="164"/>
	</g>
	
		<circle fill="none" stroke="#333333" stroke-width="7.0675" stroke-linecap="round" stroke-linejoin="round" stroke-miterlimit="10" cx="275" cy="274.6" r="181.4"/>
	<g>
		
			<path fill="none" stroke="#333333" stroke-width="4.5939" stroke-linecap="round" stroke-linejoin="round" stroke-miterlimit="10" d="
			M204.3,244c-19.5,0-35.3,15.8-35.3,35.3s15.8,35.3,35.3,35.3l83.2,0.1c3.3,0,6.4,1.3,8.7,3.6l31.7,31.7"/>
		
			<path fill="none" stroke="#333333" stroke-width="4.5939" stroke-linecap="round" stroke-linejoin="round" stroke-miterlimit="10" d="
			M204.3,243.6c0-24.4,19.8-44.2,44.2-44.2c20.2,0,37.2,13.6,42.5,32.1"/>
		
			<path fill="none" stroke="#333333" stroke-width="4.5939" stroke-linecap="round" stroke-linejoin="round" stroke-miterlimit="10" d="
			M329.9,247.8c4.8-2.4,10.1-3.8,15.8-3.8c19.6,0,35.5,16.1,35.3,35.7c-0.2,19.5-16.3,35-35.8,35h-4.9c-11,0-16.5,13.3-8.7,21.1
			l14.1,14.1"/>
		
			<path fill="none" stroke="#333333" stroke-width="4.5939" stroke-linecap="round" stroke-linejoin="round" stroke-miterlimit="10" d="
			M345.7,243.6c0-24.4-19.8-44.2-44.2-44.2c-10,0-19.1,3.3-26.5,8.8"/>
		
			<path fill="none" stroke="#333333" stroke-width="4.5939" stroke-linecap="round" stroke-linejoin="round" stroke-miterlimit="10" d="
			M239.7,314.4c-9.8,0-17.7-7.9-17.7-17.7s7.9-17.7,17.7-17.7"/>
		
			<path fill="none" stroke="#333333" stroke-width="4.5939" stroke-linecap="round" stroke-linejoin="round" stroke-miterlimit="10" d="
			M287.7,314.4c9.8,0,17.7-7.9,17.7-17.7s-7.9-17.7-17.7-17.7"/>
		
			<path fill="none" stroke="#333333" stroke-width="4.5939" stroke-linecap="round" stroke-linejoin="round" stroke-miterlimit="10" d="
			M340.4,314.4c-9.8,0-17.7-7.9-17.7-17.7s7.9-17.7,17.7-17.7"/>
		
			<path fill="none" stroke="#333333" stroke-width="4.5939" stroke-linecap="round" stroke-linejoin="round" stroke-miterlimit="10" d="
			M222,295.2c0-4.9-4-8.8-8.8-8.8c-4.9,0-8.8,4-8.8,8.8"/>
		
			<path fill="none" stroke="#333333" stroke-width="4.5939" stroke-linecap="round" stroke-linejoin="round" stroke-miterlimit="10" d="
			M247.5,224.8c4.3,4.3,4.3,11.4,0,15.7c-4.3,4.3-11.4,4.3-15.7,0"/>
		
			<path fill="none" stroke="#333333" stroke-width="4.5939" stroke-linecap="round" stroke-linejoin="round" stroke-miterlimit="10" d="
			M272.9,274.5c-4.3-4.3-4.3-11.4,0-15.7c4.3-4.3,11.4-4.3,15.7,0"/>
		
			<path fill="none" stroke="#333333" stroke-width="4.5939" stroke-linecap="round" stroke-linejoin="round" stroke-miterlimit="10" d="
			M273,258.7c-6.6-8.1-14.6-15.1-23.6-20.4"/>
	</g>
</g>
</svg>
