<?xml version="1.0" encoding="utf-8"?>
<!-- Generator: Adobe Illustrator 18.0.0, SVG Export Plug-In . SVG Version: 6.00 Build 0)  -->
<!DOCTYPE svg PUBLIC "-//W3C//DTD SVG 1.1//EN" "http://www.w3.org/Graphics/SVG/1.1/DTD/svg11.dtd">
<svg version="1.1" id="圖層_1" xmlns="http://www.w3.org/2000/svg" xmlns:xlink="http://www.w3.org/1999/xlink" x="0px" y="0px"
	 viewBox="0 0 550 550" enable-background="new 0 0 550 550" xml:space="preserve">
<g>
	<g>
		
			<circle fill="none" stroke="#333333" stroke-width="2.827" stroke-linecap="round" stroke-linejoin="round" stroke-dasharray="0.7033,19.902" cx="275" cy="274.9" r="164"/>
	</g>
	
		<circle fill="none" stroke="#333333" stroke-width="7.0675" stroke-linecap="round" stroke-linejoin="round" stroke-miterlimit="10" cx="275" cy="274.9" r="181.4"/>
	<g>
		
			<path fill="none" stroke="#333333" stroke-width="4.5939" stroke-linecap="round" stroke-linejoin="round" stroke-miterlimit="10" d="
			M345.8,186.5c4.9,0,8.8,4,8.8,8.8c0,4.9-4,8.8-8.8,8.8"/>
		<path fill="none" stroke="#333333" stroke-width="5" stroke-linecap="round" stroke-linejoin="round" stroke-miterlimit="10" d="
			M195.1,204.5l0.4-9c0-4.9,4-8.9,8.9-8.9c4.9,0,8.9,4.1,8.9,9c0,4.9-3.9,9-8.8,9H345"/>
		
			<line fill="none" stroke="#333333" stroke-width="5" stroke-linecap="round" stroke-linejoin="round" stroke-miterlimit="10" x1="204" y1="186.5" x2="345" y2="186.5"/>
		
			<line fill="none" stroke="#333333" stroke-width="5" stroke-linecap="round" stroke-linejoin="round" stroke-miterlimit="10" x1="204" y1="363.5" x2="345" y2="363.5"/>
		<path fill="none" stroke="#333333" stroke-width="5" stroke-linecap="round" stroke-linejoin="round" stroke-miterlimit="10" d="
			M195.4,204.3l0.2,52.9l9,5.2l-9,5.2v49.7l9,5.2l-9,5.2l0.1,26.7c0,4.9,4,8.8,8.8,8.8c4.9,0,8.8-4,8.8-8.8s-4-8.8-8.8-8.8h141.3
			c4.9,0,8.8,4,8.8,8.8s-4,8.8-8.8,8.8 M345.6,345.6l0.2-53.3l-9.1-5.2l8.9-5.2v-49.7l-8.9-5.2l9.1-5.2l-0.1-17.6"/>
		
			<line fill="none" stroke="#333333" stroke-width="5" stroke-linecap="round" stroke-linejoin="round" stroke-miterlimit="10" x1="231" y1="239.5" x2="319" y2="239.5"/>
		
			<line fill="none" stroke="#333333" stroke-width="5" stroke-linecap="round" stroke-linejoin="round" stroke-miterlimit="10" x1="231" y1="263.5" x2="319" y2="263.5"/>
		
			<line fill="none" stroke="#333333" stroke-width="5" stroke-linecap="round" stroke-linejoin="round" stroke-miterlimit="10" x1="231" y1="286.5" x2="319" y2="286.5"/>
		
			<line fill="none" stroke="#333333" stroke-width="5" stroke-linecap="round" stroke-linejoin="round" stroke-miterlimit="10" x1="231" y1="310.5" x2="319" y2="310.5"/>
	</g>
</g>
</svg>
