<?xml version="1.0" encoding="utf-8"?>
<!-- Generator: Adobe Illustrator 18.0.0, SVG Export Plug-In . SVG Version: 6.00 Build 0)  -->
<!DOCTYPE svg PUBLIC "-//W3C//DTD SVG 1.1//EN" "http://www.w3.org/Graphics/SVG/1.1/DTD/svg11.dtd">
<svg version="1.1" id="圖層_1" xmlns="http://www.w3.org/2000/svg" xmlns:xlink="http://www.w3.org/1999/xlink" x="0px" y="0px"
	 viewBox="0 0 550 550" enable-background="new 0 0 550 550" xml:space="preserve">
<g>
	<g>
		
			<circle fill="none" stroke="#333333" stroke-width="2.827" stroke-linecap="round" stroke-linejoin="round" stroke-dasharray="0.7033,19.902" cx="274.7" cy="275" r="164"/>
	</g>
	
		<circle fill="none" stroke="#333333" stroke-width="7.0675" stroke-linecap="round" stroke-linejoin="round" stroke-miterlimit="10" cx="274.7" cy="275" r="181.4"/>
	<g>
		
			<circle fill="none" stroke="#333333" stroke-width="4.5939" stroke-linecap="round" stroke-linejoin="round" stroke-miterlimit="10" cx="274.7" cy="205" r="8.8"/>
		
			<line fill="none" stroke="#333333" stroke-width="5" stroke-linecap="round" stroke-linejoin="round" stroke-miterlimit="10" x1="274.5" y1="214" x2="274.5" y2="240"/>
		
			<line fill="none" stroke="#333333" stroke-width="5" stroke-linecap="round" stroke-linejoin="round" stroke-miterlimit="10" x1="204" y1="240.5" x2="346" y2="240.5"/>
		
			<line fill="none" stroke="#333333" stroke-width="4.5939" stroke-linecap="round" stroke-linejoin="round" stroke-miterlimit="10" x1="274.6" y1="240.3" x2="274.7" y2="346.4"/>
		<g>
			
				<polygon fill="none" stroke="#333333" stroke-width="5" stroke-linecap="round" stroke-linejoin="round" stroke-miterlimit="10" points="
				204.2,241 168.7,311.5 239.5,311.5 			"/>
			
				<path fill="none" stroke="#333333" stroke-width="4.5939" stroke-linecap="round" stroke-linejoin="round" stroke-miterlimit="10" d="
				M225.8,329.4h-42.4c-7.8,0-14.1-6.3-14.1-14.1v-3.4H240v3.4C240,323.1,233.6,329.4,225.8,329.4z"/>
		</g>
		<g>
			
				<polygon fill="none" stroke="#333333" stroke-width="5" stroke-linecap="round" stroke-linejoin="round" stroke-miterlimit="10" points="
				345.5,241 310,311.5 380.8,311.5 			"/>
			
				<path fill="none" stroke="#333333" stroke-width="4.5939" stroke-linecap="round" stroke-linejoin="round" stroke-miterlimit="10" d="
				M367.2,329.4h-42.4c-7.8,0-14.1-6.3-14.1-14.1v-3.4h70.7v3.4C381.3,323.1,375,329.4,367.2,329.4z"/>
		</g>
		
			<path fill="none" stroke="#333333" stroke-width="4.5939" stroke-linecap="round" stroke-linejoin="round" stroke-miterlimit="10" d="
			M289.9,353.8h-29.2c-2.1,0-3.7-1.7-3.7-3.7v0c0-2.1,1.7-3.7,3.7-3.7h29.2c2.1,0,3.7,1.7,3.7,3.7v0
			C293.6,352.2,292,353.8,289.9,353.8z"/>
	</g>
</g>
</svg>
