<?xml version="1.0" encoding="utf-8"?>
<!-- Generator: Adobe Illustrator 18.0.0, SVG Export Plug-In . SVG Version: 6.00 Build 0)  -->
<!DOCTYPE svg PUBLIC "-//W3C//DTD SVG 1.1//EN" "http://www.w3.org/Graphics/SVG/1.1/DTD/svg11.dtd">
<svg version="1.1" id="圖層_1" xmlns="http://www.w3.org/2000/svg" xmlns:xlink="http://www.w3.org/1999/xlink" x="0px" y="0px"
	 viewBox="0 0 550 550" enable-background="new 0 0 550 550" xml:space="preserve">
<g>
	
		<circle fill="none" stroke="#333333" stroke-width="7.0675" stroke-linecap="round" stroke-linejoin="round" stroke-miterlimit="10" cx="275" cy="274.7" r="181.4"/>
	<g>
		
			<circle fill="none" stroke="#333333" stroke-width="2.827" stroke-linecap="round" stroke-linejoin="round" stroke-dasharray="0.7033,19.902" cx="275" cy="274.7" r="164"/>
	</g>
	<g>
		<g>
			
				<circle fill="none" stroke="#333333" stroke-width="4.5939" stroke-linecap="round" stroke-linejoin="round" stroke-miterlimit="10" cx="275" cy="202.4" r="26.5"/>
			
				<circle fill="none" stroke="#333333" stroke-width="4.5939" stroke-linecap="round" stroke-linejoin="round" stroke-miterlimit="10" cx="275" cy="202.4" r="13.3"/>
		</g>
		
			<circle fill="none" stroke="#333333" stroke-width="4.5939" stroke-linecap="round" stroke-linejoin="round" stroke-miterlimit="10" cx="275" cy="202.4" r="13.3"/>
		
			<path fill="none" stroke="#333333" stroke-width="4.5939" stroke-linecap="round" stroke-linejoin="round" stroke-miterlimit="10" d="
			M300.7,282.4h-51.4c-14.6,0-26.5-11.9-26.5-26.5v0c0-14.6,11.9-26.5,26.5-26.5h51.4c14.6,0,26.5,11.9,26.5,26.5v0
			C327.2,270.4,315.3,282.4,300.7,282.4z"/>
		<path fill="none" stroke="#333333" stroke-width="5" stroke-linecap="round" stroke-linejoin="round" stroke-miterlimit="10" d="
			M253.6,264.5c-5,0-9.1-4-9.1-9s4.1-9,9.1-9h42.8c5,0,9.1,4,9.1,9s-4.1,9-9.1,9H253.6z"/>
		<path fill="none" stroke="#333333" stroke-width="5" stroke-linecap="round" stroke-linejoin="round" stroke-miterlimit="10" d="
			M325,265.5c-3.8,9-12,15-21.7,16h42.2v-16H325z"/>
		<path fill="none" stroke="#333333" stroke-width="5" stroke-linecap="round" stroke-linejoin="round" stroke-miterlimit="10" d="
			M225,265.5h-20.5v16h42.2C237,280.5,228.8,274.5,225,265.5z"/>
		<path fill="none" stroke="#333333" stroke-width="5" stroke-linecap="round" stroke-linejoin="round" stroke-miterlimit="10" d="
			M301.4,203.3c-0.5,14.2-12.1,25.6-26.5,25.6c-14.3,0-25.9-11.4-26.3-25.6c-25,4.2-44.1,26-44.1,52.1v26.1h141v-26.1
			C345.5,229.3,326.4,207.5,301.4,203.3z"/>
		
			<path fill="none" stroke="#333333" stroke-width="4.5939" stroke-linecap="round" stroke-linejoin="round" stroke-miterlimit="10" d="
			M353.4,302.2H196.6c-5.5,0-9.9-4.5-9.9-9.9v0c0-5.5,4.5-9.9,9.9-9.9h156.8c5.5,0,9.9,4.5,9.9,9.9v0
			C363.3,297.7,358.9,302.2,353.4,302.2z"/>
		<path fill="none" stroke="#333333" stroke-width="5" stroke-linecap="round" stroke-linejoin="round" stroke-miterlimit="10" d="
			M204.5,301.5v68c0,2.2,1.8,4,4,4c2.2,0,4-1.8,4-4v-68H204.5z"/>
		<path fill="none" stroke="#333333" stroke-width="5" stroke-linecap="round" stroke-linejoin="round" stroke-miterlimit="10" d="
			M337.5,301.5v68c0,2.2,1.8,4,4,4c2.2,0,4-1.8,4-4v-68H337.5z"/>
	</g>
</g>
</svg>
