<?xml version="1.0" encoding="utf-8"?>
<!-- Generator: Adobe Illustrator 18.0.0, SVG Export Plug-In . SVG Version: 6.00 Build 0)  -->
<!DOCTYPE svg PUBLIC "-//W3C//DTD SVG 1.1//EN" "http://www.w3.org/Graphics/SVG/1.1/DTD/svg11.dtd">
<svg version="1.1" id="圖層_1" xmlns="http://www.w3.org/2000/svg" xmlns:xlink="http://www.w3.org/1999/xlink" x="0px" y="0px"
	 viewBox="0 0 550 550" enable-background="new 0 0 550 550" xml:space="preserve">
<g>
	<path fill="#231815" d="M275,421.2c-65.9,0-119.5-48.3-119.5-107.7S209.1,205.9,275,205.9c65.9,0,119.5,48.3,119.5,107.7
		S340.9,421.2,275,421.2z M275,216.6c-60,0-108.7,43.5-108.7,96.9S215,410.5,275,410.5c60,0,108.7-43.5,108.7-96.9
		S335,216.6,275,216.6z"/>
	<path fill="#231815" d="M135.7,344.1c-16.9,0-30.6-13.7-30.6-30.6c0-16.9,13.7-30.6,30.6-30.6s30.6,13.7,30.6,30.6
		C166.3,330.4,152.5,344.1,135.7,344.1z M135.7,293.7c-10.9,0-19.8,8.9-19.8,19.8c0,10.9,8.9,19.8,19.8,19.8
		c10.9,0,19.8-8.9,19.8-19.8C155.5,302.6,146.6,293.7,135.7,293.7z"/>
	<path fill="#231815" d="M414.3,344.1c-16.9,0-30.6-13.7-30.6-30.6c0-16.9,13.7-30.6,30.6-30.6c16.9,0,30.6,13.7,30.6,30.6
		C444.9,330.4,431.2,344.1,414.3,344.1z M414.3,293.7c-10.9,0-19.8,8.9-19.8,19.8c0,10.9,8.9,19.8,19.8,19.8
		c10.9,0,19.8-8.9,19.8-19.8C434.2,302.6,425.3,293.7,414.3,293.7z"/>
	<g>
		<circle fill="#231815" cx="248.8" cy="301" r="7.9"/>
		<circle fill="#231815" cx="301.2" cy="301" r="7.9"/>
	</g>
	<g>
		<path fill="#231815" d="M275,359.2c-3,0-5.4-2.4-5.4-5.4v-25.2c0-3,2.4-5.4,5.4-5.4s5.4,2.4,5.4,5.4v25.2
			C280.4,356.8,278,359.2,275,359.2z"/>
		<path fill="#231815" d="M275,359.2c-12.7,0-23-10.3-23-23c0-3,2.4-5.4,5.4-5.4s5.4,2.4,5.4,5.4c0,6.7,5.5,12.2,12.2,12.2
			c6.7,0,12.2-5.5,12.2-12.2c0-3,2.4-5.4,5.4-5.4s5.4,2.4,5.4,5.4C298,348.9,287.7,359.2,275,359.2z"/>
		<path fill="#231815" d="M275,332.8c-8.6,0-15.6-7-15.6-15.6c0-3,2.4-5.4,5.4-5.4s5.4,2.4,5.4,5.4c0,2.7,2.2,4.8,4.8,4.8
			c2.7,0,4.8-2.2,4.8-4.8c0-3,2.4-5.4,5.4-5.4s5.4,2.4,5.4,5.4C290.6,325.9,283.6,332.8,275,332.8z"/>
	</g>
	<path fill="#231815" d="M275,385.8c-24.4,0-44.2-19.8-44.2-44.2v-5.9h-3.9c-18.4,0-33.3-15-33.3-33.3s15-33.3,33.3-33.3h96.4
		c18.4,0,33.3,15,33.3,33.3s-15,33.3-33.3,33.3h-3.9v5.9C319.2,366,299.4,385.8,275,385.8z M226.8,279.7
		c-12.5,0-22.6,10.1-22.6,22.6c0,12.5,10.1,22.6,22.6,22.6h9.3c3,0,5.4,2.4,5.4,5.4v11.3c0,18.5,15,33.5,33.5,33.5
		s33.5-15,33.5-33.5v-11.3c0-3,2.4-5.4,5.4-5.4h9.3c12.5,0,22.6-10.1,22.6-22.6c0-12.5-10.1-22.6-22.6-22.6H226.8z"/>
	<path fill="#231815" d="M160.9,318.9h-25.2c-3,0-5.4-2.4-5.4-5.4s2.4-5.4,5.4-5.4h25.2c3,0,5.4,2.4,5.4,5.4
		S163.8,318.9,160.9,318.9z"/>
	<path fill="#231815" d="M414.3,318.9h-25.2c-3,0-5.4-2.4-5.4-5.4s2.4-5.4,5.4-5.4h25.2c3,0,5.4,2.4,5.4,5.4
		S417.3,318.9,414.3,318.9z"/>
</g>
</svg>
