<?xml version="1.0" encoding="utf-8"?>
<!-- Generator: Adobe Illustrator 18.0.0, SVG Export Plug-In . SVG Version: 6.00 Build 0)  -->
<!DOCTYPE svg PUBLIC "-//W3C//DTD SVG 1.1//EN" "http://www.w3.org/Graphics/SVG/1.1/DTD/svg11.dtd">
<svg version="1.1" id="圖層_1" xmlns="http://www.w3.org/2000/svg" xmlns:xlink="http://www.w3.org/1999/xlink" x="0px" y="0px"
	 viewBox="0 0 550 550" enable-background="new 0 0 550 550" xml:space="preserve">
<g>
	<path fill="#231815" d="M274.4,419.2c-48.2,0-87.4-39.2-87.4-87.4s39.2-87.4,87.4-87.4s87.4,39.2,87.4,87.4
		S322.6,419.2,274.4,419.2z M274.4,255.1c-42.3,0-76.7,34.4-76.7,76.7s34.4,76.7,76.7,76.7S351,374,351,331.8
		S316.6,255.1,274.4,255.1z"/>
	<circle fill="#231815" cx="225.2" cy="336.8" r="19.7"/>
	<circle fill="#231815" cx="323.5" cy="336.8" r="19.7"/>
	<path fill="#231815" d="M225.2,375.1c-21.1,0-38.3-17.2-38.3-38.3c0-21.1,17.2-38.3,38.3-38.3s38.3,17.2,38.3,38.3
		C263.5,357.9,246.4,375.1,225.2,375.1z M225.2,309.2c-15.2,0-27.5,12.4-27.5,27.5c0,15.2,12.4,27.5,27.5,27.5
		c15.2,0,27.5-12.4,27.5-27.5C252.8,321.6,240.4,309.2,225.2,309.2z"/>
	<path fill="#231815" d="M323.5,375.1c-21.1,0-38.3-17.2-38.3-38.3c0-21.1,17.2-38.3,38.3-38.3s38.3,17.2,38.3,38.3
		C361.8,357.9,344.6,375.1,323.5,375.1z M323.5,309.2c-15.2,0-27.5,12.4-27.5,27.5c0,15.2,12.4,27.5,27.5,27.5S351,352,351,336.8
		C351,321.6,338.7,309.2,323.5,309.2z"/>
	<path fill="#231815" d="M346.8,319c-1.4,0-2.8-0.5-3.8-1.6c-2.1-2.1-2.1-5.5,0-7.6l15.1-15.1c2.1-2.1,5.5-2.1,7.6,0
		c2.1,2.1,2.1,5.5,0,7.6l-15.1,15.1C349.6,318.5,348.2,319,346.8,319z"/>
	<path fill="#231815" d="M201.9,319c-1.4,0-2.8-0.5-3.8-1.6l-15.1-15.1c-2.1-2.1-2.1-5.5,0-7.6c2.1-2.1,5.5-2.1,7.6,0l15.1,15.1
		c2.1,2.1,2.1,5.5,0,7.6C204.6,318.5,203.2,319,201.9,319z"/>
	<path fill="#231815" d="M360,421.2c-0.4,0-0.8,0-1.2-0.1c-1.9-0.4-3.4-1.9-3.9-3.7l-13.1-44.1c-0.5-1.8-0.1-3.8,1.2-5.2
		c1.3-1.4,3.3-2,5.2-1.5l44.7,10.7c1.9,0.4,3.4,1.9,3.9,3.7c0.5,1.8,0.1,3.8-1.2,5.2l-31.6,33.4C362.8,420.6,361.4,421.2,360,421.2z
		 M354.7,379.2l7.8,26.2l18.8-19.9L354.7,379.2z"/>
	<path fill="#231815" d="M190,421.2c-1.5,0-2.9-0.6-3.9-1.7l-31.6-33.4c-1.3-1.4-1.8-3.4-1.2-5.2c0.5-1.8,2-3.3,3.9-3.7l44.7-10.7
		c1.9-0.4,3.8,0.1,5.2,1.5s1.8,3.4,1.2,5.2l-13.1,44.1c-0.5,1.8-2,3.3-3.9,3.7C190.9,421.2,190.4,421.2,190,421.2z M168.7,385.5
		l18.8,19.9l7.8-26.2L168.7,385.5z"/>
	<path fill="#231815" d="M274.4,255.1c-3,0-5.4-2.4-5.4-5.4v-77.4c0-3,2.4-5.4,5.4-5.4c3,0,5.4,2.4,5.4,5.4v77.4
		C279.7,252.7,277.3,255.1,274.4,255.1z"/>
	<path fill="#231815" d="M288.5,256.3c-0.3,0-0.6,0-0.9-0.1c-8.9-1.5-17.6-1.5-26.5,0c-1.6,0.3-3.2-0.2-4.4-1.2
		c-1.2-1-1.9-2.5-1.9-4.1v-64.5c0-10.8,8.8-19.5,19.5-19.5c10.8,0,19.5,8.8,19.5,19.5V251c0,1.6-0.7,3.1-1.9,4.1
		C291,255.9,289.8,256.3,288.5,256.3z M274.4,177.7c-4.8,0-8.8,3.9-8.8,8.8v58.3c5.9-0.6,11.7-0.6,17.6,0v-58.3
		C283.1,181.7,279.2,177.7,274.4,177.7z"/>
	<g>
		<path fill="#231815" d="M274.4,393.3c-12.4,0-22.5-9.6-22.5-21.3c0-3,2.4-5.4,5.4-5.4h34.2c3,0,5.4,2.4,5.4,5.4
			C296.8,383.7,286.8,393.3,274.4,393.3z M264.3,377.3c2,3.1,5.8,5.2,10.1,5.2c4.3,0,8.1-2.1,10.1-5.2H264.3z"/>
		<path fill="#231815" d="M257.3,377.3c-1.3,0-2.6-0.5-3.6-1.4c-3.5-3.1-5.6-7.5-5.6-12c-0.1-4.3,1.7-8.4,4.9-11.5
			c3.4-3.2,7.8-4.9,12.7-4.9c3.1,0,6.1,0.7,8.7,2.1c2.6-1.4,5.6-2.1,8.7-2.1c4.8,0,9.3,1.7,12.7,4.9c3.2,3,5,7.1,4.9,11.5
			c-0.1,4.5-2.1,8.9-5.6,12c-1,0.9-2.3,1.4-3.6,1.4L257.3,377.3z M265.7,358.3c-2,0-3.9,0.7-5.3,2c-1.3,1.2-1.5,2.6-1.5,3.5
			c0,1,0.3,1.9,0.9,2.8l29.2,0c0.5-0.9,0.9-1.8,0.9-2.8c0-0.9-0.2-2.3-1.5-3.5c-1.3-1.3-3.2-2-5.3-2c-2,0-3.8,0.7-5.1,1.8
			c-2,1.8-5.1,1.8-7.1,0C269.4,359,267.6,358.3,265.7,358.3z"/>
	</g>
</g>
</svg>
