<?xml version="1.0" encoding="utf-8"?>
<!-- Generator: Adobe Illustrator 18.0.0, SVG Export Plug-In . SVG Version: 6.00 Build 0)  -->
<!DOCTYPE svg PUBLIC "-//W3C//DTD SVG 1.1//EN" "http://www.w3.org/Graphics/SVG/1.1/DTD/svg11.dtd">
<svg version="1.1" id="圖層_1" xmlns="http://www.w3.org/2000/svg" xmlns:xlink="http://www.w3.org/1999/xlink" x="0px" y="0px"
	 viewBox="0 0 550 550" enable-background="new 0 0 550 550" xml:space="preserve">
<g>
	<path fill="#231815" d="M374,421.2H176c-3,0-5.4-2.4-5.4-5.4V191.9c0-2.4,1.5-4.5,3.8-5.1c2.3-0.7,4.7,0.2,6,2.1l37,54.7h116.8
		l35.2-54.6c1.3-2,3.8-2.9,6-2.2c2.3,0.7,3.9,2.8,3.9,5.2l0,223.9C379.3,418.8,376.9,421.2,374,421.2z M181.4,410.5h187.2l0-200.3
		l-26.9,41.7c-1,1.5-2.7,2.5-4.5,2.5H214.6c-1.8,0-3.5-0.9-4.5-2.4l-28.7-42.5V410.5z"/>
	<path fill="#231815" d="M275,378.6c-3,0-5.4-2.4-5.4-5.4v-17c0-3,2.4-5.4,5.4-5.4c3,0,5.4,2.4,5.4,5.4v17
		C280.4,376.2,278,378.6,275,378.6z"/>
	<path fill="#231815" d="M252.8,400.8c-15.2,0-27.6-12.4-27.6-27.6c0-3,2.4-5.4,5.4-5.4c3,0,5.4,2.4,5.4,5.4
		c0,9.3,7.6,16.9,16.9,16.9s16.9-7.6,16.9-16.9c0-3,2.4-5.4,5.4-5.4c3,0,5.4,2.4,5.4,5.4C280.4,388.4,268,400.8,252.8,400.8z"/>
	<path fill="#231815" d="M297.2,400.8c-15.2,0-27.6-12.4-27.6-27.6c0-3,2.4-5.4,5.4-5.4c3,0,5.4,2.4,5.4,5.4
		c0,9.3,7.6,16.9,16.9,16.9s16.9-7.6,16.9-16.9c0-3,2.4-5.4,5.4-5.4s5.4,2.4,5.4,5.4C324.9,388.4,312.5,400.8,297.2,400.8z"/>
	<circle fill="#231815" cx="335.4" cy="322.7" r="23.6"/>
	<path fill="#231815" d="M335.4,366.7c-24.2,0-43.9-19.7-43.9-43.9c0-24.2,19.7-43.9,43.9-43.9s43.9,19.7,43.9,43.9
		C379.3,347,359.6,366.7,335.4,366.7z M335.4,289.6c-18.3,0-33.2,14.9-33.2,33.2c0,18.3,14.9,33.2,33.2,33.2
		c18.3,0,33.2-14.9,33.2-33.2C368.6,304.5,353.7,289.6,335.4,289.6z"/>
	<circle fill="#231815" cx="214.6" cy="322.7" r="23.6"/>
	<path fill="#231815" d="M214.6,366.7c-24.2,0-43.9-19.7-43.9-43.9c0-24.2,19.7-43.9,43.9-43.9s43.9,19.7,43.9,43.9
		C258.5,347,238.8,366.7,214.6,366.7z M214.6,289.6c-18.3,0-33.2,14.9-33.2,33.2c0,18.3,14.9,33.2,33.2,33.2s33.2-14.9,33.2-33.2
		C247.8,304.5,232.9,289.6,214.6,289.6z"/>
	<path fill="#231815" d="M275,361.6c-3.9,0-7.5-1.2-10.4-3.4l-10.8-8.4c-3.8-3-6-7.2-6.1-11.6c-0.1-4.2,1.8-8.2,5.3-11
		c3.4-2.8,8-4.4,12.8-4.4c3.2,0,6.4,0.7,9.1,2c2.7-1.3,5.9-2,9.1-2c4.8,0,9.4,1.6,12.8,4.4c3.5,2.9,5.4,6.8,5.3,11
		c-0.1,4.4-2.3,8.6-6.1,11.6l-10.8,8.4C282.5,360.4,278.9,361.6,275,361.6z M265.9,333.6c-2.3,0-4.5,0.7-6,1.9
		c-0.9,0.8-1.4,1.7-1.4,2.6c0,1.1,0.7,2.3,1.9,3.2l10.8,8.4c1.9,1.4,5.6,1.4,7.5,0l10.8-8.4c1.2-0.9,1.9-2.1,1.9-3.2
		c0-0.9-0.5-1.8-1.4-2.6c-1.5-1.2-3.7-1.9-6-1.9c-2.2,0-4.3,0.7-5.8,1.8c-1.9,1.5-4.7,1.5-6.6,0
		C270.2,334.3,268.1,333.6,265.9,333.6z"/>
	<path fill="#231815" d="M246.1,305.9c-1.8,0-3.5-0.9-4.5-2.5l-70-108.5c-1.6-2.5-0.9-5.8,1.6-7.4c2.5-1.6,5.8-0.9,7.4,1.6l70,108.5
		c1.6,2.5,0.9,5.8-1.6,7.4C248.1,305.6,247.1,305.9,246.1,305.9z"/>
	<path fill="#231815" d="M261.1,289.6c-2.8,0-5.1-2.1-5.4-5l-2.7-35.2c-0.2-3,2-5.6,5-5.8c3-0.2,5.5,2,5.8,5l2.7,35.2
		c0.2,3-2,5.6-5,5.8C261.4,289.6,261.2,289.6,261.1,289.6z"/>
	<circle fill="#231815" cx="262.7" cy="298.3" r="5.9"/>
	<path fill="#231815" d="M288.9,289.6c-0.1,0-0.3,0-0.4,0c-3-0.2-5.2-2.8-5-5.8l2.7-35.2c0.2-3,2.8-5.2,5.8-5c3,0.2,5.2,2.8,5,5.8
		l-2.7,35.2C294,287.4,291.7,289.6,288.9,289.6z"/>
	<circle fill="#231815" cx="287.3" cy="298.3" r="5.9"/>
	<circle fill="#231815" cx="205.2" cy="378.3" r="5.9"/>
	<circle fill="#231815" cx="205.2" cy="394.6" r="5.9"/>
	<path fill="#231815" d="M303.9,305.9c-1,0-2-0.3-2.9-0.9c-2.5-1.6-3.2-4.9-1.6-7.4l70-108.5c1.6-2.5,4.9-3.2,7.4-1.6
		c2.5,1.6,3.2,4.9,1.6,7.4l-70,108.5C307.4,305,305.7,305.9,303.9,305.9z"/>
	<g>
		<circle fill="#231815" cx="259.7" cy="367.3" r="5.5"/>
		<circle fill="#231815" cx="252.6" cy="379.3" r="5.5"/>
		<circle fill="#231815" cx="245.8" cy="367.1" r="5.5"/>
	</g>
	<g>
		<circle fill="#231815" cx="304.2" cy="367.3" r="5.5"/>
		<circle fill="#231815" cx="297.1" cy="379.3" r="5.5"/>
		<circle fill="#231815" cx="290.3" cy="367.1" r="5.5"/>
	</g>
	<path fill="#231815" d="M190.8,383.7H176c-3,0-5.4-2.4-5.4-5.4s2.4-5.4,5.4-5.4h14.7c3,0,5.4,2.4,5.4,5.4S193.7,383.7,190.8,383.7z
		"/>
	<path fill="#231815" d="M190.8,400H176c-3,0-5.4-2.4-5.4-5.4s2.4-5.4,5.4-5.4h14.7c3,0,5.4,2.4,5.4,5.4S193.7,400,190.8,400z"/>
	<circle fill="#231815" cx="344.8" cy="378.3" r="5.9"/>
	<circle fill="#231815" cx="344.8" cy="394.6" r="5.9"/>
	<path fill="#231815" d="M374,383.7h-14.7c-3,0-5.4-2.4-5.4-5.4s2.4-5.4,5.4-5.4H374c3,0,5.4,2.4,5.4,5.4S376.9,383.7,374,383.7z"/>
	<path fill="#231815" d="M374,400h-14.7c-3,0-5.4-2.4-5.4-5.4s2.4-5.4,5.4-5.4H374c3,0,5.4,2.4,5.4,5.4S376.9,400,374,400z"/>
	<path fill="#231815" d="M374,254.4h-16c-3,0-5.4-2.4-5.4-5.4v-32.3c0-3,2.4-5.4,5.4-5.4s5.4,2.4,5.4,5.4v26.9H374
		c3,0,5.4,2.4,5.4,5.4S376.9,254.4,374,254.4z"/>
	<path fill="#231815" d="M192.8,254.4h-16c-3,0-5.4-2.4-5.4-5.4s2.4-5.4,5.4-5.4h10.6v-26.9c0-3,2.4-5.4,5.4-5.4
		c3,0,5.4,2.4,5.4,5.4V249C198.2,251.9,195.8,254.4,192.8,254.4z"/>
</g>
</svg>
