<?xml version="1.0" encoding="utf-8"?>
<!-- Generator: Adobe Illustrator 18.0.0, SVG Export Plug-In . SVG Version: 6.00 Build 0)  -->
<!DOCTYPE svg PUBLIC "-//W3C//DTD SVG 1.1//EN" "http://www.w3.org/Graphics/SVG/1.1/DTD/svg11.dtd">
<svg version="1.1" id="圖層_1" xmlns="http://www.w3.org/2000/svg" xmlns:xlink="http://www.w3.org/1999/xlink" x="0px" y="0px"
	 viewBox="0 0 550 550" enable-background="new 0 0 550 550" xml:space="preserve">
<g>
	<path fill="#231815" d="M403.1,421.2H146.9c-1.7,0-3.2-0.8-4.3-2.1c-1-1.3-1.4-3-1-4.6l59.2-230.8c0.6-2.4,2.8-4,5.2-4h140.2
		c2.5,0,4.6,1.7,5.2,4.1l56.7,230.8c0.4,1.6,0,3.3-1,4.6C406.3,420.5,404.7,421.2,403.1,421.2z M153.8,410.5h242.4l-54.1-220H210.3
		L153.8,410.5z"/>
	<path fill="#231815" d="M367.5,199.2c-9.4,0-18.2-3.7-24.9-10.3c-6.6-6.6-10.3-15.5-10.3-24.9s3.7-18.2,10.3-24.9
		c6.6-6.6,15.5-10.3,24.9-10.3c9.4,0,18.2,3.7,24.9,10.3c6.6,6.6,10.3,15.5,10.3,24.9s-3.7,18.2-10.3,24.9
		C385.7,195.5,376.9,199.2,367.5,199.2z M367.5,139.5c-6.5,0-12.7,2.5-17.3,7.2c-4.6,4.6-7.2,10.8-7.2,17.3c0,6.5,2.5,12.7,7.2,17.3
		c4.6,4.6,10.8,7.2,17.3,7.2c6.5,0,12.7-2.5,17.3-7.2c4.6-4.6,7.2-10.8,7.2-17.3c0-6.5-2.5-12.7-7.2-17.3
		C380.1,142.1,374,139.5,367.5,139.5z"/>
	<path fill="#231815" d="M185.1,199.2c-9.4,0-18.2-3.7-24.9-10.3c-6.6-6.6-10.3-15.5-10.3-24.9s3.7-18.2,10.3-24.9
		c6.6-6.6,15.5-10.3,24.9-10.3s18.2,3.7,24.9,10.3c6.6,6.6,10.3,15.5,10.3,24.9s-3.7,18.2-10.3,24.9
		C203.3,195.5,194.5,199.2,185.1,199.2z M185.1,139.5c-6.5,0-12.7,2.5-17.3,7.2c-4.6,4.6-7.2,10.8-7.2,17.3c0,6.5,2.5,12.7,7.2,17.3
		c4.6,4.6,10.8,7.2,17.3,7.2c6.5,0,12.7-2.5,17.3-7.2c4.6-4.6,7.2-10.8,7.2-17.3c0-6.5-2.5-12.7-7.2-17.3
		C197.7,142.1,191.6,139.5,185.1,139.5z"/>
	<circle fill="#231815" cx="242.6" cy="232.8" r="7.5"/>
	<circle fill="#231815" cx="308.8" cy="232.8" r="7.5"/>
	<path fill="#231815" d="M317.2,316.4h-83c-3,0-5.4-2.4-5.4-5.4v-55.8c0-3,2.4-5.4,5.4-5.4h83c3,0,5.4,2.4,5.4,5.4V311
		C322.6,314,320.2,316.4,317.2,316.4z M239.6,305.6h72.2v-45h-72.2V305.6z"/>
	<path fill="#231815" d="M291.3,255.3c0,8.6-7,15.6-15.6,15.6s-15.6-7-15.6-15.6"/>
	<path fill="#231815" d="M275.7,302.6c-3,0-5.4-2.4-5.4-5.4v-31.6c0-3,2.4-5.4,5.4-5.4c3,0,5.4,2.4,5.4,5.4v31.6
		C281.1,300.2,278.7,302.6,275.7,302.6z"/>
	<path fill="#231815" d="M275.7,302.6c-15.1,0-27.4-12.3-27.4-27.4c0-3,2.4-5.4,5.4-5.4c3,0,5.4,2.4,5.4,5.4
		c0,9.2,7.5,16.6,16.6,16.6c9.2,0,16.6-7.5,16.6-16.6c0-3,2.4-5.4,5.4-5.4c3,0,5.4,2.4,5.4,5.4C303.1,290.3,290.8,302.6,275.7,302.6
		z"/>
	<path fill="#231815" d="M275.7,396.6c-27.1,0-49.2-22.1-49.2-49.2c0-9.7,7.9-17.7,17.7-17.7c9.7,0,17.7,7.9,17.7,17.7
		c0,7.6,6.2,13.8,13.8,13.8c7.6,0,13.8-6.2,13.8-13.8c0-9.7,7.9-17.7,17.7-17.7s17.7,7.9,17.7,17.7
		C324.9,374.5,302.8,396.6,275.7,396.6z M244.2,340.5c-3.8,0-6.9,3.1-6.9,6.9c0,21.2,17.2,38.4,38.4,38.4s38.4-17.2,38.4-38.4
		c0-3.8-3.1-6.9-6.9-6.9c-3.8,0-6.9,3.1-6.9,6.9c0,13.6-11,24.6-24.6,24.6c-13.6,0-24.6-11-24.6-24.6
		C251.1,343.6,248,340.5,244.2,340.5z"/>
</g>
</svg>
