<?xml version="1.0" encoding="utf-8"?>
<!-- Generator: Adobe Illustrator 18.0.0, SVG Export Plug-In . SVG Version: 6.00 Build 0)  -->
<!DOCTYPE svg PUBLIC "-//W3C//DTD SVG 1.1//EN" "http://www.w3.org/Graphics/SVG/1.1/DTD/svg11.dtd">
<svg version="1.1" id="圖層_1" xmlns="http://www.w3.org/2000/svg" xmlns:xlink="http://www.w3.org/1999/xlink" x="0px" y="0px"
	 viewBox="0 0 550 550" enable-background="new 0 0 550 550" xml:space="preserve">
<g>
	<path fill="#231815" d="M321.7,421.2h-93.3c-3,0-5.4-2.4-5.4-5.4V255.3c0-28.7,23.4-52.1,52.1-52.1c28.7,0,52.1,23.4,52.1,52.1
		v160.6C327.1,418.8,324.6,421.2,321.7,421.2z M233.7,410.5h82.6V255.3c0-22.8-18.5-41.3-41.3-41.3c-22.8,0-41.3,18.5-41.3,41.3
		V410.5z"/>
	<path fill="#231815" d="M275,214c-3,0-5.4-2.4-5.4-5.4v-90.1c0-3,2.4-5.4,5.4-5.4c3,0,5.4,2.4,5.4,5.4v90.1
		C280.4,211.6,278,214,275,214z"/>
	<path fill="#231815" d="M275,353.3L275,353.3c-2.4,0-4.5-1.5-5.1-3.8l-14.2-46.4c-0.5-1.6-0.2-3.4,0.8-4.8c1-1.4,2.6-2.2,4.3-2.2
		h28.5c1.7,0,3.3,0.8,4.3,2.2c1,1.4,1.3,3.1,0.8,4.8l-14.2,46.4C279.5,351.7,277.4,353.3,275,353.3z M268.1,306.9l6.9,22.6l6.9-22.6
		H268.1z"/>
	<circle fill="#231815" cx="306.3" cy="285.8" r="7.9"/>
	<path fill="#231815" d="M321.7,323.2c-20.6,0-37.4-16.8-37.4-37.4c0-20.6,16.8-37.4,37.4-37.4c3,0,5.4,2.4,5.4,5.4
		c0,3-2.4,5.4-5.4,5.4c-14.7,0-26.7,12-26.7,26.7c0,14.7,12,26.7,26.7,26.7c3,0,5.4,2.4,5.4,5.4S324.6,323.2,321.7,323.2z"/>
	<circle fill="#231815" cx="243.7" cy="285.8" r="7.9"/>
	<path fill="#231815" d="M228.3,323.2c-3,0-5.4-2.4-5.4-5.4s2.4-5.4,5.4-5.4c14.7,0,26.7-12,26.7-26.7c0-14.7-12-26.7-26.7-26.7
		c-3,0-5.4-2.4-5.4-5.4c0-3,2.4-5.4,5.4-5.4c20.6,0,37.4,16.8,37.4,37.4C265.8,306.4,249,323.2,228.3,323.2z"/>
</g>
</svg>
