<?xml version="1.0" encoding="utf-8"?>
<!-- Generator: Adobe Illustrator 19.2.1, SVG Export Plug-In . SVG Version: 6.00 Build 0)  -->
<!DOCTYPE svg PUBLIC "-//W3C//DTD SVG 1.1//EN" "http://www.w3.org/Graphics/SVG/1.1/DTD/svg11.dtd">
<svg version="1.1" id="圖層_1" xmlns="http://www.w3.org/2000/svg" xmlns:xlink="http://www.w3.org/1999/xlink" x="0px" y="0px"
	 viewBox="0 0 550 550" style="enable-background:new 0 0 550 550;" xml:space="preserve">
<style type="text/css">
	.st0{fill:#FFFFFF;stroke:#333333;stroke-width:9.8715;stroke-linecap:round;stroke-linejoin:round;stroke-miterlimit:10;}
	.st1{fill:#FFFFFF;stroke:#333333;stroke-width:9.8715;stroke-miterlimit:10;}
	.st2{fill:#333333;}
	.st3{fill:#FFCD33;stroke:#333333;stroke-width:9.8715;stroke-linecap:round;stroke-linejoin:round;stroke-miterlimit:10;}
</style>
<g>
	<path class="st0" d="M232.8,139.1c-2.8-4-8.4-4.9-12.3-2.1l-7.9,5.6c-17.2-9.9-63.4-7-63.4,8.7c0,11.7,5.8,22.1,14.6,28.4l0,0v24.2
		h40.5v-24.2h0c6.4-4.6,11.1-11.2,13.3-19l13.1-9.3C234.7,148.6,235.6,143,232.8,139.1z"/>
	<rect x="163.8" y="203.9" class="st0" width="40.5" height="238.1"/>
	
		<ellipse transform="matrix(0.2233 -0.9748 0.9748 0.2233 -41.7235 651.1719)" class="st1" cx="387.7" cy="351.8" rx="27.6" ry="19.2"/>
	
		<ellipse transform="matrix(0.9748 -0.2233 0.2233 0.9748 -74.7246 42.5923)" class="st1" cx="151" cy="351.8" rx="19.2" ry="27.6"/>
	<circle class="st1" cx="262.9" cy="346.6" r="111.9"/>
	<g>
		<ellipse class="st2" cx="203.4" cy="355.5" rx="12.2" ry="16.4"/>
		<ellipse class="st2" cx="292.9" cy="355.5" rx="12.2" ry="16.4"/>
	</g>
	<path class="st0" d="M217.2,398.1c5.7,9.7,16.2,16.1,28.2,16.1c11.9,0,22.3-6.3,28-15.8l6.5,6.9"/>
	<path class="st1" d="M339,264.6l5.7-4c4.8-3.4,5.9-10,2.6-14.8l0,0c-3.4-4.8-10-5.9-14.8-2.6l-11.2,7.9c-0.5-0.3-1-0.6-1.5-0.9
		l4.7-13.2c2-5.5-0.9-11.6-6.5-13.5h0c-5.5-2-11.6,0.9-13.5,6.5l-4,11.2c-11.7-4.2-24.4-6.5-37.5-6.5c-53.5,0-98.2,37.5-109.2,87.7
		h218.5C367.1,299.8,355.3,279.7,339,264.6z"/>
	<path class="st0" d="M241.8,322.3v43.8c0,3.2,2.6,5.8,5.8,5.8h9"/>
	<line class="st0" x1="163.8" y1="224" x2="204.3" y2="224"/>
	<path class="st0" d="M153.8,148.9L153.8,148.9c-4.9,0-8.8-4-8.8-8.8v-9.9c0-4.9,4-8.8,8.8-8.8l0,0c4.9,0,8.8,4,8.8,8.8v9.9
		C162.6,145,158.6,148.9,153.8,148.9z"/>
	<path class="st0" d="M171.5,148.9L171.5,148.9c-4.9,0-8.8-4-8.8-8.8v-9.9c0-4.9,4-8.8,8.8-8.8h0c4.9,0,8.8,4,8.8,8.8v9.9
		C180.3,145,176.3,148.9,171.5,148.9z"/>
	<path class="st0" d="M189.1,148.9L189.1,148.9c-4.9,0-8.8-4-8.8-8.8v-9.9c0-4.9,4-8.8,8.8-8.8l0,0c4.9,0,8.8,4,8.8,8.8v9.9
		C198,145,194,148.9,189.1,148.9z"/>
	<path class="st0" d="M206.8,148.9L206.8,148.9c-4.9,0-8.8-4-8.8-8.8v-9.9c0-4.9,4-8.8,8.8-8.8l0,0c4.9,0,8.8,4,8.8,8.8v9.9
		C215.6,145,211.6,148.9,206.8,148.9z"/>
	<g>
		
			<ellipse transform="matrix(0.2977 -0.9546 0.9546 0.2977 68.1153 477.7698)" class="st3" cx="358.8" cy="192.6" rx="13.7" ry="13.7"/>
		<path class="st3" d="M416.8,145.2c6.8-21.8-5.4-44.9-27.1-51.7c-21.8-6.8-44.9,5.4-51.7,27.1c-5.4,17.2,1.1,35.2,14.7,45.4
			l-7,22.5l26.2,8.2l7-22.5C395.9,173.5,411.5,162.3,416.8,145.2z"/>
		<line class="st3" x1="350.3" y1="173.7" x2="376.5" y2="181.9"/>
		
			<ellipse transform="matrix(0.2977 -0.9546 0.9546 0.2977 129.8976 456.4747)" class="st3" cx="375.2" cy="139.9" rx="8.5" ry="8.5"/>
		<line class="st3" x1="367.1" y1="137.4" x2="352.7" y2="166"/>
		<line class="st3" x1="383.4" y1="142.5" x2="378.9" y2="174.1"/>
	</g>
</g>
</svg>
