<?xml version="1.0" encoding="utf-8"?>
<!-- Generator: Adobe Illustrator 19.2.1, SVG Export Plug-In . SVG Version: 6.00 Build 0)  -->
<!DOCTYPE svg PUBLIC "-//W3C//DTD SVG 1.1//EN" "http://www.w3.org/Graphics/SVG/1.1/DTD/svg11.dtd">
<svg version="1.1" id="圖層_1" xmlns="http://www.w3.org/2000/svg" xmlns:xlink="http://www.w3.org/1999/xlink" x="0px" y="0px"
	 viewBox="0 0 550 550" style="enable-background:new 0 0 550 550;" xml:space="preserve">
<style type="text/css">
	.st0{fill:#FFFFFF;stroke:#333333;stroke-width:9.8715;stroke-miterlimit:10;}
	.st1{fill:#FFFFFF;stroke:#000000;stroke-width:9.8715;stroke-miterlimit:10;}
	.st2{fill:#FFCD33;stroke:#333333;stroke-width:9.8715;stroke-linecap:round;stroke-linejoin:round;stroke-miterlimit:10;}
	.st3{fill:#FFFFFF;stroke:#333333;stroke-width:9.8715;stroke-linecap:round;stroke-linejoin:round;stroke-miterlimit:10;}
	.st4{fill:#333333;}
	.st5{fill:none;stroke:#333333;stroke-width:9.8715;stroke-linecap:round;stroke-linejoin:round;stroke-miterlimit:10;}
</style>
<g>
	<path class="st3" d="M265.1,139.1c-2.8-4-8.4-4.9-12.3-2.1l-7.9,5.6c-17.2-9.9-63.4-7-63.4,8.7c0,11.7,5.8,22.1,14.6,28.4l0,0v24.2
		h40.5v-24.2h0c6.4-4.6,11.1-11.2,13.3-19l13.1-9.3C267,148.6,268,143,265.1,139.1z"/>
	<rect x="196.2" y="203.9" class="st3" width="40.5" height="238.1"/>
	<ellipse class="st2" cx="186.5" cy="350.5" rx="25.8" ry="45.7"/>
	<circle class="st0" cx="295.2" cy="346.6" r="111.9"/>
	<g>
		<ellipse class="st4" cx="235.7" cy="355.5" rx="12.2" ry="16.4"/>
		<ellipse class="st4" cx="325.3" cy="355.5" rx="12.2" ry="16.4"/>
	</g>
	<path class="st3" d="M249.6,398.1c5.7,9.7,16.2,16.1,28.2,16.1c11.9,0,22.3-6.3,28-15.8l6.5,6.9"/>
	<path class="st0" d="M371.4,264.6l5.7-4c4.8-3.4,5.9-10,2.6-14.8l0,0c-3.4-4.8-10-5.9-14.8-2.6l-11.2,7.9c-0.5-0.3-1-0.6-1.5-0.9
		l4.7-13.2c2-5.5-0.9-11.6-6.5-13.5l0,0c-5.5-2-11.6,0.9-13.5,6.5l-4,11.2c-11.7-4.2-24.4-6.5-37.5-6.5
		c-53.5,0-98.2,37.5-109.2,87.7h218.5C399.5,299.8,387.7,279.7,371.4,264.6z"/>
	<path class="st3" d="M274.1,322.3v43.8c0,3.2,2.6,5.8,5.8,5.8h9"/>
	<line class="st3" x1="196.2" y1="224" x2="236.7" y2="224"/>
	<ellipse class="st2" cx="420.1" cy="350.5" rx="25.8" ry="45.7"/>
	<path class="st5" d="M420.1,301.2c0-65.4-53-118.4-118.4-118.4s-118.4,53-118.4,118.4"/>
	
		<rect x="161.2" y="134.9" transform="matrix(-1 -1.224647e-16 1.224647e-16 -1 449.7648 298.2672)" class="st2" width="127.5" height="28.4"/>
	<polyline class="st2" points="118.3,149.1 64.6,149.1 127.7,114.3 161.2,134.9 161.2,163.3 127.7,183.9 64.6,149.1 	"/>
	<circle class="st4" cx="119.5" cy="149.1" r="12.7"/>
	<line class="st2" x1="263.4" y1="163.3" x2="263.4" y2="134.9"/>
	<path class="st3" d="M186.2,148.9L186.2,148.9c-4.9,0-8.8-4-8.8-8.8v-9.9c0-4.9,4-8.8,8.8-8.8l0,0c4.9,0,8.8,4,8.8,8.8v9.9
		C195,145,191,148.9,186.2,148.9z"/>
	<path class="st3" d="M203.8,148.9L203.8,148.9c-4.9,0-8.8-4-8.8-8.8v-9.9c0-4.9,4-8.8,8.8-8.8h0c4.9,0,8.8,4,8.8,8.8v9.9
		C212.7,145,208.7,148.9,203.8,148.9z"/>
	<path class="st3" d="M221.5,148.9L221.5,148.9c-4.9,0-8.8-4-8.8-8.8v-9.9c0-4.9,4-8.8,8.8-8.8h0c4.9,0,8.8,4,8.8,8.8v9.9
		C230.3,145,226.3,148.9,221.5,148.9z"/>
	<path class="st3" d="M239.1,148.9L239.1,148.9c-4.9,0-8.8-4-8.8-8.8v-9.9c0-4.9,4-8.8,8.8-8.8l0,0c4.9,0,8.8,4,8.8,8.8v9.9
		C248,145,244,148.9,239.1,148.9z"/>
	
		<ellipse transform="matrix(0.8524 -0.5229 0.5229 0.8524 -63.3944 272.2398)" class="st4" cx="450.5" cy="248.4" rx="16.5" ry="14.1"/>
	<polyline class="st5" points="461.8,244.5 461.8,206.2 485.4,227.6 	"/>
</g>
</svg>
