<?xml version="1.0" encoding="utf-8"?>
<!-- Generator: Adobe Illustrator 17.1.0, SVG Export Plug-In . SVG Version: 6.00 Build 0)  -->
<!DOCTYPE svg PUBLIC "-//W3C//DTD SVG 1.1//EN" "http://www.w3.org/Graphics/SVG/1.1/DTD/svg11.dtd">
<svg version="1.1" id="圖層_1" xmlns="http://www.w3.org/2000/svg" xmlns:xlink="http://www.w3.org/1999/xlink" x="0px" y="0px"
	 viewBox="0 0 407.3 407.3" enable-background="new 0 0 407.3 407.3" xml:space="preserve">
<g>
	<g>
		<g>
			<path d="M194.1,53.6c-1,0.7-1.9,1.4-2.9,2.2c-0.5,0.4-0.8,1.2-1.2,1.8c-0.1,0.3-0.1,0.5-0.1,0.8c1.6-0.5,3.3-1.1,4.8-1.6
				c3.3-1,6.9-1.4,10.3-1.5c7.7-0.3,14.9,1,21.8,4.3c3,1.5,5.8,3.4,8.1,6c0.1,0.1,0.3,0.3,0.3,0.4c-1.5-0.8-3-1.4-4.8-1.4
				c0.1,0.1,0.3,0.3,0.3,0.3c5.5,3,9.9,7.3,13.9,12.1c3.3,3.8,6,8.1,8.5,12.5c2.6,4.7,6,8.4,10.4,11.4c0,0,0.1,0.1,0.3,0.3
				c-0.8,0.8-1.5,1.6-2.5,2.5c-3.2,2.9-6.3,5.8-9.5,8.5c-0.5,0.5-0.7,1-0.5,1.6c1.4,4.3,1.4,8.6-0.5,12.8c-1.6,3.8-4.7,6-8.8,6.7
				c-2.3,0.4-4.5,0.3-6.9-0.1c-0.1,0-0.4,0-0.5,0c-0.1,0.5-0.3,1.2-0.4,1.8c0,0.1,0.1,0.4,0.3,0.5c2.6,1.9,4.7,4.1,6,7
				c0.1,0.1,0.3,0.4,0.4,0.4c5.5,2.2,9.5,6.3,12.6,11.1c3.4,5.2,5.6,11.1,7,17.1c0.4,1.8,0.7,3.4,1.1,5.2c0,0.3,0.3,0.5,0.4,0.5
				c8.8,5.6,14.1,13.6,16.3,23.7c0,0.1,0,0.1,0.1,0.3c0,0,0,0.1,0.1,0.1c1.6-1.2,3.4-2.3,5.1-3.6c5.9-3.7,12.1-6.7,18.9-8.2
				c0.8-0.1,1.8-0.4,2.6-0.4c0.3,0,0.7,0.1,1.1,0.3c3.2,1.6,6,3.8,8.6,6.2c6.3,5.9,11.2,12.8,15.2,20.3c2.7,5.3,4,11.1,3.7,17
				c-0.1,4.7-1.4,9.1-3.8,13c-1.8,2.9-4.5,4.1-8,4c-2.3,0-4.3-1-5.9-2.7c-1.6-1.6-3-3.3-4.1-5.3c-2.1-3.8-4.7-7.1-8.5-9.3
				c-2.1-1.2-4.4-1.9-6.9-1.9c-0.3,0-0.7,0.1-0.8,0.4c-1.5,1.8-2.9,3.6-4.5,5.3c-2.1,2.2-4.4,4-7.4,4.7c-2.1,0.4-4,0.1-5.8-1.1
				c-4.3-3-8.8-5.2-13.6-7.3c-7.5-3.2-15.2-5.5-23.3-6.7c-4-0.7-8.1-1-12.2-1.1c-4.9-0.1-9.9-0.3-14.9-0.1
				c-7.3,0.1-14.4,0.5-21.5,1.5c-6.2,0.8-12.2,2.1-17.8,4.7c-5.2,2.5-10.1,5.6-14.7,9.2c-4.5,3.4-8.5,7.4-12.1,11.8
				c-0.4,0.5-1,1.1-1.2,1.8c-0.3,0.4-0.5,0.4-1,0.3c-4.1-1.4-8.1-3.3-11.8-5.6c-7.8-4.7-14.7-10.6-19.7-18.1
				c-2.9-4.1-5.5-8.5-7-13.4c-0.8-2.9-1.2-5.8-0.7-8.8c0.7-3.3,2.5-5.8,5.2-7.5c0.1-0.1,0.4-0.3,0.5-0.4c0.1-0.1,0.3-0.1,0.7-0.4
				c-1.1-0.1-2.1-0.3-3-0.4c-2.1-0.3-4.1-0.4-6-0.7c-0.3,0-0.7,0-1,0.1c-1.2,0.7-2.5,0.5-3.8,0c-2.3-1.1-4.1-2.9-5.6-4.8
				c-0.3-0.3-0.3-0.8-0.4-1.1c0-0.8,0-1.5,0-2.3c0.3-0.8,0.7-1.6,1.8-1.9c-0.1-0.1-0.1-0.4-0.1-0.5c-1-2.5-0.4-4.5,1.6-6.2
				c0.1-0.1,0.3-0.3,0.3-0.4c-0.1-2.2,0.4-4.1,2.5-5.3c-0.7-1.6-0.4-3.3,0.5-4.7c1-1.5,2.6-1.6,4.4-1.6c1.2-9.2,2.5-18.5,3.8-27.7
				c1.4,0.1,2.6,0.1,3.8,0.3c3,0.3,5.9,0.4,8.9,0.7c3.7,0.3,7.4,0.5,11.1,0.8c3,0.3,5.9,0.4,8.9,0.7c2.9,0.3,5.9,0.4,8.8,0.7
				c0.3,0,0.5-0.1,0.7-0.4c0.7-1,1.2-1.9,1.9-2.9c3.3-4.1,7.7-6.9,12.6-8.9c0.5-0.3,0.7-0.5,0.7-1.1c0-1-0.4-1.5-1.1-2.1
				c-0.4-0.4-0.8-0.8-1.1-1.2c-1.8-2.3-3.2-4.9-3.3-7.8c-0.1-3.3,1.1-6,3.2-8.4c1.2-1.4,2.5-2.5,3.7-3.7c-1.2-2.1-2.5-4.1-3.6-6.2
				c-2.2-4.1-2.7-8.5-1.5-13c1.1-3.8,4-5.8,8-5.6c0.1,0,0.4,0,0.5,0c-0.5-3.8-0.8-7.7-0.1-11.5c1.5-8.5,6.2-14.7,14-18.2
				c0.3-0.1,0.7-0.3,1-0.5c0.1,0,0.3,0,0.4,0c-1.1,1.2-1.8,2.7-2.2,4.4c0.1,0,0.1,0,0.3-0.1c1.8-1.4,3.8-2.3,5.9-3
				c1.5-0.4,2.9-0.8,4.4-1.2C193.7,53.6,193.8,53.6,194.1,53.6z M302.7,225.5c0.7-0.3,1.4-0.1,1.8,0.4c0.4,0.5,0.3,1.4-0.3,1.6
				c-1,0.5-0.8,1.5-1.2,2.3c0.8,0.4,1.5,0.8,2.2,1.2c0.4-1.1,1-2.1,1.1-3c0.1-0.8,0.4-1.2,1.1-1.4c0.7-0.1,1.4,0.3,1.5,0.8
				c0.3,0.7,0,1.4-0.7,1.8c-0.1,0.1-0.4,0.3-0.4,0.4c-0.4,0.8-0.8,1.6-1.2,2.6c0.1,0.1,0.3,0.3,0.4,0.3c2.9,2.5,5.2,5.5,6.9,8.9
				c1.1,2.2,2.7,3.7,4.5,5.3c0.3-0.1,0.4-0.3,0.7-0.4c2.7-2.1,4.1-4.8,4.8-8c0.7-3.3,0.7-6.7,0.3-10c-0.3-1.5-0.4-3.2-1.1-4.7
				c-2.6-6.4-6.4-12.2-11-17.6c-4.4-4.9-9.5-9.2-15.1-12.6c-0.4-0.3-0.8-0.4-1.4-0.1c-1.9,1-4,1.8-5.9,2.7c-1.1,0.5-2.2,1.2-3.4,1.9
				c2.1,0.7,3.8,1.1,5.9,1.2c0.4,0,0.8,0.1,1.1,0.4c1.9,1.5,4,3,5.8,4.8c5.5,5.2,9.5,11.4,11.7,18.5c0.4,1.2,0.5,2.5,0.8,3.7
				c-0.4-0.1-0.7-0.4-1.1-0.5c-0.7-0.4-1.4-1-2.1-1.2c-1.8-0.7-3.6-0.3-5.3,0.4C302.8,225.3,302.7,225.4,302.7,225.5
				c-0.3,0-0.5,0-0.7,0.1c-1.2,0.8-2.5,1.6-3.7,2.6c-0.1,0.1-0.1,0.3-0.3,0.3c1.1,0.3,2.2,0.4,3.3,0.7c0.1-1,0.3-1.8,0.5-2.7
				C302,226.2,302.4,225.8,302.7,225.5z M227.8,119.8c0.8-1.1,1.5-2.1,2.5-3c2.9-3,6.2-4.9,10.6-4.3c1.9,0.3,3.6,1.1,5.2,2.2
				c0.5,0.3,0.7,0.8,0.3,1.4s-0.8,0.5-1.4,0.1c-0.3-0.1-0.5-0.4-0.8-0.5c-1.8-1.1-3.7-1.6-5.8-1.5c-4.4,0.5-6.9,3.4-9.1,6.7
				c0,0.1,0.1,0.1,0.1,0.1c0.1,0.1,0.4,0.4,0.5,0.5c2.5,2.5,4.1,5.3,4.5,8.9c0,0.1,0.3,0.4,0.5,0.4c1.6,0.1,3.3,0.4,4.8,0.4
				c2.9-0.1,5.6-1,7.5-3.3c2.2-2.6,2.7-5.6,2.9-8.8c0-2.3-0.5-4.7-1.4-6.9c-0.3-0.8-0.8-1.6-1.4-2.1c-3.6-2.9-7.7-4.3-12.2-3.4
				c-4.9,0.8-9.1,3.2-12.5,6.9c-0.1,0.1-0.3,0.3-0.3,0.3c-0.4-2.5-0.7-4.9-1.2-7.4c-1.1-5.2-3.7-9.6-8.1-12.6
				c-4.7-3.3-9.7-4.7-15.5-3.3c-3.3,0.8-6.2,2.3-8.5,5.1c-0.3-1.2-0.4-2.3-0.7-3.6c-0.5-2.2-1.9-3.7-4.3-4.3
				c-3.4-0.8-6.7-0.3-9.9,1.2c-0.7,0.4-1.2,0.8-1.5,1.5c-0.7,1.8-1.4,3.4-1.9,5.2c-1.1,4.1-1.5,8.4-1.8,12.5c0,0.5-0.1,0.8-0.5,1.1
				c-1.6,1.2-3.3,2.5-4.7,4.1c-1.8,2.2-2.9,4.7-2.5,7.5c0.3,2.5,1.5,4.5,3,6.4c2.5,2.9,5.5,4.8,8.8,6.4c1.5,0.8,3.2,1.5,4.8,2.2
				c0.1-2.3,0.1-4.5,0.4-6.7c0.3-2.2,1.1-4.3,2.6-6c-1.6-1-2.6-2.5-3.3-4.1c-0.3-0.7,0-1.1,0.4-1.4c0.5-0.1,1,0.1,1.2,0.7
				c0.4,0.8,0.8,1.6,1.4,2.3c1,1.1,2.1,1.5,3.6,1.1c0.7-0.3,1.5-0.5,2.2-0.8c0.5-0.3,1-0.1,1.4,0.4c0.3,0.5,0.1,1-0.4,1.2
				c-1.2,0.7-2.5,1.2-3.8,1.2c-0.5,0-0.8,0.1-1.1,0.5c-1.8,2.3-2.5,4.9-2.5,7.8c0,1.4,0,2.9,0,4.3c7.7,2.9,24.3,1.5,30.6-2.5
				c-0.1-1-0.4-1.8-0.4-2.7c0-0.7,0.7-1.2,1.2-0.8c0.3,0.1,0.4,0.5,0.5,1c0.4,1.8,1,3.6,2.7,4.4c0.5,0.3,0.8,0.7,0.7,1.2
				c-0.1,0.5-0.8,0.8-1.4,0.4c-0.7-0.4-1.4-0.8-1.9-1.4c-0.4-0.4-0.7-0.4-1.1-0.3c-7.8,3.2-16,4.7-24.5,3.7c-6.9-0.7-13-3-18.7-7
				c-0.1-0.1-0.4-0.3-0.5-0.4c0,0.5,0.3,1.1,0.4,1.5c1.4,2.9,3.7,4.9,6.4,6.6c4.7,2.9,9.9,4.3,15.2,5.2c4.7,0.8,9.3,1.2,14,1.4
				c4.7,0.1,9.5,0.3,14.1-0.8c4-1,7.7-2.3,10.7-4.9c2.9-2.5,4.5-5.6,4.8-9.5c0.1-4.5-2.1-7.8-5.6-10.3c-2.7-1.9-6.2-2.3-9.5-2.1
				c-2.3,0.3-4.4,1-6.4,2.1c-0.5,0.3-1.1,0.3-1.4-0.3c-0.3-0.4-0.1-1,0.4-1.4c3.6-2.1,7.4-2.9,11.5-2.3
				C223.8,118.1,225.9,118.8,227.8,119.8z M173.9,189c2.2-13.3,4.4-26.6,6.6-39.9c-23.9-1.8-47.6-3.4-71.3-5.2
				c0,0.1-0.1,0.3-0.1,0.4c-0.7,5.1-1.4,10.1-2.1,15.4c-0.8,6.3-1.6,12.6-2.6,18.8c0,0.4,0,0.7,0.4,0.8c0.7,0.4,1.2,0.8,1.9,1.1
				c1.9,1.1,2.2,4.1,0.4,5.5c-0.4,0.3-0.5,0.5-0.4,1.1c0.4,1.8,0.4,3.4-1.2,4.7c-0.1,0.1-0.1,0.4-0.1,0.4c0.5,1.5,0.7,3-0.1,4.4
				c0.1,0,0.1,0,0.3,0.1c5.8,0.7,11.4,1.2,17.1,1.9c6.9,0.7,13.9,1.5,20.7,2.2c5.9,0.7,11.8,1.4,17.7,1.9c0.3,0,0.5-0.1,0.7-0.3
				c2.3-1.8,4.7-3.4,7-5.2c0.1-0.1,0.3-0.5,0.3-0.8c0-0.8-0.1-1.6-0.1-2.3c0-2.5,1.4-4.3,3.4-4.8C172.8,189.3,173.4,189.2,173.9,189
				z M174.3,196.3c0.3-0.5,0.4-0.8,0.5-1.2c0.4-0.8,0.7-1.8,0.4-2.7c-0.1-0.8-0.7-1.5-1.2-1.5c-1.8,0-3.3,0.7-3.4,2.7
				c-0.1,1.1,0.1,2.3,0.3,3.4c0.1,0.5,0,0.7-0.4,1c-2.7,2.1-5.6,4.3-8.4,6.3c-0.1,0.1-0.4,0.3-0.7,0.3c-1.5-0.1-2.9-0.3-4.4-0.5
				c-1-0.1-1.9-0.1-3.2-0.3c0.4,0.4,0.7,0.8,1,1.1c3.2,3.6,7.3,4.9,11.8,5.1c5.8,0.1,11.1-1.5,16.3-3.8c0.4-0.1,1-0.3,1.5-0.3
				c2.2,0.1,4.4,0.4,6.6,0.5c3.4,0.1,6.9-0.3,10.3-1c5.8-1.2,11.1-3.4,15.9-7.1c0.1-0.1,0.4-0.3,0.7-0.3c2.2-0.7,4.4-1.1,6.4-1.9
				c7.3-2.7,13.2-7.3,17.4-13.9c0.3-0.4,0.4-0.8,0.7-1.2c0.5,0.3,1.1,0.5,1.8,0.8c-1.5,2.1-2.9,4.1-4.4,6.2c1.2,0,2.3-0.1,3.4-0.3
				c7-0.8,12.2-4.4,16-10.1c0.1-0.3,0.3-0.8,0.3-1.1c-0.5-2.9-1.1-5.6-1.9-8.5c-1.9-6.7-4.8-13-9.7-18.2c-2.2-2.3-4.7-4.3-7.7-5.5
				c-0.7-0.3-1.2-0.4-1.9,0c-2.2,1.4-4.5,2.5-6.6,4c-4.5,3.3-7.7,7.5-8.8,13.2c-0.4,1.9-0.4,3.7-0.1,5.8c1-0.7,1.8-1.2,2.7-1.8
				c0.4,0.5,0.7,1.1,1,1.5c-1.2,1-2.5,1.8-3.7,2.6c-6,4.5-11.2,9.6-15.4,15.9c-0.1,0.3-0.5,0.4-0.7,0.4c-1.5,0.1-3,0.3-4.5,0.5
				c-4.5,0.7-8.8,1.8-12.9,3.8c-2.9,1.5-5.5,3.2-7.3,5.9c-0.1,0.1-0.4,0.3-0.5,0.3c-1.1,0-2.2,0-3.3,0
				C177.1,196.3,175.7,196.3,174.3,196.3z M133.7,213.2c-0.3-0.3-0.4-0.3-0.5-0.4c-2.1-1.5-4.1-3-6-4.7c-1.6-1.4-3-3-4.5-4.4
				c-1.9-1.6-4-2.9-6.6-3.3c-1-0.1-1.1,0-1.1,1c0.1,1.8,0.3,3.6,0.5,5.3c1.4,8.4,5.1,15.6,11,21.8c2.7,2.7,5.8,5.1,8.9,7.3
				c4.8,3.4,9.7,6.6,15.1,9.2c0.4,0.1,0.7,0.1,1.1-0.1c1.6-1.6,3.4-3.2,5.1-4.7c0.3-0.3,0.4-0.5,0.3-1c-0.1-0.3-0.3-0.5-0.4-0.8
				c-1.1-1.8-2.9-2.6-4.9-2.9c-2.3-0.3-4.7-0.7-6.9-1.6c-4.8-2.2-8.1-5.8-10.6-10.3c-1-1.8-1.8-3.6-2.2-5.6c0.3,0,0.5,0.1,0.8,0.1
				c1.9,0.4,3.8,0.7,5.8,1.1c1,0.1,1.9,0,2.7-0.4c0.7-0.4,1-1,1-1.8c0-0.1-0.1-0.4-0.3-0.4c-0.7-0.1-1.2-0.3-2.1-0.4
				c0,0.4-0.1,0.7-0.1,1c0,0.7-0.1,1.2-0.8,1.5c-0.5,0.3-1.1,0.1-1.5-0.4c-0.4-0.5-0.3-1.1,0.1-1.6c0.3-0.3,0.4-0.5,0.7-1
				c-1.1-0.4-1.9-1-3-1.4c-0.3,0.8-0.5,1.5-0.7,2.2c-0.1,0.5-0.4,1-1,1c-0.5,0.1-1.1-0.1-1.4-0.7c-0.3-0.5-0.1-1.1,0.3-1.5
				C132.6,214.4,133.2,213.9,133.7,213.2z M182.4,149.4c-0.1,0.8-0.3,1.5-0.4,2.2c-1,6-2.1,12.1-3,18.2c-1.1,6.4-2.2,12.9-3.2,19.3
				c0,0.3,0.1,0.7,0.3,1c0.3,0.8,0.8,1.5,1.1,2.3c0.1,0.7,0,1.4,0,2.3c1.2,0,2.5,0,3.7,0c0.1,0,0.3-0.1,0.4-0.3
				c1.9-2.5,4.5-4.3,7.4-5.6c0.4-0.1,0.5-0.4,0.5-0.8c0.4-2.9,0.8-5.6,1.2-8.5c0.5-4.1,1.2-8.2,1.8-12.3c0.5-4.3,1.2-8.4,1.8-12.6
				c0.1-1.4,0.4-2.7,0.5-4.1C190.5,150,186.5,149.7,182.4,149.4z M207.8,75.5c0-0.7,0.1-1.6,0-2.5c-0.4-2.6-2.6-4.5-5.2-4.5
				s-4.8,1.9-5.3,4.5c-0.4,2.5,1.2,5.2,3.6,5.9c4,1.2,7.8,2.7,11.5,4.7c5.9,2.9,11.4,6.4,15.9,11.2c2.1,2.3,4,4.7,5.2,7.5
				c0.7,1.6,2.1,2.3,3.6,1.8c1.2-0.5,2.2-2.1,1.5-3.8c-1-2.2-2.1-4.1-3.6-6c-4.4-5.8-9.9-10.1-16.2-13.6
				C215.2,79.1,211.4,77.4,207.8,75.5z M121.3,200.4c1.4,1.2,2.9,2.3,4.1,3.6c2.3,2.5,4.9,4.8,7.8,6.7c2.7,1.8,5.6,3.4,8.9,3.8
				c0.3,0,0.8,0,1.1-0.3c0.7-0.4,1.2-1,1.8-1.5c2.6-2.2,5.1-4.5,7-7.3c0.5-1,0.1-1.8-1-1.9c-2.1-0.1-4.1-0.4-6-0.7
				c-3.3-0.4-6.7-0.7-10-1.1c-2.9-0.3-5.9-0.7-8.8-1C124.6,200.7,122.9,200.6,121.3,200.4z M149.8,246.5c-5.2-2.5-9.9-5.5-14.5-8.8
				c-3.7-2.6-7.4-5.2-10.6-8.5c-6.4-6.9-10.1-14.9-11.4-24.3c-0.1-1-0.1-1.8-0.3-2.7h-0.1c-0.4,0.5-1,1-1.2,1.6
				c-1.1,1.9-1.4,4-1,6.2c0.8,4.3,2.2,8.4,4.3,12.2c3.3,6.2,7.7,11.4,13.4,15.5c3.6,2.5,7.1,4.8,10.8,7.1c2.5,1.5,5.1,2.9,7.7,4.3
				c0.1,0.1,0.5,0.1,0.7,0C148.4,248.2,149.1,247.3,149.8,246.5z M298.6,192.2c0.3,0.3,0.5,0.4,0.7,0.4c9.9,6.4,17.7,14.8,23.2,25.2
				c1.1,1.9,2.2,4,2.7,6.2c1.2,4.1,1.5,8.4,1,12.6c-0.4,3-1.4,5.9-3.2,8.4c-0.5,0.7-1.1,1.2-1.8,1.9c2.3-0.7,4-1.8,5.3-3.6
				c2.3-2.7,3-6,3-9.5c0-7-2.1-13.4-5.2-19.7c-2.9-5.6-6.7-10.6-11.2-14.8c-3.2-3-6.7-5.8-10.6-8.1c-0.3-0.1-0.5-0.3-0.8-0.3
				C300.8,191.7,299.8,191.9,298.6,192.2z M196.8,148.6c0,0.3-0.1,0.5-0.1,0.8c-0.4,2.5-0.7,4.9-1.1,7.5c-0.3,1.8-0.3,1.8,1.4,2.3
				c5.6,2.1,10.4,1,14.4-3.4c1.9-2.1,3.3-4.4,4.4-6.9c0.1-0.1,0.1-0.3,0.1-0.5C209.6,149.4,203.3,149,196.8,148.6z M183.1,75.5
				c0,0-0.3,0.1-0.5,0.3c-3.4,1.8-7,3.6-10.4,5.3c-1.4,0.8-1.8,2.5-1,3.7c0.8,1.4,2.3,1.8,3.7,1c0.5-0.3,1.1-0.7,1.6-1
				c4.3-2.3,8.4-4.5,13-6c0.7-0.3,1.4-0.5,1.9-1c1.9-1.5,2.6-4,1.8-6.2c-0.8-2.2-3-3.6-5.5-3.3c-2.2,0.1-4.3,1.9-4.7,4.3
				C183,73.4,183.1,74.4,183.1,75.5z M165.6,134.5c-5.5,1.8-13,7.7-13.9,10.8c1.5,0.1,3.2,0.3,4.7,0.4c3.8,0.3,7.5,0.5,11.4,0.8
				c0.4,0,0.7-0.1,0.7-0.5c0-0.1,0.1-0.4,0.1-0.5c0.7-1.6,1.2-3.2,1.8-4.4c-1-1.1-1.8-2.1-2.6-3.2
				C166.9,136.8,166.2,135.7,165.6,134.5z M170,92.4c0.4-1,1-1.9,1.4-3c0.1-0.1,0-0.4-0.1-0.7c-0.3-0.7-0.8-1.4-1-2.1
				c-0.1-1-0.7-1.1-1.5-1.1c-3-0.1-5.2,1.6-5.9,4.9c-0.8,3.3-0.4,6.4,0.8,9.6c1,2.2,2.1,4.4,3.6,6.4c0-0.3,0.1-0.4,0.1-0.5
				c0.3-3.7,0.8-7.3,1.8-10.8c0-0.3,0-0.7-0.3-0.8c-1.1-1.4-2.3-2.3-4-2.9c-0.5-0.1-0.8-0.5-0.7-1.1c0.1-0.5,0.5-0.7,1.1-0.7
				c0.3,0,0.5,0.1,0.8,0.3C167.6,90.7,168.7,91.5,170,92.4z M99.6,177.4c-0.3,0.4-0.7,0.8-1,1.4c-0.7,1.2-0.7,4.4,1.1,5.5
				s3.6,1.4,5.6,0.5c0.5-0.1,1.1-0.5,1.1-1.2s-0.1-1.2-0.8-1.6C103.4,180.8,101.5,179.4,99.6,177.4z M95.3,189.7
				c-0.1,0.3-0.1,0.4-0.3,0.5c-0.5,0.8-0.5,1.9,0,2.6c1.2,1.6,2.7,3.2,4.8,4c0.4,0.1,0.8,0.3,1.2,0.3c1.8-0.4,3.4-1.5,2.5-4
				c-0.1-0.4-0.3-0.7-0.8-0.5C99.9,192.9,97.3,192.1,95.3,189.7z M96.7,183.6c-0.3,0.4-0.4,0.8-0.5,1.2c-0.7,1.9,0.4,4.3,2.5,5.2
				c1.4,0.7,2.7,0.8,4.1,0.7c1.8-0.1,2.5-1,2.2-2.7c0-0.3-0.1-0.5-0.1-0.8C99.3,186.7,98.9,186.6,96.7,183.6z M241,193.8
				c-0.1,1.2-0.3,2.5-0.4,3.7c2.3,0,4.5,0,6.7,0c-0.1-1.1-0.1-2.2-0.3-3.3C245,194.1,242.9,194,241,193.8z M258.3,192.8
				c-0.4-0.5-1-1.1-1.4-1.6c-1.6,0.8-3.3,1.5-5.1,2.2c0.5,1.1,1.1,2.1,1.6,3C255.1,195.1,256.6,194,258.3,192.8z M193,148.3
				c-4.5-0.7-9.1-1.6-13.6-3.2c-0.3,0.7-0.5,1.4-0.7,2.1C183.7,147.6,188.3,147.9,193,148.3z M103.4,171.6c-1.6-0.3-2.6,0.3-2.9,1.8
				c-0.4,1.5,0.5,3.4,2.2,4.1C102.9,175.6,103.2,173.7,103.4,171.6z M230.8,195.5c1.2,0.4,2.5,1,3.7,1.4c0.7-1.5,1.5-3.2,2.3-4.8
				c-0.4,0-0.8-0.1-1.1,0C234.1,193.2,232.5,194.3,230.8,195.5z M264.4,185.2c-1.1,0.8-2.1,1.5-3.2,2.3c0.4,0.4,0.8,0.7,1.2,1.1
				c1-1,1.9-1.8,2.9-2.7C265,185.8,264.7,185.5,264.4,185.2z"/>
			<path d="M198.8,103.5c-1.4-1.6-3.7-1.5-4.9,0.3c-0.8,1.1-1.1,2.5-1.1,3.8c0,0.8,0.1,1.6,0.1,2.5c0,0.3-0.1,0.7-0.4,1
				c-0.4,0.4-1.2,0.1-1.4-0.5c-0.4-2.5-0.4-4.9,1-7.3c1.1-1.9,3.2-3,4.9-2.7c2.3,0.4,4.3,1.9,4.7,4.3c0.4,2.3,0.4,4.5,0.5,6.9
				c0,1-1,1.6-2.2,1.8c-3.7,0.4-5.1-1.8-5.1-4.7c0-1,0.1-2.1,0.3-3c0.3-1.4,1.4-1.9,2.6-2.3C198.1,103.5,198.5,103.5,198.8,103.5z
				 M199.4,108.3c0.8,0,1.5-0.5,1.5-1.4c0-0.8-0.7-1.4-1.5-1.4s-1.4,0.5-1.4,1.4C198.1,107.6,198.6,108.3,199.4,108.3z"/>
			<path d="M177.8,101c-1.2-0.8-2.5-0.5-3.4,0.7c-0.8,1.1-1.1,2.3-1.2,3.7c-0.1,0.5-0.1,1.2-0.1,1.8c0,0.5-0.3,1-1,1
				c-0.7,0-1-0.4-1-1c0.1-1.9,0.4-3.8,1.2-5.6c0.7-1.4,1.6-2.5,3.2-2.7c1.8-0.4,4,0.7,4.9,2.6c1,1.6,1.1,3.6,1,5.5
				c0,0.8-0.1,1.8-0.4,2.6c-0.3,1.4-1.2,1.9-2.6,1.6c-1.8-0.4-3.2-1.5-3.7-3.4c-0.5-2.1-0.3-3.7,1.2-5.2
				C176.7,101.8,177.2,101.4,177.8,101z M177.2,104.7c0,0.8,0.7,1.5,1.5,1.5s1.5-0.7,1.5-1.5c0-0.8-0.8-1.5-1.5-1.5
				C177.9,103.2,177.2,103.9,177.2,104.7z"/>
			<path d="M181.2,91.4c-0.8,0.3-1.6,0.5-2.5,0.8c-0.7,0.3-1.2,0.1-1.5-0.4c-0.3-0.5,0-1,0.5-1.2c2.6-1.4,5.6-1.1,7.7,0.7
				c0.3,0.3,0.4,0.4,0.7,0.7c0.4,0.4,0.4,1,0,1.4s-1,0.4-1.4-0.1C183.8,92.1,182.7,91.5,181.2,91.4z"/>
			<path d="M201.9,94.3c-0.8,0.4-1.6,0.7-2.3,1c-0.7,0.3-1.2,0.4-1.5,0c-0.4-0.4-0.3-1.1,0.4-1.5c2.6-1.8,5.9-1.5,8.2,1.2
				c0.4,0.4,0.3,0.8,0,1.2c-0.4,0.4-0.8,0.4-1.2,0c-0.4-0.3-0.7-0.7-1.1-1C203.6,95,202.9,94.7,201.9,94.3z"/>
			<path d="M125.5,173.1c-2.2-0.1-4.3-0.3-6.3-0.4c-0.3,0-0.7,0.3-0.8,0.4c-1.4,1.9-2.6,3.8-3.8,5.9c-0.3,0.4-0.5,0.5-1.1,0.5
				c-2.2-0.1-4.4-0.3-6.6-0.5c0.7-1.2,1.4-2.2,1.9-3.3c3-5.2,6-10.4,9.2-15.6c0.3-0.4,0.4-0.7,1-0.5c2.3,0.4,4.7,0.8,7,1.2
				c0.1,0,0.3,0.1,0.4,0.1c-1,1.5-1.8,3-2.7,4.7c1.6,0.1,3,0.1,4.5,0.4c1.6,0.4,2.6-0.3,3.4-1.5c0.8-1.2,1.8-2.2,2.6-3.3
				c0.1-0.3,0.5-0.4,0.8-0.4c7.4,0.7,14.7,1.2,22.1,1.9c5.9,0.5,11.8,1.1,17.7,1.6c0.1,0,0.4,0,0.7,0.1c-3.3,1.2-5.8,3.4-7.7,6
				c-0.1,0.1-0.4,0.3-0.7,0.3c-1.8-0.1-3.7-0.3-5.5-0.5c-0.7-0.1-1,0.1-1.2,0.7c-2.1,4.3-4.1,8.5-6.2,12.8c-0.3,0.4-0.4,0.5-1,0.5
				c-2.9-0.4-5.6-0.7-8.6-1.1c2.5-4.5,4.9-8.9,7.4-13.6c-1.5-0.1-3-0.3-4.4-0.4c-3.2-0.3-6.3-0.7-9.5-1c-0.5,0-0.8,0-1.1,0.5
				c-1.4,2.1-2.7,4-4.1,6c3.8,0.4,7.4,0.8,11.2,1.2c-0.1,0.3-0.3,0.4-0.4,0.7c-1.5,1.9-2.9,3.8-4.4,5.8c-0.1,0.3-0.5,0.4-0.8,0.4
				c-4.4-0.4-8.8-0.8-13.2-1.4c-0.7-0.1-1.5-0.4-2.2-0.8c-1-0.5-1.1-1.6-0.5-2.6c1-1.5,1.8-2.9,2.7-4.3
				C125.4,173.4,125.4,173.3,125.5,173.1z"/>
		</g>
		<g>
			<path d="M251,283.4c28.3,0,56.1,0,83.9,0c0,0.3,0.1,0.4,0.1,0.7c-1.6,0.4-3.3,0.7-4.9,1.2c-4.7,1.5-9.5,2.7-14.1,4.5
				c-11.2,4.4-18.5,12.5-23.2,23.7c-5.3,13-11.4,25.6-16.9,38.5c-1,2.3-2.2,3-4.7,3c-4.9-0.1-10,0-15.6,0c0.5-1.4,0.8-2.5,1.2-3.4
				c6.3-14.7,12.8-29.2,19.1-43.9c2.7-6.4,1.2-11.7-4.4-15.8c-5.6-4-12.1-5.9-18.7-7.4c-0.4-0.1-1-0.1-1.4-0.3
				C251.4,284.2,251.4,284,251,283.4z"/>
			<path d="M132.2,313.6c3-9.2,6.2-18.4,9.2-27.4c0.7-2.1,0.4-3.2-2.2-3c-4.5,0.1-8.9,0-13.4-0.1c-2.6-0.1-3.8,1-4.7,3.4
				c-4.7,14.3-9.5,28.4-14.1,42.7c-2.6,7.7-5.1,15.2-7.7,22.9l31.4-33.9C131.6,316,131.8,314.8,132.2,313.6z"/>
			<path d="M184.9,283.1c-6.4,0-12.5,0-18.4,0.1c-0.5,0-1.5,1.1-1.8,1.8c-1.6,4.7-3.2,9.3-4.9,14L159,301
				c14.9-8.1,23.3-9.2,23.3-9.2C183.3,288.8,183.9,286.1,184.9,283.1z"/>
			<path d="M262,325c-0.1,0.1-0.4,0.1-0.5,0.3c-0.4,0.5-0.8,1-1.2,1.5c-9.2,10.7-20.6,15.5-34.7,13.4c-15.8-2.3-25.1-17-20.4-32
				c3-9.7,9.7-16.3,19.1-20.4c2.6-1.1,5.3-1.9,8.5-3c-14.1-0.8-25.2,5.5-26.2,6c-7.5,4.5-13.4,10.4-17.3,18.4
				c-8.9,18.2-0.7,37.4,18,43.5c17.8,5.8,38.7-1.5,49.6-16.7c2.3-3.3,4-7,6-10.6C262.5,325.2,262.2,325.1,262,325z"/>
			<path d="M153.1,319.3c-0.1,0.5-0.3,1.2-0.4,1.8c-3.6,10.6-7,21.1-10.6,31.5c-0.7,2.1,0,2.6,1.8,2.6c4.9,0,9.9-0.1,14.8,0
				c1.9,0,2.6-0.8,3.2-2.5c5.2-15.9,17.1-50.9,18.1-52.1C168.9,306.3,160.9,312.2,153.1,319.3z"/>
		</g>
	</g>
</g>
</svg>
